G04 #@! TF.GenerationSoftware,KiCad,Pcbnew,(5.1.2)-1*
G04 #@! TF.CreationDate,2019-12-23T21:44:58-05:00*
G04 #@! TF.ProjectId,C64CPLA,43363443-504c-4412-9e6b-696361645f70,rev?*
G04 #@! TF.SameCoordinates,Original*
G04 #@! TF.FileFunction,Legend,Bot*
G04 #@! TF.FilePolarity,Positive*
%FSLAX46Y46*%
G04 Gerber Fmt 4.6, Leading zero omitted, Abs format (unit mm)*
G04 Created by KiCad (PCBNEW (5.1.2)-1) date 2019-12-23 21:44:58*
%MOMM*%
%LPD*%
G04 APERTURE LIST*
%ADD10C,0.300000*%
%ADD11C,0.750000*%
%ADD12C,0.150000*%
%ADD13C,0.120000*%
G04 APERTURE END LIST*
D10*
X108806142Y-86781714D02*
X108877571Y-86638857D01*
X108877571Y-86353142D01*
X108806142Y-86210285D01*
X108663285Y-86138857D01*
X108091857Y-86138857D01*
X107949000Y-86210285D01*
X107877571Y-86353142D01*
X107877571Y-86638857D01*
X107949000Y-86781714D01*
X108091857Y-86853142D01*
X108234714Y-86853142D01*
X108377571Y-86138857D01*
X107877571Y-87281714D02*
X107877571Y-87853142D01*
X107377571Y-87496000D02*
X108663285Y-87496000D01*
X108806142Y-87567428D01*
X108877571Y-87710285D01*
X108877571Y-87853142D01*
X108806142Y-88281714D02*
X108877571Y-88424571D01*
X108877571Y-88710285D01*
X108806142Y-88853142D01*
X108663285Y-88924571D01*
X108591857Y-88924571D01*
X108449000Y-88853142D01*
X108377571Y-88710285D01*
X108377571Y-88496000D01*
X108306142Y-88353142D01*
X108163285Y-88281714D01*
X108091857Y-88281714D01*
X107949000Y-88353142D01*
X107877571Y-88496000D01*
X107877571Y-88710285D01*
X107949000Y-88853142D01*
X107877571Y-89424571D02*
X108877571Y-89781714D01*
X107877571Y-90138857D02*
X108877571Y-89781714D01*
X109234714Y-89638857D01*
X109306142Y-89567428D01*
X109377571Y-89424571D01*
X108734714Y-90710285D02*
X108806142Y-90781714D01*
X108877571Y-90710285D01*
X108806142Y-90638857D01*
X108734714Y-90710285D01*
X108877571Y-90710285D01*
X108806142Y-92067428D02*
X108877571Y-91924571D01*
X108877571Y-91638857D01*
X108806142Y-91496000D01*
X108734714Y-91424571D01*
X108591857Y-91353142D01*
X108163285Y-91353142D01*
X108020428Y-91424571D01*
X107949000Y-91496000D01*
X107877571Y-91638857D01*
X107877571Y-91924571D01*
X107949000Y-92067428D01*
X108877571Y-92924571D02*
X108806142Y-92781714D01*
X108734714Y-92710285D01*
X108591857Y-92638857D01*
X108163285Y-92638857D01*
X108020428Y-92710285D01*
X107949000Y-92781714D01*
X107877571Y-92924571D01*
X107877571Y-93138857D01*
X107949000Y-93281714D01*
X108020428Y-93353142D01*
X108163285Y-93424571D01*
X108591857Y-93424571D01*
X108734714Y-93353142D01*
X108806142Y-93281714D01*
X108877571Y-93138857D01*
X108877571Y-92924571D01*
X108877571Y-94067428D02*
X107877571Y-94067428D01*
X108020428Y-94067428D02*
X107949000Y-94138857D01*
X107877571Y-94281714D01*
X107877571Y-94496000D01*
X107949000Y-94638857D01*
X108091857Y-94710285D01*
X108877571Y-94710285D01*
X108091857Y-94710285D02*
X107949000Y-94781714D01*
X107877571Y-94924571D01*
X107877571Y-95138857D01*
X107949000Y-95281714D01*
X108091857Y-95353142D01*
X108877571Y-95353142D01*
X107306142Y-97138857D02*
X109234714Y-95853142D01*
X108806142Y-97567428D02*
X108877571Y-97710285D01*
X108877571Y-97996000D01*
X108806142Y-98138857D01*
X108663285Y-98210285D01*
X108591857Y-98210285D01*
X108449000Y-98138857D01*
X108377571Y-97996000D01*
X108377571Y-97781714D01*
X108306142Y-97638857D01*
X108163285Y-97567428D01*
X108091857Y-97567428D01*
X107949000Y-97638857D01*
X107877571Y-97781714D01*
X107877571Y-97996000D01*
X107949000Y-98138857D01*
X108877571Y-98853142D02*
X107377571Y-98853142D01*
X108877571Y-99496000D02*
X108091857Y-99496000D01*
X107949000Y-99424571D01*
X107877571Y-99281714D01*
X107877571Y-99067428D01*
X107949000Y-98924571D01*
X108020428Y-98853142D01*
X108877571Y-100424571D02*
X108806142Y-100281714D01*
X108734714Y-100210285D01*
X108591857Y-100138857D01*
X108163285Y-100138857D01*
X108020428Y-100210285D01*
X107949000Y-100281714D01*
X107877571Y-100424571D01*
X107877571Y-100638857D01*
X107949000Y-100781714D01*
X108020428Y-100853142D01*
X108163285Y-100924571D01*
X108591857Y-100924571D01*
X108734714Y-100853142D01*
X108806142Y-100781714D01*
X108877571Y-100638857D01*
X108877571Y-100424571D01*
X107877571Y-101567428D02*
X109377571Y-101567428D01*
X107949000Y-101567428D02*
X107877571Y-101710285D01*
X107877571Y-101996000D01*
X107949000Y-102138857D01*
X108020428Y-102210285D01*
X108163285Y-102281714D01*
X108591857Y-102281714D01*
X108734714Y-102210285D01*
X108806142Y-102138857D01*
X108877571Y-101996000D01*
X108877571Y-101710285D01*
X108806142Y-101567428D01*
X107306142Y-103996000D02*
X109234714Y-102710285D01*
X109927571Y-83531714D02*
X110999000Y-83531714D01*
X111213285Y-83460285D01*
X111356142Y-83317428D01*
X111427571Y-83103142D01*
X111427571Y-82960285D01*
X111427571Y-84888857D02*
X110641857Y-84888857D01*
X110499000Y-84817428D01*
X110427571Y-84674571D01*
X110427571Y-84388857D01*
X110499000Y-84246000D01*
X111356142Y-84888857D02*
X111427571Y-84746000D01*
X111427571Y-84388857D01*
X111356142Y-84246000D01*
X111213285Y-84174571D01*
X111070428Y-84174571D01*
X110927571Y-84246000D01*
X110856142Y-84388857D01*
X110856142Y-84746000D01*
X110784714Y-84888857D01*
X110427571Y-85460285D02*
X111427571Y-85817428D01*
X110427571Y-86174571D02*
X111427571Y-85817428D01*
X111784714Y-85674571D01*
X111856142Y-85603142D01*
X111927571Y-85460285D01*
X111356142Y-86674571D02*
X111427571Y-86817428D01*
X111427571Y-87103142D01*
X111356142Y-87246000D01*
X111213285Y-87317428D01*
X111141857Y-87317428D01*
X110999000Y-87246000D01*
X110927571Y-87103142D01*
X110927571Y-86888857D01*
X110856142Y-86746000D01*
X110713285Y-86674571D01*
X110641857Y-86674571D01*
X110499000Y-86746000D01*
X110427571Y-86888857D01*
X110427571Y-87103142D01*
X110499000Y-87246000D01*
X110427571Y-87746000D02*
X110427571Y-88317428D01*
X109927571Y-87960285D02*
X111213285Y-87960285D01*
X111356142Y-88031714D01*
X111427571Y-88174571D01*
X111427571Y-88317428D01*
X111427571Y-89031714D02*
X111356142Y-88888857D01*
X111284714Y-88817428D01*
X111141857Y-88746000D01*
X110713285Y-88746000D01*
X110570428Y-88817428D01*
X110499000Y-88888857D01*
X110427571Y-89031714D01*
X110427571Y-89246000D01*
X110499000Y-89388857D01*
X110570428Y-89460285D01*
X110713285Y-89531714D01*
X111141857Y-89531714D01*
X111284714Y-89460285D01*
X111356142Y-89388857D01*
X111427571Y-89246000D01*
X111427571Y-89031714D01*
X110427571Y-90174571D02*
X111427571Y-90174571D01*
X110570428Y-90174571D02*
X110499000Y-90246000D01*
X110427571Y-90388857D01*
X110427571Y-90603142D01*
X110499000Y-90746000D01*
X110641857Y-90817428D01*
X111427571Y-90817428D01*
X111427571Y-91531714D02*
X110427571Y-91531714D01*
X109927571Y-91531714D02*
X109999000Y-91460285D01*
X110070428Y-91531714D01*
X109999000Y-91603142D01*
X109927571Y-91531714D01*
X110070428Y-91531714D01*
X111427571Y-92888857D02*
X110641857Y-92888857D01*
X110499000Y-92817428D01*
X110427571Y-92674571D01*
X110427571Y-92388857D01*
X110499000Y-92246000D01*
X111356142Y-92888857D02*
X111427571Y-92746000D01*
X111427571Y-92388857D01*
X111356142Y-92246000D01*
X111213285Y-92174571D01*
X111070428Y-92174571D01*
X110927571Y-92246000D01*
X110856142Y-92388857D01*
X110856142Y-92746000D01*
X110784714Y-92888857D01*
X110427571Y-93603142D02*
X111427571Y-93603142D01*
X110570428Y-93603142D02*
X110499000Y-93674571D01*
X110427571Y-93817428D01*
X110427571Y-94031714D01*
X110499000Y-94174571D01*
X110641857Y-94246000D01*
X111427571Y-94246000D01*
X111356142Y-94888857D02*
X111427571Y-95031714D01*
X111427571Y-95317428D01*
X111356142Y-95460285D01*
X111213285Y-95531714D01*
X111141857Y-95531714D01*
X110999000Y-95460285D01*
X110927571Y-95317428D01*
X110927571Y-95103142D01*
X110856142Y-94960285D01*
X110713285Y-94888857D01*
X110641857Y-94888857D01*
X110499000Y-94960285D01*
X110427571Y-95103142D01*
X110427571Y-95317428D01*
X110499000Y-95460285D01*
X111427571Y-97031714D02*
X110713285Y-96531714D01*
X111427571Y-96174571D02*
X109927571Y-96174571D01*
X109927571Y-96746000D01*
X109999000Y-96888857D01*
X110070428Y-96960285D01*
X110213285Y-97031714D01*
X110427571Y-97031714D01*
X110570428Y-96960285D01*
X110641857Y-96888857D01*
X110713285Y-96746000D01*
X110713285Y-96174571D01*
X111356142Y-98246000D02*
X111427571Y-98103142D01*
X111427571Y-97817428D01*
X111356142Y-97674571D01*
X111213285Y-97603142D01*
X110641857Y-97603142D01*
X110499000Y-97674571D01*
X110427571Y-97817428D01*
X110427571Y-98103142D01*
X110499000Y-98246000D01*
X110641857Y-98317428D01*
X110784714Y-98317428D01*
X110927571Y-97603142D01*
X110427571Y-98746000D02*
X110427571Y-99317428D01*
X109927571Y-98960285D02*
X111213285Y-98960285D01*
X111356142Y-99031714D01*
X111427571Y-99174571D01*
X111427571Y-99317428D01*
X111427571Y-99817428D02*
X110427571Y-99817428D01*
X110713285Y-99817428D02*
X110570428Y-99888857D01*
X110499000Y-99960285D01*
X110427571Y-100103142D01*
X110427571Y-100246000D01*
X111427571Y-100960285D02*
X111356142Y-100817428D01*
X111284714Y-100746000D01*
X111141857Y-100674571D01*
X110713285Y-100674571D01*
X110570428Y-100746000D01*
X110499000Y-100817428D01*
X110427571Y-100960285D01*
X110427571Y-101174571D01*
X110499000Y-101317428D01*
X110570428Y-101388857D01*
X110713285Y-101460285D01*
X111141857Y-101460285D01*
X111284714Y-101388857D01*
X111356142Y-101317428D01*
X111427571Y-101174571D01*
X111427571Y-100960285D01*
X111356142Y-102031714D02*
X111427571Y-102246000D01*
X111427571Y-102603142D01*
X111356142Y-102746000D01*
X111284714Y-102817428D01*
X111141857Y-102888857D01*
X110999000Y-102888857D01*
X110856142Y-102817428D01*
X110784714Y-102746000D01*
X110713285Y-102603142D01*
X110641857Y-102317428D01*
X110570428Y-102174571D01*
X110499000Y-102103142D01*
X110356142Y-102031714D01*
X110213285Y-102031714D01*
X110070428Y-102103142D01*
X109999000Y-102174571D01*
X109927571Y-102317428D01*
X109927571Y-102674571D01*
X109999000Y-102888857D01*
X111427571Y-103531714D02*
X109927571Y-103531714D01*
X111427571Y-104174571D02*
X110641857Y-104174571D01*
X110499000Y-104103142D01*
X110427571Y-103960285D01*
X110427571Y-103746000D01*
X110499000Y-103603142D01*
X110570428Y-103531714D01*
X111427571Y-105103142D02*
X111356142Y-104960285D01*
X111284714Y-104888857D01*
X111141857Y-104817428D01*
X110713285Y-104817428D01*
X110570428Y-104888857D01*
X110499000Y-104960285D01*
X110427571Y-105103142D01*
X110427571Y-105317428D01*
X110499000Y-105460285D01*
X110570428Y-105531714D01*
X110713285Y-105603142D01*
X111141857Y-105603142D01*
X111284714Y-105531714D01*
X111356142Y-105460285D01*
X111427571Y-105317428D01*
X111427571Y-105103142D01*
X110427571Y-106246000D02*
X111927571Y-106246000D01*
X110499000Y-106246000D02*
X110427571Y-106388857D01*
X110427571Y-106674571D01*
X110499000Y-106817428D01*
X110570428Y-106888857D01*
X110713285Y-106960285D01*
X111141857Y-106960285D01*
X111284714Y-106888857D01*
X111356142Y-106817428D01*
X111427571Y-106674571D01*
X111427571Y-106388857D01*
X111356142Y-106246000D01*
D11*
X98901071Y-69033857D02*
X99091547Y-68891000D01*
X99282023Y-68462428D01*
X99282023Y-68176714D01*
X99091547Y-67748142D01*
X98710595Y-67462428D01*
X98329642Y-67319571D01*
X97567738Y-67176714D01*
X96996309Y-67176714D01*
X96234404Y-67319571D01*
X95853452Y-67462428D01*
X95472500Y-67748142D01*
X95282023Y-68176714D01*
X95282023Y-68462428D01*
X95472500Y-68891000D01*
X95662976Y-69033857D01*
X95282023Y-71605285D02*
X95282023Y-71033857D01*
X95472500Y-70748142D01*
X95662976Y-70605285D01*
X96234404Y-70319571D01*
X96996309Y-70176714D01*
X98520119Y-70176714D01*
X98901071Y-70319571D01*
X99091547Y-70462428D01*
X99282023Y-70748142D01*
X99282023Y-71319571D01*
X99091547Y-71605285D01*
X98901071Y-71748142D01*
X98520119Y-71891000D01*
X97567738Y-71891000D01*
X97186785Y-71748142D01*
X96996309Y-71605285D01*
X96805833Y-71319571D01*
X96805833Y-70748142D01*
X96996309Y-70462428D01*
X97186785Y-70319571D01*
X97567738Y-70176714D01*
X96615357Y-74462428D02*
X99282023Y-74462428D01*
X95091547Y-73748142D02*
X97948690Y-73033857D01*
X97948690Y-74891000D01*
X97186785Y-76033857D02*
X97186785Y-77033857D01*
X99282023Y-77462428D02*
X99282023Y-76033857D01*
X95282023Y-76033857D01*
X95282023Y-77462428D01*
X95662976Y-80891000D02*
X95472500Y-81033857D01*
X95282023Y-81319571D01*
X95282023Y-82033857D01*
X95472500Y-82319571D01*
X95662976Y-82462428D01*
X96043928Y-82605285D01*
X96424880Y-82605285D01*
X96996309Y-82462428D01*
X99282023Y-80748142D01*
X99282023Y-82605285D01*
X95282023Y-85319571D02*
X95282023Y-83891000D01*
X97186785Y-83748142D01*
X96996309Y-83891000D01*
X96805833Y-84176714D01*
X96805833Y-84891000D01*
X96996309Y-85176714D01*
X97186785Y-85319571D01*
X97567738Y-85462428D01*
X98520119Y-85462428D01*
X98901071Y-85319571D01*
X99091547Y-85176714D01*
X99282023Y-84891000D01*
X99282023Y-84176714D01*
X99091547Y-83891000D01*
X98901071Y-83748142D01*
X95662976Y-86605285D02*
X95472500Y-86748142D01*
X95282023Y-87033857D01*
X95282023Y-87748142D01*
X95472500Y-88033857D01*
X95662976Y-88176714D01*
X96043928Y-88319571D01*
X96424880Y-88319571D01*
X96996309Y-88176714D01*
X99282023Y-86462428D01*
X99282023Y-88319571D01*
X95282023Y-91033857D02*
X95282023Y-89605285D01*
X97186785Y-89462428D01*
X96996309Y-89605285D01*
X96805833Y-89891000D01*
X96805833Y-90605285D01*
X96996309Y-90891000D01*
X97186785Y-91033857D01*
X97567738Y-91176714D01*
X98520119Y-91176714D01*
X98901071Y-91033857D01*
X99091547Y-90891000D01*
X99282023Y-90605285D01*
X99282023Y-89891000D01*
X99091547Y-89605285D01*
X98901071Y-89462428D01*
X95282023Y-92176714D02*
X95282023Y-94033857D01*
X96805833Y-93033857D01*
X96805833Y-93462428D01*
X96996309Y-93748142D01*
X97186785Y-93891000D01*
X97567738Y-94033857D01*
X98520119Y-94033857D01*
X98901071Y-93891000D01*
X99091547Y-93748142D01*
X99282023Y-93462428D01*
X99282023Y-92605285D01*
X99091547Y-92319571D01*
X98901071Y-92176714D01*
X95282023Y-96748142D02*
X95282023Y-95319571D01*
X97186785Y-95176714D01*
X96996309Y-95319571D01*
X96805833Y-95605285D01*
X96805833Y-96319571D01*
X96996309Y-96605285D01*
X97186785Y-96748142D01*
X97567738Y-96891000D01*
X98520119Y-96891000D01*
X98901071Y-96748142D01*
X99091547Y-96605285D01*
X99282023Y-96319571D01*
X99282023Y-95605285D01*
X99091547Y-95319571D01*
X98901071Y-95176714D01*
X97758214Y-98176714D02*
X97758214Y-100462428D01*
X95282023Y-102462428D02*
X95282023Y-102748142D01*
X95472500Y-103033857D01*
X95662976Y-103176714D01*
X96043928Y-103319571D01*
X96805833Y-103462428D01*
X97758214Y-103462428D01*
X98520119Y-103319571D01*
X98901071Y-103176714D01*
X99091547Y-103033857D01*
X99282023Y-102748142D01*
X99282023Y-102462428D01*
X99091547Y-102176714D01*
X98901071Y-102033857D01*
X98520119Y-101891000D01*
X97758214Y-101748142D01*
X96805833Y-101748142D01*
X96043928Y-101891000D01*
X95662976Y-102033857D01*
X95472500Y-102176714D01*
X95282023Y-102462428D01*
X99282023Y-106319571D02*
X99282023Y-104605285D01*
X99282023Y-105462428D02*
X95282023Y-105462428D01*
X95853452Y-105176714D01*
X96234404Y-104891000D01*
X96424880Y-104605285D01*
D12*
X104817500Y-81409500D02*
X104817500Y-76959500D01*
X111717500Y-82934500D02*
X111717500Y-76959500D01*
D13*
X104071922Y-72505500D02*
X104589078Y-72505500D01*
X104071922Y-73925500D02*
X104589078Y-73925500D01*
X109462500Y-68003922D02*
X109462500Y-68521078D01*
X110882500Y-68003922D02*
X110882500Y-68521078D01*
X108585000Y-55963500D02*
X110535000Y-55963500D01*
X108585000Y-55963500D02*
X106635000Y-55963500D01*
X108585000Y-66083500D02*
X110535000Y-66083500D01*
X108585000Y-66083500D02*
X105135000Y-66083500D01*
D12*
X112019880Y-77946404D02*
X112829404Y-77946404D01*
X112924642Y-77994023D01*
X112972261Y-78041642D01*
X113019880Y-78136880D01*
X113019880Y-78327357D01*
X112972261Y-78422595D01*
X112924642Y-78470214D01*
X112829404Y-78517833D01*
X112019880Y-78517833D01*
X112115119Y-78946404D02*
X112067500Y-78994023D01*
X112019880Y-79089261D01*
X112019880Y-79327357D01*
X112067500Y-79422595D01*
X112115119Y-79470214D01*
X112210357Y-79517833D01*
X112305595Y-79517833D01*
X112448452Y-79470214D01*
X113019880Y-78898785D01*
X113019880Y-79517833D01*
X112019880Y-80374976D02*
X112019880Y-80184500D01*
X112067500Y-80089261D01*
X112115119Y-80041642D01*
X112257976Y-79946404D01*
X112448452Y-79898785D01*
X112829404Y-79898785D01*
X112924642Y-79946404D01*
X112972261Y-79994023D01*
X113019880Y-80089261D01*
X113019880Y-80279738D01*
X112972261Y-80374976D01*
X112924642Y-80422595D01*
X112829404Y-80470214D01*
X112591309Y-80470214D01*
X112496071Y-80422595D01*
X112448452Y-80374976D01*
X112400833Y-80279738D01*
X112400833Y-80089261D01*
X112448452Y-79994023D01*
X112496071Y-79946404D01*
X112591309Y-79898785D01*
X104973357Y-75222642D02*
X105020976Y-75270261D01*
X105163833Y-75317880D01*
X105259071Y-75317880D01*
X105401928Y-75270261D01*
X105497166Y-75175023D01*
X105544785Y-75079785D01*
X105592404Y-74889309D01*
X105592404Y-74746452D01*
X105544785Y-74555976D01*
X105497166Y-74460738D01*
X105401928Y-74365500D01*
X105259071Y-74317880D01*
X105163833Y-74317880D01*
X105020976Y-74365500D01*
X104973357Y-74413119D01*
X104592404Y-74413119D02*
X104544785Y-74365500D01*
X104449547Y-74317880D01*
X104211452Y-74317880D01*
X104116214Y-74365500D01*
X104068595Y-74413119D01*
X104020976Y-74508357D01*
X104020976Y-74603595D01*
X104068595Y-74746452D01*
X104640023Y-75317880D01*
X104020976Y-75317880D01*
X103163833Y-74317880D02*
X103354309Y-74317880D01*
X103449547Y-74365500D01*
X103497166Y-74413119D01*
X103592404Y-74555976D01*
X103640023Y-74746452D01*
X103640023Y-75127404D01*
X103592404Y-75222642D01*
X103544785Y-75270261D01*
X103449547Y-75317880D01*
X103259071Y-75317880D01*
X103163833Y-75270261D01*
X103116214Y-75222642D01*
X103068595Y-75127404D01*
X103068595Y-74889309D01*
X103116214Y-74794071D01*
X103163833Y-74746452D01*
X103259071Y-74698833D01*
X103449547Y-74698833D01*
X103544785Y-74746452D01*
X103592404Y-74794071D01*
X103640023Y-74889309D01*
X110593142Y-67746642D02*
X110640761Y-67699023D01*
X110688380Y-67556166D01*
X110688380Y-67460928D01*
X110640761Y-67318071D01*
X110545523Y-67222833D01*
X110450285Y-67175214D01*
X110259809Y-67127595D01*
X110116952Y-67127595D01*
X109926476Y-67175214D01*
X109831238Y-67222833D01*
X109736000Y-67318071D01*
X109688380Y-67460928D01*
X109688380Y-67556166D01*
X109736000Y-67699023D01*
X109783619Y-67746642D01*
X109783619Y-68127595D02*
X109736000Y-68175214D01*
X109688380Y-68270452D01*
X109688380Y-68508547D01*
X109736000Y-68603785D01*
X109783619Y-68651404D01*
X109878857Y-68699023D01*
X109974095Y-68699023D01*
X110116952Y-68651404D01*
X110688380Y-68079976D01*
X110688380Y-68699023D01*
X109688380Y-69318071D02*
X109688380Y-69413309D01*
X109736000Y-69508547D01*
X109783619Y-69556166D01*
X109878857Y-69603785D01*
X110069333Y-69651404D01*
X110307428Y-69651404D01*
X110497904Y-69603785D01*
X110593142Y-69556166D01*
X110640761Y-69508547D01*
X110688380Y-69413309D01*
X110688380Y-69318071D01*
X110640761Y-69222833D01*
X110593142Y-69175214D01*
X110497904Y-69127595D01*
X110307428Y-69079976D01*
X110069333Y-69079976D01*
X109878857Y-69127595D01*
X109783619Y-69175214D01*
X109736000Y-69222833D01*
X109688380Y-69318071D01*
X108743595Y-66375880D02*
X108743595Y-67185404D01*
X108695976Y-67280642D01*
X108648357Y-67328261D01*
X108553119Y-67375880D01*
X108362642Y-67375880D01*
X108267404Y-67328261D01*
X108219785Y-67280642D01*
X108172166Y-67185404D01*
X108172166Y-66375880D01*
X107743595Y-66471119D02*
X107695976Y-66423500D01*
X107600738Y-66375880D01*
X107362642Y-66375880D01*
X107267404Y-66423500D01*
X107219785Y-66471119D01*
X107172166Y-66566357D01*
X107172166Y-66661595D01*
X107219785Y-66804452D01*
X107791214Y-67375880D01*
X107172166Y-67375880D01*
X106553119Y-66375880D02*
X106457880Y-66375880D01*
X106362642Y-66423500D01*
X106315023Y-66471119D01*
X106267404Y-66566357D01*
X106219785Y-66756833D01*
X106219785Y-66994928D01*
X106267404Y-67185404D01*
X106315023Y-67280642D01*
X106362642Y-67328261D01*
X106457880Y-67375880D01*
X106553119Y-67375880D01*
X106648357Y-67328261D01*
X106695976Y-67280642D01*
X106743595Y-67185404D01*
X106791214Y-66994928D01*
X106791214Y-66756833D01*
X106743595Y-66566357D01*
X106695976Y-66471119D01*
X106648357Y-66423500D01*
X106553119Y-66375880D01*
M02*
