G04 #@! TF.GenerationSoftware,KiCad,Pcbnew,(5.1.2)-1*
G04 #@! TF.CreationDate,2019-12-23T21:44:58-05:00*
G04 #@! TF.ProjectId,C64CPLA,43363443-504c-4412-9e6b-696361645f70,rev?*
G04 #@! TF.SameCoordinates,Original*
G04 #@! TF.FileFunction,Legend,Top*
G04 #@! TF.FilePolarity,Positive*
%FSLAX46Y46*%
G04 Gerber Fmt 4.6, Leading zero omitted, Abs format (unit mm)*
G04 Created by KiCad (PCBNEW (5.1.2)-1) date 2019-12-23 21:44:58*
%MOMM*%
%LPD*%
G04 APERTURE LIST*
%ADD10C,0.120000*%
%ADD11C,0.150000*%
G04 APERTURE END LIST*
D10*
X95253500Y-51943000D02*
X97853500Y-51943000D01*
X95253500Y-49343000D02*
X95253500Y-51943000D01*
X97853500Y-49343000D02*
X95253500Y-49343000D01*
X97853500Y-51943000D02*
X97853500Y-49343000D01*
X95253500Y-51943000D02*
X97853500Y-51943000D01*
X94932500Y-48958500D02*
X94932500Y-60960000D01*
X100838000Y-48958500D02*
X94932500Y-48958500D01*
X100838000Y-60896500D02*
X100838000Y-48958500D01*
X94932500Y-60960000D02*
X100838000Y-60896500D01*
X95253500Y-49343000D02*
X100457000Y-49339500D01*
D11*
X99362142Y-109275619D02*
X99409761Y-109228000D01*
X99505000Y-109180380D01*
X99743095Y-109180380D01*
X99838333Y-109228000D01*
X99885952Y-109275619D01*
X99933571Y-109370857D01*
X99933571Y-109466095D01*
X99885952Y-109608952D01*
X99314523Y-110180380D01*
X99933571Y-110180380D01*
X100314523Y-109275619D02*
X100362142Y-109228000D01*
X100457380Y-109180380D01*
X100695476Y-109180380D01*
X100790714Y-109228000D01*
X100838333Y-109275619D01*
X100885952Y-109370857D01*
X100885952Y-109466095D01*
X100838333Y-109608952D01*
X100266904Y-110180380D01*
X100885952Y-110180380D01*
X101314523Y-110085142D02*
X101362142Y-110132761D01*
X101314523Y-110180380D01*
X101266904Y-110132761D01*
X101314523Y-110085142D01*
X101314523Y-110180380D01*
X102219285Y-109513714D02*
X102219285Y-110180380D01*
X101981190Y-109132761D02*
X101743095Y-109847047D01*
X102362142Y-109847047D01*
X102647857Y-109180380D02*
X103314523Y-109180380D01*
X102885952Y-110180380D01*
X103743095Y-110180380D02*
X103933571Y-110180380D01*
X104028809Y-110132761D01*
X104076428Y-110085142D01*
X104171666Y-109942285D01*
X104219285Y-109751809D01*
X104219285Y-109370857D01*
X104171666Y-109275619D01*
X104124047Y-109228000D01*
X104028809Y-109180380D01*
X103838333Y-109180380D01*
X103743095Y-109228000D01*
X103695476Y-109275619D01*
X103647857Y-109370857D01*
X103647857Y-109608952D01*
X103695476Y-109704190D01*
X103743095Y-109751809D01*
X103838333Y-109799428D01*
X104028809Y-109799428D01*
X104124047Y-109751809D01*
X104171666Y-109704190D01*
X104219285Y-109608952D01*
X105409761Y-110180380D02*
X105409761Y-109513714D01*
X105409761Y-109608952D02*
X105457380Y-109561333D01*
X105552619Y-109513714D01*
X105695476Y-109513714D01*
X105790714Y-109561333D01*
X105838333Y-109656571D01*
X105838333Y-110180380D01*
X105838333Y-109656571D02*
X105885952Y-109561333D01*
X105981190Y-109513714D01*
X106124047Y-109513714D01*
X106219285Y-109561333D01*
X106266904Y-109656571D01*
X106266904Y-110180380D01*
X106743095Y-110180380D02*
X106743095Y-109513714D01*
X106743095Y-109608952D02*
X106790714Y-109561333D01*
X106885952Y-109513714D01*
X107028809Y-109513714D01*
X107124047Y-109561333D01*
X107171666Y-109656571D01*
X107171666Y-110180380D01*
X107171666Y-109656571D02*
X107219285Y-109561333D01*
X107314523Y-109513714D01*
X107457380Y-109513714D01*
X107552619Y-109561333D01*
X107600238Y-109656571D01*
X107600238Y-110180380D01*
D10*
X92265500Y-108458000D02*
X114744500Y-108458000D01*
X92265500Y-108458000D02*
X92265500Y-109044421D01*
X114744500Y-108458000D02*
X114744500Y-109044421D01*
X114744500Y-108458000D02*
X113617996Y-109044421D01*
X114744500Y-108458000D02*
X113617996Y-107871579D01*
X92265500Y-108458000D02*
X93392004Y-109044421D01*
X92265500Y-108458000D02*
X93392004Y-107871579D01*
D11*
X116863880Y-78818916D02*
X116863880Y-79009392D01*
X116911500Y-79104630D01*
X116959119Y-79152250D01*
X117101976Y-79247488D01*
X117292452Y-79295107D01*
X117673404Y-79295107D01*
X117768642Y-79247488D01*
X117816261Y-79199869D01*
X117863880Y-79104630D01*
X117863880Y-78914154D01*
X117816261Y-78818916D01*
X117768642Y-78771297D01*
X117673404Y-78723678D01*
X117435309Y-78723678D01*
X117340071Y-78771297D01*
X117292452Y-78818916D01*
X117244833Y-78914154D01*
X117244833Y-79104630D01*
X117292452Y-79199869D01*
X117340071Y-79247488D01*
X117435309Y-79295107D01*
X117197214Y-77866535D02*
X117863880Y-77866535D01*
X116816261Y-78104630D02*
X117530547Y-78342726D01*
X117530547Y-77723678D01*
X117768642Y-77342726D02*
X117816261Y-77295107D01*
X117863880Y-77342726D01*
X117816261Y-77390345D01*
X117768642Y-77342726D01*
X117863880Y-77342726D01*
X116863880Y-76961773D02*
X116863880Y-76342726D01*
X117244833Y-76676059D01*
X117244833Y-76533202D01*
X117292452Y-76437964D01*
X117340071Y-76390345D01*
X117435309Y-76342726D01*
X117673404Y-76342726D01*
X117768642Y-76390345D01*
X117816261Y-76437964D01*
X117863880Y-76533202D01*
X117863880Y-76818916D01*
X117816261Y-76914154D01*
X117768642Y-76961773D01*
X116959119Y-75961773D02*
X116911500Y-75914154D01*
X116863880Y-75818916D01*
X116863880Y-75580821D01*
X116911500Y-75485583D01*
X116959119Y-75437964D01*
X117054357Y-75390345D01*
X117149595Y-75390345D01*
X117292452Y-75437964D01*
X117863880Y-76009392D01*
X117863880Y-75390345D01*
X116863880Y-74533202D02*
X116863880Y-74723678D01*
X116911500Y-74818916D01*
X116959119Y-74866535D01*
X117101976Y-74961773D01*
X117292452Y-75009392D01*
X117673404Y-75009392D01*
X117768642Y-74961773D01*
X117816261Y-74914154D01*
X117863880Y-74818916D01*
X117863880Y-74628440D01*
X117816261Y-74533202D01*
X117768642Y-74485583D01*
X117673404Y-74437964D01*
X117435309Y-74437964D01*
X117340071Y-74485583D01*
X117292452Y-74533202D01*
X117244833Y-74628440D01*
X117244833Y-74818916D01*
X117292452Y-74914154D01*
X117340071Y-74961773D01*
X117435309Y-75009392D01*
X117863880Y-73247488D02*
X117197214Y-73247488D01*
X117292452Y-73247488D02*
X117244833Y-73199869D01*
X117197214Y-73104630D01*
X117197214Y-72961773D01*
X117244833Y-72866535D01*
X117340071Y-72818916D01*
X117863880Y-72818916D01*
X117340071Y-72818916D02*
X117244833Y-72771297D01*
X117197214Y-72676059D01*
X117197214Y-72533202D01*
X117244833Y-72437964D01*
X117340071Y-72390345D01*
X117863880Y-72390345D01*
X117863880Y-71914154D02*
X117197214Y-71914154D01*
X117292452Y-71914154D02*
X117244833Y-71866535D01*
X117197214Y-71771297D01*
X117197214Y-71628440D01*
X117244833Y-71533202D01*
X117340071Y-71485583D01*
X117863880Y-71485583D01*
X117340071Y-71485583D02*
X117244833Y-71437964D01*
X117197214Y-71342726D01*
X117197214Y-71199869D01*
X117244833Y-71104630D01*
X117340071Y-71057011D01*
X117863880Y-71057011D01*
D10*
X116141500Y-107315000D02*
X116141500Y-42989500D01*
X116141500Y-107315000D02*
X116727921Y-107315000D01*
X116141500Y-42989500D02*
X116727921Y-42989500D01*
X116141500Y-42989500D02*
X116727921Y-44116004D01*
X116141500Y-42989500D02*
X115555079Y-44116004D01*
X116141500Y-107315000D02*
X116727921Y-106188496D01*
X116141500Y-107315000D02*
X115555079Y-106188496D01*
X95253500Y-59623000D02*
X100453500Y-59623000D01*
X95253500Y-51943000D02*
X95253500Y-59623000D01*
X100453500Y-49343000D02*
X100453500Y-59623000D01*
X95253500Y-51943000D02*
X97853500Y-51943000D01*
X97853500Y-51943000D02*
X97853500Y-49343000D01*
X97853500Y-49343000D02*
X100453500Y-49343000D01*
X95253500Y-50673000D02*
X95253500Y-49343000D01*
X95253500Y-49343000D02*
X96583500Y-49343000D01*
D11*
X104803500Y-97351500D02*
X98828500Y-97351500D01*
X103228500Y-91826500D02*
X98828500Y-91826500D01*
D10*
X111425000Y-72575000D02*
X111425000Y-60775000D01*
X103205000Y-73880000D02*
X103205000Y-60775000D01*
X92880001Y-49700000D02*
X92880000Y-107018000D01*
X92880000Y-107018000D02*
X114129999Y-107018000D01*
X114129999Y-107018000D02*
X114130000Y-49700000D01*
X114130000Y-49700000D02*
X107046666Y-49700000D01*
X107046666Y-49700000D02*
X107046666Y-50060000D01*
X107046666Y-50060000D02*
X99963334Y-50060000D01*
X99963334Y-50060000D02*
X99963334Y-49700000D01*
X99963334Y-49700000D02*
X92880001Y-49700000D01*
X110669000Y-52319422D02*
X110669000Y-52836578D01*
X112089000Y-52319422D02*
X112089000Y-52836578D01*
X105779500Y-51557422D02*
X105779500Y-52074578D01*
X107199500Y-51557422D02*
X107199500Y-52074578D01*
X109966000Y-52495000D02*
X107966000Y-52495000D01*
X108466000Y-50375000D02*
X109966000Y-50375000D01*
D11*
X96843000Y-68475500D02*
X96843000Y-72875500D01*
X102368000Y-66900500D02*
X102368000Y-72875500D01*
D10*
X101223578Y-89714000D02*
X100706422Y-89714000D01*
X101223578Y-91134000D02*
X100706422Y-91134000D01*
X104389422Y-56630500D02*
X104906578Y-56630500D01*
X104389422Y-58050500D02*
X104906578Y-58050500D01*
X95048000Y-71886578D02*
X95048000Y-71369422D01*
X96468000Y-71886578D02*
X96468000Y-71369422D01*
X100706422Y-98096000D02*
X101223578Y-98096000D01*
X100706422Y-99516000D02*
X101223578Y-99516000D01*
X109224578Y-98159500D02*
X108707422Y-98159500D01*
X109224578Y-99579500D02*
X108707422Y-99579500D01*
X101223578Y-101167000D02*
X100706422Y-101167000D01*
X101223578Y-99747000D02*
X100706422Y-99747000D01*
D11*
X105242000Y-106865000D02*
X109642000Y-106865000D01*
X103667000Y-101340000D02*
X109642000Y-101340000D01*
X95285000Y-101340000D02*
X101260000Y-101340000D01*
X96860000Y-106865000D02*
X101260000Y-106865000D01*
D10*
X102287000Y-44508922D02*
X102287000Y-45026078D01*
X103707000Y-44508922D02*
X103707000Y-45026078D01*
X114502000Y-44445422D02*
X114502000Y-44962578D01*
X113082000Y-44445422D02*
X113082000Y-44962578D01*
D11*
X95528500Y-43222000D02*
X95528500Y-43347000D01*
X100178500Y-43222000D02*
X100178500Y-43447000D01*
X100178500Y-48472000D02*
X100178500Y-48247000D01*
X95528500Y-48472000D02*
X95528500Y-48247000D01*
X95528500Y-43222000D02*
X100178500Y-43222000D01*
X95528500Y-48472000D02*
X100178500Y-48472000D01*
X95528500Y-43347000D02*
X94178500Y-43347000D01*
X106289000Y-43265000D02*
X104939000Y-43265000D01*
X106289000Y-48390000D02*
X110939000Y-48390000D01*
X106289000Y-43140000D02*
X110939000Y-43140000D01*
X106289000Y-48390000D02*
X106289000Y-48165000D01*
X110939000Y-48390000D02*
X110939000Y-48165000D01*
X110939000Y-43140000D02*
X110939000Y-43365000D01*
X106289000Y-43140000D02*
X106289000Y-43265000D01*
D10*
X95806000Y-64384500D02*
X102741000Y-64384500D01*
X102741000Y-64384500D02*
X102741000Y-60964500D01*
X102741000Y-60964500D02*
X95806000Y-60964500D01*
D11*
X108680000Y-76740000D02*
X108105000Y-76740000D01*
X108680000Y-87090000D02*
X108005000Y-87090000D01*
X98330000Y-87090000D02*
X99005000Y-87090000D01*
X98330000Y-76740000D02*
X99005000Y-76740000D01*
X108680000Y-76740000D02*
X108680000Y-77415000D01*
X98330000Y-76740000D02*
X98330000Y-77415000D01*
X98330000Y-87090000D02*
X98330000Y-86415000D01*
X108680000Y-87090000D02*
X108680000Y-86415000D01*
X108105000Y-76740000D02*
X108105000Y-75465000D01*
X96821666Y-56602380D02*
X96821666Y-57316666D01*
X96774047Y-57459523D01*
X96678809Y-57554761D01*
X96535952Y-57602380D01*
X96440714Y-57602380D01*
X97821666Y-57602380D02*
X97250238Y-57602380D01*
X97535952Y-57602380D02*
X97535952Y-56602380D01*
X97440714Y-56745238D01*
X97345476Y-56840476D01*
X97250238Y-56888095D01*
X95591595Y-59777380D02*
X95591595Y-60491666D01*
X95543976Y-60634523D01*
X95448738Y-60729761D01*
X95305880Y-60777380D01*
X95210642Y-60777380D01*
X95924928Y-59777380D02*
X96496357Y-59777380D01*
X96210642Y-60777380D02*
X96210642Y-59777380D01*
X96782071Y-60491666D02*
X97258261Y-60491666D01*
X96686833Y-60777380D02*
X97020166Y-59777380D01*
X97353500Y-60777380D01*
X98210642Y-59825000D02*
X98115404Y-59777380D01*
X97972547Y-59777380D01*
X97829690Y-59825000D01*
X97734452Y-59920238D01*
X97686833Y-60015476D01*
X97639214Y-60205952D01*
X97639214Y-60348809D01*
X97686833Y-60539285D01*
X97734452Y-60634523D01*
X97829690Y-60729761D01*
X97972547Y-60777380D01*
X98067785Y-60777380D01*
X98210642Y-60729761D01*
X98258261Y-60682142D01*
X98258261Y-60348809D01*
X98067785Y-60348809D01*
X98686833Y-60396428D02*
X99448738Y-60396428D01*
X100353500Y-59777380D02*
X100163023Y-59777380D01*
X100067785Y-59825000D01*
X100020166Y-59872619D01*
X99924928Y-60015476D01*
X99877309Y-60205952D01*
X99877309Y-60586904D01*
X99924928Y-60682142D01*
X99972547Y-60729761D01*
X100067785Y-60777380D01*
X100258261Y-60777380D01*
X100353500Y-60729761D01*
X100401119Y-60682142D01*
X100448738Y-60586904D01*
X100448738Y-60348809D01*
X100401119Y-60253571D01*
X100353500Y-60205952D01*
X100258261Y-60158333D01*
X100067785Y-60158333D01*
X99972547Y-60205952D01*
X99924928Y-60253571D01*
X99877309Y-60348809D01*
X102139904Y-97559880D02*
X102139904Y-98369404D01*
X102187523Y-98464642D01*
X102235142Y-98512261D01*
X102330380Y-98559880D01*
X102520857Y-98559880D01*
X102616095Y-98512261D01*
X102663714Y-98464642D01*
X102711333Y-98369404D01*
X102711333Y-97559880D01*
X103139904Y-97655119D02*
X103187523Y-97607500D01*
X103282761Y-97559880D01*
X103520857Y-97559880D01*
X103616095Y-97607500D01*
X103663714Y-97655119D01*
X103711333Y-97750357D01*
X103711333Y-97845595D01*
X103663714Y-97988452D01*
X103092285Y-98559880D01*
X103711333Y-98559880D01*
X104616095Y-97559880D02*
X104139904Y-97559880D01*
X104092285Y-98036071D01*
X104139904Y-97988452D01*
X104235142Y-97940833D01*
X104473238Y-97940833D01*
X104568476Y-97988452D01*
X104616095Y-98036071D01*
X104663714Y-98131309D01*
X104663714Y-98369404D01*
X104616095Y-98464642D01*
X104568476Y-98512261D01*
X104473238Y-98559880D01*
X104235142Y-98559880D01*
X104139904Y-98512261D01*
X104092285Y-98464642D01*
X111910880Y-73088404D02*
X112720404Y-73088404D01*
X112815642Y-73040785D01*
X112863261Y-72993166D01*
X112910880Y-72897928D01*
X112910880Y-72707452D01*
X112863261Y-72612214D01*
X112815642Y-72564595D01*
X112720404Y-72516976D01*
X111910880Y-72516976D01*
X111910880Y-71612214D02*
X111910880Y-71802690D01*
X111958500Y-71897928D01*
X112006119Y-71945547D01*
X112148976Y-72040785D01*
X112339452Y-72088404D01*
X112720404Y-72088404D01*
X112815642Y-72040785D01*
X112863261Y-71993166D01*
X112910880Y-71897928D01*
X112910880Y-71707452D01*
X112863261Y-71612214D01*
X112815642Y-71564595D01*
X112720404Y-71516976D01*
X112482309Y-71516976D01*
X112387071Y-71564595D01*
X112339452Y-71612214D01*
X112291833Y-71707452D01*
X112291833Y-71897928D01*
X112339452Y-71993166D01*
X112387071Y-72040785D01*
X112482309Y-72088404D01*
X102743095Y-48152380D02*
X102743095Y-48961904D01*
X102790714Y-49057142D01*
X102838333Y-49104761D01*
X102933571Y-49152380D01*
X103124047Y-49152380D01*
X103219285Y-49104761D01*
X103266904Y-49057142D01*
X103314523Y-48961904D01*
X103314523Y-48152380D01*
X103933571Y-48580952D02*
X103838333Y-48533333D01*
X103790714Y-48485714D01*
X103743095Y-48390476D01*
X103743095Y-48342857D01*
X103790714Y-48247619D01*
X103838333Y-48200000D01*
X103933571Y-48152380D01*
X104124047Y-48152380D01*
X104219285Y-48200000D01*
X104266904Y-48247619D01*
X104314523Y-48342857D01*
X104314523Y-48390476D01*
X104266904Y-48485714D01*
X104219285Y-48533333D01*
X104124047Y-48580952D01*
X103933571Y-48580952D01*
X103838333Y-48628571D01*
X103790714Y-48676190D01*
X103743095Y-48771428D01*
X103743095Y-48961904D01*
X103790714Y-49057142D01*
X103838333Y-49104761D01*
X103933571Y-49152380D01*
X104124047Y-49152380D01*
X104219285Y-49104761D01*
X104266904Y-49057142D01*
X104314523Y-48961904D01*
X104314523Y-48771428D01*
X104266904Y-48676190D01*
X104219285Y-48628571D01*
X104124047Y-48580952D01*
X111799642Y-54030428D02*
X111847261Y-54078047D01*
X111894880Y-54220904D01*
X111894880Y-54316142D01*
X111847261Y-54459000D01*
X111752023Y-54554238D01*
X111656785Y-54601857D01*
X111466309Y-54649476D01*
X111323452Y-54649476D01*
X111132976Y-54601857D01*
X111037738Y-54554238D01*
X110942500Y-54459000D01*
X110894880Y-54316142D01*
X110894880Y-54220904D01*
X110942500Y-54078047D01*
X110990119Y-54030428D01*
X110894880Y-53697095D02*
X110894880Y-53078047D01*
X111275833Y-53411380D01*
X111275833Y-53268523D01*
X111323452Y-53173285D01*
X111371071Y-53125666D01*
X111466309Y-53078047D01*
X111704404Y-53078047D01*
X111799642Y-53125666D01*
X111847261Y-53173285D01*
X111894880Y-53268523D01*
X111894880Y-53554238D01*
X111847261Y-53649476D01*
X111799642Y-53697095D01*
X111609166Y-52697095D02*
X111609166Y-52220904D01*
X111894880Y-52792333D02*
X110894880Y-52459000D01*
X111894880Y-52125666D01*
X111894880Y-51268523D02*
X111894880Y-51839952D01*
X111894880Y-51554238D02*
X110894880Y-51554238D01*
X111037738Y-51649476D01*
X111132976Y-51744714D01*
X111180595Y-51839952D01*
X106910142Y-53339857D02*
X106957761Y-53387476D01*
X107005380Y-53530333D01*
X107005380Y-53625571D01*
X106957761Y-53768428D01*
X106862523Y-53863666D01*
X106767285Y-53911285D01*
X106576809Y-53958904D01*
X106433952Y-53958904D01*
X106243476Y-53911285D01*
X106148238Y-53863666D01*
X106053000Y-53768428D01*
X106005380Y-53625571D01*
X106005380Y-53530333D01*
X106053000Y-53387476D01*
X106100619Y-53339857D01*
X106005380Y-53006523D02*
X106005380Y-52387476D01*
X106386333Y-52720809D01*
X106386333Y-52577952D01*
X106433952Y-52482714D01*
X106481571Y-52435095D01*
X106576809Y-52387476D01*
X106814904Y-52387476D01*
X106910142Y-52435095D01*
X106957761Y-52482714D01*
X107005380Y-52577952D01*
X107005380Y-52863666D01*
X106957761Y-52958904D01*
X106910142Y-53006523D01*
X106481571Y-51625571D02*
X106529190Y-51482714D01*
X106576809Y-51435095D01*
X106672047Y-51387476D01*
X106814904Y-51387476D01*
X106910142Y-51435095D01*
X106957761Y-51482714D01*
X107005380Y-51577952D01*
X107005380Y-51958904D01*
X106005380Y-51958904D01*
X106005380Y-51625571D01*
X106053000Y-51530333D01*
X106100619Y-51482714D01*
X106195857Y-51435095D01*
X106291095Y-51435095D01*
X106386333Y-51482714D01*
X106433952Y-51530333D01*
X106481571Y-51625571D01*
X106481571Y-51958904D01*
X107005380Y-50435095D02*
X107005380Y-51006523D01*
X107005380Y-50720809D02*
X106005380Y-50720809D01*
X106148238Y-50816047D01*
X106243476Y-50911285D01*
X106291095Y-51006523D01*
X108204095Y-48887380D02*
X108204095Y-49696904D01*
X108251714Y-49792142D01*
X108299333Y-49839761D01*
X108394571Y-49887380D01*
X108585047Y-49887380D01*
X108680285Y-49839761D01*
X108727904Y-49792142D01*
X108775523Y-49696904D01*
X108775523Y-48887380D01*
X109156476Y-48887380D02*
X109775523Y-48887380D01*
X109442190Y-49268333D01*
X109585047Y-49268333D01*
X109680285Y-49315952D01*
X109727904Y-49363571D01*
X109775523Y-49458809D01*
X109775523Y-49696904D01*
X109727904Y-49792142D01*
X109680285Y-49839761D01*
X109585047Y-49887380D01*
X109299333Y-49887380D01*
X109204095Y-49839761D01*
X109156476Y-49792142D01*
X95591380Y-69691095D02*
X96400904Y-69691095D01*
X96496142Y-69643476D01*
X96543761Y-69595857D01*
X96591380Y-69500619D01*
X96591380Y-69310142D01*
X96543761Y-69214904D01*
X96496142Y-69167285D01*
X96400904Y-69119666D01*
X95591380Y-69119666D01*
X96591380Y-68119666D02*
X96591380Y-68691095D01*
X96591380Y-68405380D02*
X95591380Y-68405380D01*
X95734238Y-68500619D01*
X95829476Y-68595857D01*
X95877095Y-68691095D01*
X95591380Y-67214904D02*
X95591380Y-67691095D01*
X96067571Y-67738714D01*
X96019952Y-67691095D01*
X95972333Y-67595857D01*
X95972333Y-67357761D01*
X96019952Y-67262523D01*
X96067571Y-67214904D01*
X96162809Y-67167285D01*
X96400904Y-67167285D01*
X96496142Y-67214904D01*
X96543761Y-67262523D01*
X96591380Y-67357761D01*
X96591380Y-67595857D01*
X96543761Y-67691095D01*
X96496142Y-67738714D01*
X101941333Y-90781142D02*
X101893714Y-90828761D01*
X101750857Y-90876380D01*
X101655619Y-90876380D01*
X101512761Y-90828761D01*
X101417523Y-90733523D01*
X101369904Y-90638285D01*
X101322285Y-90447809D01*
X101322285Y-90304952D01*
X101369904Y-90114476D01*
X101417523Y-90019238D01*
X101512761Y-89924000D01*
X101655619Y-89876380D01*
X101750857Y-89876380D01*
X101893714Y-89924000D01*
X101941333Y-89971619D01*
X102798476Y-90209714D02*
X102798476Y-90876380D01*
X102560380Y-89828761D02*
X102322285Y-90543047D01*
X102941333Y-90543047D01*
X104481333Y-56047642D02*
X104433714Y-56095261D01*
X104290857Y-56142880D01*
X104195619Y-56142880D01*
X104052761Y-56095261D01*
X103957523Y-56000023D01*
X103909904Y-55904785D01*
X103862285Y-55714309D01*
X103862285Y-55571452D01*
X103909904Y-55380976D01*
X103957523Y-55285738D01*
X104052761Y-55190500D01*
X104195619Y-55142880D01*
X104290857Y-55142880D01*
X104433714Y-55190500D01*
X104481333Y-55238119D01*
X105338476Y-55142880D02*
X105148000Y-55142880D01*
X105052761Y-55190500D01*
X105005142Y-55238119D01*
X104909904Y-55380976D01*
X104862285Y-55571452D01*
X104862285Y-55952404D01*
X104909904Y-56047642D01*
X104957523Y-56095261D01*
X105052761Y-56142880D01*
X105243238Y-56142880D01*
X105338476Y-56095261D01*
X105386095Y-56047642D01*
X105433714Y-55952404D01*
X105433714Y-55714309D01*
X105386095Y-55619071D01*
X105338476Y-55571452D01*
X105243238Y-55523833D01*
X105052761Y-55523833D01*
X104957523Y-55571452D01*
X104909904Y-55619071D01*
X104862285Y-55714309D01*
X96115142Y-72334357D02*
X96162761Y-72381976D01*
X96210380Y-72524833D01*
X96210380Y-72620071D01*
X96162761Y-72762928D01*
X96067523Y-72858166D01*
X95972285Y-72905785D01*
X95781809Y-72953404D01*
X95638952Y-72953404D01*
X95448476Y-72905785D01*
X95353238Y-72858166D01*
X95258000Y-72762928D01*
X95210380Y-72620071D01*
X95210380Y-72524833D01*
X95258000Y-72381976D01*
X95305619Y-72334357D01*
X96210380Y-71381976D02*
X96210380Y-71953404D01*
X96210380Y-71667690D02*
X95210380Y-71667690D01*
X95353238Y-71762928D01*
X95448476Y-71858166D01*
X95496095Y-71953404D01*
X95210380Y-70477214D02*
X95210380Y-70953404D01*
X95686571Y-71001023D01*
X95638952Y-70953404D01*
X95591333Y-70858166D01*
X95591333Y-70620071D01*
X95638952Y-70524833D01*
X95686571Y-70477214D01*
X95781809Y-70429595D01*
X96019904Y-70429595D01*
X96115142Y-70477214D01*
X96162761Y-70524833D01*
X96210380Y-70620071D01*
X96210380Y-70858166D01*
X96162761Y-70953404D01*
X96115142Y-71001023D01*
X99941142Y-99226642D02*
X99893523Y-99274261D01*
X99750666Y-99321880D01*
X99655428Y-99321880D01*
X99512571Y-99274261D01*
X99417333Y-99179023D01*
X99369714Y-99083785D01*
X99322095Y-98893309D01*
X99322095Y-98750452D01*
X99369714Y-98559976D01*
X99417333Y-98464738D01*
X99512571Y-98369500D01*
X99655428Y-98321880D01*
X99750666Y-98321880D01*
X99893523Y-98369500D01*
X99941142Y-98417119D01*
X100322095Y-98417119D02*
X100369714Y-98369500D01*
X100464952Y-98321880D01*
X100703047Y-98321880D01*
X100798285Y-98369500D01*
X100845904Y-98417119D01*
X100893523Y-98512357D01*
X100893523Y-98607595D01*
X100845904Y-98750452D01*
X100274476Y-99321880D01*
X100893523Y-99321880D01*
X101798285Y-98321880D02*
X101322095Y-98321880D01*
X101274476Y-98798071D01*
X101322095Y-98750452D01*
X101417333Y-98702833D01*
X101655428Y-98702833D01*
X101750666Y-98750452D01*
X101798285Y-98798071D01*
X101845904Y-98893309D01*
X101845904Y-99131404D01*
X101798285Y-99226642D01*
X101750666Y-99274261D01*
X101655428Y-99321880D01*
X101417333Y-99321880D01*
X101322095Y-99274261D01*
X101274476Y-99226642D01*
X108132642Y-99290142D02*
X108085023Y-99337761D01*
X107942166Y-99385380D01*
X107846928Y-99385380D01*
X107704071Y-99337761D01*
X107608833Y-99242523D01*
X107561214Y-99147285D01*
X107513595Y-98956809D01*
X107513595Y-98813952D01*
X107561214Y-98623476D01*
X107608833Y-98528238D01*
X107704071Y-98433000D01*
X107846928Y-98385380D01*
X107942166Y-98385380D01*
X108085023Y-98433000D01*
X108132642Y-98480619D01*
X109085023Y-99385380D02*
X108513595Y-99385380D01*
X108799309Y-99385380D02*
X108799309Y-98385380D01*
X108704071Y-98528238D01*
X108608833Y-98623476D01*
X108513595Y-98671095D01*
X109418357Y-98385380D02*
X110037404Y-98385380D01*
X109704071Y-98766333D01*
X109846928Y-98766333D01*
X109942166Y-98813952D01*
X109989785Y-98861571D01*
X110037404Y-98956809D01*
X110037404Y-99194904D01*
X109989785Y-99290142D01*
X109942166Y-99337761D01*
X109846928Y-99385380D01*
X109561214Y-99385380D01*
X109465976Y-99337761D01*
X109418357Y-99290142D01*
X100131642Y-100877642D02*
X100084023Y-100925261D01*
X99941166Y-100972880D01*
X99845928Y-100972880D01*
X99703071Y-100925261D01*
X99607833Y-100830023D01*
X99560214Y-100734785D01*
X99512595Y-100544309D01*
X99512595Y-100401452D01*
X99560214Y-100210976D01*
X99607833Y-100115738D01*
X99703071Y-100020500D01*
X99845928Y-99972880D01*
X99941166Y-99972880D01*
X100084023Y-100020500D01*
X100131642Y-100068119D01*
X101084023Y-100972880D02*
X100512595Y-100972880D01*
X100798309Y-100972880D02*
X100798309Y-99972880D01*
X100703071Y-100115738D01*
X100607833Y-100210976D01*
X100512595Y-100258595D01*
X101941166Y-100306214D02*
X101941166Y-100972880D01*
X101703071Y-99925261D02*
X101464976Y-100639547D01*
X102084023Y-100639547D01*
X106203904Y-100042380D02*
X106203904Y-100851904D01*
X106251523Y-100947142D01*
X106299142Y-100994761D01*
X106394380Y-101042380D01*
X106584857Y-101042380D01*
X106680095Y-100994761D01*
X106727714Y-100947142D01*
X106775333Y-100851904D01*
X106775333Y-100042380D01*
X107775333Y-101042380D02*
X107203904Y-101042380D01*
X107489619Y-101042380D02*
X107489619Y-100042380D01*
X107394380Y-100185238D01*
X107299142Y-100280476D01*
X107203904Y-100328095D01*
X108108666Y-100042380D02*
X108727714Y-100042380D01*
X108394380Y-100423333D01*
X108537238Y-100423333D01*
X108632476Y-100470952D01*
X108680095Y-100518571D01*
X108727714Y-100613809D01*
X108727714Y-100851904D01*
X108680095Y-100947142D01*
X108632476Y-100994761D01*
X108537238Y-101042380D01*
X108251523Y-101042380D01*
X108156285Y-100994761D01*
X108108666Y-100947142D01*
X96297904Y-100036380D02*
X96297904Y-100845904D01*
X96345523Y-100941142D01*
X96393142Y-100988761D01*
X96488380Y-101036380D01*
X96678857Y-101036380D01*
X96774095Y-100988761D01*
X96821714Y-100941142D01*
X96869333Y-100845904D01*
X96869333Y-100036380D01*
X97869333Y-101036380D02*
X97297904Y-101036380D01*
X97583619Y-101036380D02*
X97583619Y-100036380D01*
X97488380Y-100179238D01*
X97393142Y-100274476D01*
X97297904Y-100322095D01*
X98726476Y-100369714D02*
X98726476Y-101036380D01*
X98488380Y-99988761D02*
X98250285Y-100703047D01*
X98869333Y-100703047D01*
X103227142Y-44934166D02*
X103274761Y-44981785D01*
X103322380Y-45124642D01*
X103322380Y-45219880D01*
X103274761Y-45362738D01*
X103179523Y-45457976D01*
X103084285Y-45505595D01*
X102893809Y-45553214D01*
X102750952Y-45553214D01*
X102560476Y-45505595D01*
X102465238Y-45457976D01*
X102370000Y-45362738D01*
X102322380Y-45219880D01*
X102322380Y-45124642D01*
X102370000Y-44981785D01*
X102417619Y-44934166D01*
X103322380Y-43981785D02*
X103322380Y-44553214D01*
X103322380Y-44267500D02*
X102322380Y-44267500D01*
X102465238Y-44362738D01*
X102560476Y-44457976D01*
X102608095Y-44553214D01*
X114022142Y-44616666D02*
X114069761Y-44664285D01*
X114117380Y-44807142D01*
X114117380Y-44902380D01*
X114069761Y-45045238D01*
X113974523Y-45140476D01*
X113879285Y-45188095D01*
X113688809Y-45235714D01*
X113545952Y-45235714D01*
X113355476Y-45188095D01*
X113260238Y-45140476D01*
X113165000Y-45045238D01*
X113117380Y-44902380D01*
X113117380Y-44807142D01*
X113165000Y-44664285D01*
X113212619Y-44616666D01*
X113212619Y-44235714D02*
X113165000Y-44188095D01*
X113117380Y-44092857D01*
X113117380Y-43854761D01*
X113165000Y-43759523D01*
X113212619Y-43711904D01*
X113307857Y-43664285D01*
X113403095Y-43664285D01*
X113545952Y-43711904D01*
X114117380Y-44283333D01*
X114117380Y-43664285D01*
X95758095Y-43267380D02*
X95758095Y-44076904D01*
X95805714Y-44172142D01*
X95853333Y-44219761D01*
X95948571Y-44267380D01*
X96139047Y-44267380D01*
X96234285Y-44219761D01*
X96281904Y-44172142D01*
X96329523Y-44076904D01*
X96329523Y-43267380D01*
X97329523Y-44267380D02*
X96758095Y-44267380D01*
X97043809Y-44267380D02*
X97043809Y-43267380D01*
X96948571Y-43410238D01*
X96853333Y-43505476D01*
X96758095Y-43553095D01*
X106553095Y-43267380D02*
X106553095Y-44076904D01*
X106600714Y-44172142D01*
X106648333Y-44219761D01*
X106743571Y-44267380D01*
X106934047Y-44267380D01*
X107029285Y-44219761D01*
X107076904Y-44172142D01*
X107124523Y-44076904D01*
X107124523Y-43267380D01*
X107553095Y-43362619D02*
X107600714Y-43315000D01*
X107695952Y-43267380D01*
X107934047Y-43267380D01*
X108029285Y-43315000D01*
X108076904Y-43362619D01*
X108124523Y-43457857D01*
X108124523Y-43553095D01*
X108076904Y-43695952D01*
X107505476Y-44267380D01*
X108124523Y-44267380D01*
X98639333Y-65581642D02*
X98591714Y-65629261D01*
X98448857Y-65676880D01*
X98353619Y-65676880D01*
X98210761Y-65629261D01*
X98115523Y-65534023D01*
X98067904Y-65438785D01*
X98020285Y-65248309D01*
X98020285Y-65105452D01*
X98067904Y-64914976D01*
X98115523Y-64819738D01*
X98210761Y-64724500D01*
X98353619Y-64676880D01*
X98448857Y-64676880D01*
X98591714Y-64724500D01*
X98639333Y-64772119D01*
X99258380Y-64676880D02*
X99353619Y-64676880D01*
X99448857Y-64724500D01*
X99496476Y-64772119D01*
X99544095Y-64867357D01*
X99591714Y-65057833D01*
X99591714Y-65295928D01*
X99544095Y-65486404D01*
X99496476Y-65581642D01*
X99448857Y-65629261D01*
X99353619Y-65676880D01*
X99258380Y-65676880D01*
X99163142Y-65629261D01*
X99115523Y-65581642D01*
X99067904Y-65486404D01*
X99020285Y-65295928D01*
X99020285Y-65057833D01*
X99067904Y-64867357D01*
X99115523Y-64772119D01*
X99163142Y-64724500D01*
X99258380Y-64676880D01*
X110407380Y-82676904D02*
X111216904Y-82676904D01*
X111312142Y-82629285D01*
X111359761Y-82581666D01*
X111407380Y-82486428D01*
X111407380Y-82295952D01*
X111359761Y-82200714D01*
X111312142Y-82153095D01*
X111216904Y-82105476D01*
X110407380Y-82105476D01*
X110740714Y-81200714D02*
X111407380Y-81200714D01*
X110359761Y-81438809D02*
X111074047Y-81676904D01*
X111074047Y-81057857D01*
M02*
