M48
; DRILL file {KiCad (5.1.2)-1} date 12/23/2019 9:45:00 PM
; FORMAT={-:-/ absolute / inch / decimal}
; #@! TF.CreationDate,2019-12-23T21:45:00-05:00
; #@! TF.GenerationSoftware,Kicad,Pcbnew,(5.1.2)-1
; #@! TF.FileFunction,Plated,1,6,PTH
FMAT,2
INCH
T1C0.0118
T2C0.0157
T3C0.0315
T4C0.0394
%
G90
G05
T1
X3.6439Y-1.7264
X3.6636Y-1.7561
X3.7275Y-3.645
X3.731Y-4.065
X3.7362Y-1.8901
X3.7364Y-1.7916
X3.7364Y-2.2811
X3.74Y-3.0675
X3.7475Y-3.7425
X3.7561Y-1.9361
X3.7575Y-2.3175
X3.7575Y-2.35
X3.7575Y-3.1575
X3.7575Y-3.385
X3.7652Y-4.0023
X3.7672Y-3.6102
X3.7687Y-3.4638
X3.775Y-2.5525
X3.775Y-2.7425
X3.775Y-3.2625
X3.78Y-3.82
X3.7875Y-2.9425
X3.79Y-1.8575
X3.79Y-2.8675
X3.7925Y-2.7825
X3.795Y-2.195
X3.7975Y-3.2475
X3.8Y-3.305
X3.8Y-3.75
X3.8025Y-1.7275
X3.8125Y-4.1975
X3.815Y-2.62
X3.8175Y-3.0525
X3.83Y-2.695
X3.83Y-2.9275
X3.8325Y-3.625
X3.8368Y-4.0225
X3.8375Y-2.5925
X3.8435Y-4.0925
X3.855Y-2.9275
X3.855Y-3.0075
X3.86Y-2.5725
X3.87Y-1.9425
X3.87Y-3.495
X3.8747Y-3.0283
X3.88Y-3.225
X3.8816Y-2.6159
X3.8825Y-2.82
X3.8825Y-2.87
X3.8953Y-4.0608
X3.8975Y-2.55
X3.9025Y-3.21
X3.9044Y-3.305
X3.905Y-2.78
X3.9052Y-2.8023
X3.9053Y-2.9562
X3.915Y-2.7275
X3.915Y-3.83
X3.9175Y-3.515
X3.9225Y-3.15
X3.925Y-3.265
X3.925Y-3.6585
X3.945Y-3.3725
X3.945Y-3.6725
X3.95Y-1.955
X3.95Y-3.5775
X3.95Y-3.87
X3.95Y-3.935
X3.9525Y-2.17
X3.965Y-2.62
X3.965Y-2.7275
X3.9675Y-2.7675
X3.9675Y-3.3725
X3.9675Y-3.51
X3.9675Y-3.6725
X3.9725Y-2.19
X3.9752Y-3.8497
X3.9775Y-3.305
X3.9775Y-3.345
X3.9825Y-3.42
X3.985Y-2.6375
X3.9872Y-3.6487
X3.9925Y-1.8303
X3.9925Y-2.21
X3.995Y-2.7725
X3.995Y-2.8075
X3.9975Y-3.045
X3.9975Y-3.065
X4.0025Y-3.085
X4.0025Y-3.91
X4.01Y-2.87
X4.013Y-3.6735
X4.015Y-2.6925
X4.02Y-2.7325
X4.025Y-3.11
X4.025Y-3.9325
X4.0275Y-3.345
X4.0287Y-3.6348
X4.029Y-3.606
X4.03Y-2.84
X4.03Y-2.9525
X4.03Y-3.51
X4.0369Y-1.805
X4.0446Y-3.0529
X4.045Y-1.85
X4.0455Y-4.036
X4.065Y-4.1325
X4.0652Y-4.0398
X4.0662Y-4.2112
X4.075Y-2.2575
X4.075Y-2.34
X4.085Y-4.19
X4.1025Y-1.75
X4.1075Y-1.815
X4.1175Y-1.775
X4.1186Y-1.7264
X4.1195Y-3.85
X4.1198Y-2.7799
X4.12Y-3.0525
X4.12Y-3.0925
X4.12Y-3.525
X4.1225Y-2.2975
X4.1225Y-2.54
X4.1225Y-3.405
X4.1225Y-3.6325
X4.1275Y-2.5975
X4.1275Y-2.62
X4.1275Y-2.6425
X4.1275Y-3.505
X4.1284Y-2.9408
X4.13Y-3.15
X4.13Y-3.375
X4.135Y-2.7025
X4.1425Y-4.01
X4.1475Y-3.96
X4.1475Y-3.9825
X4.15Y-2.925
X4.155Y-2.73
X4.1588Y-1.8867
X4.1603Y-3.0647
X4.1625Y-4.1625
X4.1675Y-3.505
X4.1675Y-4.1125
X4.168Y-3.6745
X4.17Y-2.6825
X4.17Y-3.375
X4.1725Y-2.235
X4.18Y-3.105
X4.1861Y-3.8099
X4.1874Y-3.525
X4.1897Y-4.0872
X4.1925Y-2.5275
X4.1925Y-2.6625
X4.1925Y-2.43
X4.2Y-2.9375
X4.2Y-3.045
X4.2Y-3.0647
X4.206Y-4.039
X4.2075Y-3.285
X4.21Y-3.6075
X4.2175Y-1.79
X4.225Y-2.9275
X4.2275Y-3.155
X4.23Y-4.1375
X4.2325Y-3.19
X4.2325Y-3.325
X4.235Y-3.8925
X4.2358Y-2.3242
X4.2375Y-1.9125
X4.2375Y-4.0875
X4.245Y-2.055
X4.2475Y-2.4325
X4.2475Y-3.105
X4.2475Y-3.135
X4.2475Y-3.81
X4.2497Y-3.0453
X4.2538Y-2.2662
X4.2575Y-1.9325
X4.265Y-2.3225
X4.2668Y-3.77
X4.2703Y-1.9557
X4.275Y-3.69
X4.2772Y-4.1128
X4.29Y-2.05
X4.295Y-4.1625
X4.3Y-2.9275
X4.3Y-3.73
X4.3066Y-4.1384
X4.31Y-1.845
X4.31Y-2.505
X4.3108Y-3.81
X4.3167Y-4.0608
X4.3175Y-2.275
X4.3175Y-4.1975
X4.3208Y-3.7883
X4.3225Y-2.9275
X4.34Y-1.845
X4.34Y-1.88
X4.34Y-3.71
X4.3405Y-3.8095
X4.341Y-3.5655
X4.3425Y-3.915
X4.3438Y-3.4638
X4.3441Y-2.9259
X4.345Y-3.405
X4.3525Y-3.98
X4.3575Y-3.325
X4.36Y-2.72
X4.3607Y-3.5858
X4.365Y-2.095
X4.365Y-3.045
X4.365Y-3.065
X4.367Y-3.1305
X4.3725Y-2.9075
X4.3738Y-3.8512
X4.3738Y-4.0362
X4.375Y-3.345
X4.38Y-3.26
X4.385Y-3.0
X4.39Y-3.1675
X4.3925Y-3.1075
X4.3925Y-3.83
X4.3935Y-4.03
X4.415Y-1.9325
X4.42Y-3.015
X4.42Y-3.155
X4.4225Y-3.225
X4.4225Y-3.645
X4.425Y-1.9125
X4.4658Y-1.8018
X4.48Y-1.7231
X4.4864Y-1.9536
T2
X3.865Y-3.54
X3.9717Y-3.2358
X3.9825Y-2.065
X4.02Y-1.995
X4.02Y-2.1125
X4.02Y-2.5525
X4.0525Y-2.4675
X4.055Y-1.7256
X4.1375Y-2.065
T3
X3.7Y-2.0
X3.7Y-2.07
X3.7Y-2.14
X3.7Y-2.21
X3.7Y-2.28
X3.7Y-2.35
X3.7Y-2.42
X3.7Y-2.49
X3.7Y-2.56
X3.7Y-2.63
X3.7Y-2.7
X3.7Y-2.77
X3.7Y-2.84
X3.7Y-2.91
X3.7Y-2.98
X3.7Y-3.05
X3.7Y-3.12
X3.7Y-3.19
X3.7Y-3.26
X3.7Y-3.33
X3.7Y-3.4
X3.7Y-3.47
X3.7Y-3.54
X3.7Y-3.61
X3.7Y-3.68
X3.7Y-3.75
X3.7Y-3.82
X3.7Y-3.89
X3.7Y-3.96
X3.7Y-4.03
X3.7Y-4.1
X3.7Y-4.17
X4.45Y-2.0
X4.45Y-2.07
X4.45Y-2.14
X4.45Y-2.21
X4.45Y-2.28
X4.45Y-2.35
X4.45Y-2.42
X4.45Y-2.49
X4.45Y-2.56
X4.45Y-2.63
X4.45Y-2.7
X4.45Y-2.77
X4.45Y-2.84
X4.45Y-2.91
X4.45Y-2.98
X4.45Y-3.05
X4.45Y-3.12
X4.45Y-3.19
X4.45Y-3.26
X4.45Y-3.33
X4.45Y-3.4
X4.45Y-3.47
X4.45Y-3.54
X4.45Y-3.61
X4.45Y-3.68
X4.45Y-3.75
X4.45Y-3.82
X4.45Y-3.89
X4.45Y-3.96
X4.45Y-4.03
X4.45Y-4.1
X4.45Y-4.17
T4
X3.8025Y-1.995
X3.8025Y-2.095
X3.9025Y-1.995
X3.9025Y-2.095
X3.9025Y-2.195
X3.9025Y-2.295
T0
M30
