G04 #@! TF.GenerationSoftware,KiCad,Pcbnew,(5.1.2)-1*
G04 #@! TF.CreationDate,2019-12-23T21:44:58-05:00*
G04 #@! TF.ProjectId,C64CPLA,43363443-504c-4412-9e6b-696361645f70,rev?*
G04 #@! TF.SameCoordinates,Original*
G04 #@! TF.FileFunction,Soldermask,Bot*
G04 #@! TF.FilePolarity,Negative*
%FSLAX46Y46*%
G04 Gerber Fmt 4.6, Leading zero omitted, Abs format (unit mm)*
G04 Created by KiCad (PCBNEW (5.1.2)-1) date 2019-12-23 21:44:58*
%MOMM*%
%LPD*%
G04 APERTURE LIST*
%ADD10C,0.100000*%
G04 APERTURE END LIST*
D10*
G36*
X113219890Y-105292017D02*
G01*
X113338364Y-105341091D01*
X113444988Y-105412335D01*
X113535665Y-105503012D01*
X113606909Y-105609636D01*
X113655983Y-105728110D01*
X113681000Y-105853882D01*
X113681000Y-105982118D01*
X113655983Y-106107890D01*
X113606909Y-106226364D01*
X113535665Y-106332988D01*
X113444988Y-106423665D01*
X113338364Y-106494909D01*
X113338363Y-106494910D01*
X113338362Y-106494910D01*
X113219890Y-106543983D01*
X113094119Y-106569000D01*
X112965881Y-106569000D01*
X112840110Y-106543983D01*
X112721638Y-106494910D01*
X112721637Y-106494910D01*
X112721636Y-106494909D01*
X112615012Y-106423665D01*
X112524335Y-106332988D01*
X112453091Y-106226364D01*
X112404017Y-106107890D01*
X112379000Y-105982118D01*
X112379000Y-105853882D01*
X112404017Y-105728110D01*
X112453091Y-105609636D01*
X112524335Y-105503012D01*
X112615012Y-105412335D01*
X112721636Y-105341091D01*
X112840110Y-105292017D01*
X112965881Y-105267000D01*
X113094119Y-105267000D01*
X113219890Y-105292017D01*
X113219890Y-105292017D01*
G37*
G36*
X94169890Y-105292017D02*
G01*
X94288364Y-105341091D01*
X94394988Y-105412335D01*
X94485665Y-105503012D01*
X94556909Y-105609636D01*
X94605983Y-105728110D01*
X94631000Y-105853882D01*
X94631000Y-105982118D01*
X94605983Y-106107890D01*
X94556909Y-106226364D01*
X94485665Y-106332988D01*
X94394988Y-106423665D01*
X94288364Y-106494909D01*
X94288363Y-106494910D01*
X94288362Y-106494910D01*
X94169890Y-106543983D01*
X94044119Y-106569000D01*
X93915881Y-106569000D01*
X93790110Y-106543983D01*
X93671638Y-106494910D01*
X93671637Y-106494910D01*
X93671636Y-106494909D01*
X93565012Y-106423665D01*
X93474335Y-106332988D01*
X93403091Y-106226364D01*
X93354017Y-106107890D01*
X93329000Y-105982118D01*
X93329000Y-105853882D01*
X93354017Y-105728110D01*
X93403091Y-105609636D01*
X93474335Y-105503012D01*
X93565012Y-105412335D01*
X93671636Y-105341091D01*
X93790110Y-105292017D01*
X93915881Y-105267000D01*
X94044119Y-105267000D01*
X94169890Y-105292017D01*
X94169890Y-105292017D01*
G37*
G36*
X94169890Y-103514017D02*
G01*
X94288364Y-103563091D01*
X94394988Y-103634335D01*
X94485665Y-103725012D01*
X94556909Y-103831636D01*
X94605983Y-103950110D01*
X94631000Y-104075882D01*
X94631000Y-104204118D01*
X94605983Y-104329890D01*
X94556909Y-104448364D01*
X94485665Y-104554988D01*
X94394988Y-104645665D01*
X94288364Y-104716909D01*
X94288363Y-104716910D01*
X94288362Y-104716910D01*
X94169890Y-104765983D01*
X94044119Y-104791000D01*
X93915881Y-104791000D01*
X93790110Y-104765983D01*
X93671638Y-104716910D01*
X93671637Y-104716910D01*
X93671636Y-104716909D01*
X93565012Y-104645665D01*
X93474335Y-104554988D01*
X93403091Y-104448364D01*
X93354017Y-104329890D01*
X93329000Y-104204118D01*
X93329000Y-104075882D01*
X93354017Y-103950110D01*
X93403091Y-103831636D01*
X93474335Y-103725012D01*
X93565012Y-103634335D01*
X93671636Y-103563091D01*
X93790110Y-103514017D01*
X93915881Y-103489000D01*
X94044119Y-103489000D01*
X94169890Y-103514017D01*
X94169890Y-103514017D01*
G37*
G36*
X113219890Y-103514017D02*
G01*
X113338364Y-103563091D01*
X113444988Y-103634335D01*
X113535665Y-103725012D01*
X113606909Y-103831636D01*
X113655983Y-103950110D01*
X113681000Y-104075882D01*
X113681000Y-104204118D01*
X113655983Y-104329890D01*
X113606909Y-104448364D01*
X113535665Y-104554988D01*
X113444988Y-104645665D01*
X113338364Y-104716909D01*
X113338363Y-104716910D01*
X113338362Y-104716910D01*
X113219890Y-104765983D01*
X113094119Y-104791000D01*
X112965881Y-104791000D01*
X112840110Y-104765983D01*
X112721638Y-104716910D01*
X112721637Y-104716910D01*
X112721636Y-104716909D01*
X112615012Y-104645665D01*
X112524335Y-104554988D01*
X112453091Y-104448364D01*
X112404017Y-104329890D01*
X112379000Y-104204118D01*
X112379000Y-104075882D01*
X112404017Y-103950110D01*
X112453091Y-103831636D01*
X112524335Y-103725012D01*
X112615012Y-103634335D01*
X112721636Y-103563091D01*
X112840110Y-103514017D01*
X112965881Y-103489000D01*
X113094119Y-103489000D01*
X113219890Y-103514017D01*
X113219890Y-103514017D01*
G37*
G36*
X94169890Y-101736017D02*
G01*
X94288364Y-101785091D01*
X94394988Y-101856335D01*
X94485665Y-101947012D01*
X94556909Y-102053636D01*
X94605983Y-102172110D01*
X94631000Y-102297882D01*
X94631000Y-102426118D01*
X94605983Y-102551890D01*
X94556909Y-102670364D01*
X94485665Y-102776988D01*
X94394988Y-102867665D01*
X94288364Y-102938909D01*
X94288363Y-102938910D01*
X94288362Y-102938910D01*
X94169890Y-102987983D01*
X94044119Y-103013000D01*
X93915881Y-103013000D01*
X93790110Y-102987983D01*
X93671638Y-102938910D01*
X93671637Y-102938910D01*
X93671636Y-102938909D01*
X93565012Y-102867665D01*
X93474335Y-102776988D01*
X93403091Y-102670364D01*
X93354017Y-102551890D01*
X93329000Y-102426118D01*
X93329000Y-102297882D01*
X93354017Y-102172110D01*
X93403091Y-102053636D01*
X93474335Y-101947012D01*
X93565012Y-101856335D01*
X93671636Y-101785091D01*
X93790110Y-101736017D01*
X93915881Y-101711000D01*
X94044119Y-101711000D01*
X94169890Y-101736017D01*
X94169890Y-101736017D01*
G37*
G36*
X113219890Y-101736017D02*
G01*
X113338364Y-101785091D01*
X113444988Y-101856335D01*
X113535665Y-101947012D01*
X113606909Y-102053636D01*
X113655983Y-102172110D01*
X113681000Y-102297882D01*
X113681000Y-102426118D01*
X113655983Y-102551890D01*
X113606909Y-102670364D01*
X113535665Y-102776988D01*
X113444988Y-102867665D01*
X113338364Y-102938909D01*
X113338363Y-102938910D01*
X113338362Y-102938910D01*
X113219890Y-102987983D01*
X113094119Y-103013000D01*
X112965881Y-103013000D01*
X112840110Y-102987983D01*
X112721638Y-102938910D01*
X112721637Y-102938910D01*
X112721636Y-102938909D01*
X112615012Y-102867665D01*
X112524335Y-102776988D01*
X112453091Y-102670364D01*
X112404017Y-102551890D01*
X112379000Y-102426118D01*
X112379000Y-102297882D01*
X112404017Y-102172110D01*
X112453091Y-102053636D01*
X112524335Y-101947012D01*
X112615012Y-101856335D01*
X112721636Y-101785091D01*
X112840110Y-101736017D01*
X112965881Y-101711000D01*
X113094119Y-101711000D01*
X113219890Y-101736017D01*
X113219890Y-101736017D01*
G37*
G36*
X113219890Y-99958017D02*
G01*
X113338364Y-100007091D01*
X113444988Y-100078335D01*
X113535665Y-100169012D01*
X113606909Y-100275636D01*
X113655983Y-100394110D01*
X113681000Y-100519882D01*
X113681000Y-100648118D01*
X113655983Y-100773890D01*
X113606909Y-100892364D01*
X113535665Y-100998988D01*
X113444988Y-101089665D01*
X113338364Y-101160909D01*
X113338363Y-101160910D01*
X113338362Y-101160910D01*
X113219890Y-101209983D01*
X113094119Y-101235000D01*
X112965881Y-101235000D01*
X112840110Y-101209983D01*
X112721638Y-101160910D01*
X112721637Y-101160910D01*
X112721636Y-101160909D01*
X112615012Y-101089665D01*
X112524335Y-100998988D01*
X112453091Y-100892364D01*
X112404017Y-100773890D01*
X112379000Y-100648118D01*
X112379000Y-100519882D01*
X112404017Y-100394110D01*
X112453091Y-100275636D01*
X112524335Y-100169012D01*
X112615012Y-100078335D01*
X112721636Y-100007091D01*
X112840110Y-99958017D01*
X112965881Y-99933000D01*
X113094119Y-99933000D01*
X113219890Y-99958017D01*
X113219890Y-99958017D01*
G37*
G36*
X94169890Y-99958017D02*
G01*
X94288364Y-100007091D01*
X94394988Y-100078335D01*
X94485665Y-100169012D01*
X94556909Y-100275636D01*
X94605983Y-100394110D01*
X94631000Y-100519882D01*
X94631000Y-100648118D01*
X94605983Y-100773890D01*
X94556909Y-100892364D01*
X94485665Y-100998988D01*
X94394988Y-101089665D01*
X94288364Y-101160909D01*
X94288363Y-101160910D01*
X94288362Y-101160910D01*
X94169890Y-101209983D01*
X94044119Y-101235000D01*
X93915881Y-101235000D01*
X93790110Y-101209983D01*
X93671638Y-101160910D01*
X93671637Y-101160910D01*
X93671636Y-101160909D01*
X93565012Y-101089665D01*
X93474335Y-100998988D01*
X93403091Y-100892364D01*
X93354017Y-100773890D01*
X93329000Y-100648118D01*
X93329000Y-100519882D01*
X93354017Y-100394110D01*
X93403091Y-100275636D01*
X93474335Y-100169012D01*
X93565012Y-100078335D01*
X93671636Y-100007091D01*
X93790110Y-99958017D01*
X93915881Y-99933000D01*
X94044119Y-99933000D01*
X94169890Y-99958017D01*
X94169890Y-99958017D01*
G37*
G36*
X94169890Y-98180017D02*
G01*
X94288364Y-98229091D01*
X94394988Y-98300335D01*
X94485665Y-98391012D01*
X94556909Y-98497636D01*
X94605983Y-98616110D01*
X94631000Y-98741882D01*
X94631000Y-98870118D01*
X94605983Y-98995890D01*
X94556909Y-99114364D01*
X94485665Y-99220988D01*
X94394988Y-99311665D01*
X94288364Y-99382909D01*
X94288363Y-99382910D01*
X94288362Y-99382910D01*
X94169890Y-99431983D01*
X94044119Y-99457000D01*
X93915881Y-99457000D01*
X93790110Y-99431983D01*
X93671638Y-99382910D01*
X93671637Y-99382910D01*
X93671636Y-99382909D01*
X93565012Y-99311665D01*
X93474335Y-99220988D01*
X93403091Y-99114364D01*
X93354017Y-98995890D01*
X93329000Y-98870118D01*
X93329000Y-98741882D01*
X93354017Y-98616110D01*
X93403091Y-98497636D01*
X93474335Y-98391012D01*
X93565012Y-98300335D01*
X93671636Y-98229091D01*
X93790110Y-98180017D01*
X93915881Y-98155000D01*
X94044119Y-98155000D01*
X94169890Y-98180017D01*
X94169890Y-98180017D01*
G37*
G36*
X113219890Y-98180017D02*
G01*
X113338364Y-98229091D01*
X113444988Y-98300335D01*
X113535665Y-98391012D01*
X113606909Y-98497636D01*
X113655983Y-98616110D01*
X113681000Y-98741882D01*
X113681000Y-98870118D01*
X113655983Y-98995890D01*
X113606909Y-99114364D01*
X113535665Y-99220988D01*
X113444988Y-99311665D01*
X113338364Y-99382909D01*
X113338363Y-99382910D01*
X113338362Y-99382910D01*
X113219890Y-99431983D01*
X113094119Y-99457000D01*
X112965881Y-99457000D01*
X112840110Y-99431983D01*
X112721638Y-99382910D01*
X112721637Y-99382910D01*
X112721636Y-99382909D01*
X112615012Y-99311665D01*
X112524335Y-99220988D01*
X112453091Y-99114364D01*
X112404017Y-98995890D01*
X112379000Y-98870118D01*
X112379000Y-98741882D01*
X112404017Y-98616110D01*
X112453091Y-98497636D01*
X112524335Y-98391012D01*
X112615012Y-98300335D01*
X112721636Y-98229091D01*
X112840110Y-98180017D01*
X112965881Y-98155000D01*
X113094119Y-98155000D01*
X113219890Y-98180017D01*
X113219890Y-98180017D01*
G37*
G36*
X113219890Y-96402017D02*
G01*
X113338364Y-96451091D01*
X113444988Y-96522335D01*
X113535665Y-96613012D01*
X113606909Y-96719636D01*
X113655983Y-96838110D01*
X113681000Y-96963882D01*
X113681000Y-97092118D01*
X113655983Y-97217890D01*
X113606909Y-97336364D01*
X113535665Y-97442988D01*
X113444988Y-97533665D01*
X113338364Y-97604909D01*
X113338363Y-97604910D01*
X113338362Y-97604910D01*
X113219890Y-97653983D01*
X113094119Y-97679000D01*
X112965881Y-97679000D01*
X112840110Y-97653983D01*
X112721638Y-97604910D01*
X112721637Y-97604910D01*
X112721636Y-97604909D01*
X112615012Y-97533665D01*
X112524335Y-97442988D01*
X112453091Y-97336364D01*
X112404017Y-97217890D01*
X112379000Y-97092118D01*
X112379000Y-96963882D01*
X112404017Y-96838110D01*
X112453091Y-96719636D01*
X112524335Y-96613012D01*
X112615012Y-96522335D01*
X112721636Y-96451091D01*
X112840110Y-96402017D01*
X112965881Y-96377000D01*
X113094119Y-96377000D01*
X113219890Y-96402017D01*
X113219890Y-96402017D01*
G37*
G36*
X94169890Y-96402017D02*
G01*
X94288364Y-96451091D01*
X94394988Y-96522335D01*
X94485665Y-96613012D01*
X94556909Y-96719636D01*
X94605983Y-96838110D01*
X94631000Y-96963882D01*
X94631000Y-97092118D01*
X94605983Y-97217890D01*
X94556909Y-97336364D01*
X94485665Y-97442988D01*
X94394988Y-97533665D01*
X94288364Y-97604909D01*
X94288363Y-97604910D01*
X94288362Y-97604910D01*
X94169890Y-97653983D01*
X94044119Y-97679000D01*
X93915881Y-97679000D01*
X93790110Y-97653983D01*
X93671638Y-97604910D01*
X93671637Y-97604910D01*
X93671636Y-97604909D01*
X93565012Y-97533665D01*
X93474335Y-97442988D01*
X93403091Y-97336364D01*
X93354017Y-97217890D01*
X93329000Y-97092118D01*
X93329000Y-96963882D01*
X93354017Y-96838110D01*
X93403091Y-96719636D01*
X93474335Y-96613012D01*
X93565012Y-96522335D01*
X93671636Y-96451091D01*
X93790110Y-96402017D01*
X93915881Y-96377000D01*
X94044119Y-96377000D01*
X94169890Y-96402017D01*
X94169890Y-96402017D01*
G37*
G36*
X113219890Y-94624017D02*
G01*
X113338364Y-94673091D01*
X113444988Y-94744335D01*
X113535665Y-94835012D01*
X113606909Y-94941636D01*
X113655983Y-95060110D01*
X113681000Y-95185882D01*
X113681000Y-95314118D01*
X113655983Y-95439890D01*
X113606909Y-95558364D01*
X113535665Y-95664988D01*
X113444988Y-95755665D01*
X113338364Y-95826909D01*
X113338363Y-95826910D01*
X113338362Y-95826910D01*
X113219890Y-95875983D01*
X113094119Y-95901000D01*
X112965881Y-95901000D01*
X112840110Y-95875983D01*
X112721638Y-95826910D01*
X112721637Y-95826910D01*
X112721636Y-95826909D01*
X112615012Y-95755665D01*
X112524335Y-95664988D01*
X112453091Y-95558364D01*
X112404017Y-95439890D01*
X112379000Y-95314118D01*
X112379000Y-95185882D01*
X112404017Y-95060110D01*
X112453091Y-94941636D01*
X112524335Y-94835012D01*
X112615012Y-94744335D01*
X112721636Y-94673091D01*
X112840110Y-94624017D01*
X112965881Y-94599000D01*
X113094119Y-94599000D01*
X113219890Y-94624017D01*
X113219890Y-94624017D01*
G37*
G36*
X94169890Y-94624017D02*
G01*
X94288364Y-94673091D01*
X94394988Y-94744335D01*
X94485665Y-94835012D01*
X94556909Y-94941636D01*
X94605983Y-95060110D01*
X94631000Y-95185882D01*
X94631000Y-95314118D01*
X94605983Y-95439890D01*
X94556909Y-95558364D01*
X94485665Y-95664988D01*
X94394988Y-95755665D01*
X94288364Y-95826909D01*
X94288363Y-95826910D01*
X94288362Y-95826910D01*
X94169890Y-95875983D01*
X94044119Y-95901000D01*
X93915881Y-95901000D01*
X93790110Y-95875983D01*
X93671638Y-95826910D01*
X93671637Y-95826910D01*
X93671636Y-95826909D01*
X93565012Y-95755665D01*
X93474335Y-95664988D01*
X93403091Y-95558364D01*
X93354017Y-95439890D01*
X93329000Y-95314118D01*
X93329000Y-95185882D01*
X93354017Y-95060110D01*
X93403091Y-94941636D01*
X93474335Y-94835012D01*
X93565012Y-94744335D01*
X93671636Y-94673091D01*
X93790110Y-94624017D01*
X93915881Y-94599000D01*
X94044119Y-94599000D01*
X94169890Y-94624017D01*
X94169890Y-94624017D01*
G37*
G36*
X94169890Y-92846017D02*
G01*
X94288364Y-92895091D01*
X94394988Y-92966335D01*
X94485665Y-93057012D01*
X94556909Y-93163636D01*
X94605983Y-93282110D01*
X94631000Y-93407882D01*
X94631000Y-93536118D01*
X94605983Y-93661890D01*
X94556909Y-93780364D01*
X94485665Y-93886988D01*
X94394988Y-93977665D01*
X94288364Y-94048909D01*
X94288363Y-94048910D01*
X94288362Y-94048910D01*
X94169890Y-94097983D01*
X94044119Y-94123000D01*
X93915881Y-94123000D01*
X93790110Y-94097983D01*
X93671638Y-94048910D01*
X93671637Y-94048910D01*
X93671636Y-94048909D01*
X93565012Y-93977665D01*
X93474335Y-93886988D01*
X93403091Y-93780364D01*
X93354017Y-93661890D01*
X93329000Y-93536118D01*
X93329000Y-93407882D01*
X93354017Y-93282110D01*
X93403091Y-93163636D01*
X93474335Y-93057012D01*
X93565012Y-92966335D01*
X93671636Y-92895091D01*
X93790110Y-92846017D01*
X93915881Y-92821000D01*
X94044119Y-92821000D01*
X94169890Y-92846017D01*
X94169890Y-92846017D01*
G37*
G36*
X113219890Y-92846017D02*
G01*
X113338364Y-92895091D01*
X113444988Y-92966335D01*
X113535665Y-93057012D01*
X113606909Y-93163636D01*
X113655983Y-93282110D01*
X113681000Y-93407882D01*
X113681000Y-93536118D01*
X113655983Y-93661890D01*
X113606909Y-93780364D01*
X113535665Y-93886988D01*
X113444988Y-93977665D01*
X113338364Y-94048909D01*
X113338363Y-94048910D01*
X113338362Y-94048910D01*
X113219890Y-94097983D01*
X113094119Y-94123000D01*
X112965881Y-94123000D01*
X112840110Y-94097983D01*
X112721638Y-94048910D01*
X112721637Y-94048910D01*
X112721636Y-94048909D01*
X112615012Y-93977665D01*
X112524335Y-93886988D01*
X112453091Y-93780364D01*
X112404017Y-93661890D01*
X112379000Y-93536118D01*
X112379000Y-93407882D01*
X112404017Y-93282110D01*
X112453091Y-93163636D01*
X112524335Y-93057012D01*
X112615012Y-92966335D01*
X112721636Y-92895091D01*
X112840110Y-92846017D01*
X112965881Y-92821000D01*
X113094119Y-92821000D01*
X113219890Y-92846017D01*
X113219890Y-92846017D01*
G37*
G36*
X113219890Y-91068017D02*
G01*
X113338364Y-91117091D01*
X113444988Y-91188335D01*
X113535665Y-91279012D01*
X113606909Y-91385636D01*
X113655983Y-91504110D01*
X113681000Y-91629882D01*
X113681000Y-91758118D01*
X113655983Y-91883890D01*
X113606909Y-92002364D01*
X113535665Y-92108988D01*
X113444988Y-92199665D01*
X113338364Y-92270909D01*
X113338363Y-92270910D01*
X113338362Y-92270910D01*
X113219890Y-92319983D01*
X113094119Y-92345000D01*
X112965881Y-92345000D01*
X112840110Y-92319983D01*
X112721638Y-92270910D01*
X112721637Y-92270910D01*
X112721636Y-92270909D01*
X112615012Y-92199665D01*
X112524335Y-92108988D01*
X112453091Y-92002364D01*
X112404017Y-91883890D01*
X112379000Y-91758118D01*
X112379000Y-91629882D01*
X112404017Y-91504110D01*
X112453091Y-91385636D01*
X112524335Y-91279012D01*
X112615012Y-91188335D01*
X112721636Y-91117091D01*
X112840110Y-91068017D01*
X112965881Y-91043000D01*
X113094119Y-91043000D01*
X113219890Y-91068017D01*
X113219890Y-91068017D01*
G37*
G36*
X94169890Y-91068017D02*
G01*
X94288364Y-91117091D01*
X94394988Y-91188335D01*
X94485665Y-91279012D01*
X94556909Y-91385636D01*
X94605983Y-91504110D01*
X94631000Y-91629882D01*
X94631000Y-91758118D01*
X94605983Y-91883890D01*
X94556909Y-92002364D01*
X94485665Y-92108988D01*
X94394988Y-92199665D01*
X94288364Y-92270909D01*
X94288363Y-92270910D01*
X94288362Y-92270910D01*
X94169890Y-92319983D01*
X94044119Y-92345000D01*
X93915881Y-92345000D01*
X93790110Y-92319983D01*
X93671638Y-92270910D01*
X93671637Y-92270910D01*
X93671636Y-92270909D01*
X93565012Y-92199665D01*
X93474335Y-92108988D01*
X93403091Y-92002364D01*
X93354017Y-91883890D01*
X93329000Y-91758118D01*
X93329000Y-91629882D01*
X93354017Y-91504110D01*
X93403091Y-91385636D01*
X93474335Y-91279012D01*
X93565012Y-91188335D01*
X93671636Y-91117091D01*
X93790110Y-91068017D01*
X93915881Y-91043000D01*
X94044119Y-91043000D01*
X94169890Y-91068017D01*
X94169890Y-91068017D01*
G37*
G36*
X113219890Y-89290017D02*
G01*
X113338364Y-89339091D01*
X113444988Y-89410335D01*
X113535665Y-89501012D01*
X113606909Y-89607636D01*
X113655983Y-89726110D01*
X113681000Y-89851882D01*
X113681000Y-89980118D01*
X113655983Y-90105890D01*
X113606909Y-90224364D01*
X113535665Y-90330988D01*
X113444988Y-90421665D01*
X113338364Y-90492909D01*
X113338363Y-90492910D01*
X113338362Y-90492910D01*
X113219890Y-90541983D01*
X113094119Y-90567000D01*
X112965881Y-90567000D01*
X112840110Y-90541983D01*
X112721638Y-90492910D01*
X112721637Y-90492910D01*
X112721636Y-90492909D01*
X112615012Y-90421665D01*
X112524335Y-90330988D01*
X112453091Y-90224364D01*
X112404017Y-90105890D01*
X112379000Y-89980118D01*
X112379000Y-89851882D01*
X112404017Y-89726110D01*
X112453091Y-89607636D01*
X112524335Y-89501012D01*
X112615012Y-89410335D01*
X112721636Y-89339091D01*
X112840110Y-89290017D01*
X112965881Y-89265000D01*
X113094119Y-89265000D01*
X113219890Y-89290017D01*
X113219890Y-89290017D01*
G37*
G36*
X94169890Y-89290017D02*
G01*
X94288364Y-89339091D01*
X94394988Y-89410335D01*
X94485665Y-89501012D01*
X94556909Y-89607636D01*
X94605983Y-89726110D01*
X94631000Y-89851882D01*
X94631000Y-89980118D01*
X94605983Y-90105890D01*
X94556909Y-90224364D01*
X94485665Y-90330988D01*
X94394988Y-90421665D01*
X94288364Y-90492909D01*
X94288363Y-90492910D01*
X94288362Y-90492910D01*
X94169890Y-90541983D01*
X94044119Y-90567000D01*
X93915881Y-90567000D01*
X93790110Y-90541983D01*
X93671638Y-90492910D01*
X93671637Y-90492910D01*
X93671636Y-90492909D01*
X93565012Y-90421665D01*
X93474335Y-90330988D01*
X93403091Y-90224364D01*
X93354017Y-90105890D01*
X93329000Y-89980118D01*
X93329000Y-89851882D01*
X93354017Y-89726110D01*
X93403091Y-89607636D01*
X93474335Y-89501012D01*
X93565012Y-89410335D01*
X93671636Y-89339091D01*
X93790110Y-89290017D01*
X93915881Y-89265000D01*
X94044119Y-89265000D01*
X94169890Y-89290017D01*
X94169890Y-89290017D01*
G37*
G36*
X94169890Y-87512017D02*
G01*
X94288364Y-87561091D01*
X94394988Y-87632335D01*
X94485665Y-87723012D01*
X94556909Y-87829636D01*
X94605983Y-87948110D01*
X94631000Y-88073882D01*
X94631000Y-88202118D01*
X94605983Y-88327890D01*
X94556909Y-88446364D01*
X94485665Y-88552988D01*
X94394988Y-88643665D01*
X94288364Y-88714909D01*
X94288363Y-88714910D01*
X94288362Y-88714910D01*
X94169890Y-88763983D01*
X94044119Y-88789000D01*
X93915881Y-88789000D01*
X93790110Y-88763983D01*
X93671638Y-88714910D01*
X93671637Y-88714910D01*
X93671636Y-88714909D01*
X93565012Y-88643665D01*
X93474335Y-88552988D01*
X93403091Y-88446364D01*
X93354017Y-88327890D01*
X93329000Y-88202118D01*
X93329000Y-88073882D01*
X93354017Y-87948110D01*
X93403091Y-87829636D01*
X93474335Y-87723012D01*
X93565012Y-87632335D01*
X93671636Y-87561091D01*
X93790110Y-87512017D01*
X93915881Y-87487000D01*
X94044119Y-87487000D01*
X94169890Y-87512017D01*
X94169890Y-87512017D01*
G37*
G36*
X113219890Y-87512017D02*
G01*
X113338364Y-87561091D01*
X113444988Y-87632335D01*
X113535665Y-87723012D01*
X113606909Y-87829636D01*
X113655983Y-87948110D01*
X113681000Y-88073882D01*
X113681000Y-88202118D01*
X113655983Y-88327890D01*
X113606909Y-88446364D01*
X113535665Y-88552988D01*
X113444988Y-88643665D01*
X113338364Y-88714909D01*
X113338363Y-88714910D01*
X113338362Y-88714910D01*
X113219890Y-88763983D01*
X113094119Y-88789000D01*
X112965881Y-88789000D01*
X112840110Y-88763983D01*
X112721638Y-88714910D01*
X112721637Y-88714910D01*
X112721636Y-88714909D01*
X112615012Y-88643665D01*
X112524335Y-88552988D01*
X112453091Y-88446364D01*
X112404017Y-88327890D01*
X112379000Y-88202118D01*
X112379000Y-88073882D01*
X112404017Y-87948110D01*
X112453091Y-87829636D01*
X112524335Y-87723012D01*
X112615012Y-87632335D01*
X112721636Y-87561091D01*
X112840110Y-87512017D01*
X112965881Y-87487000D01*
X113094119Y-87487000D01*
X113219890Y-87512017D01*
X113219890Y-87512017D01*
G37*
G36*
X113219890Y-85734017D02*
G01*
X113338364Y-85783091D01*
X113444988Y-85854335D01*
X113535665Y-85945012D01*
X113606909Y-86051636D01*
X113655983Y-86170110D01*
X113681000Y-86295882D01*
X113681000Y-86424118D01*
X113655983Y-86549890D01*
X113606909Y-86668364D01*
X113535665Y-86774988D01*
X113444988Y-86865665D01*
X113338364Y-86936909D01*
X113338363Y-86936910D01*
X113338362Y-86936910D01*
X113219890Y-86985983D01*
X113094119Y-87011000D01*
X112965881Y-87011000D01*
X112840110Y-86985983D01*
X112721638Y-86936910D01*
X112721637Y-86936910D01*
X112721636Y-86936909D01*
X112615012Y-86865665D01*
X112524335Y-86774988D01*
X112453091Y-86668364D01*
X112404017Y-86549890D01*
X112379000Y-86424118D01*
X112379000Y-86295882D01*
X112404017Y-86170110D01*
X112453091Y-86051636D01*
X112524335Y-85945012D01*
X112615012Y-85854335D01*
X112721636Y-85783091D01*
X112840110Y-85734017D01*
X112965881Y-85709000D01*
X113094119Y-85709000D01*
X113219890Y-85734017D01*
X113219890Y-85734017D01*
G37*
G36*
X94169890Y-85734017D02*
G01*
X94288364Y-85783091D01*
X94394988Y-85854335D01*
X94485665Y-85945012D01*
X94556909Y-86051636D01*
X94605983Y-86170110D01*
X94631000Y-86295882D01*
X94631000Y-86424118D01*
X94605983Y-86549890D01*
X94556909Y-86668364D01*
X94485665Y-86774988D01*
X94394988Y-86865665D01*
X94288364Y-86936909D01*
X94288363Y-86936910D01*
X94288362Y-86936910D01*
X94169890Y-86985983D01*
X94044119Y-87011000D01*
X93915881Y-87011000D01*
X93790110Y-86985983D01*
X93671638Y-86936910D01*
X93671637Y-86936910D01*
X93671636Y-86936909D01*
X93565012Y-86865665D01*
X93474335Y-86774988D01*
X93403091Y-86668364D01*
X93354017Y-86549890D01*
X93329000Y-86424118D01*
X93329000Y-86295882D01*
X93354017Y-86170110D01*
X93403091Y-86051636D01*
X93474335Y-85945012D01*
X93565012Y-85854335D01*
X93671636Y-85783091D01*
X93790110Y-85734017D01*
X93915881Y-85709000D01*
X94044119Y-85709000D01*
X94169890Y-85734017D01*
X94169890Y-85734017D01*
G37*
G36*
X113219890Y-83956017D02*
G01*
X113338364Y-84005091D01*
X113444988Y-84076335D01*
X113535665Y-84167012D01*
X113606909Y-84273636D01*
X113655983Y-84392110D01*
X113681000Y-84517882D01*
X113681000Y-84646118D01*
X113655983Y-84771890D01*
X113606909Y-84890364D01*
X113535665Y-84996988D01*
X113444988Y-85087665D01*
X113338364Y-85158909D01*
X113338363Y-85158910D01*
X113338362Y-85158910D01*
X113219890Y-85207983D01*
X113094119Y-85233000D01*
X112965881Y-85233000D01*
X112840110Y-85207983D01*
X112721638Y-85158910D01*
X112721637Y-85158910D01*
X112721636Y-85158909D01*
X112615012Y-85087665D01*
X112524335Y-84996988D01*
X112453091Y-84890364D01*
X112404017Y-84771890D01*
X112379000Y-84646118D01*
X112379000Y-84517882D01*
X112404017Y-84392110D01*
X112453091Y-84273636D01*
X112524335Y-84167012D01*
X112615012Y-84076335D01*
X112721636Y-84005091D01*
X112840110Y-83956017D01*
X112965881Y-83931000D01*
X113094119Y-83931000D01*
X113219890Y-83956017D01*
X113219890Y-83956017D01*
G37*
G36*
X94169890Y-83956017D02*
G01*
X94288364Y-84005091D01*
X94394988Y-84076335D01*
X94485665Y-84167012D01*
X94556909Y-84273636D01*
X94605983Y-84392110D01*
X94631000Y-84517882D01*
X94631000Y-84646118D01*
X94605983Y-84771890D01*
X94556909Y-84890364D01*
X94485665Y-84996988D01*
X94394988Y-85087665D01*
X94288364Y-85158909D01*
X94288363Y-85158910D01*
X94288362Y-85158910D01*
X94169890Y-85207983D01*
X94044119Y-85233000D01*
X93915881Y-85233000D01*
X93790110Y-85207983D01*
X93671638Y-85158910D01*
X93671637Y-85158910D01*
X93671636Y-85158909D01*
X93565012Y-85087665D01*
X93474335Y-84996988D01*
X93403091Y-84890364D01*
X93354017Y-84771890D01*
X93329000Y-84646118D01*
X93329000Y-84517882D01*
X93354017Y-84392110D01*
X93403091Y-84273636D01*
X93474335Y-84167012D01*
X93565012Y-84076335D01*
X93671636Y-84005091D01*
X93790110Y-83956017D01*
X93915881Y-83931000D01*
X94044119Y-83931000D01*
X94169890Y-83956017D01*
X94169890Y-83956017D01*
G37*
G36*
X94169890Y-82178017D02*
G01*
X94288364Y-82227091D01*
X94394988Y-82298335D01*
X94485665Y-82389012D01*
X94556909Y-82495636D01*
X94605983Y-82614110D01*
X94631000Y-82739882D01*
X94631000Y-82868118D01*
X94605983Y-82993890D01*
X94556909Y-83112364D01*
X94485665Y-83218988D01*
X94394988Y-83309665D01*
X94288364Y-83380909D01*
X94288363Y-83380910D01*
X94288362Y-83380910D01*
X94169890Y-83429983D01*
X94044119Y-83455000D01*
X93915881Y-83455000D01*
X93790110Y-83429983D01*
X93671638Y-83380910D01*
X93671637Y-83380910D01*
X93671636Y-83380909D01*
X93565012Y-83309665D01*
X93474335Y-83218988D01*
X93403091Y-83112364D01*
X93354017Y-82993890D01*
X93329000Y-82868118D01*
X93329000Y-82739882D01*
X93354017Y-82614110D01*
X93403091Y-82495636D01*
X93474335Y-82389012D01*
X93565012Y-82298335D01*
X93671636Y-82227091D01*
X93790110Y-82178017D01*
X93915881Y-82153000D01*
X94044119Y-82153000D01*
X94169890Y-82178017D01*
X94169890Y-82178017D01*
G37*
G36*
X113219890Y-82178017D02*
G01*
X113338364Y-82227091D01*
X113444988Y-82298335D01*
X113535665Y-82389012D01*
X113606909Y-82495636D01*
X113655983Y-82614110D01*
X113681000Y-82739882D01*
X113681000Y-82868118D01*
X113655983Y-82993890D01*
X113606909Y-83112364D01*
X113535665Y-83218988D01*
X113444988Y-83309665D01*
X113338364Y-83380909D01*
X113338363Y-83380910D01*
X113338362Y-83380910D01*
X113219890Y-83429983D01*
X113094119Y-83455000D01*
X112965881Y-83455000D01*
X112840110Y-83429983D01*
X112721638Y-83380910D01*
X112721637Y-83380910D01*
X112721636Y-83380909D01*
X112615012Y-83309665D01*
X112524335Y-83218988D01*
X112453091Y-83112364D01*
X112404017Y-82993890D01*
X112379000Y-82868118D01*
X112379000Y-82739882D01*
X112404017Y-82614110D01*
X112453091Y-82495636D01*
X112524335Y-82389012D01*
X112615012Y-82298335D01*
X112721636Y-82227091D01*
X112840110Y-82178017D01*
X112965881Y-82153000D01*
X113094119Y-82153000D01*
X113219890Y-82178017D01*
X113219890Y-82178017D01*
G37*
G36*
X111468500Y-82910500D02*
G01*
X105066500Y-82910500D01*
X105066500Y-81358500D01*
X111468500Y-81358500D01*
X111468500Y-82910500D01*
X111468500Y-82910500D01*
G37*
G36*
X94169890Y-80400017D02*
G01*
X94288364Y-80449091D01*
X94394988Y-80520335D01*
X94485665Y-80611012D01*
X94556909Y-80717636D01*
X94605983Y-80836110D01*
X94631000Y-80961882D01*
X94631000Y-81090118D01*
X94605983Y-81215890D01*
X94556909Y-81334364D01*
X94485665Y-81440988D01*
X94394988Y-81531665D01*
X94288364Y-81602909D01*
X94288363Y-81602910D01*
X94288362Y-81602910D01*
X94169890Y-81651983D01*
X94044119Y-81677000D01*
X93915881Y-81677000D01*
X93790110Y-81651983D01*
X93671638Y-81602910D01*
X93671637Y-81602910D01*
X93671636Y-81602909D01*
X93565012Y-81531665D01*
X93474335Y-81440988D01*
X93403091Y-81334364D01*
X93354017Y-81215890D01*
X93329000Y-81090118D01*
X93329000Y-80961882D01*
X93354017Y-80836110D01*
X93403091Y-80717636D01*
X93474335Y-80611012D01*
X93565012Y-80520335D01*
X93671636Y-80449091D01*
X93790110Y-80400017D01*
X93915881Y-80375000D01*
X94044119Y-80375000D01*
X94169890Y-80400017D01*
X94169890Y-80400017D01*
G37*
G36*
X113219890Y-80400017D02*
G01*
X113338364Y-80449091D01*
X113444988Y-80520335D01*
X113535665Y-80611012D01*
X113606909Y-80717636D01*
X113655983Y-80836110D01*
X113681000Y-80961882D01*
X113681000Y-81090118D01*
X113655983Y-81215890D01*
X113606909Y-81334364D01*
X113535665Y-81440988D01*
X113444988Y-81531665D01*
X113338364Y-81602909D01*
X113338363Y-81602910D01*
X113338362Y-81602910D01*
X113219890Y-81651983D01*
X113094119Y-81677000D01*
X112965881Y-81677000D01*
X112840110Y-81651983D01*
X112721638Y-81602910D01*
X112721637Y-81602910D01*
X112721636Y-81602909D01*
X112615012Y-81531665D01*
X112524335Y-81440988D01*
X112453091Y-81334364D01*
X112404017Y-81215890D01*
X112379000Y-81090118D01*
X112379000Y-80961882D01*
X112404017Y-80836110D01*
X112453091Y-80717636D01*
X112524335Y-80611012D01*
X112615012Y-80520335D01*
X112721636Y-80449091D01*
X112840110Y-80400017D01*
X112965881Y-80375000D01*
X113094119Y-80375000D01*
X113219890Y-80400017D01*
X113219890Y-80400017D01*
G37*
G36*
X113219890Y-78622017D02*
G01*
X113338364Y-78671091D01*
X113444988Y-78742335D01*
X113535665Y-78833012D01*
X113606909Y-78939636D01*
X113655983Y-79058110D01*
X113681000Y-79183882D01*
X113681000Y-79312118D01*
X113655983Y-79437890D01*
X113606909Y-79556364D01*
X113535665Y-79662988D01*
X113444988Y-79753665D01*
X113338364Y-79824909D01*
X113338363Y-79824910D01*
X113338362Y-79824910D01*
X113219890Y-79873983D01*
X113094119Y-79899000D01*
X112965881Y-79899000D01*
X112840110Y-79873983D01*
X112721638Y-79824910D01*
X112721637Y-79824910D01*
X112721636Y-79824909D01*
X112615012Y-79753665D01*
X112524335Y-79662988D01*
X112453091Y-79556364D01*
X112404017Y-79437890D01*
X112379000Y-79312118D01*
X112379000Y-79183882D01*
X112404017Y-79058110D01*
X112453091Y-78939636D01*
X112524335Y-78833012D01*
X112615012Y-78742335D01*
X112721636Y-78671091D01*
X112840110Y-78622017D01*
X112965881Y-78597000D01*
X113094119Y-78597000D01*
X113219890Y-78622017D01*
X113219890Y-78622017D01*
G37*
G36*
X94169890Y-78622017D02*
G01*
X94288364Y-78671091D01*
X94394988Y-78742335D01*
X94485665Y-78833012D01*
X94556909Y-78939636D01*
X94605983Y-79058110D01*
X94631000Y-79183882D01*
X94631000Y-79312118D01*
X94605983Y-79437890D01*
X94556909Y-79556364D01*
X94485665Y-79662988D01*
X94394988Y-79753665D01*
X94288364Y-79824909D01*
X94288363Y-79824910D01*
X94288362Y-79824910D01*
X94169890Y-79873983D01*
X94044119Y-79899000D01*
X93915881Y-79899000D01*
X93790110Y-79873983D01*
X93671638Y-79824910D01*
X93671637Y-79824910D01*
X93671636Y-79824909D01*
X93565012Y-79753665D01*
X93474335Y-79662988D01*
X93403091Y-79556364D01*
X93354017Y-79437890D01*
X93329000Y-79312118D01*
X93329000Y-79183882D01*
X93354017Y-79058110D01*
X93403091Y-78939636D01*
X93474335Y-78833012D01*
X93565012Y-78742335D01*
X93671636Y-78671091D01*
X93790110Y-78622017D01*
X93915881Y-78597000D01*
X94044119Y-78597000D01*
X94169890Y-78622017D01*
X94169890Y-78622017D01*
G37*
G36*
X113219890Y-76844017D02*
G01*
X113338364Y-76893091D01*
X113444988Y-76964335D01*
X113535665Y-77055012D01*
X113606909Y-77161636D01*
X113655983Y-77280110D01*
X113681000Y-77405882D01*
X113681000Y-77534118D01*
X113655983Y-77659890D01*
X113606909Y-77778364D01*
X113535665Y-77884988D01*
X113444988Y-77975665D01*
X113338364Y-78046909D01*
X113338363Y-78046910D01*
X113338362Y-78046910D01*
X113219890Y-78095983D01*
X113094119Y-78121000D01*
X112965881Y-78121000D01*
X112840110Y-78095983D01*
X112721638Y-78046910D01*
X112721637Y-78046910D01*
X112721636Y-78046909D01*
X112615012Y-77975665D01*
X112524335Y-77884988D01*
X112453091Y-77778364D01*
X112404017Y-77659890D01*
X112379000Y-77534118D01*
X112379000Y-77405882D01*
X112404017Y-77280110D01*
X112453091Y-77161636D01*
X112524335Y-77055012D01*
X112615012Y-76964335D01*
X112721636Y-76893091D01*
X112840110Y-76844017D01*
X112965881Y-76819000D01*
X113094119Y-76819000D01*
X113219890Y-76844017D01*
X113219890Y-76844017D01*
G37*
G36*
X94169890Y-76844017D02*
G01*
X94288364Y-76893091D01*
X94394988Y-76964335D01*
X94485665Y-77055012D01*
X94556909Y-77161636D01*
X94605983Y-77280110D01*
X94631000Y-77405882D01*
X94631000Y-77534118D01*
X94605983Y-77659890D01*
X94556909Y-77778364D01*
X94485665Y-77884988D01*
X94394988Y-77975665D01*
X94288364Y-78046909D01*
X94288363Y-78046910D01*
X94288362Y-78046910D01*
X94169890Y-78095983D01*
X94044119Y-78121000D01*
X93915881Y-78121000D01*
X93790110Y-78095983D01*
X93671638Y-78046910D01*
X93671637Y-78046910D01*
X93671636Y-78046909D01*
X93565012Y-77975665D01*
X93474335Y-77884988D01*
X93403091Y-77778364D01*
X93354017Y-77659890D01*
X93329000Y-77534118D01*
X93329000Y-77405882D01*
X93354017Y-77280110D01*
X93403091Y-77161636D01*
X93474335Y-77055012D01*
X93565012Y-76964335D01*
X93671636Y-76893091D01*
X93790110Y-76844017D01*
X93915881Y-76819000D01*
X94044119Y-76819000D01*
X94169890Y-76844017D01*
X94169890Y-76844017D01*
G37*
G36*
X111468500Y-77010500D02*
G01*
X105066500Y-77010500D01*
X105066500Y-75458500D01*
X111468500Y-75458500D01*
X111468500Y-77010500D01*
X111468500Y-77010500D01*
G37*
G36*
X94169890Y-75066017D02*
G01*
X94288364Y-75115091D01*
X94394988Y-75186335D01*
X94485665Y-75277012D01*
X94556909Y-75383636D01*
X94605983Y-75502110D01*
X94631000Y-75627882D01*
X94631000Y-75756118D01*
X94605983Y-75881890D01*
X94556909Y-76000364D01*
X94485665Y-76106988D01*
X94394988Y-76197665D01*
X94288364Y-76268909D01*
X94288363Y-76268910D01*
X94288362Y-76268910D01*
X94169890Y-76317983D01*
X94044119Y-76343000D01*
X93915881Y-76343000D01*
X93790110Y-76317983D01*
X93671638Y-76268910D01*
X93671637Y-76268910D01*
X93671636Y-76268909D01*
X93565012Y-76197665D01*
X93474335Y-76106988D01*
X93403091Y-76000364D01*
X93354017Y-75881890D01*
X93329000Y-75756118D01*
X93329000Y-75627882D01*
X93354017Y-75502110D01*
X93403091Y-75383636D01*
X93474335Y-75277012D01*
X93565012Y-75186335D01*
X93671636Y-75115091D01*
X93790110Y-75066017D01*
X93915881Y-75041000D01*
X94044119Y-75041000D01*
X94169890Y-75066017D01*
X94169890Y-75066017D01*
G37*
G36*
X113219890Y-75066017D02*
G01*
X113338364Y-75115091D01*
X113444988Y-75186335D01*
X113535665Y-75277012D01*
X113606909Y-75383636D01*
X113655983Y-75502110D01*
X113681000Y-75627882D01*
X113681000Y-75756118D01*
X113655983Y-75881890D01*
X113606909Y-76000364D01*
X113535665Y-76106988D01*
X113444988Y-76197665D01*
X113338364Y-76268909D01*
X113338363Y-76268910D01*
X113338362Y-76268910D01*
X113219890Y-76317983D01*
X113094119Y-76343000D01*
X112965881Y-76343000D01*
X112840110Y-76317983D01*
X112721638Y-76268910D01*
X112721637Y-76268910D01*
X112721636Y-76268909D01*
X112615012Y-76197665D01*
X112524335Y-76106988D01*
X112453091Y-76000364D01*
X112404017Y-75881890D01*
X112379000Y-75756118D01*
X112379000Y-75627882D01*
X112404017Y-75502110D01*
X112453091Y-75383636D01*
X112524335Y-75277012D01*
X112615012Y-75186335D01*
X112721636Y-75115091D01*
X112840110Y-75066017D01*
X112965881Y-75041000D01*
X113094119Y-75041000D01*
X113219890Y-75066017D01*
X113219890Y-75066017D01*
G37*
G36*
X94169890Y-73288017D02*
G01*
X94288364Y-73337091D01*
X94394988Y-73408335D01*
X94485665Y-73499012D01*
X94556910Y-73605638D01*
X94605983Y-73724110D01*
X94630395Y-73846837D01*
X94631000Y-73849882D01*
X94631000Y-73978118D01*
X94605983Y-74103890D01*
X94556909Y-74222364D01*
X94485665Y-74328988D01*
X94394988Y-74419665D01*
X94288364Y-74490909D01*
X94288363Y-74490910D01*
X94288362Y-74490910D01*
X94169890Y-74539983D01*
X94044119Y-74565000D01*
X93915881Y-74565000D01*
X93790110Y-74539983D01*
X93671638Y-74490910D01*
X93671637Y-74490910D01*
X93671636Y-74490909D01*
X93565012Y-74419665D01*
X93474335Y-74328988D01*
X93403091Y-74222364D01*
X93354017Y-74103890D01*
X93329000Y-73978118D01*
X93329000Y-73849882D01*
X93329606Y-73846837D01*
X93354017Y-73724110D01*
X93403090Y-73605638D01*
X93474335Y-73499012D01*
X93565012Y-73408335D01*
X93671636Y-73337091D01*
X93790110Y-73288017D01*
X93915881Y-73263000D01*
X94044119Y-73263000D01*
X94169890Y-73288017D01*
X94169890Y-73288017D01*
G37*
G36*
X113219890Y-73288017D02*
G01*
X113338364Y-73337091D01*
X113444988Y-73408335D01*
X113535665Y-73499012D01*
X113606910Y-73605638D01*
X113655983Y-73724110D01*
X113680395Y-73846837D01*
X113681000Y-73849882D01*
X113681000Y-73978118D01*
X113655983Y-74103890D01*
X113606909Y-74222364D01*
X113535665Y-74328988D01*
X113444988Y-74419665D01*
X113338364Y-74490909D01*
X113338363Y-74490910D01*
X113338362Y-74490910D01*
X113219890Y-74539983D01*
X113094119Y-74565000D01*
X112965881Y-74565000D01*
X112840110Y-74539983D01*
X112721638Y-74490910D01*
X112721637Y-74490910D01*
X112721636Y-74490909D01*
X112615012Y-74419665D01*
X112524335Y-74328988D01*
X112453091Y-74222364D01*
X112404017Y-74103890D01*
X112379000Y-73978118D01*
X112379000Y-73849882D01*
X112379606Y-73846837D01*
X112404017Y-73724110D01*
X112453090Y-73605638D01*
X112524335Y-73499012D01*
X112615012Y-73408335D01*
X112721636Y-73337091D01*
X112840110Y-73288017D01*
X112965881Y-73263000D01*
X113094119Y-73263000D01*
X113219890Y-73288017D01*
X113219890Y-73288017D01*
G37*
G36*
X105639968Y-72469065D02*
G01*
X105678638Y-72480796D01*
X105714277Y-72499846D01*
X105745517Y-72525483D01*
X105771154Y-72556723D01*
X105790204Y-72592362D01*
X105801935Y-72631032D01*
X105806500Y-72677388D01*
X105806500Y-73753612D01*
X105801935Y-73799968D01*
X105790204Y-73838638D01*
X105771154Y-73874277D01*
X105745517Y-73905517D01*
X105714277Y-73931154D01*
X105678638Y-73950204D01*
X105639968Y-73961935D01*
X105593612Y-73966500D01*
X104942388Y-73966500D01*
X104896032Y-73961935D01*
X104857362Y-73950204D01*
X104821723Y-73931154D01*
X104790483Y-73905517D01*
X104764846Y-73874277D01*
X104745796Y-73838638D01*
X104734065Y-73799968D01*
X104729500Y-73753612D01*
X104729500Y-72677388D01*
X104734065Y-72631032D01*
X104745796Y-72592362D01*
X104764846Y-72556723D01*
X104790483Y-72525483D01*
X104821723Y-72499846D01*
X104857362Y-72480796D01*
X104896032Y-72469065D01*
X104942388Y-72464500D01*
X105593612Y-72464500D01*
X105639968Y-72469065D01*
X105639968Y-72469065D01*
G37*
G36*
X103764968Y-72469065D02*
G01*
X103803638Y-72480796D01*
X103839277Y-72499846D01*
X103870517Y-72525483D01*
X103896154Y-72556723D01*
X103915204Y-72592362D01*
X103926935Y-72631032D01*
X103931500Y-72677388D01*
X103931500Y-73753612D01*
X103926935Y-73799968D01*
X103915204Y-73838638D01*
X103896154Y-73874277D01*
X103870517Y-73905517D01*
X103839277Y-73931154D01*
X103803638Y-73950204D01*
X103764968Y-73961935D01*
X103718612Y-73966500D01*
X103067388Y-73966500D01*
X103021032Y-73961935D01*
X102982362Y-73950204D01*
X102946723Y-73931154D01*
X102915483Y-73905517D01*
X102889846Y-73874277D01*
X102870796Y-73838638D01*
X102859065Y-73799968D01*
X102854500Y-73753612D01*
X102854500Y-72677388D01*
X102859065Y-72631032D01*
X102870796Y-72592362D01*
X102889846Y-72556723D01*
X102915483Y-72525483D01*
X102946723Y-72499846D01*
X102982362Y-72480796D01*
X103021032Y-72469065D01*
X103067388Y-72464500D01*
X103718612Y-72464500D01*
X103764968Y-72469065D01*
X103764968Y-72469065D01*
G37*
G36*
X113219890Y-71510017D02*
G01*
X113338364Y-71559091D01*
X113444988Y-71630335D01*
X113535665Y-71721012D01*
X113606909Y-71827636D01*
X113655983Y-71946110D01*
X113681000Y-72071882D01*
X113681000Y-72200118D01*
X113655983Y-72325890D01*
X113606909Y-72444364D01*
X113535665Y-72550988D01*
X113444988Y-72641665D01*
X113338364Y-72712909D01*
X113338363Y-72712910D01*
X113338362Y-72712910D01*
X113219890Y-72761983D01*
X113094119Y-72787000D01*
X112965881Y-72787000D01*
X112840110Y-72761983D01*
X112721638Y-72712910D01*
X112721637Y-72712910D01*
X112721636Y-72712909D01*
X112615012Y-72641665D01*
X112524335Y-72550988D01*
X112453091Y-72444364D01*
X112404017Y-72325890D01*
X112379000Y-72200118D01*
X112379000Y-72071882D01*
X112404017Y-71946110D01*
X112453091Y-71827636D01*
X112524335Y-71721012D01*
X112615012Y-71630335D01*
X112721636Y-71559091D01*
X112840110Y-71510017D01*
X112965881Y-71485000D01*
X113094119Y-71485000D01*
X113219890Y-71510017D01*
X113219890Y-71510017D01*
G37*
G36*
X94169890Y-71510017D02*
G01*
X94288364Y-71559091D01*
X94394988Y-71630335D01*
X94485665Y-71721012D01*
X94556909Y-71827636D01*
X94605983Y-71946110D01*
X94631000Y-72071882D01*
X94631000Y-72200118D01*
X94605983Y-72325890D01*
X94556909Y-72444364D01*
X94485665Y-72550988D01*
X94394988Y-72641665D01*
X94288364Y-72712909D01*
X94288363Y-72712910D01*
X94288362Y-72712910D01*
X94169890Y-72761983D01*
X94044119Y-72787000D01*
X93915881Y-72787000D01*
X93790110Y-72761983D01*
X93671638Y-72712910D01*
X93671637Y-72712910D01*
X93671636Y-72712909D01*
X93565012Y-72641665D01*
X93474335Y-72550988D01*
X93403091Y-72444364D01*
X93354017Y-72325890D01*
X93329000Y-72200118D01*
X93329000Y-72071882D01*
X93354017Y-71946110D01*
X93403091Y-71827636D01*
X93474335Y-71721012D01*
X93565012Y-71630335D01*
X93671636Y-71559091D01*
X93790110Y-71510017D01*
X93915881Y-71485000D01*
X94044119Y-71485000D01*
X94169890Y-71510017D01*
X94169890Y-71510017D01*
G37*
G36*
X113170556Y-69722204D02*
G01*
X113219890Y-69732017D01*
X113338364Y-69781091D01*
X113444988Y-69852335D01*
X113535665Y-69943012D01*
X113606909Y-70049636D01*
X113655983Y-70168110D01*
X113681000Y-70293882D01*
X113681000Y-70422118D01*
X113655983Y-70547890D01*
X113606909Y-70666364D01*
X113535665Y-70772988D01*
X113444988Y-70863665D01*
X113338364Y-70934909D01*
X113338363Y-70934910D01*
X113338362Y-70934910D01*
X113219890Y-70983983D01*
X113094119Y-71009000D01*
X112965881Y-71009000D01*
X112840110Y-70983983D01*
X112721638Y-70934910D01*
X112721637Y-70934910D01*
X112721636Y-70934909D01*
X112615012Y-70863665D01*
X112524335Y-70772988D01*
X112453091Y-70666364D01*
X112404017Y-70547890D01*
X112379000Y-70422118D01*
X112379000Y-70293882D01*
X112404017Y-70168110D01*
X112453091Y-70049636D01*
X112524335Y-69943012D01*
X112615012Y-69852335D01*
X112721636Y-69781091D01*
X112840110Y-69732017D01*
X112889444Y-69722204D01*
X112965881Y-69707000D01*
X113094119Y-69707000D01*
X113170556Y-69722204D01*
X113170556Y-69722204D01*
G37*
G36*
X94120556Y-69722204D02*
G01*
X94169890Y-69732017D01*
X94288364Y-69781091D01*
X94394988Y-69852335D01*
X94485665Y-69943012D01*
X94556909Y-70049636D01*
X94605983Y-70168110D01*
X94631000Y-70293882D01*
X94631000Y-70422118D01*
X94605983Y-70547890D01*
X94556909Y-70666364D01*
X94485665Y-70772988D01*
X94394988Y-70863665D01*
X94288364Y-70934909D01*
X94288363Y-70934910D01*
X94288362Y-70934910D01*
X94169890Y-70983983D01*
X94044119Y-71009000D01*
X93915881Y-71009000D01*
X93790110Y-70983983D01*
X93671638Y-70934910D01*
X93671637Y-70934910D01*
X93671636Y-70934909D01*
X93565012Y-70863665D01*
X93474335Y-70772988D01*
X93403091Y-70666364D01*
X93354017Y-70547890D01*
X93329000Y-70422118D01*
X93329000Y-70293882D01*
X93354017Y-70168110D01*
X93403091Y-70049636D01*
X93474335Y-69943012D01*
X93565012Y-69852335D01*
X93671636Y-69781091D01*
X93790110Y-69732017D01*
X93839444Y-69722204D01*
X93915881Y-69707000D01*
X94044119Y-69707000D01*
X94120556Y-69722204D01*
X94120556Y-69722204D01*
G37*
G36*
X110756968Y-68666065D02*
G01*
X110795638Y-68677796D01*
X110831277Y-68696846D01*
X110862517Y-68722483D01*
X110888154Y-68753723D01*
X110907204Y-68789362D01*
X110918935Y-68828032D01*
X110923500Y-68874388D01*
X110923500Y-69525612D01*
X110918935Y-69571968D01*
X110907204Y-69610638D01*
X110888154Y-69646277D01*
X110862517Y-69677517D01*
X110831277Y-69703154D01*
X110795638Y-69722204D01*
X110756968Y-69733935D01*
X110710612Y-69738500D01*
X109634388Y-69738500D01*
X109588032Y-69733935D01*
X109549362Y-69722204D01*
X109513723Y-69703154D01*
X109482483Y-69677517D01*
X109456846Y-69646277D01*
X109437796Y-69610638D01*
X109426065Y-69571968D01*
X109421500Y-69525612D01*
X109421500Y-68874388D01*
X109426065Y-68828032D01*
X109437796Y-68789362D01*
X109456846Y-68753723D01*
X109482483Y-68722483D01*
X109513723Y-68696846D01*
X109549362Y-68677796D01*
X109588032Y-68666065D01*
X109634388Y-68661500D01*
X110710612Y-68661500D01*
X110756968Y-68666065D01*
X110756968Y-68666065D01*
G37*
G36*
X94169890Y-67954017D02*
G01*
X94288364Y-68003091D01*
X94394988Y-68074335D01*
X94485665Y-68165012D01*
X94556910Y-68271638D01*
X94605983Y-68390110D01*
X94631000Y-68515881D01*
X94631000Y-68644119D01*
X94624301Y-68677796D01*
X94605983Y-68769890D01*
X94556909Y-68888364D01*
X94485665Y-68994988D01*
X94394988Y-69085665D01*
X94288364Y-69156909D01*
X94288363Y-69156910D01*
X94288362Y-69156910D01*
X94169890Y-69205983D01*
X94044119Y-69231000D01*
X93915881Y-69231000D01*
X93790110Y-69205983D01*
X93671638Y-69156910D01*
X93671637Y-69156910D01*
X93671636Y-69156909D01*
X93565012Y-69085665D01*
X93474335Y-68994988D01*
X93403091Y-68888364D01*
X93354017Y-68769890D01*
X93335699Y-68677796D01*
X93329000Y-68644119D01*
X93329000Y-68515881D01*
X93354017Y-68390110D01*
X93403090Y-68271638D01*
X93474335Y-68165012D01*
X93565012Y-68074335D01*
X93671636Y-68003091D01*
X93790110Y-67954017D01*
X93915881Y-67929000D01*
X94044119Y-67929000D01*
X94169890Y-67954017D01*
X94169890Y-67954017D01*
G37*
G36*
X113219890Y-67954017D02*
G01*
X113338364Y-68003091D01*
X113444988Y-68074335D01*
X113535665Y-68165012D01*
X113606910Y-68271638D01*
X113655983Y-68390110D01*
X113681000Y-68515881D01*
X113681000Y-68644119D01*
X113674301Y-68677796D01*
X113655983Y-68769890D01*
X113606909Y-68888364D01*
X113535665Y-68994988D01*
X113444988Y-69085665D01*
X113338364Y-69156909D01*
X113338363Y-69156910D01*
X113338362Y-69156910D01*
X113219890Y-69205983D01*
X113094119Y-69231000D01*
X112965881Y-69231000D01*
X112840110Y-69205983D01*
X112721638Y-69156910D01*
X112721637Y-69156910D01*
X112721636Y-69156909D01*
X112615012Y-69085665D01*
X112524335Y-68994988D01*
X112453091Y-68888364D01*
X112404017Y-68769890D01*
X112385699Y-68677796D01*
X112379000Y-68644119D01*
X112379000Y-68515881D01*
X112404017Y-68390110D01*
X112453090Y-68271638D01*
X112524335Y-68165012D01*
X112615012Y-68074335D01*
X112721636Y-68003091D01*
X112840110Y-67954017D01*
X112965881Y-67929000D01*
X113094119Y-67929000D01*
X113219890Y-67954017D01*
X113219890Y-67954017D01*
G37*
G36*
X110756968Y-66791065D02*
G01*
X110795638Y-66802796D01*
X110831277Y-66821846D01*
X110862517Y-66847483D01*
X110888154Y-66878723D01*
X110907204Y-66914362D01*
X110918935Y-66953032D01*
X110923500Y-66999388D01*
X110923500Y-67650612D01*
X110918935Y-67696968D01*
X110907204Y-67735638D01*
X110888154Y-67771277D01*
X110862517Y-67802517D01*
X110831277Y-67828154D01*
X110795638Y-67847204D01*
X110756968Y-67858935D01*
X110710612Y-67863500D01*
X109634388Y-67863500D01*
X109588032Y-67858935D01*
X109549362Y-67847204D01*
X109513723Y-67828154D01*
X109482483Y-67802517D01*
X109456846Y-67771277D01*
X109437796Y-67735638D01*
X109426065Y-67696968D01*
X109421500Y-67650612D01*
X109421500Y-66999388D01*
X109426065Y-66953032D01*
X109437796Y-66914362D01*
X109456846Y-66878723D01*
X109482483Y-66847483D01*
X109513723Y-66821846D01*
X109549362Y-66802796D01*
X109588032Y-66791065D01*
X109634388Y-66786500D01*
X110710612Y-66786500D01*
X110756968Y-66791065D01*
X110756968Y-66791065D01*
G37*
G36*
X94169890Y-66176017D02*
G01*
X94288364Y-66225091D01*
X94394988Y-66296335D01*
X94485665Y-66387012D01*
X94556909Y-66493636D01*
X94605983Y-66612110D01*
X94631000Y-66737882D01*
X94631000Y-66866118D01*
X94605983Y-66991890D01*
X94556909Y-67110364D01*
X94485665Y-67216988D01*
X94394988Y-67307665D01*
X94288364Y-67378909D01*
X94288363Y-67378910D01*
X94288362Y-67378910D01*
X94169890Y-67427983D01*
X94044119Y-67453000D01*
X93915881Y-67453000D01*
X93790110Y-67427983D01*
X93671638Y-67378910D01*
X93671637Y-67378910D01*
X93671636Y-67378909D01*
X93565012Y-67307665D01*
X93474335Y-67216988D01*
X93403091Y-67110364D01*
X93354017Y-66991890D01*
X93329000Y-66866118D01*
X93329000Y-66737882D01*
X93354017Y-66612110D01*
X93403091Y-66493636D01*
X93474335Y-66387012D01*
X93565012Y-66296335D01*
X93671636Y-66225091D01*
X93790110Y-66176017D01*
X93915881Y-66151000D01*
X94044119Y-66151000D01*
X94169890Y-66176017D01*
X94169890Y-66176017D01*
G37*
G36*
X113219890Y-66176017D02*
G01*
X113338364Y-66225091D01*
X113444988Y-66296335D01*
X113535665Y-66387012D01*
X113606909Y-66493636D01*
X113655983Y-66612110D01*
X113681000Y-66737882D01*
X113681000Y-66866118D01*
X113655983Y-66991890D01*
X113606909Y-67110364D01*
X113535665Y-67216988D01*
X113444988Y-67307665D01*
X113338364Y-67378909D01*
X113338363Y-67378910D01*
X113338362Y-67378910D01*
X113219890Y-67427983D01*
X113094119Y-67453000D01*
X112965881Y-67453000D01*
X112840110Y-67427983D01*
X112721638Y-67378910D01*
X112721637Y-67378910D01*
X112721636Y-67378909D01*
X112615012Y-67307665D01*
X112524335Y-67216988D01*
X112453091Y-67110364D01*
X112404017Y-66991890D01*
X112379000Y-66866118D01*
X112379000Y-66737882D01*
X112404017Y-66612110D01*
X112453091Y-66493636D01*
X112524335Y-66387012D01*
X112615012Y-66296335D01*
X112721636Y-66225091D01*
X112840110Y-66176017D01*
X112965881Y-66151000D01*
X113094119Y-66151000D01*
X113219890Y-66176017D01*
X113219890Y-66176017D01*
G37*
G36*
X111994928Y-65120264D02*
G01*
X112016009Y-65126660D01*
X112035445Y-65137048D01*
X112052476Y-65151024D01*
X112066452Y-65168055D01*
X112076840Y-65187491D01*
X112083236Y-65208572D01*
X112086000Y-65236640D01*
X112086000Y-65700360D01*
X112083236Y-65728428D01*
X112076840Y-65749509D01*
X112066452Y-65768945D01*
X112052476Y-65785976D01*
X112035445Y-65799952D01*
X112016009Y-65810340D01*
X111994928Y-65816736D01*
X111966860Y-65819500D01*
X110153140Y-65819500D01*
X110125072Y-65816736D01*
X110103991Y-65810340D01*
X110084555Y-65799952D01*
X110067524Y-65785976D01*
X110053548Y-65768945D01*
X110043160Y-65749509D01*
X110036764Y-65728428D01*
X110034000Y-65700360D01*
X110034000Y-65236640D01*
X110036764Y-65208572D01*
X110043160Y-65187491D01*
X110053548Y-65168055D01*
X110067524Y-65151024D01*
X110084555Y-65137048D01*
X110103991Y-65126660D01*
X110125072Y-65120264D01*
X110153140Y-65117500D01*
X111966860Y-65117500D01*
X111994928Y-65120264D01*
X111994928Y-65120264D01*
G37*
G36*
X107044928Y-65120264D02*
G01*
X107066009Y-65126660D01*
X107085445Y-65137048D01*
X107102476Y-65151024D01*
X107116452Y-65168055D01*
X107126840Y-65187491D01*
X107133236Y-65208572D01*
X107136000Y-65236640D01*
X107136000Y-65700360D01*
X107133236Y-65728428D01*
X107126840Y-65749509D01*
X107116452Y-65768945D01*
X107102476Y-65785976D01*
X107085445Y-65799952D01*
X107066009Y-65810340D01*
X107044928Y-65816736D01*
X107016860Y-65819500D01*
X105203140Y-65819500D01*
X105175072Y-65816736D01*
X105153991Y-65810340D01*
X105134555Y-65799952D01*
X105117524Y-65785976D01*
X105103548Y-65768945D01*
X105093160Y-65749509D01*
X105086764Y-65728428D01*
X105084000Y-65700360D01*
X105084000Y-65236640D01*
X105086764Y-65208572D01*
X105093160Y-65187491D01*
X105103548Y-65168055D01*
X105117524Y-65151024D01*
X105134555Y-65137048D01*
X105153991Y-65126660D01*
X105175072Y-65120264D01*
X105203140Y-65117500D01*
X107016860Y-65117500D01*
X107044928Y-65120264D01*
X107044928Y-65120264D01*
G37*
G36*
X113219890Y-64398017D02*
G01*
X113244566Y-64408238D01*
X113338364Y-64447091D01*
X113444988Y-64518335D01*
X113535665Y-64609012D01*
X113606910Y-64715638D01*
X113655983Y-64834110D01*
X113681000Y-64959881D01*
X113681000Y-65088119D01*
X113669273Y-65147077D01*
X113655983Y-65213890D01*
X113606909Y-65332364D01*
X113535665Y-65438988D01*
X113444988Y-65529665D01*
X113338364Y-65600909D01*
X113338363Y-65600910D01*
X113338362Y-65600910D01*
X113219890Y-65649983D01*
X113094119Y-65675000D01*
X112965881Y-65675000D01*
X112840110Y-65649983D01*
X112721638Y-65600910D01*
X112721637Y-65600910D01*
X112721636Y-65600909D01*
X112615012Y-65529665D01*
X112524335Y-65438988D01*
X112453091Y-65332364D01*
X112404017Y-65213890D01*
X112390727Y-65147077D01*
X112379000Y-65088119D01*
X112379000Y-64959881D01*
X112404017Y-64834110D01*
X112453090Y-64715638D01*
X112524335Y-64609012D01*
X112615012Y-64518335D01*
X112721636Y-64447091D01*
X112815435Y-64408238D01*
X112840110Y-64398017D01*
X112965881Y-64373000D01*
X113094119Y-64373000D01*
X113219890Y-64398017D01*
X113219890Y-64398017D01*
G37*
G36*
X94169890Y-64398017D02*
G01*
X94194566Y-64408238D01*
X94288364Y-64447091D01*
X94394988Y-64518335D01*
X94485665Y-64609012D01*
X94556910Y-64715638D01*
X94605983Y-64834110D01*
X94631000Y-64959881D01*
X94631000Y-65088119D01*
X94619273Y-65147077D01*
X94605983Y-65213890D01*
X94556909Y-65332364D01*
X94485665Y-65438988D01*
X94394988Y-65529665D01*
X94288364Y-65600909D01*
X94288363Y-65600910D01*
X94288362Y-65600910D01*
X94169890Y-65649983D01*
X94044119Y-65675000D01*
X93915881Y-65675000D01*
X93790110Y-65649983D01*
X93671638Y-65600910D01*
X93671637Y-65600910D01*
X93671636Y-65600909D01*
X93565012Y-65529665D01*
X93474335Y-65438988D01*
X93403091Y-65332364D01*
X93354017Y-65213890D01*
X93340727Y-65147077D01*
X93329000Y-65088119D01*
X93329000Y-64959881D01*
X93354017Y-64834110D01*
X93403090Y-64715638D01*
X93474335Y-64609012D01*
X93565012Y-64518335D01*
X93671636Y-64447091D01*
X93765435Y-64408238D01*
X93790110Y-64398017D01*
X93915881Y-64373000D01*
X94044119Y-64373000D01*
X94169890Y-64398017D01*
X94169890Y-64398017D01*
G37*
G36*
X111994928Y-63850264D02*
G01*
X112016009Y-63856660D01*
X112035445Y-63867048D01*
X112052476Y-63881024D01*
X112066452Y-63898055D01*
X112076840Y-63917491D01*
X112083236Y-63938572D01*
X112086000Y-63966640D01*
X112086000Y-64430360D01*
X112083236Y-64458428D01*
X112076840Y-64479509D01*
X112066452Y-64498945D01*
X112052476Y-64515976D01*
X112035445Y-64529952D01*
X112016009Y-64540340D01*
X111994928Y-64546736D01*
X111966860Y-64549500D01*
X110153140Y-64549500D01*
X110125072Y-64546736D01*
X110103991Y-64540340D01*
X110084555Y-64529952D01*
X110067524Y-64515976D01*
X110053548Y-64498945D01*
X110043160Y-64479509D01*
X110036764Y-64458428D01*
X110034000Y-64430360D01*
X110034000Y-63966640D01*
X110036764Y-63938572D01*
X110043160Y-63917491D01*
X110053548Y-63898055D01*
X110067524Y-63881024D01*
X110084555Y-63867048D01*
X110103991Y-63856660D01*
X110125072Y-63850264D01*
X110153140Y-63847500D01*
X111966860Y-63847500D01*
X111994928Y-63850264D01*
X111994928Y-63850264D01*
G37*
G36*
X107044928Y-63850264D02*
G01*
X107066009Y-63856660D01*
X107085445Y-63867048D01*
X107102476Y-63881024D01*
X107116452Y-63898055D01*
X107126840Y-63917491D01*
X107133236Y-63938572D01*
X107136000Y-63966640D01*
X107136000Y-64430360D01*
X107133236Y-64458428D01*
X107126840Y-64479509D01*
X107116452Y-64498945D01*
X107102476Y-64515976D01*
X107085445Y-64529952D01*
X107066009Y-64540340D01*
X107044928Y-64546736D01*
X107016860Y-64549500D01*
X105203140Y-64549500D01*
X105175072Y-64546736D01*
X105153991Y-64540340D01*
X105134555Y-64529952D01*
X105117524Y-64515976D01*
X105103548Y-64498945D01*
X105093160Y-64479509D01*
X105086764Y-64458428D01*
X105084000Y-64430360D01*
X105084000Y-63966640D01*
X105086764Y-63938572D01*
X105093160Y-63917491D01*
X105103548Y-63898055D01*
X105117524Y-63881024D01*
X105134555Y-63867048D01*
X105153991Y-63856660D01*
X105175072Y-63850264D01*
X105203140Y-63847500D01*
X107016860Y-63847500D01*
X107044928Y-63850264D01*
X107044928Y-63850264D01*
G37*
G36*
X113219890Y-62620017D02*
G01*
X113305546Y-62655497D01*
X113338364Y-62669091D01*
X113444988Y-62740335D01*
X113535665Y-62831012D01*
X113606909Y-62937636D01*
X113655983Y-63056110D01*
X113681000Y-63181882D01*
X113681000Y-63310118D01*
X113655983Y-63435890D01*
X113606909Y-63554364D01*
X113535665Y-63660988D01*
X113444988Y-63751665D01*
X113338364Y-63822909D01*
X113338363Y-63822910D01*
X113338362Y-63822910D01*
X113219890Y-63871983D01*
X113094119Y-63897000D01*
X112965881Y-63897000D01*
X112840110Y-63871983D01*
X112721638Y-63822910D01*
X112721637Y-63822910D01*
X112721636Y-63822909D01*
X112615012Y-63751665D01*
X112524335Y-63660988D01*
X112453091Y-63554364D01*
X112404017Y-63435890D01*
X112379000Y-63310118D01*
X112379000Y-63181882D01*
X112404017Y-63056110D01*
X112453091Y-62937636D01*
X112524335Y-62831012D01*
X112615012Y-62740335D01*
X112721636Y-62669091D01*
X112754455Y-62655497D01*
X112840110Y-62620017D01*
X112965881Y-62595000D01*
X113094119Y-62595000D01*
X113219890Y-62620017D01*
X113219890Y-62620017D01*
G37*
G36*
X94169890Y-62620017D02*
G01*
X94255546Y-62655497D01*
X94288364Y-62669091D01*
X94394988Y-62740335D01*
X94485665Y-62831012D01*
X94556909Y-62937636D01*
X94605983Y-63056110D01*
X94631000Y-63181882D01*
X94631000Y-63310118D01*
X94605983Y-63435890D01*
X94556909Y-63554364D01*
X94485665Y-63660988D01*
X94394988Y-63751665D01*
X94288364Y-63822909D01*
X94288363Y-63822910D01*
X94288362Y-63822910D01*
X94169890Y-63871983D01*
X94044119Y-63897000D01*
X93915881Y-63897000D01*
X93790110Y-63871983D01*
X93671638Y-63822910D01*
X93671637Y-63822910D01*
X93671636Y-63822909D01*
X93565012Y-63751665D01*
X93474335Y-63660988D01*
X93403091Y-63554364D01*
X93354017Y-63435890D01*
X93329000Y-63310118D01*
X93329000Y-63181882D01*
X93354017Y-63056110D01*
X93403091Y-62937636D01*
X93474335Y-62831012D01*
X93565012Y-62740335D01*
X93671636Y-62669091D01*
X93704455Y-62655497D01*
X93790110Y-62620017D01*
X93915881Y-62595000D01*
X94044119Y-62595000D01*
X94169890Y-62620017D01*
X94169890Y-62620017D01*
G37*
G36*
X111994928Y-62580264D02*
G01*
X112016009Y-62586660D01*
X112035445Y-62597048D01*
X112052476Y-62611024D01*
X112066452Y-62628055D01*
X112076840Y-62647491D01*
X112083236Y-62668572D01*
X112086000Y-62696640D01*
X112086000Y-63160360D01*
X112083236Y-63188428D01*
X112076840Y-63209509D01*
X112066452Y-63228945D01*
X112052476Y-63245976D01*
X112035445Y-63259952D01*
X112016009Y-63270340D01*
X111994928Y-63276736D01*
X111966860Y-63279500D01*
X110153140Y-63279500D01*
X110125072Y-63276736D01*
X110103991Y-63270340D01*
X110084555Y-63259952D01*
X110067524Y-63245976D01*
X110053548Y-63228945D01*
X110043160Y-63209509D01*
X110036764Y-63188428D01*
X110034000Y-63160360D01*
X110034000Y-62696640D01*
X110036764Y-62668572D01*
X110043160Y-62647491D01*
X110053548Y-62628055D01*
X110067524Y-62611024D01*
X110084555Y-62597048D01*
X110103991Y-62586660D01*
X110125072Y-62580264D01*
X110153140Y-62577500D01*
X111966860Y-62577500D01*
X111994928Y-62580264D01*
X111994928Y-62580264D01*
G37*
G36*
X107044928Y-62580264D02*
G01*
X107066009Y-62586660D01*
X107085445Y-62597048D01*
X107102476Y-62611024D01*
X107116452Y-62628055D01*
X107126840Y-62647491D01*
X107133236Y-62668572D01*
X107136000Y-62696640D01*
X107136000Y-63160360D01*
X107133236Y-63188428D01*
X107126840Y-63209509D01*
X107116452Y-63228945D01*
X107102476Y-63245976D01*
X107085445Y-63259952D01*
X107066009Y-63270340D01*
X107044928Y-63276736D01*
X107016860Y-63279500D01*
X105203140Y-63279500D01*
X105175072Y-63276736D01*
X105153991Y-63270340D01*
X105134555Y-63259952D01*
X105117524Y-63245976D01*
X105103548Y-63228945D01*
X105093160Y-63209509D01*
X105086764Y-63188428D01*
X105084000Y-63160360D01*
X105084000Y-62696640D01*
X105086764Y-62668572D01*
X105093160Y-62647491D01*
X105103548Y-62628055D01*
X105117524Y-62611024D01*
X105134555Y-62597048D01*
X105153991Y-62586660D01*
X105175072Y-62580264D01*
X105203140Y-62577500D01*
X107016860Y-62577500D01*
X107044928Y-62580264D01*
X107044928Y-62580264D01*
G37*
G36*
X113219890Y-60842017D02*
G01*
X113338364Y-60891091D01*
X113444988Y-60962335D01*
X113535665Y-61053012D01*
X113606909Y-61159636D01*
X113655983Y-61278110D01*
X113681000Y-61403882D01*
X113681000Y-61532118D01*
X113655983Y-61657890D01*
X113606909Y-61776364D01*
X113535665Y-61882988D01*
X113444988Y-61973665D01*
X113338364Y-62044909D01*
X113338363Y-62044910D01*
X113338362Y-62044910D01*
X113219890Y-62093983D01*
X113094119Y-62119000D01*
X112965881Y-62119000D01*
X112840110Y-62093983D01*
X112721638Y-62044910D01*
X112721637Y-62044910D01*
X112721636Y-62044909D01*
X112615012Y-61973665D01*
X112524335Y-61882988D01*
X112453091Y-61776364D01*
X112404017Y-61657890D01*
X112379000Y-61532118D01*
X112379000Y-61403882D01*
X112404017Y-61278110D01*
X112453091Y-61159636D01*
X112524335Y-61053012D01*
X112615012Y-60962335D01*
X112721636Y-60891091D01*
X112840110Y-60842017D01*
X112965881Y-60817000D01*
X113094119Y-60817000D01*
X113219890Y-60842017D01*
X113219890Y-60842017D01*
G37*
G36*
X94169890Y-60842017D02*
G01*
X94288364Y-60891091D01*
X94394988Y-60962335D01*
X94485665Y-61053012D01*
X94556909Y-61159636D01*
X94605983Y-61278110D01*
X94631000Y-61403882D01*
X94631000Y-61532118D01*
X94605983Y-61657890D01*
X94556909Y-61776364D01*
X94485665Y-61882988D01*
X94394988Y-61973665D01*
X94288364Y-62044909D01*
X94288363Y-62044910D01*
X94288362Y-62044910D01*
X94169890Y-62093983D01*
X94044119Y-62119000D01*
X93915881Y-62119000D01*
X93790110Y-62093983D01*
X93671638Y-62044910D01*
X93671637Y-62044910D01*
X93671636Y-62044909D01*
X93565012Y-61973665D01*
X93474335Y-61882988D01*
X93403091Y-61776364D01*
X93354017Y-61657890D01*
X93329000Y-61532118D01*
X93329000Y-61403882D01*
X93354017Y-61278110D01*
X93403091Y-61159636D01*
X93474335Y-61053012D01*
X93565012Y-60962335D01*
X93671636Y-60891091D01*
X93790110Y-60842017D01*
X93915881Y-60817000D01*
X94044119Y-60817000D01*
X94169890Y-60842017D01*
X94169890Y-60842017D01*
G37*
G36*
X107044928Y-61310264D02*
G01*
X107066009Y-61316660D01*
X107085445Y-61327048D01*
X107102476Y-61341024D01*
X107116452Y-61358055D01*
X107126840Y-61377491D01*
X107133236Y-61398572D01*
X107136000Y-61426640D01*
X107136000Y-61890360D01*
X107133236Y-61918428D01*
X107126840Y-61939509D01*
X107116452Y-61958945D01*
X107102476Y-61975976D01*
X107085445Y-61989952D01*
X107066009Y-62000340D01*
X107044928Y-62006736D01*
X107016860Y-62009500D01*
X105203140Y-62009500D01*
X105175072Y-62006736D01*
X105153991Y-62000340D01*
X105134555Y-61989952D01*
X105117524Y-61975976D01*
X105103548Y-61958945D01*
X105093160Y-61939509D01*
X105086764Y-61918428D01*
X105084000Y-61890360D01*
X105084000Y-61426640D01*
X105086764Y-61398572D01*
X105093160Y-61377491D01*
X105103548Y-61358055D01*
X105117524Y-61341024D01*
X105134555Y-61327048D01*
X105153991Y-61316660D01*
X105175072Y-61310264D01*
X105203140Y-61307500D01*
X107016860Y-61307500D01*
X107044928Y-61310264D01*
X107044928Y-61310264D01*
G37*
G36*
X111994928Y-61310264D02*
G01*
X112016009Y-61316660D01*
X112035445Y-61327048D01*
X112052476Y-61341024D01*
X112066452Y-61358055D01*
X112076840Y-61377491D01*
X112083236Y-61398572D01*
X112086000Y-61426640D01*
X112086000Y-61890360D01*
X112083236Y-61918428D01*
X112076840Y-61939509D01*
X112066452Y-61958945D01*
X112052476Y-61975976D01*
X112035445Y-61989952D01*
X112016009Y-62000340D01*
X111994928Y-62006736D01*
X111966860Y-62009500D01*
X110153140Y-62009500D01*
X110125072Y-62006736D01*
X110103991Y-62000340D01*
X110084555Y-61989952D01*
X110067524Y-61975976D01*
X110053548Y-61958945D01*
X110043160Y-61939509D01*
X110036764Y-61918428D01*
X110034000Y-61890360D01*
X110034000Y-61426640D01*
X110036764Y-61398572D01*
X110043160Y-61377491D01*
X110053548Y-61358055D01*
X110067524Y-61341024D01*
X110084555Y-61327048D01*
X110103991Y-61316660D01*
X110125072Y-61310264D01*
X110153140Y-61307500D01*
X111966860Y-61307500D01*
X111994928Y-61310264D01*
X111994928Y-61310264D01*
G37*
G36*
X107044928Y-60040264D02*
G01*
X107066009Y-60046660D01*
X107085445Y-60057048D01*
X107102476Y-60071024D01*
X107116452Y-60088055D01*
X107126840Y-60107491D01*
X107133236Y-60128572D01*
X107136000Y-60156640D01*
X107136000Y-60620360D01*
X107133236Y-60648428D01*
X107126840Y-60669509D01*
X107116452Y-60688945D01*
X107102476Y-60705976D01*
X107085445Y-60719952D01*
X107066009Y-60730340D01*
X107044928Y-60736736D01*
X107016860Y-60739500D01*
X105203140Y-60739500D01*
X105175072Y-60736736D01*
X105153991Y-60730340D01*
X105134555Y-60719952D01*
X105117524Y-60705976D01*
X105103548Y-60688945D01*
X105093160Y-60669509D01*
X105086764Y-60648428D01*
X105084000Y-60620360D01*
X105084000Y-60156640D01*
X105086764Y-60128572D01*
X105093160Y-60107491D01*
X105103548Y-60088055D01*
X105117524Y-60071024D01*
X105134555Y-60057048D01*
X105153991Y-60046660D01*
X105175072Y-60040264D01*
X105203140Y-60037500D01*
X107016860Y-60037500D01*
X107044928Y-60040264D01*
X107044928Y-60040264D01*
G37*
G36*
X111994928Y-60040264D02*
G01*
X112016009Y-60046660D01*
X112035445Y-60057048D01*
X112052476Y-60071024D01*
X112066452Y-60088055D01*
X112076840Y-60107491D01*
X112083236Y-60128572D01*
X112086000Y-60156640D01*
X112086000Y-60620360D01*
X112083236Y-60648428D01*
X112076840Y-60669509D01*
X112066452Y-60688945D01*
X112052476Y-60705976D01*
X112035445Y-60719952D01*
X112016009Y-60730340D01*
X111994928Y-60736736D01*
X111966860Y-60739500D01*
X110153140Y-60739500D01*
X110125072Y-60736736D01*
X110103991Y-60730340D01*
X110084555Y-60719952D01*
X110067524Y-60705976D01*
X110053548Y-60688945D01*
X110043160Y-60669509D01*
X110036764Y-60648428D01*
X110034000Y-60620360D01*
X110034000Y-60156640D01*
X110036764Y-60128572D01*
X110043160Y-60107491D01*
X110053548Y-60088055D01*
X110067524Y-60071024D01*
X110084555Y-60057048D01*
X110103991Y-60046660D01*
X110125072Y-60040264D01*
X110153140Y-60037500D01*
X111966860Y-60037500D01*
X111994928Y-60040264D01*
X111994928Y-60040264D01*
G37*
G36*
X113219890Y-59064017D02*
G01*
X113338364Y-59113091D01*
X113444988Y-59184335D01*
X113535665Y-59275012D01*
X113571230Y-59328238D01*
X113606910Y-59381638D01*
X113635207Y-59449952D01*
X113655983Y-59500110D01*
X113681000Y-59625882D01*
X113681000Y-59754118D01*
X113655983Y-59879890D01*
X113606909Y-59998364D01*
X113535665Y-60104988D01*
X113444988Y-60195665D01*
X113338364Y-60266909D01*
X113338363Y-60266910D01*
X113338362Y-60266910D01*
X113219890Y-60315983D01*
X113094119Y-60341000D01*
X112965881Y-60341000D01*
X112840110Y-60315983D01*
X112721638Y-60266910D01*
X112721637Y-60266910D01*
X112721636Y-60266909D01*
X112615012Y-60195665D01*
X112524335Y-60104988D01*
X112453091Y-59998364D01*
X112404017Y-59879890D01*
X112379000Y-59754118D01*
X112379000Y-59625882D01*
X112404017Y-59500110D01*
X112424793Y-59449952D01*
X112453090Y-59381638D01*
X112488771Y-59328238D01*
X112524335Y-59275012D01*
X112615012Y-59184335D01*
X112721636Y-59113091D01*
X112840110Y-59064017D01*
X112965881Y-59039000D01*
X113094119Y-59039000D01*
X113219890Y-59064017D01*
X113219890Y-59064017D01*
G37*
G36*
X94169890Y-59064017D02*
G01*
X94288364Y-59113091D01*
X94394988Y-59184335D01*
X94485665Y-59275012D01*
X94521230Y-59328238D01*
X94556910Y-59381638D01*
X94585207Y-59449952D01*
X94605983Y-59500110D01*
X94631000Y-59625882D01*
X94631000Y-59754118D01*
X94605983Y-59879890D01*
X94556909Y-59998364D01*
X94485665Y-60104988D01*
X94394988Y-60195665D01*
X94288364Y-60266909D01*
X94288363Y-60266910D01*
X94288362Y-60266910D01*
X94169890Y-60315983D01*
X94044119Y-60341000D01*
X93915881Y-60341000D01*
X93790110Y-60315983D01*
X93671638Y-60266910D01*
X93671637Y-60266910D01*
X93671636Y-60266909D01*
X93565012Y-60195665D01*
X93474335Y-60104988D01*
X93403091Y-59998364D01*
X93354017Y-59879890D01*
X93329000Y-59754118D01*
X93329000Y-59625882D01*
X93354017Y-59500110D01*
X93374793Y-59449952D01*
X93403090Y-59381638D01*
X93438771Y-59328238D01*
X93474335Y-59275012D01*
X93565012Y-59184335D01*
X93671636Y-59113091D01*
X93790110Y-59064017D01*
X93915881Y-59039000D01*
X94044119Y-59039000D01*
X94169890Y-59064017D01*
X94169890Y-59064017D01*
G37*
G36*
X111994928Y-58770264D02*
G01*
X112016009Y-58776660D01*
X112035445Y-58787048D01*
X112052476Y-58801024D01*
X112066452Y-58818055D01*
X112076840Y-58837491D01*
X112083236Y-58858572D01*
X112086000Y-58886640D01*
X112086000Y-59350360D01*
X112083236Y-59378428D01*
X112076840Y-59399509D01*
X112066452Y-59418945D01*
X112052476Y-59435976D01*
X112035445Y-59449952D01*
X112016009Y-59460340D01*
X111994928Y-59466736D01*
X111966860Y-59469500D01*
X110153140Y-59469500D01*
X110125072Y-59466736D01*
X110103991Y-59460340D01*
X110084555Y-59449952D01*
X110067524Y-59435976D01*
X110053548Y-59418945D01*
X110043160Y-59399509D01*
X110036764Y-59378428D01*
X110034000Y-59350360D01*
X110034000Y-58886640D01*
X110036764Y-58858572D01*
X110043160Y-58837491D01*
X110053548Y-58818055D01*
X110067524Y-58801024D01*
X110084555Y-58787048D01*
X110103991Y-58776660D01*
X110125072Y-58770264D01*
X110153140Y-58767500D01*
X111966860Y-58767500D01*
X111994928Y-58770264D01*
X111994928Y-58770264D01*
G37*
G36*
X107044928Y-58770264D02*
G01*
X107066009Y-58776660D01*
X107085445Y-58787048D01*
X107102476Y-58801024D01*
X107116452Y-58818055D01*
X107126840Y-58837491D01*
X107133236Y-58858572D01*
X107136000Y-58886640D01*
X107136000Y-59350360D01*
X107133236Y-59378428D01*
X107126840Y-59399509D01*
X107116452Y-59418945D01*
X107102476Y-59435976D01*
X107085445Y-59449952D01*
X107066009Y-59460340D01*
X107044928Y-59466736D01*
X107016860Y-59469500D01*
X105203140Y-59469500D01*
X105175072Y-59466736D01*
X105153991Y-59460340D01*
X105134555Y-59449952D01*
X105117524Y-59435976D01*
X105103548Y-59418945D01*
X105093160Y-59399509D01*
X105086764Y-59378428D01*
X105084000Y-59350360D01*
X105084000Y-58886640D01*
X105086764Y-58858572D01*
X105093160Y-58837491D01*
X105103548Y-58818055D01*
X105117524Y-58801024D01*
X105134555Y-58787048D01*
X105153991Y-58776660D01*
X105175072Y-58770264D01*
X105203140Y-58767500D01*
X107016860Y-58767500D01*
X107044928Y-58770264D01*
X107044928Y-58770264D01*
G37*
G36*
X99233943Y-57398519D02*
G01*
X99300127Y-57405037D01*
X99469966Y-57456557D01*
X99626491Y-57540222D01*
X99659718Y-57567491D01*
X99763686Y-57652814D01*
X99846948Y-57754271D01*
X99876278Y-57790009D01*
X99959943Y-57946534D01*
X100011463Y-58116373D01*
X100028859Y-58293000D01*
X100011463Y-58469627D01*
X99959943Y-58639466D01*
X99876278Y-58795991D01*
X99872147Y-58801024D01*
X99763686Y-58933186D01*
X99662229Y-59016448D01*
X99626491Y-59045778D01*
X99469966Y-59129443D01*
X99300127Y-59180963D01*
X99233942Y-59187482D01*
X99167760Y-59194000D01*
X99079240Y-59194000D01*
X99013058Y-59187482D01*
X98946873Y-59180963D01*
X98777034Y-59129443D01*
X98620509Y-59045778D01*
X98584771Y-59016448D01*
X98483314Y-58933186D01*
X98374853Y-58801024D01*
X98370722Y-58795991D01*
X98287057Y-58639466D01*
X98235537Y-58469627D01*
X98218141Y-58293000D01*
X98235537Y-58116373D01*
X98287057Y-57946534D01*
X98370722Y-57790009D01*
X98400052Y-57754271D01*
X98483314Y-57652814D01*
X98587282Y-57567491D01*
X98620509Y-57540222D01*
X98777034Y-57456557D01*
X98946873Y-57405037D01*
X99013057Y-57398519D01*
X99079240Y-57392000D01*
X99167760Y-57392000D01*
X99233943Y-57398519D01*
X99233943Y-57398519D01*
G37*
G36*
X94169890Y-57286017D02*
G01*
X94288364Y-57335091D01*
X94394988Y-57406335D01*
X94485665Y-57497012D01*
X94546844Y-57588572D01*
X94556910Y-57603638D01*
X94605983Y-57722110D01*
X94631000Y-57847881D01*
X94631000Y-57976119D01*
X94605983Y-58101890D01*
X94569346Y-58190340D01*
X94556909Y-58220364D01*
X94485665Y-58326988D01*
X94394988Y-58417665D01*
X94288364Y-58488909D01*
X94288363Y-58488910D01*
X94288362Y-58488910D01*
X94169890Y-58537983D01*
X94044119Y-58563000D01*
X93915881Y-58563000D01*
X93790110Y-58537983D01*
X93671638Y-58488910D01*
X93671637Y-58488910D01*
X93671636Y-58488909D01*
X93565012Y-58417665D01*
X93474335Y-58326988D01*
X93403091Y-58220364D01*
X93390655Y-58190340D01*
X93354017Y-58101890D01*
X93329000Y-57976119D01*
X93329000Y-57847881D01*
X93354017Y-57722110D01*
X93403090Y-57603638D01*
X93413157Y-57588572D01*
X93474335Y-57497012D01*
X93565012Y-57406335D01*
X93671636Y-57335091D01*
X93790110Y-57286017D01*
X93915881Y-57261000D01*
X94044119Y-57261000D01*
X94169890Y-57286017D01*
X94169890Y-57286017D01*
G37*
G36*
X113219890Y-57286017D02*
G01*
X113338364Y-57335091D01*
X113444988Y-57406335D01*
X113535665Y-57497012D01*
X113596844Y-57588572D01*
X113606910Y-57603638D01*
X113655983Y-57722110D01*
X113681000Y-57847881D01*
X113681000Y-57976119D01*
X113655983Y-58101890D01*
X113619346Y-58190340D01*
X113606909Y-58220364D01*
X113535665Y-58326988D01*
X113444988Y-58417665D01*
X113338364Y-58488909D01*
X113338363Y-58488910D01*
X113338362Y-58488910D01*
X113219890Y-58537983D01*
X113094119Y-58563000D01*
X112965881Y-58563000D01*
X112840110Y-58537983D01*
X112721638Y-58488910D01*
X112721637Y-58488910D01*
X112721636Y-58488909D01*
X112615012Y-58417665D01*
X112524335Y-58326988D01*
X112453091Y-58220364D01*
X112440655Y-58190340D01*
X112404017Y-58101890D01*
X112379000Y-57976119D01*
X112379000Y-57847881D01*
X112404017Y-57722110D01*
X112453090Y-57603638D01*
X112463157Y-57588572D01*
X112524335Y-57497012D01*
X112615012Y-57406335D01*
X112721636Y-57335091D01*
X112840110Y-57286017D01*
X112965881Y-57261000D01*
X113094119Y-57261000D01*
X113219890Y-57286017D01*
X113219890Y-57286017D01*
G37*
G36*
X107044928Y-57500264D02*
G01*
X107066009Y-57506660D01*
X107085445Y-57517048D01*
X107102476Y-57531024D01*
X107116452Y-57548055D01*
X107126840Y-57567491D01*
X107133236Y-57588572D01*
X107136000Y-57616640D01*
X107136000Y-58080360D01*
X107133236Y-58108428D01*
X107126840Y-58129509D01*
X107116452Y-58148945D01*
X107102476Y-58165976D01*
X107085445Y-58179952D01*
X107066009Y-58190340D01*
X107044928Y-58196736D01*
X107016860Y-58199500D01*
X105203140Y-58199500D01*
X105175072Y-58196736D01*
X105153991Y-58190340D01*
X105134555Y-58179952D01*
X105117524Y-58165976D01*
X105103548Y-58148945D01*
X105093160Y-58129509D01*
X105086764Y-58108428D01*
X105084000Y-58080360D01*
X105084000Y-57616640D01*
X105086764Y-57588572D01*
X105093160Y-57567491D01*
X105103548Y-57548055D01*
X105117524Y-57531024D01*
X105134555Y-57517048D01*
X105153991Y-57506660D01*
X105175072Y-57500264D01*
X105203140Y-57497500D01*
X107016860Y-57497500D01*
X107044928Y-57500264D01*
X107044928Y-57500264D01*
G37*
G36*
X111994928Y-57500264D02*
G01*
X112016009Y-57506660D01*
X112035445Y-57517048D01*
X112052476Y-57531024D01*
X112066452Y-57548055D01*
X112076840Y-57567491D01*
X112083236Y-57588572D01*
X112086000Y-57616640D01*
X112086000Y-58080360D01*
X112083236Y-58108428D01*
X112076840Y-58129509D01*
X112066452Y-58148945D01*
X112052476Y-58165976D01*
X112035445Y-58179952D01*
X112016009Y-58190340D01*
X111994928Y-58196736D01*
X111966860Y-58199500D01*
X110153140Y-58199500D01*
X110125072Y-58196736D01*
X110103991Y-58190340D01*
X110084555Y-58179952D01*
X110067524Y-58165976D01*
X110053548Y-58148945D01*
X110043160Y-58129509D01*
X110036764Y-58108428D01*
X110034000Y-58080360D01*
X110034000Y-57616640D01*
X110036764Y-57588572D01*
X110043160Y-57567491D01*
X110053548Y-57548055D01*
X110067524Y-57531024D01*
X110084555Y-57517048D01*
X110103991Y-57506660D01*
X110125072Y-57500264D01*
X110153140Y-57497500D01*
X111966860Y-57497500D01*
X111994928Y-57500264D01*
X111994928Y-57500264D01*
G37*
G36*
X107044928Y-56230264D02*
G01*
X107066009Y-56236660D01*
X107085445Y-56247048D01*
X107102476Y-56261024D01*
X107116452Y-56278055D01*
X107126840Y-56297491D01*
X107133236Y-56318572D01*
X107136000Y-56346640D01*
X107136000Y-56810360D01*
X107133236Y-56838428D01*
X107126840Y-56859509D01*
X107116452Y-56878945D01*
X107102476Y-56895976D01*
X107085445Y-56909952D01*
X107066009Y-56920340D01*
X107044928Y-56926736D01*
X107016860Y-56929500D01*
X105203140Y-56929500D01*
X105175072Y-56926736D01*
X105153991Y-56920340D01*
X105134555Y-56909952D01*
X105117524Y-56895976D01*
X105103548Y-56878945D01*
X105093160Y-56859509D01*
X105086764Y-56838428D01*
X105084000Y-56810360D01*
X105084000Y-56346640D01*
X105086764Y-56318572D01*
X105093160Y-56297491D01*
X105103548Y-56278055D01*
X105117524Y-56261024D01*
X105134555Y-56247048D01*
X105153991Y-56236660D01*
X105175072Y-56230264D01*
X105203140Y-56227500D01*
X107016860Y-56227500D01*
X107044928Y-56230264D01*
X107044928Y-56230264D01*
G37*
G36*
X111994928Y-56230264D02*
G01*
X112016009Y-56236660D01*
X112035445Y-56247048D01*
X112052476Y-56261024D01*
X112066452Y-56278055D01*
X112076840Y-56297491D01*
X112083236Y-56318572D01*
X112086000Y-56346640D01*
X112086000Y-56810360D01*
X112083236Y-56838428D01*
X112076840Y-56859509D01*
X112066452Y-56878945D01*
X112052476Y-56895976D01*
X112035445Y-56909952D01*
X112016009Y-56920340D01*
X111994928Y-56926736D01*
X111966860Y-56929500D01*
X110153140Y-56929500D01*
X110125072Y-56926736D01*
X110103991Y-56920340D01*
X110084555Y-56909952D01*
X110067524Y-56895976D01*
X110053548Y-56878945D01*
X110043160Y-56859509D01*
X110036764Y-56838428D01*
X110034000Y-56810360D01*
X110034000Y-56346640D01*
X110036764Y-56318572D01*
X110043160Y-56297491D01*
X110053548Y-56278055D01*
X110067524Y-56261024D01*
X110084555Y-56247048D01*
X110103991Y-56236660D01*
X110125072Y-56230264D01*
X110153140Y-56227500D01*
X111966860Y-56227500D01*
X111994928Y-56230264D01*
X111994928Y-56230264D01*
G37*
G36*
X113219890Y-55508017D02*
G01*
X113338364Y-55557091D01*
X113367224Y-55576375D01*
X113444988Y-55628335D01*
X113535665Y-55719012D01*
X113606910Y-55825638D01*
X113655983Y-55944110D01*
X113681000Y-56069881D01*
X113681000Y-56198119D01*
X113669489Y-56255989D01*
X113655983Y-56323890D01*
X113606909Y-56442364D01*
X113535665Y-56548988D01*
X113444988Y-56639665D01*
X113338364Y-56710909D01*
X113338363Y-56710910D01*
X113338362Y-56710910D01*
X113219890Y-56759983D01*
X113094119Y-56785000D01*
X112965881Y-56785000D01*
X112840110Y-56759983D01*
X112721638Y-56710910D01*
X112721637Y-56710910D01*
X112721636Y-56710909D01*
X112615012Y-56639665D01*
X112524335Y-56548988D01*
X112453091Y-56442364D01*
X112404017Y-56323890D01*
X112390511Y-56255989D01*
X112379000Y-56198119D01*
X112379000Y-56069881D01*
X112404017Y-55944110D01*
X112453090Y-55825638D01*
X112524335Y-55719012D01*
X112615012Y-55628335D01*
X112692776Y-55576375D01*
X112721636Y-55557091D01*
X112840110Y-55508017D01*
X112965881Y-55483000D01*
X113094119Y-55483000D01*
X113219890Y-55508017D01*
X113219890Y-55508017D01*
G37*
G36*
X94169890Y-55508017D02*
G01*
X94288364Y-55557091D01*
X94317224Y-55576375D01*
X94394988Y-55628335D01*
X94485665Y-55719012D01*
X94556910Y-55825638D01*
X94605983Y-55944110D01*
X94631000Y-56069881D01*
X94631000Y-56198119D01*
X94619489Y-56255989D01*
X94605983Y-56323890D01*
X94556909Y-56442364D01*
X94485665Y-56548988D01*
X94394988Y-56639665D01*
X94288364Y-56710909D01*
X94288363Y-56710910D01*
X94288362Y-56710910D01*
X94169890Y-56759983D01*
X94044119Y-56785000D01*
X93915881Y-56785000D01*
X93790110Y-56759983D01*
X93671638Y-56710910D01*
X93671637Y-56710910D01*
X93671636Y-56710909D01*
X93565012Y-56639665D01*
X93474335Y-56548988D01*
X93403091Y-56442364D01*
X93354017Y-56323890D01*
X93340511Y-56255989D01*
X93329000Y-56198119D01*
X93329000Y-56069881D01*
X93354017Y-55944110D01*
X93403090Y-55825638D01*
X93474335Y-55719012D01*
X93565012Y-55628335D01*
X93642776Y-55576375D01*
X93671636Y-55557091D01*
X93790110Y-55508017D01*
X93915881Y-55483000D01*
X94044119Y-55483000D01*
X94169890Y-55508017D01*
X94169890Y-55508017D01*
G37*
G36*
X99233942Y-54858518D02*
G01*
X99300127Y-54865037D01*
X99469966Y-54916557D01*
X99626491Y-55000222D01*
X99662229Y-55029552D01*
X99763686Y-55112814D01*
X99846948Y-55214271D01*
X99876278Y-55250009D01*
X99959943Y-55406534D01*
X100011463Y-55576373D01*
X100028859Y-55753000D01*
X100011463Y-55929627D01*
X99959943Y-56099466D01*
X99876278Y-56255991D01*
X99872147Y-56261024D01*
X99763686Y-56393186D01*
X99662229Y-56476448D01*
X99626491Y-56505778D01*
X99469966Y-56589443D01*
X99300127Y-56640963D01*
X99233942Y-56647482D01*
X99167760Y-56654000D01*
X99079240Y-56654000D01*
X99013058Y-56647482D01*
X98946873Y-56640963D01*
X98777034Y-56589443D01*
X98620509Y-56505778D01*
X98584771Y-56476448D01*
X98483314Y-56393186D01*
X98374853Y-56261024D01*
X98370722Y-56255991D01*
X98287057Y-56099466D01*
X98235537Y-55929627D01*
X98218141Y-55753000D01*
X98235537Y-55576373D01*
X98287057Y-55406534D01*
X98370722Y-55250009D01*
X98400052Y-55214271D01*
X98483314Y-55112814D01*
X98584771Y-55029552D01*
X98620509Y-55000222D01*
X98777034Y-54916557D01*
X98946873Y-54865037D01*
X99013058Y-54858518D01*
X99079240Y-54852000D01*
X99167760Y-54852000D01*
X99233942Y-54858518D01*
X99233942Y-54858518D01*
G37*
G36*
X113149365Y-53715989D02*
G01*
X113219890Y-53730017D01*
X113338364Y-53779091D01*
X113444988Y-53850335D01*
X113535665Y-53941012D01*
X113606910Y-54047638D01*
X113628998Y-54100963D01*
X113655983Y-54166110D01*
X113681000Y-54291882D01*
X113681000Y-54420118D01*
X113655983Y-54545890D01*
X113606909Y-54664364D01*
X113535665Y-54770988D01*
X113444988Y-54861665D01*
X113338364Y-54932909D01*
X113338363Y-54932910D01*
X113338362Y-54932910D01*
X113219890Y-54981983D01*
X113094119Y-55007000D01*
X112965881Y-55007000D01*
X112840110Y-54981983D01*
X112721638Y-54932910D01*
X112721637Y-54932910D01*
X112721636Y-54932909D01*
X112615012Y-54861665D01*
X112524335Y-54770988D01*
X112453091Y-54664364D01*
X112404017Y-54545890D01*
X112379000Y-54420118D01*
X112379000Y-54291882D01*
X112404017Y-54166110D01*
X112431002Y-54100963D01*
X112453090Y-54047638D01*
X112524335Y-53941012D01*
X112615012Y-53850335D01*
X112721636Y-53779091D01*
X112840110Y-53730017D01*
X112910635Y-53715989D01*
X112965881Y-53705000D01*
X113094119Y-53705000D01*
X113149365Y-53715989D01*
X113149365Y-53715989D01*
G37*
G36*
X94099365Y-53715989D02*
G01*
X94169890Y-53730017D01*
X94288364Y-53779091D01*
X94394988Y-53850335D01*
X94485665Y-53941012D01*
X94556910Y-54047638D01*
X94578998Y-54100963D01*
X94605983Y-54166110D01*
X94631000Y-54291882D01*
X94631000Y-54420118D01*
X94605983Y-54545890D01*
X94556909Y-54664364D01*
X94485665Y-54770988D01*
X94394988Y-54861665D01*
X94288364Y-54932909D01*
X94288363Y-54932910D01*
X94288362Y-54932910D01*
X94169890Y-54981983D01*
X94044119Y-55007000D01*
X93915881Y-55007000D01*
X93790110Y-54981983D01*
X93671638Y-54932910D01*
X93671637Y-54932910D01*
X93671636Y-54932909D01*
X93565012Y-54861665D01*
X93474335Y-54770988D01*
X93403091Y-54664364D01*
X93354017Y-54545890D01*
X93329000Y-54420118D01*
X93329000Y-54291882D01*
X93354017Y-54166110D01*
X93381002Y-54100963D01*
X93403090Y-54047638D01*
X93474335Y-53941012D01*
X93565012Y-53850335D01*
X93671636Y-53779091D01*
X93790110Y-53730017D01*
X93860635Y-53715989D01*
X93915881Y-53705000D01*
X94044119Y-53705000D01*
X94099365Y-53715989D01*
X94099365Y-53715989D01*
G37*
G36*
X96693942Y-52318518D02*
G01*
X96760127Y-52325037D01*
X96929966Y-52376557D01*
X97086491Y-52460222D01*
X97122229Y-52489552D01*
X97223686Y-52572814D01*
X97280561Y-52642118D01*
X97336278Y-52710009D01*
X97419943Y-52866534D01*
X97471463Y-53036373D01*
X97488859Y-53213000D01*
X97471463Y-53389627D01*
X97419943Y-53559466D01*
X97336278Y-53715991D01*
X97324767Y-53730017D01*
X97223686Y-53853186D01*
X97122229Y-53936448D01*
X97086491Y-53965778D01*
X96929966Y-54049443D01*
X96760127Y-54100963D01*
X96693942Y-54107482D01*
X96627760Y-54114000D01*
X96539240Y-54114000D01*
X96473058Y-54107482D01*
X96406873Y-54100963D01*
X96237034Y-54049443D01*
X96080509Y-53965778D01*
X96044771Y-53936448D01*
X95943314Y-53853186D01*
X95842233Y-53730017D01*
X95830722Y-53715991D01*
X95747057Y-53559466D01*
X95695537Y-53389627D01*
X95678141Y-53213000D01*
X95695537Y-53036373D01*
X95747057Y-52866534D01*
X95830722Y-52710009D01*
X95886439Y-52642118D01*
X95943314Y-52572814D01*
X96044771Y-52489552D01*
X96080509Y-52460222D01*
X96237034Y-52376557D01*
X96406873Y-52325037D01*
X96473058Y-52318518D01*
X96539240Y-52312000D01*
X96627760Y-52312000D01*
X96693942Y-52318518D01*
X96693942Y-52318518D01*
G37*
G36*
X99233942Y-52318518D02*
G01*
X99300127Y-52325037D01*
X99469966Y-52376557D01*
X99626491Y-52460222D01*
X99662229Y-52489552D01*
X99763686Y-52572814D01*
X99820561Y-52642118D01*
X99876278Y-52710009D01*
X99959943Y-52866534D01*
X100011463Y-53036373D01*
X100028859Y-53213000D01*
X100011463Y-53389627D01*
X99959943Y-53559466D01*
X99876278Y-53715991D01*
X99864767Y-53730017D01*
X99763686Y-53853186D01*
X99662229Y-53936448D01*
X99626491Y-53965778D01*
X99469966Y-54049443D01*
X99300127Y-54100963D01*
X99233942Y-54107482D01*
X99167760Y-54114000D01*
X99079240Y-54114000D01*
X99013058Y-54107482D01*
X98946873Y-54100963D01*
X98777034Y-54049443D01*
X98620509Y-53965778D01*
X98584771Y-53936448D01*
X98483314Y-53853186D01*
X98382233Y-53730017D01*
X98370722Y-53715991D01*
X98287057Y-53559466D01*
X98235537Y-53389627D01*
X98218141Y-53213000D01*
X98235537Y-53036373D01*
X98287057Y-52866534D01*
X98370722Y-52710009D01*
X98426439Y-52642118D01*
X98483314Y-52572814D01*
X98584771Y-52489552D01*
X98620509Y-52460222D01*
X98777034Y-52376557D01*
X98946873Y-52325037D01*
X99013058Y-52318518D01*
X99079240Y-52312000D01*
X99167760Y-52312000D01*
X99233942Y-52318518D01*
X99233942Y-52318518D01*
G37*
G36*
X94169890Y-51952017D02*
G01*
X94288364Y-52001091D01*
X94394988Y-52072335D01*
X94485665Y-52163012D01*
X94556910Y-52269638D01*
X94605983Y-52388110D01*
X94620327Y-52460221D01*
X94631000Y-52513882D01*
X94631000Y-52642118D01*
X94605983Y-52767890D01*
X94556909Y-52886364D01*
X94485665Y-52992988D01*
X94394988Y-53083665D01*
X94288364Y-53154909D01*
X94288363Y-53154910D01*
X94288362Y-53154910D01*
X94169890Y-53203983D01*
X94044119Y-53229000D01*
X93915881Y-53229000D01*
X93790110Y-53203983D01*
X93671638Y-53154910D01*
X93671637Y-53154910D01*
X93671636Y-53154909D01*
X93565012Y-53083665D01*
X93474335Y-52992988D01*
X93403091Y-52886364D01*
X93354017Y-52767890D01*
X93329000Y-52642118D01*
X93329000Y-52513882D01*
X93339674Y-52460221D01*
X93354017Y-52388110D01*
X93403090Y-52269638D01*
X93474335Y-52163012D01*
X93565012Y-52072335D01*
X93671636Y-52001091D01*
X93790110Y-51952017D01*
X93915881Y-51927000D01*
X94044119Y-51927000D01*
X94169890Y-51952017D01*
X94169890Y-51952017D01*
G37*
G36*
X113219890Y-51952017D02*
G01*
X113338364Y-52001091D01*
X113444988Y-52072335D01*
X113535665Y-52163012D01*
X113606910Y-52269638D01*
X113655983Y-52388110D01*
X113670327Y-52460221D01*
X113681000Y-52513882D01*
X113681000Y-52642118D01*
X113655983Y-52767890D01*
X113606909Y-52886364D01*
X113535665Y-52992988D01*
X113444988Y-53083665D01*
X113338364Y-53154909D01*
X113338363Y-53154910D01*
X113338362Y-53154910D01*
X113219890Y-53203983D01*
X113094119Y-53229000D01*
X112965881Y-53229000D01*
X112840110Y-53203983D01*
X112721638Y-53154910D01*
X112721637Y-53154910D01*
X112721636Y-53154909D01*
X112615012Y-53083665D01*
X112524335Y-52992988D01*
X112453091Y-52886364D01*
X112404017Y-52767890D01*
X112379000Y-52642118D01*
X112379000Y-52513882D01*
X112389674Y-52460221D01*
X112404017Y-52388110D01*
X112453090Y-52269638D01*
X112524335Y-52163012D01*
X112615012Y-52072335D01*
X112721636Y-52001091D01*
X112840110Y-51952017D01*
X112965881Y-51927000D01*
X113094119Y-51927000D01*
X113219890Y-51952017D01*
X113219890Y-51952017D01*
G37*
G36*
X97484500Y-51574000D02*
G01*
X95682500Y-51574000D01*
X95682500Y-49772000D01*
X97484500Y-49772000D01*
X97484500Y-51574000D01*
X97484500Y-51574000D01*
G37*
G36*
X99233943Y-49778519D02*
G01*
X99300127Y-49785037D01*
X99469966Y-49836557D01*
X99626491Y-49920222D01*
X99662229Y-49949552D01*
X99763686Y-50032814D01*
X99846948Y-50134271D01*
X99876278Y-50170009D01*
X99959943Y-50326534D01*
X100011463Y-50496373D01*
X100028859Y-50673000D01*
X100011463Y-50849627D01*
X99959943Y-51019466D01*
X99876278Y-51175991D01*
X99871461Y-51181860D01*
X99763686Y-51313186D01*
X99662601Y-51396143D01*
X99626491Y-51425778D01*
X99469966Y-51509443D01*
X99300127Y-51560963D01*
X99233943Y-51567481D01*
X99167760Y-51574000D01*
X99079240Y-51574000D01*
X99013058Y-51567482D01*
X98946873Y-51560963D01*
X98777034Y-51509443D01*
X98620509Y-51425778D01*
X98584399Y-51396143D01*
X98483314Y-51313186D01*
X98375539Y-51181860D01*
X98370722Y-51175991D01*
X98287057Y-51019466D01*
X98235537Y-50849627D01*
X98218141Y-50673000D01*
X98235537Y-50496373D01*
X98287057Y-50326534D01*
X98370722Y-50170009D01*
X98400052Y-50134271D01*
X98483314Y-50032814D01*
X98584771Y-49949552D01*
X98620509Y-49920222D01*
X98777034Y-49836557D01*
X98946873Y-49785037D01*
X99013057Y-49778519D01*
X99079240Y-49772000D01*
X99167760Y-49772000D01*
X99233943Y-49778519D01*
X99233943Y-49778519D01*
G37*
G36*
X94419192Y-50154646D02*
G01*
X94468414Y-50169578D01*
X94513778Y-50193826D01*
X94553542Y-50226458D01*
X94586174Y-50266222D01*
X94610422Y-50311586D01*
X94625354Y-50360808D01*
X94631000Y-50418140D01*
X94631000Y-51181860D01*
X94625354Y-51239192D01*
X94610422Y-51288414D01*
X94586174Y-51333778D01*
X94553542Y-51373542D01*
X94513778Y-51406174D01*
X94468414Y-51430422D01*
X94419192Y-51445354D01*
X94361860Y-51451000D01*
X93598140Y-51451000D01*
X93540808Y-51445354D01*
X93491586Y-51430422D01*
X93446222Y-51406174D01*
X93406458Y-51373542D01*
X93373826Y-51333778D01*
X93349578Y-51288414D01*
X93334646Y-51239192D01*
X93329000Y-51181860D01*
X93329000Y-50418140D01*
X93334646Y-50360808D01*
X93349578Y-50311586D01*
X93373826Y-50266222D01*
X93406458Y-50226458D01*
X93446222Y-50193826D01*
X93491586Y-50169578D01*
X93540808Y-50154646D01*
X93598140Y-50149000D01*
X94361860Y-50149000D01*
X94419192Y-50154646D01*
X94419192Y-50154646D01*
G37*
G36*
X113219890Y-50174017D02*
G01*
X113291930Y-50203857D01*
X113338364Y-50223091D01*
X113444988Y-50294335D01*
X113535665Y-50385012D01*
X113606909Y-50491636D01*
X113655983Y-50610110D01*
X113681000Y-50735882D01*
X113681000Y-50864118D01*
X113655983Y-50989890D01*
X113606909Y-51108364D01*
X113535665Y-51214988D01*
X113444988Y-51305665D01*
X113338364Y-51376909D01*
X113338363Y-51376910D01*
X113338362Y-51376910D01*
X113219890Y-51425983D01*
X113094119Y-51451000D01*
X112965881Y-51451000D01*
X112840110Y-51425983D01*
X112721638Y-51376910D01*
X112721637Y-51376910D01*
X112721636Y-51376909D01*
X112615012Y-51305665D01*
X112524335Y-51214988D01*
X112453091Y-51108364D01*
X112404017Y-50989890D01*
X112379000Y-50864118D01*
X112379000Y-50735882D01*
X112404017Y-50610110D01*
X112453091Y-50491636D01*
X112524335Y-50385012D01*
X112615012Y-50294335D01*
X112721636Y-50223091D01*
X112768071Y-50203857D01*
X112840110Y-50174017D01*
X112965881Y-50149000D01*
X113094119Y-50149000D01*
X113219890Y-50174017D01*
X113219890Y-50174017D01*
G37*
M02*
