G04 #@! TF.GenerationSoftware,KiCad,Pcbnew,(5.1.2)-1*
G04 #@! TF.CreationDate,2019-12-23T21:44:58-05:00*
G04 #@! TF.ProjectId,C64CPLA,43363443-504c-4412-9e6b-696361645f70,rev?*
G04 #@! TF.SameCoordinates,Original*
G04 #@! TF.FileFunction,Soldermask,Top*
G04 #@! TF.FilePolarity,Negative*
%FSLAX46Y46*%
G04 Gerber Fmt 4.6, Leading zero omitted, Abs format (unit mm)*
G04 Created by KiCad (PCBNEW (5.1.2)-1) date 2019-12-23 21:44:58*
%MOMM*%
%LPD*%
G04 APERTURE LIST*
%ADD10C,0.100000*%
G04 APERTURE END LIST*
D10*
G36*
X111193000Y-106691000D02*
G01*
X109591000Y-106691000D01*
X109591000Y-101589000D01*
X111193000Y-101589000D01*
X111193000Y-106691000D01*
X111193000Y-106691000D01*
G37*
G36*
X105293000Y-106691000D02*
G01*
X103691000Y-106691000D01*
X103691000Y-101589000D01*
X105293000Y-101589000D01*
X105293000Y-106691000D01*
X105293000Y-106691000D01*
G37*
G36*
X102811000Y-106691000D02*
G01*
X101209000Y-106691000D01*
X101209000Y-101589000D01*
X102811000Y-101589000D01*
X102811000Y-106691000D01*
X102811000Y-106691000D01*
G37*
G36*
X96911000Y-106691000D02*
G01*
X95309000Y-106691000D01*
X95309000Y-101589000D01*
X96911000Y-101589000D01*
X96911000Y-106691000D01*
X96911000Y-106691000D01*
G37*
G36*
X113219890Y-105292017D02*
G01*
X113338364Y-105341091D01*
X113444988Y-105412335D01*
X113535665Y-105503012D01*
X113606909Y-105609636D01*
X113655983Y-105728110D01*
X113681000Y-105853882D01*
X113681000Y-105982118D01*
X113655983Y-106107890D01*
X113606909Y-106226364D01*
X113535665Y-106332988D01*
X113444988Y-106423665D01*
X113338364Y-106494909D01*
X113338363Y-106494910D01*
X113338362Y-106494910D01*
X113219890Y-106543983D01*
X113094119Y-106569000D01*
X112965881Y-106569000D01*
X112840110Y-106543983D01*
X112721638Y-106494910D01*
X112721637Y-106494910D01*
X112721636Y-106494909D01*
X112615012Y-106423665D01*
X112524335Y-106332988D01*
X112453091Y-106226364D01*
X112404017Y-106107890D01*
X112379000Y-105982118D01*
X112379000Y-105853882D01*
X112404017Y-105728110D01*
X112453091Y-105609636D01*
X112524335Y-105503012D01*
X112615012Y-105412335D01*
X112721636Y-105341091D01*
X112840110Y-105292017D01*
X112965881Y-105267000D01*
X113094119Y-105267000D01*
X113219890Y-105292017D01*
X113219890Y-105292017D01*
G37*
G36*
X94169890Y-105292017D02*
G01*
X94288364Y-105341091D01*
X94394988Y-105412335D01*
X94485665Y-105503012D01*
X94556909Y-105609636D01*
X94605983Y-105728110D01*
X94631000Y-105853882D01*
X94631000Y-105982118D01*
X94605983Y-106107890D01*
X94556909Y-106226364D01*
X94485665Y-106332988D01*
X94394988Y-106423665D01*
X94288364Y-106494909D01*
X94288363Y-106494910D01*
X94288362Y-106494910D01*
X94169890Y-106543983D01*
X94044119Y-106569000D01*
X93915881Y-106569000D01*
X93790110Y-106543983D01*
X93671638Y-106494910D01*
X93671637Y-106494910D01*
X93671636Y-106494909D01*
X93565012Y-106423665D01*
X93474335Y-106332988D01*
X93403091Y-106226364D01*
X93354017Y-106107890D01*
X93329000Y-105982118D01*
X93329000Y-105853882D01*
X93354017Y-105728110D01*
X93403091Y-105609636D01*
X93474335Y-105503012D01*
X93565012Y-105412335D01*
X93671636Y-105341091D01*
X93790110Y-105292017D01*
X93915881Y-105267000D01*
X94044119Y-105267000D01*
X94169890Y-105292017D01*
X94169890Y-105292017D01*
G37*
G36*
X94169890Y-103514017D02*
G01*
X94288364Y-103563091D01*
X94394988Y-103634335D01*
X94485665Y-103725012D01*
X94556909Y-103831636D01*
X94605983Y-103950110D01*
X94631000Y-104075882D01*
X94631000Y-104204118D01*
X94605983Y-104329890D01*
X94556909Y-104448364D01*
X94485665Y-104554988D01*
X94394988Y-104645665D01*
X94288364Y-104716909D01*
X94288363Y-104716910D01*
X94288362Y-104716910D01*
X94169890Y-104765983D01*
X94044119Y-104791000D01*
X93915881Y-104791000D01*
X93790110Y-104765983D01*
X93671638Y-104716910D01*
X93671637Y-104716910D01*
X93671636Y-104716909D01*
X93565012Y-104645665D01*
X93474335Y-104554988D01*
X93403091Y-104448364D01*
X93354017Y-104329890D01*
X93329000Y-104204118D01*
X93329000Y-104075882D01*
X93354017Y-103950110D01*
X93403091Y-103831636D01*
X93474335Y-103725012D01*
X93565012Y-103634335D01*
X93671636Y-103563091D01*
X93790110Y-103514017D01*
X93915881Y-103489000D01*
X94044119Y-103489000D01*
X94169890Y-103514017D01*
X94169890Y-103514017D01*
G37*
G36*
X113219890Y-103514017D02*
G01*
X113338364Y-103563091D01*
X113444988Y-103634335D01*
X113535665Y-103725012D01*
X113606909Y-103831636D01*
X113655983Y-103950110D01*
X113681000Y-104075882D01*
X113681000Y-104204118D01*
X113655983Y-104329890D01*
X113606909Y-104448364D01*
X113535665Y-104554988D01*
X113444988Y-104645665D01*
X113338364Y-104716909D01*
X113338363Y-104716910D01*
X113338362Y-104716910D01*
X113219890Y-104765983D01*
X113094119Y-104791000D01*
X112965881Y-104791000D01*
X112840110Y-104765983D01*
X112721638Y-104716910D01*
X112721637Y-104716910D01*
X112721636Y-104716909D01*
X112615012Y-104645665D01*
X112524335Y-104554988D01*
X112453091Y-104448364D01*
X112404017Y-104329890D01*
X112379000Y-104204118D01*
X112379000Y-104075882D01*
X112404017Y-103950110D01*
X112453091Y-103831636D01*
X112524335Y-103725012D01*
X112615012Y-103634335D01*
X112721636Y-103563091D01*
X112840110Y-103514017D01*
X112965881Y-103489000D01*
X113094119Y-103489000D01*
X113219890Y-103514017D01*
X113219890Y-103514017D01*
G37*
G36*
X113219890Y-101736017D02*
G01*
X113338364Y-101785091D01*
X113444988Y-101856335D01*
X113535665Y-101947012D01*
X113606909Y-102053636D01*
X113655983Y-102172110D01*
X113681000Y-102297882D01*
X113681000Y-102426118D01*
X113655983Y-102551890D01*
X113606909Y-102670364D01*
X113535665Y-102776988D01*
X113444988Y-102867665D01*
X113338364Y-102938909D01*
X113338363Y-102938910D01*
X113338362Y-102938910D01*
X113219890Y-102987983D01*
X113094119Y-103013000D01*
X112965881Y-103013000D01*
X112840110Y-102987983D01*
X112721638Y-102938910D01*
X112721637Y-102938910D01*
X112721636Y-102938909D01*
X112615012Y-102867665D01*
X112524335Y-102776988D01*
X112453091Y-102670364D01*
X112404017Y-102551890D01*
X112379000Y-102426118D01*
X112379000Y-102297882D01*
X112404017Y-102172110D01*
X112453091Y-102053636D01*
X112524335Y-101947012D01*
X112615012Y-101856335D01*
X112721636Y-101785091D01*
X112840110Y-101736017D01*
X112965881Y-101711000D01*
X113094119Y-101711000D01*
X113219890Y-101736017D01*
X113219890Y-101736017D01*
G37*
G36*
X94169890Y-101736017D02*
G01*
X94288364Y-101785091D01*
X94394988Y-101856335D01*
X94485665Y-101947012D01*
X94556909Y-102053636D01*
X94605983Y-102172110D01*
X94631000Y-102297882D01*
X94631000Y-102426118D01*
X94605983Y-102551890D01*
X94556909Y-102670364D01*
X94485665Y-102776988D01*
X94394988Y-102867665D01*
X94288364Y-102938909D01*
X94288363Y-102938910D01*
X94288362Y-102938910D01*
X94169890Y-102987983D01*
X94044119Y-103013000D01*
X93915881Y-103013000D01*
X93790110Y-102987983D01*
X93671638Y-102938910D01*
X93671637Y-102938910D01*
X93671636Y-102938909D01*
X93565012Y-102867665D01*
X93474335Y-102776988D01*
X93403091Y-102670364D01*
X93354017Y-102551890D01*
X93329000Y-102426118D01*
X93329000Y-102297882D01*
X93354017Y-102172110D01*
X93403091Y-102053636D01*
X93474335Y-101947012D01*
X93565012Y-101856335D01*
X93671636Y-101785091D01*
X93790110Y-101736017D01*
X93915881Y-101711000D01*
X94044119Y-101711000D01*
X94169890Y-101736017D01*
X94169890Y-101736017D01*
G37*
G36*
X113219890Y-99958017D02*
G01*
X113338364Y-100007091D01*
X113444988Y-100078335D01*
X113535665Y-100169012D01*
X113606909Y-100275636D01*
X113655983Y-100394110D01*
X113681000Y-100519882D01*
X113681000Y-100648118D01*
X113655983Y-100773890D01*
X113606909Y-100892364D01*
X113535665Y-100998988D01*
X113444988Y-101089665D01*
X113338364Y-101160909D01*
X113338363Y-101160910D01*
X113338362Y-101160910D01*
X113219890Y-101209983D01*
X113094119Y-101235000D01*
X112965881Y-101235000D01*
X112840110Y-101209983D01*
X112721638Y-101160910D01*
X112721637Y-101160910D01*
X112721636Y-101160909D01*
X112615012Y-101089665D01*
X112524335Y-100998988D01*
X112453091Y-100892364D01*
X112404017Y-100773890D01*
X112379000Y-100648118D01*
X112379000Y-100519882D01*
X112404017Y-100394110D01*
X112453091Y-100275636D01*
X112524335Y-100169012D01*
X112615012Y-100078335D01*
X112721636Y-100007091D01*
X112840110Y-99958017D01*
X112965881Y-99933000D01*
X113094119Y-99933000D01*
X113219890Y-99958017D01*
X113219890Y-99958017D01*
G37*
G36*
X94169890Y-99958017D02*
G01*
X94288364Y-100007091D01*
X94394988Y-100078335D01*
X94485665Y-100169012D01*
X94556909Y-100275636D01*
X94605983Y-100394110D01*
X94631000Y-100519882D01*
X94631000Y-100648118D01*
X94605983Y-100773890D01*
X94556909Y-100892364D01*
X94485665Y-100998988D01*
X94394988Y-101089665D01*
X94288364Y-101160909D01*
X94288363Y-101160910D01*
X94288362Y-101160910D01*
X94169890Y-101209983D01*
X94044119Y-101235000D01*
X93915881Y-101235000D01*
X93790110Y-101209983D01*
X93671638Y-101160910D01*
X93671637Y-101160910D01*
X93671636Y-101160909D01*
X93565012Y-101089665D01*
X93474335Y-100998988D01*
X93403091Y-100892364D01*
X93354017Y-100773890D01*
X93329000Y-100648118D01*
X93329000Y-100519882D01*
X93354017Y-100394110D01*
X93403091Y-100275636D01*
X93474335Y-100169012D01*
X93565012Y-100078335D01*
X93671636Y-100007091D01*
X93790110Y-99958017D01*
X93915881Y-99933000D01*
X94044119Y-99933000D01*
X94169890Y-99958017D01*
X94169890Y-99958017D01*
G37*
G36*
X100399468Y-98059565D02*
G01*
X100438138Y-98071296D01*
X100473777Y-98090346D01*
X100505017Y-98115983D01*
X100530654Y-98147223D01*
X100549704Y-98182862D01*
X100561435Y-98221532D01*
X100566000Y-98267888D01*
X100566000Y-99344112D01*
X100561435Y-99390468D01*
X100549704Y-99429138D01*
X100530654Y-99464777D01*
X100505017Y-99496017D01*
X100473135Y-99522181D01*
X100454137Y-99534875D01*
X100436811Y-99552203D01*
X100423197Y-99572577D01*
X100413820Y-99595216D01*
X100409040Y-99619249D01*
X100409040Y-99643753D01*
X100413821Y-99667787D01*
X100423198Y-99690425D01*
X100436812Y-99710800D01*
X100454140Y-99728126D01*
X100473135Y-99740819D01*
X100505017Y-99766983D01*
X100530654Y-99798223D01*
X100549704Y-99833862D01*
X100561435Y-99872532D01*
X100566000Y-99918888D01*
X100566000Y-100995112D01*
X100561435Y-101041468D01*
X100549704Y-101080138D01*
X100530654Y-101115777D01*
X100505017Y-101147017D01*
X100473777Y-101172654D01*
X100438138Y-101191704D01*
X100399468Y-101203435D01*
X100353112Y-101208000D01*
X99701888Y-101208000D01*
X99655532Y-101203435D01*
X99616862Y-101191704D01*
X99581223Y-101172654D01*
X99549983Y-101147017D01*
X99524346Y-101115777D01*
X99505296Y-101080138D01*
X99493565Y-101041468D01*
X99489000Y-100995112D01*
X99489000Y-99918888D01*
X99493565Y-99872532D01*
X99505296Y-99833862D01*
X99524346Y-99798223D01*
X99549983Y-99766983D01*
X99581865Y-99740819D01*
X99600863Y-99728125D01*
X99618189Y-99710797D01*
X99631803Y-99690423D01*
X99641180Y-99667784D01*
X99645960Y-99643751D01*
X99645960Y-99619247D01*
X99641179Y-99595213D01*
X99631802Y-99572575D01*
X99618188Y-99552200D01*
X99600860Y-99534874D01*
X99581865Y-99522181D01*
X99549983Y-99496017D01*
X99524346Y-99464777D01*
X99505296Y-99429138D01*
X99493565Y-99390468D01*
X99489000Y-99344112D01*
X99489000Y-98267888D01*
X99493565Y-98221532D01*
X99505296Y-98182862D01*
X99524346Y-98147223D01*
X99549983Y-98115983D01*
X99581223Y-98090346D01*
X99616862Y-98071296D01*
X99655532Y-98059565D01*
X99701888Y-98055000D01*
X100353112Y-98055000D01*
X100399468Y-98059565D01*
X100399468Y-98059565D01*
G37*
G36*
X102274468Y-98059565D02*
G01*
X102313138Y-98071296D01*
X102348777Y-98090346D01*
X102380017Y-98115983D01*
X102405654Y-98147223D01*
X102424704Y-98182862D01*
X102436435Y-98221532D01*
X102441000Y-98267888D01*
X102441000Y-99344112D01*
X102436435Y-99390468D01*
X102424704Y-99429138D01*
X102405654Y-99464777D01*
X102380017Y-99496017D01*
X102348135Y-99522181D01*
X102329137Y-99534875D01*
X102311811Y-99552203D01*
X102298197Y-99572577D01*
X102288820Y-99595216D01*
X102284040Y-99619249D01*
X102284040Y-99643753D01*
X102288821Y-99667787D01*
X102298198Y-99690425D01*
X102311812Y-99710800D01*
X102329140Y-99728126D01*
X102348135Y-99740819D01*
X102380017Y-99766983D01*
X102405654Y-99798223D01*
X102424704Y-99833862D01*
X102436435Y-99872532D01*
X102441000Y-99918888D01*
X102441000Y-100995112D01*
X102436435Y-101041468D01*
X102424704Y-101080138D01*
X102405654Y-101115777D01*
X102380017Y-101147017D01*
X102348777Y-101172654D01*
X102313138Y-101191704D01*
X102274468Y-101203435D01*
X102228112Y-101208000D01*
X101576888Y-101208000D01*
X101530532Y-101203435D01*
X101491862Y-101191704D01*
X101456223Y-101172654D01*
X101424983Y-101147017D01*
X101399346Y-101115777D01*
X101380296Y-101080138D01*
X101368565Y-101041468D01*
X101364000Y-100995112D01*
X101364000Y-99918888D01*
X101368565Y-99872532D01*
X101380296Y-99833862D01*
X101399346Y-99798223D01*
X101424983Y-99766983D01*
X101456865Y-99740819D01*
X101475863Y-99728125D01*
X101493189Y-99710797D01*
X101506803Y-99690423D01*
X101516180Y-99667784D01*
X101520960Y-99643751D01*
X101520960Y-99619247D01*
X101516179Y-99595213D01*
X101506802Y-99572575D01*
X101493188Y-99552200D01*
X101475860Y-99534874D01*
X101456865Y-99522181D01*
X101424983Y-99496017D01*
X101399346Y-99464777D01*
X101380296Y-99429138D01*
X101368565Y-99390468D01*
X101364000Y-99344112D01*
X101364000Y-98267888D01*
X101368565Y-98221532D01*
X101380296Y-98182862D01*
X101399346Y-98147223D01*
X101424983Y-98115983D01*
X101456223Y-98090346D01*
X101491862Y-98071296D01*
X101530532Y-98059565D01*
X101576888Y-98055000D01*
X102228112Y-98055000D01*
X102274468Y-98059565D01*
X102274468Y-98059565D01*
G37*
G36*
X108400468Y-98123065D02*
G01*
X108439138Y-98134796D01*
X108474777Y-98153846D01*
X108506017Y-98179483D01*
X108531654Y-98210723D01*
X108550704Y-98246362D01*
X108562435Y-98285032D01*
X108567000Y-98331388D01*
X108567000Y-99407612D01*
X108562435Y-99453968D01*
X108550704Y-99492638D01*
X108531654Y-99528277D01*
X108506017Y-99559517D01*
X108474777Y-99585154D01*
X108439138Y-99604204D01*
X108400468Y-99615935D01*
X108354112Y-99620500D01*
X107702888Y-99620500D01*
X107656532Y-99615935D01*
X107617862Y-99604204D01*
X107582223Y-99585154D01*
X107550983Y-99559517D01*
X107525346Y-99528277D01*
X107506296Y-99492638D01*
X107494565Y-99453968D01*
X107490000Y-99407612D01*
X107490000Y-98331388D01*
X107494565Y-98285032D01*
X107506296Y-98246362D01*
X107525346Y-98210723D01*
X107550983Y-98179483D01*
X107582223Y-98153846D01*
X107617862Y-98134796D01*
X107656532Y-98123065D01*
X107702888Y-98118500D01*
X108354112Y-98118500D01*
X108400468Y-98123065D01*
X108400468Y-98123065D01*
G37*
G36*
X110275468Y-98123065D02*
G01*
X110314138Y-98134796D01*
X110349777Y-98153846D01*
X110381017Y-98179483D01*
X110406654Y-98210723D01*
X110425704Y-98246362D01*
X110437435Y-98285032D01*
X110442000Y-98331388D01*
X110442000Y-99407612D01*
X110437435Y-99453968D01*
X110425704Y-99492638D01*
X110406654Y-99528277D01*
X110381017Y-99559517D01*
X110349777Y-99585154D01*
X110314138Y-99604204D01*
X110275468Y-99615935D01*
X110229112Y-99620500D01*
X109577888Y-99620500D01*
X109531532Y-99615935D01*
X109492862Y-99604204D01*
X109457223Y-99585154D01*
X109425983Y-99559517D01*
X109400346Y-99528277D01*
X109381296Y-99492638D01*
X109369565Y-99453968D01*
X109365000Y-99407612D01*
X109365000Y-98331388D01*
X109369565Y-98285032D01*
X109381296Y-98246362D01*
X109400346Y-98210723D01*
X109425983Y-98179483D01*
X109457223Y-98153846D01*
X109492862Y-98134796D01*
X109531532Y-98123065D01*
X109577888Y-98118500D01*
X110229112Y-98118500D01*
X110275468Y-98123065D01*
X110275468Y-98123065D01*
G37*
G36*
X94088747Y-98163877D02*
G01*
X94169890Y-98180017D01*
X94288364Y-98229091D01*
X94394988Y-98300335D01*
X94485665Y-98391012D01*
X94556909Y-98497636D01*
X94605983Y-98616110D01*
X94631000Y-98741882D01*
X94631000Y-98870118D01*
X94605983Y-98995890D01*
X94556909Y-99114364D01*
X94485665Y-99220988D01*
X94394988Y-99311665D01*
X94288364Y-99382909D01*
X94288363Y-99382910D01*
X94288362Y-99382910D01*
X94169890Y-99431983D01*
X94044119Y-99457000D01*
X93915881Y-99457000D01*
X93790110Y-99431983D01*
X93671638Y-99382910D01*
X93671637Y-99382910D01*
X93671636Y-99382909D01*
X93565012Y-99311665D01*
X93474335Y-99220988D01*
X93403091Y-99114364D01*
X93354017Y-98995890D01*
X93329000Y-98870118D01*
X93329000Y-98741882D01*
X93354017Y-98616110D01*
X93403091Y-98497636D01*
X93474335Y-98391012D01*
X93565012Y-98300335D01*
X93671636Y-98229091D01*
X93790110Y-98180017D01*
X93871253Y-98163877D01*
X93915881Y-98155000D01*
X94044119Y-98155000D01*
X94088747Y-98163877D01*
X94088747Y-98163877D01*
G37*
G36*
X113138747Y-98163877D02*
G01*
X113219890Y-98180017D01*
X113338364Y-98229091D01*
X113444988Y-98300335D01*
X113535665Y-98391012D01*
X113606909Y-98497636D01*
X113655983Y-98616110D01*
X113681000Y-98741882D01*
X113681000Y-98870118D01*
X113655983Y-98995890D01*
X113606909Y-99114364D01*
X113535665Y-99220988D01*
X113444988Y-99311665D01*
X113338364Y-99382909D01*
X113338363Y-99382910D01*
X113338362Y-99382910D01*
X113219890Y-99431983D01*
X113094119Y-99457000D01*
X112965881Y-99457000D01*
X112840110Y-99431983D01*
X112721638Y-99382910D01*
X112721637Y-99382910D01*
X112721636Y-99382909D01*
X112615012Y-99311665D01*
X112524335Y-99220988D01*
X112453091Y-99114364D01*
X112404017Y-98995890D01*
X112379000Y-98870118D01*
X112379000Y-98741882D01*
X112404017Y-98616110D01*
X112453091Y-98497636D01*
X112524335Y-98391012D01*
X112615012Y-98300335D01*
X112721636Y-98229091D01*
X112840110Y-98180017D01*
X112921253Y-98163877D01*
X112965881Y-98155000D01*
X113094119Y-98155000D01*
X113138747Y-98163877D01*
X113138747Y-98163877D01*
G37*
G36*
X113219890Y-96402017D02*
G01*
X113338364Y-96451091D01*
X113444988Y-96522335D01*
X113535665Y-96613012D01*
X113606909Y-96719636D01*
X113655983Y-96838110D01*
X113681000Y-96963882D01*
X113681000Y-97092118D01*
X113655983Y-97217890D01*
X113606909Y-97336364D01*
X113535665Y-97442988D01*
X113444988Y-97533665D01*
X113338364Y-97604909D01*
X113338363Y-97604910D01*
X113338362Y-97604910D01*
X113219890Y-97653983D01*
X113094119Y-97679000D01*
X112965881Y-97679000D01*
X112840110Y-97653983D01*
X112721638Y-97604910D01*
X112721637Y-97604910D01*
X112721636Y-97604909D01*
X112615012Y-97533665D01*
X112524335Y-97442988D01*
X112453091Y-97336364D01*
X112404017Y-97217890D01*
X112379000Y-97092118D01*
X112379000Y-96963882D01*
X112404017Y-96838110D01*
X112453091Y-96719636D01*
X112524335Y-96613012D01*
X112615012Y-96522335D01*
X112721636Y-96451091D01*
X112840110Y-96402017D01*
X112965881Y-96377000D01*
X113094119Y-96377000D01*
X113219890Y-96402017D01*
X113219890Y-96402017D01*
G37*
G36*
X94169890Y-96402017D02*
G01*
X94288364Y-96451091D01*
X94394988Y-96522335D01*
X94485665Y-96613012D01*
X94556909Y-96719636D01*
X94605983Y-96838110D01*
X94631000Y-96963882D01*
X94631000Y-97092118D01*
X94605983Y-97217890D01*
X94556909Y-97336364D01*
X94485665Y-97442988D01*
X94394988Y-97533665D01*
X94288364Y-97604909D01*
X94288363Y-97604910D01*
X94288362Y-97604910D01*
X94169890Y-97653983D01*
X94044119Y-97679000D01*
X93915881Y-97679000D01*
X93790110Y-97653983D01*
X93671638Y-97604910D01*
X93671637Y-97604910D01*
X93671636Y-97604909D01*
X93565012Y-97533665D01*
X93474335Y-97442988D01*
X93403091Y-97336364D01*
X93354017Y-97217890D01*
X93329000Y-97092118D01*
X93329000Y-96963882D01*
X93354017Y-96838110D01*
X93403091Y-96719636D01*
X93474335Y-96613012D01*
X93565012Y-96522335D01*
X93671636Y-96451091D01*
X93790110Y-96402017D01*
X93915881Y-96377000D01*
X94044119Y-96377000D01*
X94169890Y-96402017D01*
X94169890Y-96402017D01*
G37*
G36*
X98879500Y-97102500D02*
G01*
X97277500Y-97102500D01*
X97277500Y-92000500D01*
X98879500Y-92000500D01*
X98879500Y-97102500D01*
X98879500Y-97102500D01*
G37*
G36*
X104779500Y-97102500D02*
G01*
X103177500Y-97102500D01*
X103177500Y-92000500D01*
X104779500Y-92000500D01*
X104779500Y-97102500D01*
X104779500Y-97102500D01*
G37*
G36*
X113219890Y-94624017D02*
G01*
X113338364Y-94673091D01*
X113444988Y-94744335D01*
X113535665Y-94835012D01*
X113606909Y-94941636D01*
X113655983Y-95060110D01*
X113681000Y-95185882D01*
X113681000Y-95314118D01*
X113655983Y-95439890D01*
X113606909Y-95558364D01*
X113535665Y-95664988D01*
X113444988Y-95755665D01*
X113338364Y-95826909D01*
X113338363Y-95826910D01*
X113338362Y-95826910D01*
X113219890Y-95875983D01*
X113094119Y-95901000D01*
X112965881Y-95901000D01*
X112840110Y-95875983D01*
X112721638Y-95826910D01*
X112721637Y-95826910D01*
X112721636Y-95826909D01*
X112615012Y-95755665D01*
X112524335Y-95664988D01*
X112453091Y-95558364D01*
X112404017Y-95439890D01*
X112379000Y-95314118D01*
X112379000Y-95185882D01*
X112404017Y-95060110D01*
X112453091Y-94941636D01*
X112524335Y-94835012D01*
X112615012Y-94744335D01*
X112721636Y-94673091D01*
X112840110Y-94624017D01*
X112965881Y-94599000D01*
X113094119Y-94599000D01*
X113219890Y-94624017D01*
X113219890Y-94624017D01*
G37*
G36*
X94169890Y-94624017D02*
G01*
X94288364Y-94673091D01*
X94394988Y-94744335D01*
X94485665Y-94835012D01*
X94556909Y-94941636D01*
X94605983Y-95060110D01*
X94631000Y-95185882D01*
X94631000Y-95314118D01*
X94605983Y-95439890D01*
X94556909Y-95558364D01*
X94485665Y-95664988D01*
X94394988Y-95755665D01*
X94288364Y-95826909D01*
X94288363Y-95826910D01*
X94288362Y-95826910D01*
X94169890Y-95875983D01*
X94044119Y-95901000D01*
X93915881Y-95901000D01*
X93790110Y-95875983D01*
X93671638Y-95826910D01*
X93671637Y-95826910D01*
X93671636Y-95826909D01*
X93565012Y-95755665D01*
X93474335Y-95664988D01*
X93403091Y-95558364D01*
X93354017Y-95439890D01*
X93329000Y-95314118D01*
X93329000Y-95185882D01*
X93354017Y-95060110D01*
X93403091Y-94941636D01*
X93474335Y-94835012D01*
X93565012Y-94744335D01*
X93671636Y-94673091D01*
X93790110Y-94624017D01*
X93915881Y-94599000D01*
X94044119Y-94599000D01*
X94169890Y-94624017D01*
X94169890Y-94624017D01*
G37*
G36*
X94169890Y-92846017D02*
G01*
X94288364Y-92895091D01*
X94394988Y-92966335D01*
X94485665Y-93057012D01*
X94556909Y-93163636D01*
X94605983Y-93282110D01*
X94631000Y-93407882D01*
X94631000Y-93536118D01*
X94605983Y-93661890D01*
X94556909Y-93780364D01*
X94485665Y-93886988D01*
X94394988Y-93977665D01*
X94288364Y-94048909D01*
X94288363Y-94048910D01*
X94288362Y-94048910D01*
X94169890Y-94097983D01*
X94044119Y-94123000D01*
X93915881Y-94123000D01*
X93790110Y-94097983D01*
X93671638Y-94048910D01*
X93671637Y-94048910D01*
X93671636Y-94048909D01*
X93565012Y-93977665D01*
X93474335Y-93886988D01*
X93403091Y-93780364D01*
X93354017Y-93661890D01*
X93329000Y-93536118D01*
X93329000Y-93407882D01*
X93354017Y-93282110D01*
X93403091Y-93163636D01*
X93474335Y-93057012D01*
X93565012Y-92966335D01*
X93671636Y-92895091D01*
X93790110Y-92846017D01*
X93915881Y-92821000D01*
X94044119Y-92821000D01*
X94169890Y-92846017D01*
X94169890Y-92846017D01*
G37*
G36*
X113219890Y-92846017D02*
G01*
X113338364Y-92895091D01*
X113444988Y-92966335D01*
X113535665Y-93057012D01*
X113606909Y-93163636D01*
X113655983Y-93282110D01*
X113681000Y-93407882D01*
X113681000Y-93536118D01*
X113655983Y-93661890D01*
X113606909Y-93780364D01*
X113535665Y-93886988D01*
X113444988Y-93977665D01*
X113338364Y-94048909D01*
X113338363Y-94048910D01*
X113338362Y-94048910D01*
X113219890Y-94097983D01*
X113094119Y-94123000D01*
X112965881Y-94123000D01*
X112840110Y-94097983D01*
X112721638Y-94048910D01*
X112721637Y-94048910D01*
X112721636Y-94048909D01*
X112615012Y-93977665D01*
X112524335Y-93886988D01*
X112453091Y-93780364D01*
X112404017Y-93661890D01*
X112379000Y-93536118D01*
X112379000Y-93407882D01*
X112404017Y-93282110D01*
X112453091Y-93163636D01*
X112524335Y-93057012D01*
X112615012Y-92966335D01*
X112721636Y-92895091D01*
X112840110Y-92846017D01*
X112965881Y-92821000D01*
X113094119Y-92821000D01*
X113219890Y-92846017D01*
X113219890Y-92846017D01*
G37*
G36*
X113219890Y-91068017D02*
G01*
X113255524Y-91082777D01*
X113338364Y-91117091D01*
X113444988Y-91188335D01*
X113535665Y-91279012D01*
X113606909Y-91385636D01*
X113655983Y-91504110D01*
X113681000Y-91629882D01*
X113681000Y-91758118D01*
X113655983Y-91883890D01*
X113606909Y-92002364D01*
X113535665Y-92108988D01*
X113444988Y-92199665D01*
X113338364Y-92270909D01*
X113338363Y-92270910D01*
X113338362Y-92270910D01*
X113219890Y-92319983D01*
X113094119Y-92345000D01*
X112965881Y-92345000D01*
X112840110Y-92319983D01*
X112721638Y-92270910D01*
X112721637Y-92270910D01*
X112721636Y-92270909D01*
X112615012Y-92199665D01*
X112524335Y-92108988D01*
X112453091Y-92002364D01*
X112404017Y-91883890D01*
X112379000Y-91758118D01*
X112379000Y-91629882D01*
X112404017Y-91504110D01*
X112453091Y-91385636D01*
X112524335Y-91279012D01*
X112615012Y-91188335D01*
X112721636Y-91117091D01*
X112804477Y-91082777D01*
X112840110Y-91068017D01*
X112965881Y-91043000D01*
X113094119Y-91043000D01*
X113219890Y-91068017D01*
X113219890Y-91068017D01*
G37*
G36*
X94169890Y-91068017D02*
G01*
X94205524Y-91082777D01*
X94288364Y-91117091D01*
X94394988Y-91188335D01*
X94485665Y-91279012D01*
X94556909Y-91385636D01*
X94605983Y-91504110D01*
X94631000Y-91629882D01*
X94631000Y-91758118D01*
X94605983Y-91883890D01*
X94556909Y-92002364D01*
X94485665Y-92108988D01*
X94394988Y-92199665D01*
X94288364Y-92270909D01*
X94288363Y-92270910D01*
X94288362Y-92270910D01*
X94169890Y-92319983D01*
X94044119Y-92345000D01*
X93915881Y-92345000D01*
X93790110Y-92319983D01*
X93671638Y-92270910D01*
X93671637Y-92270910D01*
X93671636Y-92270909D01*
X93565012Y-92199665D01*
X93474335Y-92108988D01*
X93403091Y-92002364D01*
X93354017Y-91883890D01*
X93329000Y-91758118D01*
X93329000Y-91629882D01*
X93354017Y-91504110D01*
X93403091Y-91385636D01*
X93474335Y-91279012D01*
X93565012Y-91188335D01*
X93671636Y-91117091D01*
X93754477Y-91082777D01*
X93790110Y-91068017D01*
X93915881Y-91043000D01*
X94044119Y-91043000D01*
X94169890Y-91068017D01*
X94169890Y-91068017D01*
G37*
G36*
X102274468Y-89677565D02*
G01*
X102313138Y-89689296D01*
X102348777Y-89708346D01*
X102380017Y-89733983D01*
X102405654Y-89765223D01*
X102424704Y-89800862D01*
X102436435Y-89839532D01*
X102441000Y-89885888D01*
X102441000Y-90962112D01*
X102436435Y-91008468D01*
X102424704Y-91047138D01*
X102405654Y-91082777D01*
X102380017Y-91114017D01*
X102348777Y-91139654D01*
X102313138Y-91158704D01*
X102274468Y-91170435D01*
X102228112Y-91175000D01*
X101576888Y-91175000D01*
X101530532Y-91170435D01*
X101491862Y-91158704D01*
X101456223Y-91139654D01*
X101424983Y-91114017D01*
X101399346Y-91082777D01*
X101380296Y-91047138D01*
X101368565Y-91008468D01*
X101364000Y-90962112D01*
X101364000Y-89885888D01*
X101368565Y-89839532D01*
X101380296Y-89800862D01*
X101399346Y-89765223D01*
X101424983Y-89733983D01*
X101456223Y-89708346D01*
X101491862Y-89689296D01*
X101530532Y-89677565D01*
X101576888Y-89673000D01*
X102228112Y-89673000D01*
X102274468Y-89677565D01*
X102274468Y-89677565D01*
G37*
G36*
X100399468Y-89677565D02*
G01*
X100438138Y-89689296D01*
X100473777Y-89708346D01*
X100505017Y-89733983D01*
X100530654Y-89765223D01*
X100549704Y-89800862D01*
X100561435Y-89839532D01*
X100566000Y-89885888D01*
X100566000Y-90962112D01*
X100561435Y-91008468D01*
X100549704Y-91047138D01*
X100530654Y-91082777D01*
X100505017Y-91114017D01*
X100473777Y-91139654D01*
X100438138Y-91158704D01*
X100399468Y-91170435D01*
X100353112Y-91175000D01*
X99701888Y-91175000D01*
X99655532Y-91170435D01*
X99616862Y-91158704D01*
X99581223Y-91139654D01*
X99549983Y-91114017D01*
X99524346Y-91082777D01*
X99505296Y-91047138D01*
X99493565Y-91008468D01*
X99489000Y-90962112D01*
X99489000Y-89885888D01*
X99493565Y-89839532D01*
X99505296Y-89800862D01*
X99524346Y-89765223D01*
X99549983Y-89733983D01*
X99581223Y-89708346D01*
X99616862Y-89689296D01*
X99655532Y-89677565D01*
X99701888Y-89673000D01*
X100353112Y-89673000D01*
X100399468Y-89677565D01*
X100399468Y-89677565D01*
G37*
G36*
X94169890Y-89290017D02*
G01*
X94288364Y-89339091D01*
X94394988Y-89410335D01*
X94485665Y-89501012D01*
X94556910Y-89607638D01*
X94605983Y-89726110D01*
X94628544Y-89839532D01*
X94631000Y-89851882D01*
X94631000Y-89980118D01*
X94605983Y-90105890D01*
X94556909Y-90224364D01*
X94485665Y-90330988D01*
X94394988Y-90421665D01*
X94288364Y-90492909D01*
X94288363Y-90492910D01*
X94288362Y-90492910D01*
X94169890Y-90541983D01*
X94044119Y-90567000D01*
X93915881Y-90567000D01*
X93790110Y-90541983D01*
X93671638Y-90492910D01*
X93671637Y-90492910D01*
X93671636Y-90492909D01*
X93565012Y-90421665D01*
X93474335Y-90330988D01*
X93403091Y-90224364D01*
X93354017Y-90105890D01*
X93329000Y-89980118D01*
X93329000Y-89851882D01*
X93331457Y-89839532D01*
X93354017Y-89726110D01*
X93403090Y-89607638D01*
X93474335Y-89501012D01*
X93565012Y-89410335D01*
X93671636Y-89339091D01*
X93790110Y-89290017D01*
X93915881Y-89265000D01*
X94044119Y-89265000D01*
X94169890Y-89290017D01*
X94169890Y-89290017D01*
G37*
G36*
X113219890Y-89290017D02*
G01*
X113338364Y-89339091D01*
X113444988Y-89410335D01*
X113535665Y-89501012D01*
X113606910Y-89607638D01*
X113655983Y-89726110D01*
X113678544Y-89839532D01*
X113681000Y-89851882D01*
X113681000Y-89980118D01*
X113655983Y-90105890D01*
X113606909Y-90224364D01*
X113535665Y-90330988D01*
X113444988Y-90421665D01*
X113338364Y-90492909D01*
X113338363Y-90492910D01*
X113338362Y-90492910D01*
X113219890Y-90541983D01*
X113094119Y-90567000D01*
X112965881Y-90567000D01*
X112840110Y-90541983D01*
X112721638Y-90492910D01*
X112721637Y-90492910D01*
X112721636Y-90492909D01*
X112615012Y-90421665D01*
X112524335Y-90330988D01*
X112453091Y-90224364D01*
X112404017Y-90105890D01*
X112379000Y-89980118D01*
X112379000Y-89851882D01*
X112381457Y-89839532D01*
X112404017Y-89726110D01*
X112453090Y-89607638D01*
X112524335Y-89501012D01*
X112615012Y-89410335D01*
X112721636Y-89339091D01*
X112840110Y-89290017D01*
X112965881Y-89265000D01*
X113094119Y-89265000D01*
X113219890Y-89290017D01*
X113219890Y-89290017D01*
G37*
G36*
X113219890Y-87512017D02*
G01*
X113338364Y-87561091D01*
X113444988Y-87632335D01*
X113535665Y-87723012D01*
X113606909Y-87829636D01*
X113655983Y-87948110D01*
X113681000Y-88073882D01*
X113681000Y-88202118D01*
X113655983Y-88327890D01*
X113606909Y-88446364D01*
X113535665Y-88552988D01*
X113444988Y-88643665D01*
X113338364Y-88714909D01*
X113338363Y-88714910D01*
X113338362Y-88714910D01*
X113219890Y-88763983D01*
X113094119Y-88789000D01*
X112965881Y-88789000D01*
X112840110Y-88763983D01*
X112721638Y-88714910D01*
X112721637Y-88714910D01*
X112721636Y-88714909D01*
X112615012Y-88643665D01*
X112524335Y-88552988D01*
X112453091Y-88446364D01*
X112404017Y-88327890D01*
X112379000Y-88202118D01*
X112379000Y-88073882D01*
X112404017Y-87948110D01*
X112453091Y-87829636D01*
X112524335Y-87723012D01*
X112615012Y-87632335D01*
X112721636Y-87561091D01*
X112840110Y-87512017D01*
X112965881Y-87487000D01*
X113094119Y-87487000D01*
X113219890Y-87512017D01*
X113219890Y-87512017D01*
G37*
G36*
X94169890Y-87512017D02*
G01*
X94288364Y-87561091D01*
X94394988Y-87632335D01*
X94485665Y-87723012D01*
X94556909Y-87829636D01*
X94605983Y-87948110D01*
X94631000Y-88073882D01*
X94631000Y-88202118D01*
X94605983Y-88327890D01*
X94556909Y-88446364D01*
X94485665Y-88552988D01*
X94394988Y-88643665D01*
X94288364Y-88714909D01*
X94288363Y-88714910D01*
X94288362Y-88714910D01*
X94169890Y-88763983D01*
X94044119Y-88789000D01*
X93915881Y-88789000D01*
X93790110Y-88763983D01*
X93671638Y-88714910D01*
X93671637Y-88714910D01*
X93671636Y-88714909D01*
X93565012Y-88643665D01*
X93474335Y-88552988D01*
X93403091Y-88446364D01*
X93354017Y-88327890D01*
X93329000Y-88202118D01*
X93329000Y-88073882D01*
X93354017Y-87948110D01*
X93403091Y-87829636D01*
X93474335Y-87723012D01*
X93565012Y-87632335D01*
X93671636Y-87561091D01*
X93790110Y-87512017D01*
X93915881Y-87487000D01*
X94044119Y-87487000D01*
X94169890Y-87512017D01*
X94169890Y-87512017D01*
G37*
G36*
X107831000Y-88416000D02*
G01*
X99179000Y-88416000D01*
X99179000Y-86814000D01*
X107831000Y-86814000D01*
X107831000Y-88416000D01*
X107831000Y-88416000D01*
G37*
G36*
X94169890Y-85734017D02*
G01*
X94288364Y-85783091D01*
X94394988Y-85854335D01*
X94485665Y-85945012D01*
X94556909Y-86051636D01*
X94605983Y-86170110D01*
X94631000Y-86295882D01*
X94631000Y-86424118D01*
X94605983Y-86549890D01*
X94556909Y-86668364D01*
X94485665Y-86774988D01*
X94394988Y-86865665D01*
X94288364Y-86936909D01*
X94288363Y-86936910D01*
X94288362Y-86936910D01*
X94169890Y-86985983D01*
X94044119Y-87011000D01*
X93915881Y-87011000D01*
X93790110Y-86985983D01*
X93671638Y-86936910D01*
X93671637Y-86936910D01*
X93671636Y-86936909D01*
X93565012Y-86865665D01*
X93474335Y-86774988D01*
X93403091Y-86668364D01*
X93354017Y-86549890D01*
X93329000Y-86424118D01*
X93329000Y-86295882D01*
X93354017Y-86170110D01*
X93403091Y-86051636D01*
X93474335Y-85945012D01*
X93565012Y-85854335D01*
X93671636Y-85783091D01*
X93790110Y-85734017D01*
X93915881Y-85709000D01*
X94044119Y-85709000D01*
X94169890Y-85734017D01*
X94169890Y-85734017D01*
G37*
G36*
X113219890Y-85734017D02*
G01*
X113338364Y-85783091D01*
X113444988Y-85854335D01*
X113535665Y-85945012D01*
X113606909Y-86051636D01*
X113655983Y-86170110D01*
X113681000Y-86295882D01*
X113681000Y-86424118D01*
X113655983Y-86549890D01*
X113606909Y-86668364D01*
X113535665Y-86774988D01*
X113444988Y-86865665D01*
X113338364Y-86936909D01*
X113338363Y-86936910D01*
X113338362Y-86936910D01*
X113219890Y-86985983D01*
X113094119Y-87011000D01*
X112965881Y-87011000D01*
X112840110Y-86985983D01*
X112721638Y-86936910D01*
X112721637Y-86936910D01*
X112721636Y-86936909D01*
X112615012Y-86865665D01*
X112524335Y-86774988D01*
X112453091Y-86668364D01*
X112404017Y-86549890D01*
X112379000Y-86424118D01*
X112379000Y-86295882D01*
X112404017Y-86170110D01*
X112453091Y-86051636D01*
X112524335Y-85945012D01*
X112615012Y-85854335D01*
X112721636Y-85783091D01*
X112840110Y-85734017D01*
X112965881Y-85709000D01*
X113094119Y-85709000D01*
X113219890Y-85734017D01*
X113219890Y-85734017D01*
G37*
G36*
X110006000Y-86241000D02*
G01*
X108404000Y-86241000D01*
X108404000Y-77589000D01*
X110006000Y-77589000D01*
X110006000Y-86241000D01*
X110006000Y-86241000D01*
G37*
G36*
X98606000Y-86241000D02*
G01*
X97004000Y-86241000D01*
X97004000Y-77589000D01*
X98606000Y-77589000D01*
X98606000Y-86241000D01*
X98606000Y-86241000D01*
G37*
G36*
X113219890Y-83956017D02*
G01*
X113299518Y-83989000D01*
X113338364Y-84005091D01*
X113444988Y-84076335D01*
X113535665Y-84167012D01*
X113606909Y-84273636D01*
X113655983Y-84392110D01*
X113681000Y-84517882D01*
X113681000Y-84646118D01*
X113655983Y-84771890D01*
X113606909Y-84890364D01*
X113535665Y-84996988D01*
X113444988Y-85087665D01*
X113338364Y-85158909D01*
X113338363Y-85158910D01*
X113338362Y-85158910D01*
X113219890Y-85207983D01*
X113094119Y-85233000D01*
X112965881Y-85233000D01*
X112840110Y-85207983D01*
X112721638Y-85158910D01*
X112721637Y-85158910D01*
X112721636Y-85158909D01*
X112615012Y-85087665D01*
X112524335Y-84996988D01*
X112453091Y-84890364D01*
X112404017Y-84771890D01*
X112379000Y-84646118D01*
X112379000Y-84517882D01*
X112404017Y-84392110D01*
X112453091Y-84273636D01*
X112524335Y-84167012D01*
X112615012Y-84076335D01*
X112721636Y-84005091D01*
X112760483Y-83989000D01*
X112840110Y-83956017D01*
X112965881Y-83931000D01*
X113094119Y-83931000D01*
X113219890Y-83956017D01*
X113219890Y-83956017D01*
G37*
G36*
X94169890Y-83956017D02*
G01*
X94249518Y-83989000D01*
X94288364Y-84005091D01*
X94394988Y-84076335D01*
X94485665Y-84167012D01*
X94556909Y-84273636D01*
X94605983Y-84392110D01*
X94631000Y-84517882D01*
X94631000Y-84646118D01*
X94605983Y-84771890D01*
X94556909Y-84890364D01*
X94485665Y-84996988D01*
X94394988Y-85087665D01*
X94288364Y-85158909D01*
X94288363Y-85158910D01*
X94288362Y-85158910D01*
X94169890Y-85207983D01*
X94044119Y-85233000D01*
X93915881Y-85233000D01*
X93790110Y-85207983D01*
X93671638Y-85158910D01*
X93671637Y-85158910D01*
X93671636Y-85158909D01*
X93565012Y-85087665D01*
X93474335Y-84996988D01*
X93403091Y-84890364D01*
X93354017Y-84771890D01*
X93329000Y-84646118D01*
X93329000Y-84517882D01*
X93354017Y-84392110D01*
X93403091Y-84273636D01*
X93474335Y-84167012D01*
X93565012Y-84076335D01*
X93671636Y-84005091D01*
X93710483Y-83989000D01*
X93790110Y-83956017D01*
X93915881Y-83931000D01*
X94044119Y-83931000D01*
X94169890Y-83956017D01*
X94169890Y-83956017D01*
G37*
G36*
X113219890Y-82178017D02*
G01*
X113338364Y-82227091D01*
X113444988Y-82298335D01*
X113535665Y-82389012D01*
X113606909Y-82495636D01*
X113655983Y-82614110D01*
X113681000Y-82739882D01*
X113681000Y-82868118D01*
X113655983Y-82993890D01*
X113606909Y-83112364D01*
X113535665Y-83218988D01*
X113444988Y-83309665D01*
X113338364Y-83380909D01*
X113338363Y-83380910D01*
X113338362Y-83380910D01*
X113219890Y-83429983D01*
X113094119Y-83455000D01*
X112965881Y-83455000D01*
X112840110Y-83429983D01*
X112721638Y-83380910D01*
X112721637Y-83380910D01*
X112721636Y-83380909D01*
X112615012Y-83309665D01*
X112524335Y-83218988D01*
X112453091Y-83112364D01*
X112404017Y-82993890D01*
X112379000Y-82868118D01*
X112379000Y-82739882D01*
X112404017Y-82614110D01*
X112453091Y-82495636D01*
X112524335Y-82389012D01*
X112615012Y-82298335D01*
X112721636Y-82227091D01*
X112840110Y-82178017D01*
X112965881Y-82153000D01*
X113094119Y-82153000D01*
X113219890Y-82178017D01*
X113219890Y-82178017D01*
G37*
G36*
X94169890Y-82178017D02*
G01*
X94288364Y-82227091D01*
X94394988Y-82298335D01*
X94485665Y-82389012D01*
X94556909Y-82495636D01*
X94605983Y-82614110D01*
X94631000Y-82739882D01*
X94631000Y-82868118D01*
X94605983Y-82993890D01*
X94556909Y-83112364D01*
X94485665Y-83218988D01*
X94394988Y-83309665D01*
X94288364Y-83380909D01*
X94288363Y-83380910D01*
X94288362Y-83380910D01*
X94169890Y-83429983D01*
X94044119Y-83455000D01*
X93915881Y-83455000D01*
X93790110Y-83429983D01*
X93671638Y-83380910D01*
X93671637Y-83380910D01*
X93671636Y-83380909D01*
X93565012Y-83309665D01*
X93474335Y-83218988D01*
X93403091Y-83112364D01*
X93354017Y-82993890D01*
X93329000Y-82868118D01*
X93329000Y-82739882D01*
X93354017Y-82614110D01*
X93403091Y-82495636D01*
X93474335Y-82389012D01*
X93565012Y-82298335D01*
X93671636Y-82227091D01*
X93790110Y-82178017D01*
X93915881Y-82153000D01*
X94044119Y-82153000D01*
X94169890Y-82178017D01*
X94169890Y-82178017D01*
G37*
G36*
X94169890Y-80400017D02*
G01*
X94288364Y-80449091D01*
X94394988Y-80520335D01*
X94485665Y-80611012D01*
X94556909Y-80717636D01*
X94605983Y-80836110D01*
X94631000Y-80961882D01*
X94631000Y-81090118D01*
X94605983Y-81215890D01*
X94556909Y-81334364D01*
X94485665Y-81440988D01*
X94394988Y-81531665D01*
X94288364Y-81602909D01*
X94288363Y-81602910D01*
X94288362Y-81602910D01*
X94169890Y-81651983D01*
X94044119Y-81677000D01*
X93915881Y-81677000D01*
X93790110Y-81651983D01*
X93671638Y-81602910D01*
X93671637Y-81602910D01*
X93671636Y-81602909D01*
X93565012Y-81531665D01*
X93474335Y-81440988D01*
X93403091Y-81334364D01*
X93354017Y-81215890D01*
X93329000Y-81090118D01*
X93329000Y-80961882D01*
X93354017Y-80836110D01*
X93403091Y-80717636D01*
X93474335Y-80611012D01*
X93565012Y-80520335D01*
X93671636Y-80449091D01*
X93790110Y-80400017D01*
X93915881Y-80375000D01*
X94044119Y-80375000D01*
X94169890Y-80400017D01*
X94169890Y-80400017D01*
G37*
G36*
X113219890Y-80400017D02*
G01*
X113338364Y-80449091D01*
X113444988Y-80520335D01*
X113535665Y-80611012D01*
X113606909Y-80717636D01*
X113655983Y-80836110D01*
X113681000Y-80961882D01*
X113681000Y-81090118D01*
X113655983Y-81215890D01*
X113606909Y-81334364D01*
X113535665Y-81440988D01*
X113444988Y-81531665D01*
X113338364Y-81602909D01*
X113338363Y-81602910D01*
X113338362Y-81602910D01*
X113219890Y-81651983D01*
X113094119Y-81677000D01*
X112965881Y-81677000D01*
X112840110Y-81651983D01*
X112721638Y-81602910D01*
X112721637Y-81602910D01*
X112721636Y-81602909D01*
X112615012Y-81531665D01*
X112524335Y-81440988D01*
X112453091Y-81334364D01*
X112404017Y-81215890D01*
X112379000Y-81090118D01*
X112379000Y-80961882D01*
X112404017Y-80836110D01*
X112453091Y-80717636D01*
X112524335Y-80611012D01*
X112615012Y-80520335D01*
X112721636Y-80449091D01*
X112840110Y-80400017D01*
X112965881Y-80375000D01*
X113094119Y-80375000D01*
X113219890Y-80400017D01*
X113219890Y-80400017D01*
G37*
G36*
X113219890Y-78622017D02*
G01*
X113338364Y-78671091D01*
X113444988Y-78742335D01*
X113535665Y-78833012D01*
X113606909Y-78939636D01*
X113655983Y-79058110D01*
X113681000Y-79183882D01*
X113681000Y-79312118D01*
X113655983Y-79437890D01*
X113606909Y-79556364D01*
X113535665Y-79662988D01*
X113444988Y-79753665D01*
X113338364Y-79824909D01*
X113338363Y-79824910D01*
X113338362Y-79824910D01*
X113219890Y-79873983D01*
X113094119Y-79899000D01*
X112965881Y-79899000D01*
X112840110Y-79873983D01*
X112721638Y-79824910D01*
X112721637Y-79824910D01*
X112721636Y-79824909D01*
X112615012Y-79753665D01*
X112524335Y-79662988D01*
X112453091Y-79556364D01*
X112404017Y-79437890D01*
X112379000Y-79312118D01*
X112379000Y-79183882D01*
X112404017Y-79058110D01*
X112453091Y-78939636D01*
X112524335Y-78833012D01*
X112615012Y-78742335D01*
X112721636Y-78671091D01*
X112840110Y-78622017D01*
X112965881Y-78597000D01*
X113094119Y-78597000D01*
X113219890Y-78622017D01*
X113219890Y-78622017D01*
G37*
G36*
X94169890Y-78622017D02*
G01*
X94288364Y-78671091D01*
X94394988Y-78742335D01*
X94485665Y-78833012D01*
X94556909Y-78939636D01*
X94605983Y-79058110D01*
X94631000Y-79183882D01*
X94631000Y-79312118D01*
X94605983Y-79437890D01*
X94556909Y-79556364D01*
X94485665Y-79662988D01*
X94394988Y-79753665D01*
X94288364Y-79824909D01*
X94288363Y-79824910D01*
X94288362Y-79824910D01*
X94169890Y-79873983D01*
X94044119Y-79899000D01*
X93915881Y-79899000D01*
X93790110Y-79873983D01*
X93671638Y-79824910D01*
X93671637Y-79824910D01*
X93671636Y-79824909D01*
X93565012Y-79753665D01*
X93474335Y-79662988D01*
X93403091Y-79556364D01*
X93354017Y-79437890D01*
X93329000Y-79312118D01*
X93329000Y-79183882D01*
X93354017Y-79058110D01*
X93403091Y-78939636D01*
X93474335Y-78833012D01*
X93565012Y-78742335D01*
X93671636Y-78671091D01*
X93790110Y-78622017D01*
X93915881Y-78597000D01*
X94044119Y-78597000D01*
X94169890Y-78622017D01*
X94169890Y-78622017D01*
G37*
G36*
X113219890Y-76844017D02*
G01*
X113338364Y-76893091D01*
X113444988Y-76964335D01*
X113535665Y-77055012D01*
X113606909Y-77161636D01*
X113655983Y-77280110D01*
X113681000Y-77405882D01*
X113681000Y-77534118D01*
X113655983Y-77659890D01*
X113606909Y-77778364D01*
X113535665Y-77884988D01*
X113444988Y-77975665D01*
X113338364Y-78046909D01*
X113338363Y-78046910D01*
X113338362Y-78046910D01*
X113219890Y-78095983D01*
X113094119Y-78121000D01*
X112965881Y-78121000D01*
X112840110Y-78095983D01*
X112721638Y-78046910D01*
X112721637Y-78046910D01*
X112721636Y-78046909D01*
X112615012Y-77975665D01*
X112524335Y-77884988D01*
X112453091Y-77778364D01*
X112404017Y-77659890D01*
X112379000Y-77534118D01*
X112379000Y-77405882D01*
X112404017Y-77280110D01*
X112453091Y-77161636D01*
X112524335Y-77055012D01*
X112615012Y-76964335D01*
X112721636Y-76893091D01*
X112840110Y-76844017D01*
X112965881Y-76819000D01*
X113094119Y-76819000D01*
X113219890Y-76844017D01*
X113219890Y-76844017D01*
G37*
G36*
X94169890Y-76844017D02*
G01*
X94288364Y-76893091D01*
X94394988Y-76964335D01*
X94485665Y-77055012D01*
X94556909Y-77161636D01*
X94605983Y-77280110D01*
X94631000Y-77405882D01*
X94631000Y-77534118D01*
X94605983Y-77659890D01*
X94556909Y-77778364D01*
X94485665Y-77884988D01*
X94394988Y-77975665D01*
X94288364Y-78046909D01*
X94288363Y-78046910D01*
X94288362Y-78046910D01*
X94169890Y-78095983D01*
X94044119Y-78121000D01*
X93915881Y-78121000D01*
X93790110Y-78095983D01*
X93671638Y-78046910D01*
X93671637Y-78046910D01*
X93671636Y-78046909D01*
X93565012Y-77975665D01*
X93474335Y-77884988D01*
X93403091Y-77778364D01*
X93354017Y-77659890D01*
X93329000Y-77534118D01*
X93329000Y-77405882D01*
X93354017Y-77280110D01*
X93403091Y-77161636D01*
X93474335Y-77055012D01*
X93565012Y-76964335D01*
X93671636Y-76893091D01*
X93790110Y-76844017D01*
X93915881Y-76819000D01*
X94044119Y-76819000D01*
X94169890Y-76844017D01*
X94169890Y-76844017D01*
G37*
G36*
X107831000Y-77016000D02*
G01*
X99179000Y-77016000D01*
X99179000Y-75414000D01*
X107831000Y-75414000D01*
X107831000Y-77016000D01*
X107831000Y-77016000D01*
G37*
G36*
X94169890Y-75066017D02*
G01*
X94288364Y-75115091D01*
X94394988Y-75186335D01*
X94485665Y-75277012D01*
X94556909Y-75383636D01*
X94605983Y-75502110D01*
X94631000Y-75627882D01*
X94631000Y-75756118D01*
X94605983Y-75881890D01*
X94556909Y-76000364D01*
X94485665Y-76106988D01*
X94394988Y-76197665D01*
X94288364Y-76268909D01*
X94288363Y-76268910D01*
X94288362Y-76268910D01*
X94169890Y-76317983D01*
X94044119Y-76343000D01*
X93915881Y-76343000D01*
X93790110Y-76317983D01*
X93671638Y-76268910D01*
X93671637Y-76268910D01*
X93671636Y-76268909D01*
X93565012Y-76197665D01*
X93474335Y-76106988D01*
X93403091Y-76000364D01*
X93354017Y-75881890D01*
X93329000Y-75756118D01*
X93329000Y-75627882D01*
X93354017Y-75502110D01*
X93403091Y-75383636D01*
X93474335Y-75277012D01*
X93565012Y-75186335D01*
X93671636Y-75115091D01*
X93790110Y-75066017D01*
X93915881Y-75041000D01*
X94044119Y-75041000D01*
X94169890Y-75066017D01*
X94169890Y-75066017D01*
G37*
G36*
X113219890Y-75066017D02*
G01*
X113338364Y-75115091D01*
X113444988Y-75186335D01*
X113535665Y-75277012D01*
X113606909Y-75383636D01*
X113655983Y-75502110D01*
X113681000Y-75627882D01*
X113681000Y-75756118D01*
X113655983Y-75881890D01*
X113606909Y-76000364D01*
X113535665Y-76106988D01*
X113444988Y-76197665D01*
X113338364Y-76268909D01*
X113338363Y-76268910D01*
X113338362Y-76268910D01*
X113219890Y-76317983D01*
X113094119Y-76343000D01*
X112965881Y-76343000D01*
X112840110Y-76317983D01*
X112721638Y-76268910D01*
X112721637Y-76268910D01*
X112721636Y-76268909D01*
X112615012Y-76197665D01*
X112524335Y-76106988D01*
X112453091Y-76000364D01*
X112404017Y-75881890D01*
X112379000Y-75756118D01*
X112379000Y-75627882D01*
X112404017Y-75502110D01*
X112453091Y-75383636D01*
X112524335Y-75277012D01*
X112615012Y-75186335D01*
X112721636Y-75115091D01*
X112840110Y-75066017D01*
X112965881Y-75041000D01*
X113094119Y-75041000D01*
X113219890Y-75066017D01*
X113219890Y-75066017D01*
G37*
G36*
X94169890Y-73288017D02*
G01*
X94288364Y-73337091D01*
X94394988Y-73408335D01*
X94485665Y-73499012D01*
X94556909Y-73605636D01*
X94605983Y-73724110D01*
X94631000Y-73849882D01*
X94631000Y-73978118D01*
X94605983Y-74103890D01*
X94556909Y-74222364D01*
X94485665Y-74328988D01*
X94394988Y-74419665D01*
X94288364Y-74490909D01*
X94288363Y-74490910D01*
X94288362Y-74490910D01*
X94169890Y-74539983D01*
X94044119Y-74565000D01*
X93915881Y-74565000D01*
X93790110Y-74539983D01*
X93671638Y-74490910D01*
X93671637Y-74490910D01*
X93671636Y-74490909D01*
X93565012Y-74419665D01*
X93474335Y-74328988D01*
X93403091Y-74222364D01*
X93354017Y-74103890D01*
X93329000Y-73978118D01*
X93329000Y-73849882D01*
X93354017Y-73724110D01*
X93403091Y-73605636D01*
X93474335Y-73499012D01*
X93565012Y-73408335D01*
X93671636Y-73337091D01*
X93790110Y-73288017D01*
X93915881Y-73263000D01*
X94044119Y-73263000D01*
X94169890Y-73288017D01*
X94169890Y-73288017D01*
G37*
G36*
X113219890Y-73288017D02*
G01*
X113338364Y-73337091D01*
X113444988Y-73408335D01*
X113535665Y-73499012D01*
X113606909Y-73605636D01*
X113655983Y-73724110D01*
X113681000Y-73849882D01*
X113681000Y-73978118D01*
X113655983Y-74103890D01*
X113606909Y-74222364D01*
X113535665Y-74328988D01*
X113444988Y-74419665D01*
X113338364Y-74490909D01*
X113338363Y-74490910D01*
X113338362Y-74490910D01*
X113219890Y-74539983D01*
X113094119Y-74565000D01*
X112965881Y-74565000D01*
X112840110Y-74539983D01*
X112721638Y-74490910D01*
X112721637Y-74490910D01*
X112721636Y-74490909D01*
X112615012Y-74419665D01*
X112524335Y-74328988D01*
X112453091Y-74222364D01*
X112404017Y-74103890D01*
X112379000Y-73978118D01*
X112379000Y-73849882D01*
X112404017Y-73724110D01*
X112453091Y-73605636D01*
X112524335Y-73499012D01*
X112615012Y-73408335D01*
X112721636Y-73337091D01*
X112840110Y-73288017D01*
X112965881Y-73263000D01*
X113094119Y-73263000D01*
X113219890Y-73288017D01*
X113219890Y-73288017D01*
G37*
G36*
X102119000Y-74426500D02*
G01*
X97017000Y-74426500D01*
X97017000Y-72824500D01*
X102119000Y-72824500D01*
X102119000Y-74426500D01*
X102119000Y-74426500D01*
G37*
G36*
X111131000Y-73931000D02*
G01*
X103499000Y-73931000D01*
X103499000Y-71959000D01*
X111131000Y-71959000D01*
X111131000Y-73931000D01*
X111131000Y-73931000D01*
G37*
G36*
X96342468Y-72031565D02*
G01*
X96381138Y-72043296D01*
X96416777Y-72062346D01*
X96448017Y-72087983D01*
X96473654Y-72119223D01*
X96492704Y-72154862D01*
X96504435Y-72193532D01*
X96509000Y-72239888D01*
X96509000Y-72891112D01*
X96504435Y-72937468D01*
X96492704Y-72976138D01*
X96473654Y-73011777D01*
X96448017Y-73043017D01*
X96416777Y-73068654D01*
X96381138Y-73087704D01*
X96342468Y-73099435D01*
X96296112Y-73104000D01*
X95219888Y-73104000D01*
X95173532Y-73099435D01*
X95134862Y-73087704D01*
X95099223Y-73068654D01*
X95067983Y-73043017D01*
X95042346Y-73011777D01*
X95023296Y-72976138D01*
X95011565Y-72937468D01*
X95007000Y-72891112D01*
X95007000Y-72239888D01*
X95011565Y-72193532D01*
X95023296Y-72154862D01*
X95042346Y-72119223D01*
X95067983Y-72087983D01*
X95099223Y-72062346D01*
X95134862Y-72043296D01*
X95173532Y-72031565D01*
X95219888Y-72027000D01*
X96296112Y-72027000D01*
X96342468Y-72031565D01*
X96342468Y-72031565D01*
G37*
G36*
X94169890Y-71510017D02*
G01*
X94288364Y-71559091D01*
X94394988Y-71630335D01*
X94485665Y-71721012D01*
X94556910Y-71827638D01*
X94605983Y-71946110D01*
X94631000Y-72071881D01*
X94631000Y-72200119D01*
X94622327Y-72243722D01*
X94605983Y-72325890D01*
X94556909Y-72444364D01*
X94485665Y-72550988D01*
X94394988Y-72641665D01*
X94288364Y-72712909D01*
X94288363Y-72712910D01*
X94288362Y-72712910D01*
X94169890Y-72761983D01*
X94044119Y-72787000D01*
X93915881Y-72787000D01*
X93790110Y-72761983D01*
X93671638Y-72712910D01*
X93671637Y-72712910D01*
X93671636Y-72712909D01*
X93565012Y-72641665D01*
X93474335Y-72550988D01*
X93403091Y-72444364D01*
X93354017Y-72325890D01*
X93337673Y-72243722D01*
X93329000Y-72200119D01*
X93329000Y-72071881D01*
X93354017Y-71946110D01*
X93403090Y-71827638D01*
X93474335Y-71721012D01*
X93565012Y-71630335D01*
X93671636Y-71559091D01*
X93790110Y-71510017D01*
X93915881Y-71485000D01*
X94044119Y-71485000D01*
X94169890Y-71510017D01*
X94169890Y-71510017D01*
G37*
G36*
X113219890Y-71510017D02*
G01*
X113338364Y-71559091D01*
X113444988Y-71630335D01*
X113535665Y-71721012D01*
X113606910Y-71827638D01*
X113655983Y-71946110D01*
X113681000Y-72071881D01*
X113681000Y-72200119D01*
X113672327Y-72243722D01*
X113655983Y-72325890D01*
X113606909Y-72444364D01*
X113535665Y-72550988D01*
X113444988Y-72641665D01*
X113338364Y-72712909D01*
X113338363Y-72712910D01*
X113338362Y-72712910D01*
X113219890Y-72761983D01*
X113094119Y-72787000D01*
X112965881Y-72787000D01*
X112840110Y-72761983D01*
X112721638Y-72712910D01*
X112721637Y-72712910D01*
X112721636Y-72712909D01*
X112615012Y-72641665D01*
X112524335Y-72550988D01*
X112453091Y-72444364D01*
X112404017Y-72325890D01*
X112387673Y-72243722D01*
X112379000Y-72200119D01*
X112379000Y-72071881D01*
X112404017Y-71946110D01*
X112453090Y-71827638D01*
X112524335Y-71721012D01*
X112615012Y-71630335D01*
X112721636Y-71559091D01*
X112840110Y-71510017D01*
X112965881Y-71485000D01*
X113094119Y-71485000D01*
X113219890Y-71510017D01*
X113219890Y-71510017D01*
G37*
G36*
X96342468Y-70156565D02*
G01*
X96381138Y-70168296D01*
X96416777Y-70187346D01*
X96448017Y-70212983D01*
X96473654Y-70244223D01*
X96492704Y-70279862D01*
X96504435Y-70318532D01*
X96509000Y-70364888D01*
X96509000Y-71016112D01*
X96504435Y-71062468D01*
X96492704Y-71101138D01*
X96473654Y-71136777D01*
X96448017Y-71168017D01*
X96416777Y-71193654D01*
X96381138Y-71212704D01*
X96342468Y-71224435D01*
X96296112Y-71229000D01*
X95219888Y-71229000D01*
X95173532Y-71224435D01*
X95134862Y-71212704D01*
X95099223Y-71193654D01*
X95067983Y-71168017D01*
X95042346Y-71136777D01*
X95023296Y-71101138D01*
X95011565Y-71062468D01*
X95007000Y-71016112D01*
X95007000Y-70364888D01*
X95011565Y-70318532D01*
X95023296Y-70279862D01*
X95042346Y-70244223D01*
X95067983Y-70212983D01*
X95099223Y-70187346D01*
X95134862Y-70168296D01*
X95173532Y-70156565D01*
X95219888Y-70152000D01*
X96296112Y-70152000D01*
X96342468Y-70156565D01*
X96342468Y-70156565D01*
G37*
G36*
X113219890Y-69732017D02*
G01*
X113338364Y-69781091D01*
X113444988Y-69852335D01*
X113535665Y-69943012D01*
X113606910Y-70049638D01*
X113655983Y-70168110D01*
X113676581Y-70271663D01*
X113681000Y-70293882D01*
X113681000Y-70422118D01*
X113655983Y-70547890D01*
X113606909Y-70666364D01*
X113535665Y-70772988D01*
X113444988Y-70863665D01*
X113338364Y-70934909D01*
X113338363Y-70934910D01*
X113338362Y-70934910D01*
X113219890Y-70983983D01*
X113094119Y-71009000D01*
X112965881Y-71009000D01*
X112840110Y-70983983D01*
X112721638Y-70934910D01*
X112721637Y-70934910D01*
X112721636Y-70934909D01*
X112615012Y-70863665D01*
X112524335Y-70772988D01*
X112453091Y-70666364D01*
X112404017Y-70547890D01*
X112379000Y-70422118D01*
X112379000Y-70293882D01*
X112383420Y-70271663D01*
X112404017Y-70168110D01*
X112453090Y-70049638D01*
X112524335Y-69943012D01*
X112615012Y-69852335D01*
X112721636Y-69781091D01*
X112840110Y-69732017D01*
X112965881Y-69707000D01*
X113094119Y-69707000D01*
X113219890Y-69732017D01*
X113219890Y-69732017D01*
G37*
G36*
X94169890Y-69732017D02*
G01*
X94288364Y-69781091D01*
X94394988Y-69852335D01*
X94485665Y-69943012D01*
X94556910Y-70049638D01*
X94605983Y-70168110D01*
X94626581Y-70271663D01*
X94631000Y-70293882D01*
X94631000Y-70422118D01*
X94605983Y-70547890D01*
X94556909Y-70666364D01*
X94485665Y-70772988D01*
X94394988Y-70863665D01*
X94288364Y-70934909D01*
X94288363Y-70934910D01*
X94288362Y-70934910D01*
X94169890Y-70983983D01*
X94044119Y-71009000D01*
X93915881Y-71009000D01*
X93790110Y-70983983D01*
X93671638Y-70934910D01*
X93671637Y-70934910D01*
X93671636Y-70934909D01*
X93565012Y-70863665D01*
X93474335Y-70772988D01*
X93403091Y-70666364D01*
X93354017Y-70547890D01*
X93329000Y-70422118D01*
X93329000Y-70293882D01*
X93333420Y-70271663D01*
X93354017Y-70168110D01*
X93403090Y-70049638D01*
X93474335Y-69943012D01*
X93565012Y-69852335D01*
X93671636Y-69781091D01*
X93790110Y-69732017D01*
X93915881Y-69707000D01*
X94044119Y-69707000D01*
X94169890Y-69732017D01*
X94169890Y-69732017D01*
G37*
G36*
X94169890Y-67954017D02*
G01*
X94288364Y-68003091D01*
X94394988Y-68074335D01*
X94485665Y-68165012D01*
X94556909Y-68271636D01*
X94605983Y-68390110D01*
X94631000Y-68515882D01*
X94631000Y-68644118D01*
X94605983Y-68769890D01*
X94556909Y-68888364D01*
X94485665Y-68994988D01*
X94394988Y-69085665D01*
X94288364Y-69156909D01*
X94288363Y-69156910D01*
X94288362Y-69156910D01*
X94169890Y-69205983D01*
X94044119Y-69231000D01*
X93915881Y-69231000D01*
X93790110Y-69205983D01*
X93671638Y-69156910D01*
X93671637Y-69156910D01*
X93671636Y-69156909D01*
X93565012Y-69085665D01*
X93474335Y-68994988D01*
X93403091Y-68888364D01*
X93354017Y-68769890D01*
X93329000Y-68644118D01*
X93329000Y-68515882D01*
X93354017Y-68390110D01*
X93403091Y-68271636D01*
X93474335Y-68165012D01*
X93565012Y-68074335D01*
X93671636Y-68003091D01*
X93790110Y-67954017D01*
X93915881Y-67929000D01*
X94044119Y-67929000D01*
X94169890Y-67954017D01*
X94169890Y-67954017D01*
G37*
G36*
X113219890Y-67954017D02*
G01*
X113338364Y-68003091D01*
X113444988Y-68074335D01*
X113535665Y-68165012D01*
X113606909Y-68271636D01*
X113655983Y-68390110D01*
X113681000Y-68515882D01*
X113681000Y-68644118D01*
X113655983Y-68769890D01*
X113606909Y-68888364D01*
X113535665Y-68994988D01*
X113444988Y-69085665D01*
X113338364Y-69156909D01*
X113338363Y-69156910D01*
X113338362Y-69156910D01*
X113219890Y-69205983D01*
X113094119Y-69231000D01*
X112965881Y-69231000D01*
X112840110Y-69205983D01*
X112721638Y-69156910D01*
X112721637Y-69156910D01*
X112721636Y-69156909D01*
X112615012Y-69085665D01*
X112524335Y-68994988D01*
X112453091Y-68888364D01*
X112404017Y-68769890D01*
X112379000Y-68644118D01*
X112379000Y-68515882D01*
X112404017Y-68390110D01*
X112453091Y-68271636D01*
X112524335Y-68165012D01*
X112615012Y-68074335D01*
X112721636Y-68003091D01*
X112840110Y-67954017D01*
X112965881Y-67929000D01*
X113094119Y-67929000D01*
X113219890Y-67954017D01*
X113219890Y-67954017D01*
G37*
G36*
X102119000Y-68526500D02*
G01*
X97017000Y-68526500D01*
X97017000Y-66924500D01*
X102119000Y-66924500D01*
X102119000Y-68526500D01*
X102119000Y-68526500D01*
G37*
G36*
X94169890Y-66176017D02*
G01*
X94288364Y-66225091D01*
X94394988Y-66296335D01*
X94485665Y-66387012D01*
X94556909Y-66493636D01*
X94605983Y-66612110D01*
X94631000Y-66737882D01*
X94631000Y-66866118D01*
X94605983Y-66991890D01*
X94556909Y-67110364D01*
X94485665Y-67216988D01*
X94394988Y-67307665D01*
X94288364Y-67378909D01*
X94288363Y-67378910D01*
X94288362Y-67378910D01*
X94169890Y-67427983D01*
X94044119Y-67453000D01*
X93915881Y-67453000D01*
X93790110Y-67427983D01*
X93671638Y-67378910D01*
X93671637Y-67378910D01*
X93671636Y-67378909D01*
X93565012Y-67307665D01*
X93474335Y-67216988D01*
X93403091Y-67110364D01*
X93354017Y-66991890D01*
X93329000Y-66866118D01*
X93329000Y-66737882D01*
X93354017Y-66612110D01*
X93403091Y-66493636D01*
X93474335Y-66387012D01*
X93565012Y-66296335D01*
X93671636Y-66225091D01*
X93790110Y-66176017D01*
X93915881Y-66151000D01*
X94044119Y-66151000D01*
X94169890Y-66176017D01*
X94169890Y-66176017D01*
G37*
G36*
X113219890Y-66176017D02*
G01*
X113338364Y-66225091D01*
X113444988Y-66296335D01*
X113535665Y-66387012D01*
X113606909Y-66493636D01*
X113655983Y-66612110D01*
X113681000Y-66737882D01*
X113681000Y-66866118D01*
X113655983Y-66991890D01*
X113606909Y-67110364D01*
X113535665Y-67216988D01*
X113444988Y-67307665D01*
X113338364Y-67378909D01*
X113338363Y-67378910D01*
X113338362Y-67378910D01*
X113219890Y-67427983D01*
X113094119Y-67453000D01*
X112965881Y-67453000D01*
X112840110Y-67427983D01*
X112721638Y-67378910D01*
X112721637Y-67378910D01*
X112721636Y-67378909D01*
X112615012Y-67307665D01*
X112524335Y-67216988D01*
X112453091Y-67110364D01*
X112404017Y-66991890D01*
X112379000Y-66866118D01*
X112379000Y-66737882D01*
X112404017Y-66612110D01*
X112453091Y-66493636D01*
X112524335Y-66387012D01*
X112615012Y-66296335D01*
X112721636Y-66225091D01*
X112840110Y-66176017D01*
X112965881Y-66151000D01*
X113094119Y-66151000D01*
X113219890Y-66176017D01*
X113219890Y-66176017D01*
G37*
G36*
X113219890Y-64398017D02*
G01*
X113338364Y-64447091D01*
X113444988Y-64518335D01*
X113535665Y-64609012D01*
X113606909Y-64715636D01*
X113655983Y-64834110D01*
X113681000Y-64959882D01*
X113681000Y-65088118D01*
X113655983Y-65213890D01*
X113606909Y-65332364D01*
X113535665Y-65438988D01*
X113444988Y-65529665D01*
X113338364Y-65600909D01*
X113338363Y-65600910D01*
X113338362Y-65600910D01*
X113219890Y-65649983D01*
X113094119Y-65675000D01*
X112965881Y-65675000D01*
X112840110Y-65649983D01*
X112721638Y-65600910D01*
X112721637Y-65600910D01*
X112721636Y-65600909D01*
X112615012Y-65529665D01*
X112524335Y-65438988D01*
X112453091Y-65332364D01*
X112404017Y-65213890D01*
X112379000Y-65088118D01*
X112379000Y-64959882D01*
X112404017Y-64834110D01*
X112453091Y-64715636D01*
X112524335Y-64609012D01*
X112615012Y-64518335D01*
X112721636Y-64447091D01*
X112840110Y-64398017D01*
X112965881Y-64373000D01*
X113094119Y-64373000D01*
X113219890Y-64398017D01*
X113219890Y-64398017D01*
G37*
G36*
X94169890Y-64398017D02*
G01*
X94288364Y-64447091D01*
X94394988Y-64518335D01*
X94485665Y-64609012D01*
X94556909Y-64715636D01*
X94605983Y-64834110D01*
X94631000Y-64959882D01*
X94631000Y-65088118D01*
X94605983Y-65213890D01*
X94556909Y-65332364D01*
X94485665Y-65438988D01*
X94394988Y-65529665D01*
X94288364Y-65600909D01*
X94288363Y-65600910D01*
X94288362Y-65600910D01*
X94169890Y-65649983D01*
X94044119Y-65675000D01*
X93915881Y-65675000D01*
X93790110Y-65649983D01*
X93671638Y-65600910D01*
X93671637Y-65600910D01*
X93671636Y-65600909D01*
X93565012Y-65529665D01*
X93474335Y-65438988D01*
X93403091Y-65332364D01*
X93354017Y-65213890D01*
X93329000Y-65088118D01*
X93329000Y-64959882D01*
X93354017Y-64834110D01*
X93403091Y-64715636D01*
X93474335Y-64609012D01*
X93565012Y-64518335D01*
X93671636Y-64447091D01*
X93790110Y-64398017D01*
X93915881Y-64373000D01*
X94044119Y-64373000D01*
X94169890Y-64398017D01*
X94169890Y-64398017D01*
G37*
G36*
X97299786Y-61452246D02*
G01*
X97330461Y-61461551D01*
X97358729Y-61476661D01*
X97383506Y-61496994D01*
X97403839Y-61521771D01*
X97418949Y-61550039D01*
X97428254Y-61580714D01*
X97432000Y-61618751D01*
X97432000Y-63730249D01*
X97428254Y-63768286D01*
X97418949Y-63798961D01*
X97403839Y-63827229D01*
X97383506Y-63852006D01*
X97358729Y-63872339D01*
X97330461Y-63887449D01*
X97299786Y-63896754D01*
X97261749Y-63900500D01*
X95250251Y-63900500D01*
X95212214Y-63896754D01*
X95181539Y-63887449D01*
X95153271Y-63872339D01*
X95128494Y-63852006D01*
X95108161Y-63827229D01*
X95093051Y-63798961D01*
X95083746Y-63768286D01*
X95080000Y-63730249D01*
X95080000Y-61618751D01*
X95083746Y-61580714D01*
X95093051Y-61550039D01*
X95108161Y-61521771D01*
X95128494Y-61496994D01*
X95153271Y-61476661D01*
X95181539Y-61461551D01*
X95212214Y-61452246D01*
X95250251Y-61448500D01*
X97261749Y-61448500D01*
X97299786Y-61452246D01*
X97299786Y-61452246D01*
G37*
G36*
X102399786Y-61452246D02*
G01*
X102430461Y-61461551D01*
X102458729Y-61476661D01*
X102483506Y-61496994D01*
X102503839Y-61521771D01*
X102518949Y-61550039D01*
X102528254Y-61580714D01*
X102532000Y-61618751D01*
X102532000Y-63730249D01*
X102528254Y-63768286D01*
X102518949Y-63798961D01*
X102503839Y-63827229D01*
X102483506Y-63852006D01*
X102458729Y-63872339D01*
X102430461Y-63887449D01*
X102399786Y-63896754D01*
X102361749Y-63900500D01*
X100350251Y-63900500D01*
X100312214Y-63896754D01*
X100281539Y-63887449D01*
X100253271Y-63872339D01*
X100228494Y-63852006D01*
X100208161Y-63827229D01*
X100193051Y-63798961D01*
X100183746Y-63768286D01*
X100180000Y-63730249D01*
X100180000Y-61618751D01*
X100183746Y-61580714D01*
X100193051Y-61550039D01*
X100208161Y-61521771D01*
X100228494Y-61496994D01*
X100253271Y-61476661D01*
X100281539Y-61461551D01*
X100312214Y-61452246D01*
X100350251Y-61448500D01*
X102361749Y-61448500D01*
X102399786Y-61452246D01*
X102399786Y-61452246D01*
G37*
G36*
X113219890Y-62620017D02*
G01*
X113338364Y-62669091D01*
X113444988Y-62740335D01*
X113535665Y-62831012D01*
X113606909Y-62937636D01*
X113655983Y-63056110D01*
X113681000Y-63181882D01*
X113681000Y-63310118D01*
X113655983Y-63435890D01*
X113606909Y-63554364D01*
X113535665Y-63660988D01*
X113444988Y-63751665D01*
X113338364Y-63822909D01*
X113338363Y-63822910D01*
X113338362Y-63822910D01*
X113219890Y-63871983D01*
X113094119Y-63897000D01*
X112965881Y-63897000D01*
X112840110Y-63871983D01*
X112721638Y-63822910D01*
X112721637Y-63822910D01*
X112721636Y-63822909D01*
X112615012Y-63751665D01*
X112524335Y-63660988D01*
X112453091Y-63554364D01*
X112404017Y-63435890D01*
X112379000Y-63310118D01*
X112379000Y-63181882D01*
X112404017Y-63056110D01*
X112453091Y-62937636D01*
X112524335Y-62831012D01*
X112615012Y-62740335D01*
X112721636Y-62669091D01*
X112840110Y-62620017D01*
X112965881Y-62595000D01*
X113094119Y-62595000D01*
X113219890Y-62620017D01*
X113219890Y-62620017D01*
G37*
G36*
X94169890Y-62620017D02*
G01*
X94288364Y-62669091D01*
X94394988Y-62740335D01*
X94485665Y-62831012D01*
X94556909Y-62937636D01*
X94605983Y-63056110D01*
X94631000Y-63181882D01*
X94631000Y-63310118D01*
X94605983Y-63435890D01*
X94556909Y-63554364D01*
X94485665Y-63660988D01*
X94394988Y-63751665D01*
X94288364Y-63822909D01*
X94288363Y-63822910D01*
X94288362Y-63822910D01*
X94169890Y-63871983D01*
X94044119Y-63897000D01*
X93915881Y-63897000D01*
X93790110Y-63871983D01*
X93671638Y-63822910D01*
X93671637Y-63822910D01*
X93671636Y-63822909D01*
X93565012Y-63751665D01*
X93474335Y-63660988D01*
X93403091Y-63554364D01*
X93354017Y-63435890D01*
X93329000Y-63310118D01*
X93329000Y-63181882D01*
X93354017Y-63056110D01*
X93403091Y-62937636D01*
X93474335Y-62831012D01*
X93565012Y-62740335D01*
X93671636Y-62669091D01*
X93790110Y-62620017D01*
X93915881Y-62595000D01*
X94044119Y-62595000D01*
X94169890Y-62620017D01*
X94169890Y-62620017D01*
G37*
G36*
X113219890Y-60842017D02*
G01*
X113338364Y-60891091D01*
X113444988Y-60962335D01*
X113535665Y-61053012D01*
X113606910Y-61159638D01*
X113655983Y-61278110D01*
X113681000Y-61403881D01*
X113681000Y-61532119D01*
X113663768Y-61618751D01*
X113655983Y-61657890D01*
X113606909Y-61776364D01*
X113535665Y-61882988D01*
X113444988Y-61973665D01*
X113338364Y-62044909D01*
X113338363Y-62044910D01*
X113338362Y-62044910D01*
X113219890Y-62093983D01*
X113094119Y-62119000D01*
X112965881Y-62119000D01*
X112840110Y-62093983D01*
X112721638Y-62044910D01*
X112721637Y-62044910D01*
X112721636Y-62044909D01*
X112615012Y-61973665D01*
X112524335Y-61882988D01*
X112453091Y-61776364D01*
X112404017Y-61657890D01*
X112396232Y-61618751D01*
X112379000Y-61532119D01*
X112379000Y-61403881D01*
X112404017Y-61278110D01*
X112453090Y-61159638D01*
X112524335Y-61053012D01*
X112615012Y-60962335D01*
X112721636Y-60891091D01*
X112840110Y-60842017D01*
X112965881Y-60817000D01*
X113094119Y-60817000D01*
X113219890Y-60842017D01*
X113219890Y-60842017D01*
G37*
G36*
X94169890Y-60842017D02*
G01*
X94288364Y-60891091D01*
X94394988Y-60962335D01*
X94485665Y-61053012D01*
X94556910Y-61159638D01*
X94605983Y-61278110D01*
X94631000Y-61403881D01*
X94631000Y-61532119D01*
X94613768Y-61618751D01*
X94605983Y-61657890D01*
X94556909Y-61776364D01*
X94485665Y-61882988D01*
X94394988Y-61973665D01*
X94288364Y-62044909D01*
X94288363Y-62044910D01*
X94288362Y-62044910D01*
X94169890Y-62093983D01*
X94044119Y-62119000D01*
X93915881Y-62119000D01*
X93790110Y-62093983D01*
X93671638Y-62044910D01*
X93671637Y-62044910D01*
X93671636Y-62044909D01*
X93565012Y-61973665D01*
X93474335Y-61882988D01*
X93403091Y-61776364D01*
X93354017Y-61657890D01*
X93346232Y-61618751D01*
X93329000Y-61532119D01*
X93329000Y-61403881D01*
X93354017Y-61278110D01*
X93403090Y-61159638D01*
X93474335Y-61053012D01*
X93565012Y-60962335D01*
X93671636Y-60891091D01*
X93790110Y-60842017D01*
X93915881Y-60817000D01*
X94044119Y-60817000D01*
X94169890Y-60842017D01*
X94169890Y-60842017D01*
G37*
G36*
X111131000Y-61391000D02*
G01*
X103499000Y-61391000D01*
X103499000Y-59419000D01*
X111131000Y-59419000D01*
X111131000Y-61391000D01*
X111131000Y-61391000D01*
G37*
G36*
X94169890Y-59064017D02*
G01*
X94288364Y-59113091D01*
X94394988Y-59184335D01*
X94485665Y-59275012D01*
X94556909Y-59381636D01*
X94605983Y-59500110D01*
X94631000Y-59625882D01*
X94631000Y-59754118D01*
X94605983Y-59879890D01*
X94556909Y-59998364D01*
X94485665Y-60104988D01*
X94394988Y-60195665D01*
X94288364Y-60266909D01*
X94288363Y-60266910D01*
X94288362Y-60266910D01*
X94169890Y-60315983D01*
X94044119Y-60341000D01*
X93915881Y-60341000D01*
X93790110Y-60315983D01*
X93671638Y-60266910D01*
X93671637Y-60266910D01*
X93671636Y-60266909D01*
X93565012Y-60195665D01*
X93474335Y-60104988D01*
X93403091Y-59998364D01*
X93354017Y-59879890D01*
X93329000Y-59754118D01*
X93329000Y-59625882D01*
X93354017Y-59500110D01*
X93403091Y-59381636D01*
X93474335Y-59275012D01*
X93565012Y-59184335D01*
X93671636Y-59113091D01*
X93790110Y-59064017D01*
X93915881Y-59039000D01*
X94044119Y-59039000D01*
X94169890Y-59064017D01*
X94169890Y-59064017D01*
G37*
G36*
X113219890Y-59064017D02*
G01*
X113338364Y-59113091D01*
X113444988Y-59184335D01*
X113535665Y-59275012D01*
X113606909Y-59381636D01*
X113655983Y-59500110D01*
X113681000Y-59625882D01*
X113681000Y-59754118D01*
X113655983Y-59879890D01*
X113606909Y-59998364D01*
X113535665Y-60104988D01*
X113444988Y-60195665D01*
X113338364Y-60266909D01*
X113338363Y-60266910D01*
X113338362Y-60266910D01*
X113219890Y-60315983D01*
X113094119Y-60341000D01*
X112965881Y-60341000D01*
X112840110Y-60315983D01*
X112721638Y-60266910D01*
X112721637Y-60266910D01*
X112721636Y-60266909D01*
X112615012Y-60195665D01*
X112524335Y-60104988D01*
X112453091Y-59998364D01*
X112404017Y-59879890D01*
X112379000Y-59754118D01*
X112379000Y-59625882D01*
X112404017Y-59500110D01*
X112453091Y-59381636D01*
X112524335Y-59275012D01*
X112615012Y-59184335D01*
X112721636Y-59113091D01*
X112840110Y-59064017D01*
X112965881Y-59039000D01*
X113094119Y-59039000D01*
X113219890Y-59064017D01*
X113219890Y-59064017D01*
G37*
G36*
X99233943Y-57398519D02*
G01*
X99300127Y-57405037D01*
X99469966Y-57456557D01*
X99626491Y-57540222D01*
X99662229Y-57569552D01*
X99763686Y-57652814D01*
X99846948Y-57754271D01*
X99876278Y-57790009D01*
X99959943Y-57946534D01*
X100011463Y-58116373D01*
X100028859Y-58293000D01*
X100011463Y-58469627D01*
X99959943Y-58639466D01*
X99876278Y-58795991D01*
X99846948Y-58831729D01*
X99763686Y-58933186D01*
X99662229Y-59016448D01*
X99626491Y-59045778D01*
X99469966Y-59129443D01*
X99300127Y-59180963D01*
X99233942Y-59187482D01*
X99167760Y-59194000D01*
X99079240Y-59194000D01*
X99013058Y-59187482D01*
X98946873Y-59180963D01*
X98777034Y-59129443D01*
X98620509Y-59045778D01*
X98584771Y-59016448D01*
X98483314Y-58933186D01*
X98400052Y-58831729D01*
X98370722Y-58795991D01*
X98287057Y-58639466D01*
X98235537Y-58469627D01*
X98218141Y-58293000D01*
X98235537Y-58116373D01*
X98287057Y-57946534D01*
X98370722Y-57790009D01*
X98400052Y-57754271D01*
X98483314Y-57652814D01*
X98584771Y-57569552D01*
X98620509Y-57540222D01*
X98777034Y-57456557D01*
X98946873Y-57405037D01*
X99013057Y-57398519D01*
X99079240Y-57392000D01*
X99167760Y-57392000D01*
X99233943Y-57398519D01*
X99233943Y-57398519D01*
G37*
G36*
X113219890Y-57286017D02*
G01*
X113338364Y-57335091D01*
X113423534Y-57392000D01*
X113444988Y-57406335D01*
X113535665Y-57497012D01*
X113606910Y-57603638D01*
X113655983Y-57722110D01*
X113681000Y-57847881D01*
X113681000Y-57976119D01*
X113665080Y-58056154D01*
X113655983Y-58101890D01*
X113606909Y-58220364D01*
X113535665Y-58326988D01*
X113444988Y-58417665D01*
X113338364Y-58488909D01*
X113338363Y-58488910D01*
X113338362Y-58488910D01*
X113219890Y-58537983D01*
X113094119Y-58563000D01*
X112965881Y-58563000D01*
X112840110Y-58537983D01*
X112721638Y-58488910D01*
X112721637Y-58488910D01*
X112721636Y-58488909D01*
X112615012Y-58417665D01*
X112524335Y-58326988D01*
X112453091Y-58220364D01*
X112404017Y-58101890D01*
X112394920Y-58056154D01*
X112379000Y-57976119D01*
X112379000Y-57847881D01*
X112404017Y-57722110D01*
X112453090Y-57603638D01*
X112524335Y-57497012D01*
X112615012Y-57406335D01*
X112636466Y-57392000D01*
X112721636Y-57335091D01*
X112840110Y-57286017D01*
X112965881Y-57261000D01*
X113094119Y-57261000D01*
X113219890Y-57286017D01*
X113219890Y-57286017D01*
G37*
G36*
X94169890Y-57286017D02*
G01*
X94288364Y-57335091D01*
X94373534Y-57392000D01*
X94394988Y-57406335D01*
X94485665Y-57497012D01*
X94556910Y-57603638D01*
X94605983Y-57722110D01*
X94631000Y-57847881D01*
X94631000Y-57976119D01*
X94615080Y-58056154D01*
X94605983Y-58101890D01*
X94556909Y-58220364D01*
X94485665Y-58326988D01*
X94394988Y-58417665D01*
X94288364Y-58488909D01*
X94288363Y-58488910D01*
X94288362Y-58488910D01*
X94169890Y-58537983D01*
X94044119Y-58563000D01*
X93915881Y-58563000D01*
X93790110Y-58537983D01*
X93671638Y-58488910D01*
X93671637Y-58488910D01*
X93671636Y-58488909D01*
X93565012Y-58417665D01*
X93474335Y-58326988D01*
X93403091Y-58220364D01*
X93354017Y-58101890D01*
X93344920Y-58056154D01*
X93329000Y-57976119D01*
X93329000Y-57847881D01*
X93354017Y-57722110D01*
X93403090Y-57603638D01*
X93474335Y-57497012D01*
X93565012Y-57406335D01*
X93586466Y-57392000D01*
X93671636Y-57335091D01*
X93790110Y-57286017D01*
X93915881Y-57261000D01*
X94044119Y-57261000D01*
X94169890Y-57286017D01*
X94169890Y-57286017D01*
G37*
G36*
X104082468Y-56594065D02*
G01*
X104121138Y-56605796D01*
X104156777Y-56624846D01*
X104188017Y-56650483D01*
X104213654Y-56681723D01*
X104232704Y-56717362D01*
X104244435Y-56756032D01*
X104249000Y-56802388D01*
X104249000Y-57878612D01*
X104244435Y-57924968D01*
X104232704Y-57963638D01*
X104213654Y-57999277D01*
X104188017Y-58030517D01*
X104156777Y-58056154D01*
X104121138Y-58075204D01*
X104082468Y-58086935D01*
X104036112Y-58091500D01*
X103384888Y-58091500D01*
X103338532Y-58086935D01*
X103299862Y-58075204D01*
X103264223Y-58056154D01*
X103232983Y-58030517D01*
X103207346Y-57999277D01*
X103188296Y-57963638D01*
X103176565Y-57924968D01*
X103172000Y-57878612D01*
X103172000Y-56802388D01*
X103176565Y-56756032D01*
X103188296Y-56717362D01*
X103207346Y-56681723D01*
X103232983Y-56650483D01*
X103264223Y-56624846D01*
X103299862Y-56605796D01*
X103338532Y-56594065D01*
X103384888Y-56589500D01*
X104036112Y-56589500D01*
X104082468Y-56594065D01*
X104082468Y-56594065D01*
G37*
G36*
X105957468Y-56594065D02*
G01*
X105996138Y-56605796D01*
X106031777Y-56624846D01*
X106063017Y-56650483D01*
X106088654Y-56681723D01*
X106107704Y-56717362D01*
X106119435Y-56756032D01*
X106124000Y-56802388D01*
X106124000Y-57878612D01*
X106119435Y-57924968D01*
X106107704Y-57963638D01*
X106088654Y-57999277D01*
X106063017Y-58030517D01*
X106031777Y-58056154D01*
X105996138Y-58075204D01*
X105957468Y-58086935D01*
X105911112Y-58091500D01*
X105259888Y-58091500D01*
X105213532Y-58086935D01*
X105174862Y-58075204D01*
X105139223Y-58056154D01*
X105107983Y-58030517D01*
X105082346Y-57999277D01*
X105063296Y-57963638D01*
X105051565Y-57924968D01*
X105047000Y-57878612D01*
X105047000Y-56802388D01*
X105051565Y-56756032D01*
X105063296Y-56717362D01*
X105082346Y-56681723D01*
X105107983Y-56650483D01*
X105139223Y-56624846D01*
X105174862Y-56605796D01*
X105213532Y-56594065D01*
X105259888Y-56589500D01*
X105911112Y-56589500D01*
X105957468Y-56594065D01*
X105957468Y-56594065D01*
G37*
G36*
X113219890Y-55508017D02*
G01*
X113338364Y-55557091D01*
X113444988Y-55628335D01*
X113535665Y-55719012D01*
X113606909Y-55825636D01*
X113655983Y-55944110D01*
X113681000Y-56069882D01*
X113681000Y-56198118D01*
X113655983Y-56323890D01*
X113606909Y-56442364D01*
X113535665Y-56548988D01*
X113444988Y-56639665D01*
X113338364Y-56710909D01*
X113338363Y-56710910D01*
X113338362Y-56710910D01*
X113219890Y-56759983D01*
X113094119Y-56785000D01*
X112965881Y-56785000D01*
X112840110Y-56759983D01*
X112721638Y-56710910D01*
X112721637Y-56710910D01*
X112721636Y-56710909D01*
X112615012Y-56639665D01*
X112524335Y-56548988D01*
X112453091Y-56442364D01*
X112404017Y-56323890D01*
X112379000Y-56198118D01*
X112379000Y-56069882D01*
X112404017Y-55944110D01*
X112453091Y-55825636D01*
X112524335Y-55719012D01*
X112615012Y-55628335D01*
X112721636Y-55557091D01*
X112840110Y-55508017D01*
X112965881Y-55483000D01*
X113094119Y-55483000D01*
X113219890Y-55508017D01*
X113219890Y-55508017D01*
G37*
G36*
X94169890Y-55508017D02*
G01*
X94288364Y-55557091D01*
X94394988Y-55628335D01*
X94485665Y-55719012D01*
X94556909Y-55825636D01*
X94605983Y-55944110D01*
X94631000Y-56069882D01*
X94631000Y-56198118D01*
X94605983Y-56323890D01*
X94556909Y-56442364D01*
X94485665Y-56548988D01*
X94394988Y-56639665D01*
X94288364Y-56710909D01*
X94288363Y-56710910D01*
X94288362Y-56710910D01*
X94169890Y-56759983D01*
X94044119Y-56785000D01*
X93915881Y-56785000D01*
X93790110Y-56759983D01*
X93671638Y-56710910D01*
X93671637Y-56710910D01*
X93671636Y-56710909D01*
X93565012Y-56639665D01*
X93474335Y-56548988D01*
X93403091Y-56442364D01*
X93354017Y-56323890D01*
X93329000Y-56198118D01*
X93329000Y-56069882D01*
X93354017Y-55944110D01*
X93403091Y-55825636D01*
X93474335Y-55719012D01*
X93565012Y-55628335D01*
X93671636Y-55557091D01*
X93790110Y-55508017D01*
X93915881Y-55483000D01*
X94044119Y-55483000D01*
X94169890Y-55508017D01*
X94169890Y-55508017D01*
G37*
G36*
X99233942Y-54858518D02*
G01*
X99300127Y-54865037D01*
X99469966Y-54916557D01*
X99626491Y-55000222D01*
X99662229Y-55029552D01*
X99763686Y-55112814D01*
X99846948Y-55214271D01*
X99876278Y-55250009D01*
X99959943Y-55406534D01*
X100011463Y-55576373D01*
X100028859Y-55753000D01*
X100011463Y-55929627D01*
X99959943Y-56099466D01*
X99876278Y-56255991D01*
X99846948Y-56291729D01*
X99763686Y-56393186D01*
X99662229Y-56476448D01*
X99626491Y-56505778D01*
X99469966Y-56589443D01*
X99300127Y-56640963D01*
X99233942Y-56647482D01*
X99167760Y-56654000D01*
X99079240Y-56654000D01*
X99013058Y-56647482D01*
X98946873Y-56640963D01*
X98777034Y-56589443D01*
X98620509Y-56505778D01*
X98584771Y-56476448D01*
X98483314Y-56393186D01*
X98400052Y-56291729D01*
X98370722Y-56255991D01*
X98287057Y-56099466D01*
X98235537Y-55929627D01*
X98218141Y-55753000D01*
X98235537Y-55576373D01*
X98287057Y-55406534D01*
X98370722Y-55250009D01*
X98400052Y-55214271D01*
X98483314Y-55112814D01*
X98584771Y-55029552D01*
X98620509Y-55000222D01*
X98777034Y-54916557D01*
X98946873Y-54865037D01*
X99013058Y-54858518D01*
X99079240Y-54852000D01*
X99167760Y-54852000D01*
X99233942Y-54858518D01*
X99233942Y-54858518D01*
G37*
G36*
X94099365Y-53715989D02*
G01*
X94169890Y-53730017D01*
X94288364Y-53779091D01*
X94394988Y-53850335D01*
X94485665Y-53941012D01*
X94550273Y-54037704D01*
X94556910Y-54047638D01*
X94559545Y-54054000D01*
X94605983Y-54166110D01*
X94631000Y-54291882D01*
X94631000Y-54420118D01*
X94605983Y-54545890D01*
X94556909Y-54664364D01*
X94485665Y-54770988D01*
X94394988Y-54861665D01*
X94288364Y-54932909D01*
X94288363Y-54932910D01*
X94288362Y-54932910D01*
X94169890Y-54981983D01*
X94044119Y-55007000D01*
X93915881Y-55007000D01*
X93790110Y-54981983D01*
X93671638Y-54932910D01*
X93671637Y-54932910D01*
X93671636Y-54932909D01*
X93565012Y-54861665D01*
X93474335Y-54770988D01*
X93403091Y-54664364D01*
X93354017Y-54545890D01*
X93329000Y-54420118D01*
X93329000Y-54291882D01*
X93354017Y-54166110D01*
X93400455Y-54054000D01*
X93403090Y-54047638D01*
X93409728Y-54037704D01*
X93474335Y-53941012D01*
X93565012Y-53850335D01*
X93671636Y-53779091D01*
X93790110Y-53730017D01*
X93860635Y-53715989D01*
X93915881Y-53705000D01*
X94044119Y-53705000D01*
X94099365Y-53715989D01*
X94099365Y-53715989D01*
G37*
G36*
X113149365Y-53715989D02*
G01*
X113219890Y-53730017D01*
X113338364Y-53779091D01*
X113444988Y-53850335D01*
X113535665Y-53941012D01*
X113600273Y-54037704D01*
X113606910Y-54047638D01*
X113609545Y-54054000D01*
X113655983Y-54166110D01*
X113681000Y-54291882D01*
X113681000Y-54420118D01*
X113655983Y-54545890D01*
X113606909Y-54664364D01*
X113535665Y-54770988D01*
X113444988Y-54861665D01*
X113338364Y-54932909D01*
X113338363Y-54932910D01*
X113338362Y-54932910D01*
X113219890Y-54981983D01*
X113094119Y-55007000D01*
X112965881Y-55007000D01*
X112840110Y-54981983D01*
X112721638Y-54932910D01*
X112721637Y-54932910D01*
X112721636Y-54932909D01*
X112615012Y-54861665D01*
X112524335Y-54770988D01*
X112453091Y-54664364D01*
X112404017Y-54545890D01*
X112379000Y-54420118D01*
X112379000Y-54291882D01*
X112404017Y-54166110D01*
X112450455Y-54054000D01*
X112453090Y-54047638D01*
X112459728Y-54037704D01*
X112524335Y-53941012D01*
X112615012Y-53850335D01*
X112721636Y-53779091D01*
X112840110Y-53730017D01*
X112910635Y-53715989D01*
X112965881Y-53705000D01*
X113094119Y-53705000D01*
X113149365Y-53715989D01*
X113149365Y-53715989D01*
G37*
G36*
X99233942Y-52318518D02*
G01*
X99300127Y-52325037D01*
X99469966Y-52376557D01*
X99469968Y-52376558D01*
X99491580Y-52388110D01*
X99626491Y-52460222D01*
X99655769Y-52484250D01*
X99763686Y-52572814D01*
X99820561Y-52642118D01*
X99876278Y-52710009D01*
X99959943Y-52866534D01*
X100011463Y-53036373D01*
X100028859Y-53213000D01*
X100011463Y-53389627D01*
X99959943Y-53559466D01*
X99876278Y-53715991D01*
X99864767Y-53730017D01*
X99763686Y-53853186D01*
X99674792Y-53926138D01*
X99626491Y-53965778D01*
X99469966Y-54049443D01*
X99300127Y-54100963D01*
X99233942Y-54107482D01*
X99167760Y-54114000D01*
X99079240Y-54114000D01*
X99013058Y-54107482D01*
X98946873Y-54100963D01*
X98777034Y-54049443D01*
X98620509Y-53965778D01*
X98572208Y-53926138D01*
X98483314Y-53853186D01*
X98382233Y-53730017D01*
X98370722Y-53715991D01*
X98287057Y-53559466D01*
X98235537Y-53389627D01*
X98218141Y-53213000D01*
X98235537Y-53036373D01*
X98287057Y-52866534D01*
X98370722Y-52710009D01*
X98426439Y-52642118D01*
X98483314Y-52572814D01*
X98591231Y-52484250D01*
X98620509Y-52460222D01*
X98755420Y-52388110D01*
X98777032Y-52376558D01*
X98777034Y-52376557D01*
X98946873Y-52325037D01*
X99013058Y-52318518D01*
X99079240Y-52312000D01*
X99167760Y-52312000D01*
X99233942Y-52318518D01*
X99233942Y-52318518D01*
G37*
G36*
X96693942Y-52318518D02*
G01*
X96760127Y-52325037D01*
X96929966Y-52376557D01*
X96929968Y-52376558D01*
X96951580Y-52388110D01*
X97086491Y-52460222D01*
X97115769Y-52484250D01*
X97223686Y-52572814D01*
X97280561Y-52642118D01*
X97336278Y-52710009D01*
X97419943Y-52866534D01*
X97471463Y-53036373D01*
X97488859Y-53213000D01*
X97471463Y-53389627D01*
X97419943Y-53559466D01*
X97336278Y-53715991D01*
X97324767Y-53730017D01*
X97223686Y-53853186D01*
X97134792Y-53926138D01*
X97086491Y-53965778D01*
X96929966Y-54049443D01*
X96760127Y-54100963D01*
X96693942Y-54107482D01*
X96627760Y-54114000D01*
X96539240Y-54114000D01*
X96473058Y-54107482D01*
X96406873Y-54100963D01*
X96237034Y-54049443D01*
X96080509Y-53965778D01*
X96032208Y-53926138D01*
X95943314Y-53853186D01*
X95842233Y-53730017D01*
X95830722Y-53715991D01*
X95747057Y-53559466D01*
X95695537Y-53389627D01*
X95678141Y-53213000D01*
X95695537Y-53036373D01*
X95747057Y-52866534D01*
X95830722Y-52710009D01*
X95886439Y-52642118D01*
X95943314Y-52572814D01*
X96051231Y-52484250D01*
X96080509Y-52460222D01*
X96215420Y-52388110D01*
X96237032Y-52376558D01*
X96237034Y-52376557D01*
X96406873Y-52325037D01*
X96473058Y-52318518D01*
X96539240Y-52312000D01*
X96627760Y-52312000D01*
X96693942Y-52318518D01*
X96693942Y-52318518D01*
G37*
G36*
X111963468Y-52981565D02*
G01*
X112002138Y-52993296D01*
X112037777Y-53012346D01*
X112069017Y-53037983D01*
X112094654Y-53069223D01*
X112113704Y-53104862D01*
X112125435Y-53143532D01*
X112130000Y-53189888D01*
X112130000Y-53841112D01*
X112125435Y-53887468D01*
X112113704Y-53926138D01*
X112094654Y-53961777D01*
X112069017Y-53993017D01*
X112037777Y-54018654D01*
X112002138Y-54037704D01*
X111963468Y-54049435D01*
X111917112Y-54054000D01*
X110840888Y-54054000D01*
X110794532Y-54049435D01*
X110755862Y-54037704D01*
X110720223Y-54018654D01*
X110688983Y-53993017D01*
X110663346Y-53961777D01*
X110644296Y-53926138D01*
X110632565Y-53887468D01*
X110628000Y-53841112D01*
X110628000Y-53189888D01*
X110632565Y-53143532D01*
X110644296Y-53104862D01*
X110663346Y-53069223D01*
X110688983Y-53037983D01*
X110720223Y-53012346D01*
X110755862Y-52993296D01*
X110794532Y-52981565D01*
X110840888Y-52977000D01*
X111917112Y-52977000D01*
X111963468Y-52981565D01*
X111963468Y-52981565D01*
G37*
G36*
X107073968Y-52219565D02*
G01*
X107112638Y-52231296D01*
X107148277Y-52250346D01*
X107179517Y-52275983D01*
X107205154Y-52307223D01*
X107224204Y-52342862D01*
X107235935Y-52381532D01*
X107240500Y-52427888D01*
X107240500Y-53079112D01*
X107235935Y-53125468D01*
X107224204Y-53164138D01*
X107205154Y-53199777D01*
X107179517Y-53231017D01*
X107148277Y-53256654D01*
X107112638Y-53275704D01*
X107073968Y-53287435D01*
X107027612Y-53292000D01*
X105951388Y-53292000D01*
X105905032Y-53287435D01*
X105866362Y-53275704D01*
X105830723Y-53256654D01*
X105799483Y-53231017D01*
X105773846Y-53199777D01*
X105754796Y-53164138D01*
X105743065Y-53125468D01*
X105738500Y-53079112D01*
X105738500Y-52427888D01*
X105743065Y-52381532D01*
X105754796Y-52342862D01*
X105773846Y-52307223D01*
X105799483Y-52275983D01*
X105830723Y-52250346D01*
X105866362Y-52231296D01*
X105905032Y-52219565D01*
X105951388Y-52215000D01*
X107027612Y-52215000D01*
X107073968Y-52219565D01*
X107073968Y-52219565D01*
G37*
G36*
X113219890Y-51952017D02*
G01*
X113338364Y-52001091D01*
X113444988Y-52072335D01*
X113535665Y-52163012D01*
X113603831Y-52265029D01*
X113606910Y-52269638D01*
X113655983Y-52388110D01*
X113670327Y-52460221D01*
X113681000Y-52513882D01*
X113681000Y-52642118D01*
X113655983Y-52767890D01*
X113606909Y-52886364D01*
X113535665Y-52992988D01*
X113444988Y-53083665D01*
X113338364Y-53154909D01*
X113338363Y-53154910D01*
X113338362Y-53154910D01*
X113219890Y-53203983D01*
X113094119Y-53229000D01*
X112965881Y-53229000D01*
X112840110Y-53203983D01*
X112721638Y-53154910D01*
X112721637Y-53154910D01*
X112721636Y-53154909D01*
X112615012Y-53083665D01*
X112524335Y-52992988D01*
X112453091Y-52886364D01*
X112404017Y-52767890D01*
X112379000Y-52642118D01*
X112379000Y-52513882D01*
X112389674Y-52460221D01*
X112404017Y-52388110D01*
X112453090Y-52269638D01*
X112456170Y-52265029D01*
X112524335Y-52163012D01*
X112615012Y-52072335D01*
X112721636Y-52001091D01*
X112840110Y-51952017D01*
X112965881Y-51927000D01*
X113094119Y-51927000D01*
X113219890Y-51952017D01*
X113219890Y-51952017D01*
G37*
G36*
X94169890Y-51952017D02*
G01*
X94288364Y-52001091D01*
X94394988Y-52072335D01*
X94485665Y-52163012D01*
X94553831Y-52265029D01*
X94556910Y-52269638D01*
X94605983Y-52388110D01*
X94620327Y-52460221D01*
X94631000Y-52513882D01*
X94631000Y-52642118D01*
X94605983Y-52767890D01*
X94556909Y-52886364D01*
X94485665Y-52992988D01*
X94394988Y-53083665D01*
X94288364Y-53154909D01*
X94288363Y-53154910D01*
X94288362Y-53154910D01*
X94169890Y-53203983D01*
X94044119Y-53229000D01*
X93915881Y-53229000D01*
X93790110Y-53203983D01*
X93671638Y-53154910D01*
X93671637Y-53154910D01*
X93671636Y-53154909D01*
X93565012Y-53083665D01*
X93474335Y-52992988D01*
X93403091Y-52886364D01*
X93354017Y-52767890D01*
X93329000Y-52642118D01*
X93329000Y-52513882D01*
X93339674Y-52460221D01*
X93354017Y-52388110D01*
X93403090Y-52269638D01*
X93406170Y-52265029D01*
X93474335Y-52163012D01*
X93565012Y-52072335D01*
X93671636Y-52001091D01*
X93790110Y-51952017D01*
X93915881Y-51927000D01*
X94044119Y-51927000D01*
X94169890Y-51952017D01*
X94169890Y-51952017D01*
G37*
G36*
X109345434Y-50588686D02*
G01*
X109378716Y-50598782D01*
X109402749Y-50603562D01*
X109427253Y-50603562D01*
X109451287Y-50598782D01*
X109462830Y-50594000D01*
X110292000Y-50594000D01*
X110292000Y-50976000D01*
X109641999Y-50976000D01*
X109617613Y-50978402D01*
X109594164Y-50985515D01*
X109572553Y-50997066D01*
X109553611Y-51012611D01*
X109538066Y-51031553D01*
X109526515Y-51053164D01*
X109519402Y-51076613D01*
X109517000Y-51100999D01*
X109517000Y-51119001D01*
X109519402Y-51143387D01*
X109526515Y-51166836D01*
X109538066Y-51188447D01*
X109553611Y-51207389D01*
X109572553Y-51222934D01*
X109594164Y-51234485D01*
X109617613Y-51241598D01*
X109641999Y-51244000D01*
X110292000Y-51244000D01*
X110292000Y-51626000D01*
X109641999Y-51626000D01*
X109617613Y-51628402D01*
X109594164Y-51635515D01*
X109572553Y-51647066D01*
X109553611Y-51662611D01*
X109538066Y-51681553D01*
X109526515Y-51703164D01*
X109519402Y-51726613D01*
X109517000Y-51750999D01*
X109517000Y-51769001D01*
X109519402Y-51793387D01*
X109526515Y-51816836D01*
X109538066Y-51838447D01*
X109553611Y-51857389D01*
X109572553Y-51872934D01*
X109594164Y-51884485D01*
X109617613Y-51891598D01*
X109641999Y-51894000D01*
X110292000Y-51894000D01*
X110292000Y-52276000D01*
X109464050Y-52276000D01*
X109462836Y-52275351D01*
X109439387Y-52268238D01*
X109415001Y-52265836D01*
X109378716Y-52271218D01*
X109345434Y-52281314D01*
X109297859Y-52286000D01*
X108634141Y-52286000D01*
X108586566Y-52281314D01*
X108553284Y-52271218D01*
X108529251Y-52266438D01*
X108504747Y-52266438D01*
X108480713Y-52271218D01*
X108469170Y-52276000D01*
X107640000Y-52276000D01*
X107640000Y-51894000D01*
X108290001Y-51894000D01*
X108314387Y-51891598D01*
X108337836Y-51884485D01*
X108359447Y-51872934D01*
X108378389Y-51857389D01*
X108393934Y-51838447D01*
X108405485Y-51816836D01*
X108412598Y-51793387D01*
X108415000Y-51769001D01*
X108415000Y-51750999D01*
X108412598Y-51726613D01*
X108405485Y-51703164D01*
X108393934Y-51681553D01*
X108378389Y-51662611D01*
X108359447Y-51647066D01*
X108337836Y-51635515D01*
X108314387Y-51628402D01*
X108290001Y-51626000D01*
X107640000Y-51626000D01*
X107640000Y-51244000D01*
X108290001Y-51244000D01*
X108314387Y-51241598D01*
X108337836Y-51234485D01*
X108359447Y-51222934D01*
X108378389Y-51207389D01*
X108393934Y-51188447D01*
X108405485Y-51166836D01*
X108412598Y-51143387D01*
X108415000Y-51119001D01*
X108415000Y-51100999D01*
X108412598Y-51076613D01*
X108405485Y-51053164D01*
X108393934Y-51031553D01*
X108378389Y-51012611D01*
X108359447Y-50997066D01*
X108337836Y-50985515D01*
X108314387Y-50978402D01*
X108290001Y-50976000D01*
X107640000Y-50976000D01*
X107640000Y-50594000D01*
X108467950Y-50594000D01*
X108469164Y-50594649D01*
X108492613Y-50601762D01*
X108516999Y-50604164D01*
X108553284Y-50598782D01*
X108586566Y-50588686D01*
X108634141Y-50584000D01*
X109297859Y-50584000D01*
X109345434Y-50588686D01*
X109345434Y-50588686D01*
G37*
G36*
X111963468Y-51106565D02*
G01*
X112002138Y-51118296D01*
X112037777Y-51137346D01*
X112069017Y-51162983D01*
X112094654Y-51194223D01*
X112113704Y-51229862D01*
X112125435Y-51268532D01*
X112130000Y-51314888D01*
X112130000Y-51966112D01*
X112125435Y-52012468D01*
X112113704Y-52051138D01*
X112094654Y-52086777D01*
X112069017Y-52118017D01*
X112037777Y-52143654D01*
X112002138Y-52162704D01*
X111963468Y-52174435D01*
X111917112Y-52179000D01*
X110840888Y-52179000D01*
X110794532Y-52174435D01*
X110755862Y-52162704D01*
X110720223Y-52143654D01*
X110688983Y-52118017D01*
X110663346Y-52086777D01*
X110644296Y-52051138D01*
X110632565Y-52012468D01*
X110628000Y-51966112D01*
X110628000Y-51314888D01*
X110632565Y-51268532D01*
X110644296Y-51229862D01*
X110663346Y-51194223D01*
X110688983Y-51162983D01*
X110720223Y-51137346D01*
X110755862Y-51118296D01*
X110794532Y-51106565D01*
X110840888Y-51102000D01*
X111917112Y-51102000D01*
X111963468Y-51106565D01*
X111963468Y-51106565D01*
G37*
G36*
X99233943Y-49778519D02*
G01*
X99300127Y-49785037D01*
X99469966Y-49836557D01*
X99626491Y-49920222D01*
X99662229Y-49949552D01*
X99763686Y-50032814D01*
X99846948Y-50134271D01*
X99876278Y-50170009D01*
X99959943Y-50326534D01*
X100011463Y-50496373D01*
X100028859Y-50673000D01*
X100011463Y-50849627D01*
X99959943Y-51019466D01*
X99876278Y-51175991D01*
X99850510Y-51207389D01*
X99763686Y-51313186D01*
X99680256Y-51381654D01*
X99626491Y-51425778D01*
X99469966Y-51509443D01*
X99300127Y-51560963D01*
X99233943Y-51567481D01*
X99167760Y-51574000D01*
X99079240Y-51574000D01*
X99013058Y-51567482D01*
X98946873Y-51560963D01*
X98777034Y-51509443D01*
X98620509Y-51425778D01*
X98566744Y-51381654D01*
X98483314Y-51313186D01*
X98396490Y-51207389D01*
X98370722Y-51175991D01*
X98287057Y-51019466D01*
X98235537Y-50849627D01*
X98218141Y-50673000D01*
X98235537Y-50496373D01*
X98287057Y-50326534D01*
X98370722Y-50170009D01*
X98400052Y-50134271D01*
X98483314Y-50032814D01*
X98584771Y-49949552D01*
X98620509Y-49920222D01*
X98777034Y-49836557D01*
X98946873Y-49785037D01*
X99013057Y-49778519D01*
X99079240Y-49772000D01*
X99167760Y-49772000D01*
X99233943Y-49778519D01*
X99233943Y-49778519D01*
G37*
G36*
X97484500Y-51574000D02*
G01*
X95682500Y-51574000D01*
X95682500Y-49772000D01*
X97484500Y-49772000D01*
X97484500Y-51574000D01*
X97484500Y-51574000D01*
G37*
G36*
X94419192Y-50154646D02*
G01*
X94468414Y-50169578D01*
X94513778Y-50193826D01*
X94553542Y-50226458D01*
X94586174Y-50266222D01*
X94610422Y-50311586D01*
X94625354Y-50360808D01*
X94631000Y-50418140D01*
X94631000Y-51181860D01*
X94625354Y-51239192D01*
X94610422Y-51288414D01*
X94586174Y-51333778D01*
X94553542Y-51373542D01*
X94513778Y-51406174D01*
X94468414Y-51430422D01*
X94419192Y-51445354D01*
X94361860Y-51451000D01*
X93598140Y-51451000D01*
X93540808Y-51445354D01*
X93491586Y-51430422D01*
X93446222Y-51406174D01*
X93406458Y-51373542D01*
X93373826Y-51333778D01*
X93349578Y-51288414D01*
X93334646Y-51239192D01*
X93329000Y-51181860D01*
X93329000Y-50418140D01*
X93334646Y-50360808D01*
X93349578Y-50311586D01*
X93373826Y-50266222D01*
X93406458Y-50226458D01*
X93446222Y-50193826D01*
X93491586Y-50169578D01*
X93540808Y-50154646D01*
X93598140Y-50149000D01*
X94361860Y-50149000D01*
X94419192Y-50154646D01*
X94419192Y-50154646D01*
G37*
G36*
X113219890Y-50174017D02*
G01*
X113291930Y-50203857D01*
X113338364Y-50223091D01*
X113444988Y-50294335D01*
X113535665Y-50385012D01*
X113591024Y-50467862D01*
X113606910Y-50491638D01*
X113655983Y-50610110D01*
X113681000Y-50735881D01*
X113681000Y-50864119D01*
X113655983Y-50989890D01*
X113638726Y-51031553D01*
X113606909Y-51108364D01*
X113535665Y-51214988D01*
X113444988Y-51305665D01*
X113338364Y-51376909D01*
X113338363Y-51376910D01*
X113338362Y-51376910D01*
X113219890Y-51425983D01*
X113094119Y-51451000D01*
X112965881Y-51451000D01*
X112840110Y-51425983D01*
X112721638Y-51376910D01*
X112721637Y-51376910D01*
X112721636Y-51376909D01*
X112615012Y-51305665D01*
X112524335Y-51214988D01*
X112453091Y-51108364D01*
X112421275Y-51031553D01*
X112404017Y-50989890D01*
X112379000Y-50864119D01*
X112379000Y-50735881D01*
X112404017Y-50610110D01*
X112453090Y-50491638D01*
X112468977Y-50467862D01*
X112524335Y-50385012D01*
X112615012Y-50294335D01*
X112721636Y-50223091D01*
X112768071Y-50203857D01*
X112840110Y-50174017D01*
X112965881Y-50149000D01*
X113094119Y-50149000D01*
X113219890Y-50174017D01*
X113219890Y-50174017D01*
G37*
G36*
X107073968Y-50344565D02*
G01*
X107112638Y-50356296D01*
X107148277Y-50375346D01*
X107179517Y-50400983D01*
X107205154Y-50432223D01*
X107224204Y-50467862D01*
X107235935Y-50506532D01*
X107240500Y-50552888D01*
X107240500Y-51204112D01*
X107235935Y-51250468D01*
X107224204Y-51289138D01*
X107205154Y-51324777D01*
X107179517Y-51356017D01*
X107148277Y-51381654D01*
X107112638Y-51400704D01*
X107073968Y-51412435D01*
X107027612Y-51417000D01*
X105951388Y-51417000D01*
X105905032Y-51412435D01*
X105866362Y-51400704D01*
X105830723Y-51381654D01*
X105799483Y-51356017D01*
X105773846Y-51324777D01*
X105754796Y-51289138D01*
X105743065Y-51250468D01*
X105738500Y-51204112D01*
X105738500Y-50552888D01*
X105743065Y-50506532D01*
X105754796Y-50467862D01*
X105773846Y-50432223D01*
X105799483Y-50400983D01*
X105830723Y-50375346D01*
X105866362Y-50356296D01*
X105905032Y-50344565D01*
X105951388Y-50340000D01*
X107027612Y-50340000D01*
X107073968Y-50344565D01*
X107073968Y-50344565D01*
G37*
G36*
X101579500Y-48073000D02*
G01*
X100027500Y-48073000D01*
X100027500Y-43621000D01*
X101579500Y-43621000D01*
X101579500Y-48073000D01*
X101579500Y-48073000D01*
G37*
G36*
X95679500Y-48073000D02*
G01*
X94127500Y-48073000D01*
X94127500Y-43621000D01*
X95679500Y-43621000D01*
X95679500Y-48073000D01*
X95679500Y-48073000D01*
G37*
G36*
X106440000Y-47991000D02*
G01*
X104888000Y-47991000D01*
X104888000Y-43539000D01*
X106440000Y-43539000D01*
X106440000Y-47991000D01*
X106440000Y-47991000D01*
G37*
G36*
X112340000Y-47991000D02*
G01*
X110788000Y-47991000D01*
X110788000Y-43539000D01*
X112340000Y-43539000D01*
X112340000Y-47991000D01*
X112340000Y-47991000D01*
G37*
G36*
X103581468Y-45171065D02*
G01*
X103620138Y-45182796D01*
X103655777Y-45201846D01*
X103687017Y-45227483D01*
X103712654Y-45258723D01*
X103731704Y-45294362D01*
X103743435Y-45333032D01*
X103748000Y-45379388D01*
X103748000Y-46030612D01*
X103743435Y-46076968D01*
X103731704Y-46115638D01*
X103712654Y-46151277D01*
X103687017Y-46182517D01*
X103655777Y-46208154D01*
X103620138Y-46227204D01*
X103581468Y-46238935D01*
X103535112Y-46243500D01*
X102458888Y-46243500D01*
X102412532Y-46238935D01*
X102373862Y-46227204D01*
X102338223Y-46208154D01*
X102306983Y-46182517D01*
X102281346Y-46151277D01*
X102262296Y-46115638D01*
X102250565Y-46076968D01*
X102246000Y-46030612D01*
X102246000Y-45379388D01*
X102250565Y-45333032D01*
X102262296Y-45294362D01*
X102281346Y-45258723D01*
X102306983Y-45227483D01*
X102338223Y-45201846D01*
X102373862Y-45182796D01*
X102412532Y-45171065D01*
X102458888Y-45166500D01*
X103535112Y-45166500D01*
X103581468Y-45171065D01*
X103581468Y-45171065D01*
G37*
G36*
X114376468Y-45107565D02*
G01*
X114415138Y-45119296D01*
X114450777Y-45138346D01*
X114482017Y-45163983D01*
X114507654Y-45195223D01*
X114526704Y-45230862D01*
X114538435Y-45269532D01*
X114543000Y-45315888D01*
X114543000Y-45967112D01*
X114538435Y-46013468D01*
X114526704Y-46052138D01*
X114507654Y-46087777D01*
X114482017Y-46119017D01*
X114450777Y-46144654D01*
X114415138Y-46163704D01*
X114376468Y-46175435D01*
X114330112Y-46180000D01*
X113253888Y-46180000D01*
X113207532Y-46175435D01*
X113168862Y-46163704D01*
X113133223Y-46144654D01*
X113101983Y-46119017D01*
X113076346Y-46087777D01*
X113057296Y-46052138D01*
X113045565Y-46013468D01*
X113041000Y-45967112D01*
X113041000Y-45315888D01*
X113045565Y-45269532D01*
X113057296Y-45230862D01*
X113076346Y-45195223D01*
X113101983Y-45163983D01*
X113133223Y-45138346D01*
X113168862Y-45119296D01*
X113207532Y-45107565D01*
X113253888Y-45103000D01*
X114330112Y-45103000D01*
X114376468Y-45107565D01*
X114376468Y-45107565D01*
G37*
G36*
X103581468Y-43296065D02*
G01*
X103620138Y-43307796D01*
X103655777Y-43326846D01*
X103687017Y-43352483D01*
X103712654Y-43383723D01*
X103731704Y-43419362D01*
X103743435Y-43458032D01*
X103748000Y-43504388D01*
X103748000Y-44155612D01*
X103743435Y-44201968D01*
X103731704Y-44240638D01*
X103712654Y-44276277D01*
X103687017Y-44307517D01*
X103655777Y-44333154D01*
X103620138Y-44352204D01*
X103581468Y-44363935D01*
X103535112Y-44368500D01*
X102458888Y-44368500D01*
X102412532Y-44363935D01*
X102373862Y-44352204D01*
X102338223Y-44333154D01*
X102306983Y-44307517D01*
X102281346Y-44276277D01*
X102262296Y-44240638D01*
X102250565Y-44201968D01*
X102246000Y-44155612D01*
X102246000Y-43504388D01*
X102250565Y-43458032D01*
X102262296Y-43419362D01*
X102281346Y-43383723D01*
X102306983Y-43352483D01*
X102338223Y-43326846D01*
X102373862Y-43307796D01*
X102412532Y-43296065D01*
X102458888Y-43291500D01*
X103535112Y-43291500D01*
X103581468Y-43296065D01*
X103581468Y-43296065D01*
G37*
G36*
X114376468Y-43232565D02*
G01*
X114415138Y-43244296D01*
X114450777Y-43263346D01*
X114482017Y-43288983D01*
X114507654Y-43320223D01*
X114526704Y-43355862D01*
X114538435Y-43394532D01*
X114543000Y-43440888D01*
X114543000Y-44092112D01*
X114538435Y-44138468D01*
X114526704Y-44177138D01*
X114507654Y-44212777D01*
X114482017Y-44244017D01*
X114450777Y-44269654D01*
X114415138Y-44288704D01*
X114376468Y-44300435D01*
X114330112Y-44305000D01*
X113253888Y-44305000D01*
X113207532Y-44300435D01*
X113168862Y-44288704D01*
X113133223Y-44269654D01*
X113101983Y-44244017D01*
X113076346Y-44212777D01*
X113057296Y-44177138D01*
X113045565Y-44138468D01*
X113041000Y-44092112D01*
X113041000Y-43440888D01*
X113045565Y-43394532D01*
X113057296Y-43355862D01*
X113076346Y-43320223D01*
X113101983Y-43288983D01*
X113133223Y-43263346D01*
X113168862Y-43244296D01*
X113207532Y-43232565D01*
X113253888Y-43228000D01*
X114330112Y-43228000D01*
X114376468Y-43232565D01*
X114376468Y-43232565D01*
G37*
M02*
