G04 #@! TF.GenerationSoftware,KiCad,Pcbnew,(5.1.2)-1*
G04 #@! TF.CreationDate,2019-12-23T21:44:57-05:00*
G04 #@! TF.ProjectId,C64CPLA,43363443-504c-4412-9e6b-696361645f70,rev?*
G04 #@! TF.SameCoordinates,Original*
G04 #@! TF.FileFunction,Copper,L5,Inr*
G04 #@! TF.FilePolarity,Positive*
%FSLAX46Y46*%
G04 Gerber Fmt 4.6, Leading zero omitted, Abs format (unit mm)*
G04 Created by KiCad (PCBNEW (5.1.2)-1) date 2019-12-23 21:44:57*
%MOMM*%
%LPD*%
G04 APERTURE LIST*
%ADD10R,1.700000X1.700000*%
%ADD11O,1.700000X1.700000*%
%ADD12C,1.200000*%
%ADD13C,0.100000*%
%ADD14C,0.350000*%
%ADD15C,0.500000*%
%ADD16C,0.800000*%
%ADD17C,0.539000*%
%ADD18C,0.750000*%
%ADD19C,1.500000*%
%ADD20C,0.454000*%
%ADD21C,0.250000*%
%ADD22C,0.223000*%
%ADD23C,0.280000*%
G04 APERTURE END LIST*
D10*
X96583500Y-50673000D03*
D11*
X99123500Y-50673000D03*
X96583500Y-53213000D03*
X99123500Y-53213000D03*
X99123500Y-55753000D03*
X99123500Y-58293000D03*
D12*
X113030000Y-50800000D03*
D13*
G36*
X94309405Y-50201445D02*
G01*
X94338527Y-50205764D01*
X94367085Y-50212918D01*
X94394805Y-50222836D01*
X94421419Y-50235424D01*
X94446671Y-50250559D01*
X94470318Y-50268097D01*
X94492132Y-50287868D01*
X94511903Y-50309682D01*
X94529441Y-50333329D01*
X94544576Y-50358581D01*
X94557164Y-50385195D01*
X94567082Y-50412915D01*
X94574236Y-50441473D01*
X94578555Y-50470595D01*
X94580000Y-50500000D01*
X94580000Y-51100000D01*
X94578555Y-51129405D01*
X94574236Y-51158527D01*
X94567082Y-51187085D01*
X94557164Y-51214805D01*
X94544576Y-51241419D01*
X94529441Y-51266671D01*
X94511903Y-51290318D01*
X94492132Y-51312132D01*
X94470318Y-51331903D01*
X94446671Y-51349441D01*
X94421419Y-51364576D01*
X94394805Y-51377164D01*
X94367085Y-51387082D01*
X94338527Y-51394236D01*
X94309405Y-51398555D01*
X94280000Y-51400000D01*
X93680000Y-51400000D01*
X93650595Y-51398555D01*
X93621473Y-51394236D01*
X93592915Y-51387082D01*
X93565195Y-51377164D01*
X93538581Y-51364576D01*
X93513329Y-51349441D01*
X93489682Y-51331903D01*
X93467868Y-51312132D01*
X93448097Y-51290318D01*
X93430559Y-51266671D01*
X93415424Y-51241419D01*
X93402836Y-51214805D01*
X93392918Y-51187085D01*
X93385764Y-51158527D01*
X93381445Y-51129405D01*
X93380000Y-51100000D01*
X93380000Y-50500000D01*
X93381445Y-50470595D01*
X93385764Y-50441473D01*
X93392918Y-50412915D01*
X93402836Y-50385195D01*
X93415424Y-50358581D01*
X93430559Y-50333329D01*
X93448097Y-50309682D01*
X93467868Y-50287868D01*
X93489682Y-50268097D01*
X93513329Y-50250559D01*
X93538581Y-50235424D01*
X93565195Y-50222836D01*
X93592915Y-50212918D01*
X93621473Y-50205764D01*
X93650595Y-50201445D01*
X93680000Y-50200000D01*
X94280000Y-50200000D01*
X94309405Y-50201445D01*
X94309405Y-50201445D01*
G37*
D12*
X93980000Y-50800000D03*
X113030000Y-52578000D03*
X93980000Y-52578000D03*
X113030000Y-54356000D03*
X93980000Y-54356000D03*
X113030000Y-56134000D03*
X93980000Y-56134000D03*
X113030000Y-57912000D03*
X93980000Y-57912000D03*
X113030000Y-59690000D03*
X93980000Y-59690000D03*
X113030000Y-61468000D03*
X93980000Y-61468000D03*
X113030000Y-63246000D03*
X93980000Y-63246000D03*
X113030000Y-65024000D03*
X93980000Y-65024000D03*
X113030000Y-66802000D03*
X93980000Y-66802000D03*
X113030000Y-68580000D03*
X93980000Y-68580000D03*
X113030000Y-70358000D03*
X93980000Y-70358000D03*
X113030000Y-72136000D03*
X93980000Y-72136000D03*
X113030000Y-73914000D03*
X93980000Y-73914000D03*
X113030000Y-75692000D03*
X93980000Y-75692000D03*
X113030000Y-77470000D03*
X93980000Y-77470000D03*
X113030000Y-79248000D03*
X93980000Y-79248000D03*
X113030000Y-81026000D03*
X93980000Y-81026000D03*
X113030000Y-82804000D03*
X93980000Y-82804000D03*
X113030000Y-84582000D03*
X93980000Y-84582000D03*
X113030000Y-86360000D03*
X93980000Y-86360000D03*
X113030000Y-88138000D03*
X93980000Y-88138000D03*
X113030000Y-89916000D03*
X93980000Y-89916000D03*
X113030000Y-91694000D03*
X93980000Y-91694000D03*
X113030000Y-93472000D03*
X93980000Y-93472000D03*
X113030000Y-95250000D03*
X93980000Y-95250000D03*
X113030000Y-97028000D03*
X93980000Y-97028000D03*
X113030000Y-98806000D03*
X93980000Y-98806000D03*
X113030000Y-100584000D03*
X93980000Y-100584000D03*
X113030000Y-102362000D03*
X93980000Y-102362000D03*
X113030000Y-104140000D03*
X93980000Y-104140000D03*
X113030000Y-105918000D03*
X93980000Y-105918000D03*
D14*
X110299500Y-99441000D03*
X102235000Y-99885500D03*
X111379000Y-76200000D03*
X100330000Y-98298000D03*
X101854000Y-72898000D03*
X103505000Y-59436000D03*
X96266000Y-72834500D03*
X103505000Y-57340500D03*
X102732840Y-77543660D03*
X110553500Y-101092000D03*
X113792000Y-43766500D03*
D15*
X102997000Y-43830000D03*
X102933500Y-62674500D03*
D14*
X105981500Y-56769000D03*
X94899480Y-48008540D03*
X105633520Y-47922180D03*
X110744000Y-69088000D03*
X96329500Y-70675500D03*
X107569000Y-98869500D03*
X100330000Y-99949000D03*
X103759000Y-106426000D03*
X96837500Y-106616500D03*
X104711500Y-92265500D03*
X101663500Y-99314000D03*
X111061500Y-73850500D03*
X100330000Y-90868500D03*
X97282000Y-68453000D03*
X110871000Y-53213000D03*
X108966000Y-52070000D03*
X107823000Y-52197000D03*
X101155500Y-86868000D03*
X98552000Y-81915000D03*
X106490000Y-61721500D03*
X107590000Y-59034000D03*
X107315000Y-74358500D03*
X105671010Y-77843990D03*
X104644190Y-70610730D03*
D16*
X105092500Y-52451000D03*
X101155500Y-52451000D03*
D14*
X111506000Y-80454500D03*
X104711500Y-58356500D03*
X113432040Y-45765000D03*
X102537260Y-45847000D03*
X107442000Y-105092500D03*
D15*
X100882250Y-82188250D03*
X102108000Y-50673000D03*
X102108000Y-53657500D03*
X102108000Y-64833500D03*
X98171000Y-89916000D03*
D14*
X101536500Y-77343000D03*
X98298000Y-88773000D03*
X96202500Y-74739500D03*
X101536500Y-77851000D03*
X96393000Y-55753000D03*
X101663500Y-78359000D03*
X95440500Y-58864500D03*
X104711500Y-64516000D03*
X108045250Y-57562750D03*
X94903500Y-45507700D03*
X107124500Y-45466000D03*
X93054999Y-44604499D03*
X109474000Y-63627000D03*
X98996500Y-64770000D03*
X96266000Y-47180500D03*
X95186500Y-95059500D03*
X95440500Y-85979000D03*
X99441000Y-97282000D03*
X111093250Y-97821750D03*
X111093250Y-102520750D03*
X112395000Y-48577500D03*
X107632500Y-48577500D03*
X102743000Y-46990000D03*
X110236000Y-47752000D03*
X107886500Y-61785500D03*
X109474000Y-46863000D03*
X101409500Y-46489999D03*
X98593000Y-66443500D03*
X100330000Y-49657000D03*
X110236000Y-46863000D03*
X111252000Y-82804000D03*
X104635300Y-97790000D03*
X102755700Y-102514400D03*
X112141000Y-49085500D03*
X108140500Y-49085500D03*
X97625500Y-103949500D03*
X96456500Y-82486500D03*
X98298000Y-49339500D03*
X104330500Y-46101000D03*
X96583500Y-43878500D03*
X104584500Y-45085000D03*
X97453500Y-102171500D03*
X95885000Y-82867500D03*
X104203500Y-44450000D03*
X95405002Y-49177002D03*
X99631500Y-80010000D03*
X104902000Y-85725000D03*
X104902000Y-80010000D03*
X99187000Y-70612000D03*
X92554998Y-43850498D03*
X104612502Y-43850498D03*
X106680000Y-77343000D03*
X105918000Y-85725000D03*
X106680000Y-77843001D03*
X101981000Y-68389500D03*
X104648000Y-77533500D03*
X102362000Y-72136000D03*
X102362000Y-74993500D03*
X94996000Y-77914500D03*
X96964500Y-77533500D03*
X99123500Y-81534000D03*
X96520000Y-95250000D03*
X96520000Y-83947000D03*
X99173000Y-83947000D03*
X101028500Y-83947000D03*
X101028500Y-84963000D03*
X100203000Y-85661500D03*
X98940999Y-103144699D03*
X109643801Y-103144699D03*
X100393500Y-55118000D03*
X102362000Y-89154000D03*
X100774500Y-70294500D03*
X95885000Y-69659500D03*
X95885000Y-64833500D03*
X104648000Y-89535000D03*
X104838500Y-65976500D03*
X105854500Y-104457500D03*
X98044000Y-65341500D03*
X104838500Y-89027000D03*
X104838500Y-66548000D03*
X105346500Y-101155500D03*
X97472500Y-65849500D03*
X104711500Y-86487000D03*
X104838500Y-67119500D03*
X109388000Y-105115000D03*
X109494320Y-96774000D03*
X96901000Y-66548000D03*
X110680500Y-84455000D03*
X95440500Y-59690000D03*
X110331250Y-87979250D03*
X95726250Y-87979250D03*
X107378500Y-80137000D03*
X95440500Y-80200500D03*
X94905001Y-57939499D03*
X110921500Y-79515000D03*
X111594900Y-102362000D03*
X100971350Y-97783650D03*
X95636510Y-101657990D03*
X105219500Y-101854000D03*
X111569500Y-97282000D03*
X105918000Y-68135500D03*
X101473000Y-70421500D03*
X98417001Y-76919199D03*
X94678500Y-92583000D03*
X99192459Y-71178041D03*
X109664500Y-57785000D03*
X108331000Y-58991500D03*
X105029000Y-68643500D03*
X101473000Y-71310500D03*
X100774500Y-93281500D03*
X102298500Y-84963000D03*
X105537000Y-69342000D03*
X102108000Y-69405500D03*
X107505500Y-84455000D03*
X110340000Y-74318000D03*
X109791500Y-74358500D03*
X106870500Y-83439000D03*
X104860090Y-74697590D03*
X112268000Y-76581000D03*
X112268000Y-80137000D03*
X111125000Y-84963000D03*
X109093000Y-105727500D03*
X107505500Y-81026000D03*
X109220000Y-74358500D03*
X105410000Y-74295000D03*
X103255701Y-102611299D03*
X100203000Y-93281500D03*
X110761401Y-91079699D03*
X110871000Y-77343000D03*
X106680000Y-74612500D03*
X103251000Y-104965500D03*
X104648000Y-78549500D03*
X107942500Y-77350500D03*
X111569500Y-78930500D03*
X110363000Y-86487000D03*
X110248700Y-96761300D03*
X107886500Y-96774000D03*
X107632500Y-103822500D03*
X110871000Y-77851000D03*
X99695000Y-92925900D03*
X110261400Y-90563700D03*
X105867200Y-93332300D03*
X107886500Y-79629000D03*
X102336600Y-91592400D03*
X101930200Y-93306900D03*
X107886500Y-78867000D03*
X100711000Y-66548000D03*
X101274501Y-92677359D03*
X100901500Y-55626000D03*
X101219000Y-66992500D03*
X102328549Y-92324351D03*
X101409500Y-56134000D03*
X98615500Y-72898000D03*
X98615500Y-71628000D03*
X102235000Y-78994000D03*
X97917000Y-74358500D03*
X97917000Y-76390500D03*
X97282000Y-74358500D03*
X99695000Y-82931000D03*
X112331500Y-81915000D03*
X99441000Y-69278500D03*
X100774500Y-85661500D03*
X100774500Y-89154000D03*
X109664500Y-106616500D03*
X105854500Y-89027000D03*
X103281990Y-106964990D03*
X106418999Y-103815499D03*
X106359960Y-89535000D03*
X106832210Y-102590790D03*
X94767400Y-103251000D03*
X95686501Y-91698701D03*
X100711000Y-69278500D03*
X106489500Y-67627500D03*
X106934000Y-91630500D03*
X108585000Y-93726000D03*
X110236000Y-94234000D03*
X109220000Y-94742000D03*
X106489500Y-64198500D03*
X108465999Y-49674401D03*
X113955001Y-49620999D03*
X108641000Y-104465000D03*
X108376720Y-95758000D03*
X106172000Y-78867000D03*
X105346500Y-100584000D03*
X97345500Y-92075000D03*
X96012000Y-97028000D03*
X109748699Y-96223199D03*
X105727500Y-105727500D03*
X106326511Y-96771889D03*
X112331500Y-92583000D03*
X99194620Y-75087480D03*
X99504500Y-89281000D03*
D17*
X104612440Y-47922180D02*
X105633520Y-47922180D01*
X102537260Y-45847000D02*
X104612440Y-47922180D01*
X105633520Y-47922180D02*
X106573320Y-47922180D01*
X108730500Y-45765000D02*
X113432040Y-45765000D01*
X106573320Y-47922180D02*
X108730500Y-45765000D01*
D18*
X101663500Y-99314000D02*
X102108000Y-98869500D01*
X103409750Y-98393250D02*
X103886000Y-98869500D01*
X103409750Y-97567750D02*
X103409750Y-98393250D01*
X103886000Y-98869500D02*
X107569000Y-98869500D01*
X102108000Y-98869500D02*
X103886000Y-98869500D01*
X101663500Y-99314000D02*
X103409750Y-97567750D01*
D19*
X104376001Y-96664999D02*
X103790499Y-96664999D01*
X104711500Y-96329500D02*
X104376001Y-96664999D01*
X101226001Y-99052999D02*
X101402499Y-99052999D01*
X100330000Y-99949000D02*
X101226001Y-99052999D01*
X102654751Y-98640249D02*
X101815249Y-98640249D01*
X102929503Y-98915001D02*
X102654751Y-98640249D01*
X105220802Y-98869500D02*
X105175301Y-98915001D01*
X107569000Y-98869500D02*
X105220802Y-98869500D01*
X101815249Y-98640249D02*
X101402499Y-99052999D01*
D17*
X102989999Y-97465499D02*
X103180499Y-97465499D01*
D19*
X102989999Y-97465499D02*
X101815249Y-98640249D01*
X103790499Y-96664999D02*
X102989999Y-97465499D01*
D17*
X104630001Y-98915001D02*
X104820501Y-98915001D01*
D19*
X105175301Y-98915001D02*
X104820501Y-98915001D01*
X104820501Y-98915001D02*
X102929503Y-98915001D01*
D17*
X103790499Y-98075499D02*
X103822500Y-98107500D01*
X103180499Y-97465499D02*
X103822500Y-98107500D01*
X103990799Y-97480639D02*
X104325939Y-97145499D01*
X103990799Y-97685201D02*
X103990799Y-97480639D01*
X103918001Y-97757999D02*
X103990799Y-97685201D01*
X103790499Y-97757999D02*
X103918001Y-97757999D01*
X103790499Y-96664999D02*
X103790499Y-97757999D01*
X103790499Y-98075499D02*
X104013000Y-98298000D01*
X103790499Y-97757999D02*
X103790499Y-98075499D01*
X103822500Y-98107500D02*
X104013000Y-98298000D01*
X104013000Y-98298000D02*
X104630001Y-98915001D01*
D18*
X103885299Y-98170299D02*
X104013000Y-98298000D01*
X103885299Y-97155701D02*
X103885299Y-98170299D01*
X104376001Y-96664999D02*
X103885299Y-97155701D01*
D19*
X100035105Y-90383105D02*
X99939855Y-90478355D01*
X98569999Y-91848211D02*
X100035105Y-90383105D01*
X98569999Y-93465901D02*
X98569999Y-91848211D01*
X102989999Y-97465499D02*
X102183149Y-96658649D01*
X102183149Y-96658649D02*
X101762747Y-96658649D01*
X102096351Y-98359147D02*
X101815249Y-98640249D01*
X102096351Y-97243649D02*
X102096351Y-98359147D01*
X101762747Y-96910045D02*
X102096351Y-97243649D01*
X101762747Y-96658649D02*
X101762747Y-96910045D01*
X103739299Y-95587201D02*
X104711500Y-94615000D01*
X100691299Y-95587201D02*
X103739299Y-95587201D01*
X104711500Y-94615000D02*
X104711500Y-96329500D01*
X104711500Y-92265500D02*
X104711500Y-94615000D01*
X100691299Y-95587201D02*
X98569999Y-93465901D01*
X101762747Y-96658649D02*
X100691299Y-95587201D01*
D18*
X106056999Y-106477501D02*
X104064501Y-106477501D01*
X107442000Y-105092500D02*
X106056999Y-106477501D01*
X107569000Y-99116987D02*
X107569000Y-98869500D01*
X107569000Y-100743998D02*
X107569000Y-99116987D01*
X104064501Y-104248497D02*
X107569000Y-100743998D01*
X104064501Y-106477501D02*
X104064501Y-104248497D01*
X103641991Y-106214989D02*
X103806001Y-106378999D01*
X96837500Y-106616500D02*
X97239011Y-106214989D01*
X97239011Y-106214989D02*
X103641991Y-106214989D01*
X100330000Y-100196487D02*
X100330000Y-99949000D01*
X100330000Y-100645696D02*
X100330000Y-100196487D01*
X97776197Y-103199499D02*
X100330000Y-100645696D01*
X97265499Y-103199499D02*
X97776197Y-103199499D01*
X96837500Y-103627498D02*
X97265499Y-103199499D01*
X96837500Y-106616500D02*
X96837500Y-103627498D01*
D19*
X105633520Y-51909980D02*
X105092500Y-52451000D01*
X105633520Y-47922180D02*
X105633520Y-51909980D01*
X105092500Y-52451000D02*
X101405010Y-52451000D01*
X105981500Y-53340000D02*
X105092500Y-52451000D01*
X105981500Y-56769000D02*
X105981500Y-53340000D01*
D20*
X100246631Y-75690791D02*
X100246631Y-70909631D01*
X100882250Y-82188250D02*
X100882250Y-76326410D01*
X100882250Y-76326410D02*
X100246631Y-75690791D01*
X99658989Y-67016651D02*
X99658990Y-66079348D01*
X100043001Y-67400663D02*
X99658989Y-67016651D01*
X100043001Y-70453963D02*
X100043001Y-67400663D01*
X100246631Y-70909631D02*
X100246631Y-70657593D01*
X100246631Y-70657593D02*
X100043001Y-70453963D01*
X99658990Y-66079348D02*
X100777838Y-64960500D01*
X100777838Y-64960500D02*
X100881430Y-64960500D01*
X100904838Y-64833500D02*
X102108000Y-64833500D01*
X100777838Y-64960500D02*
X100904838Y-64833500D01*
D21*
X96202500Y-73511002D02*
X96202500Y-74739500D01*
X94940499Y-72249001D02*
X96202500Y-73511002D01*
X95405002Y-58179500D02*
X94940499Y-58644003D01*
X94940499Y-58644003D02*
X94940499Y-72249001D01*
X98273501Y-54062999D02*
X97638501Y-54062999D01*
X97638501Y-54062999D02*
X97472500Y-54229000D01*
X97472500Y-54229000D02*
X97176998Y-54229000D01*
X97176998Y-54229000D02*
X95405002Y-56000996D01*
X99123500Y-53213000D02*
X98273501Y-54062999D01*
X95405002Y-56000996D02*
X95405002Y-58179500D01*
X113474001Y-106843001D02*
X114405011Y-105911991D01*
X112585999Y-106843001D02*
X113474001Y-106843001D01*
X111094899Y-105351901D02*
X112585999Y-106843001D01*
X111093250Y-102520750D02*
X111094899Y-102522399D01*
X111094899Y-102522399D02*
X111094899Y-105351901D01*
X114405011Y-105911991D02*
X114405011Y-96289399D01*
X114405011Y-96289399D02*
X114405011Y-51430401D01*
X114455002Y-49380998D02*
X113651504Y-48577500D01*
X114455002Y-49861000D02*
X114455002Y-49380998D01*
X114405011Y-51430401D02*
X114405011Y-49910991D01*
X114405011Y-49910991D02*
X114455002Y-49861000D01*
X113651504Y-48577500D02*
X112776000Y-48577500D01*
X112776000Y-48577500D02*
X112395000Y-48577500D01*
X99687501Y-54388001D02*
X100330000Y-53745502D01*
X98749497Y-54388001D02*
X99687501Y-54388001D01*
X97948499Y-55188999D02*
X98749497Y-54388001D01*
X97948499Y-64505997D02*
X97948499Y-55188999D01*
X98593000Y-66443500D02*
X98593000Y-65150498D01*
X98593000Y-65150498D02*
X97948499Y-64505997D01*
X100330000Y-53745502D02*
X100330000Y-49657000D01*
X100330000Y-49657000D02*
X100330000Y-49657000D01*
X113955001Y-96102999D02*
X113955001Y-51244001D01*
X113030000Y-97028000D02*
X113955001Y-96102999D01*
X113955001Y-50361001D02*
X112679500Y-49085500D01*
X113955001Y-51244001D02*
X113955001Y-50361001D01*
X112679500Y-49085500D02*
X112141000Y-49085500D01*
X112141000Y-49085500D02*
X112141000Y-49085500D01*
X104902000Y-85725000D02*
X104902000Y-80010000D01*
X104902000Y-80010000D02*
X104902000Y-80010000D01*
X104838500Y-65976500D02*
X104838500Y-65976500D01*
X104605088Y-65976500D02*
X104838500Y-65976500D01*
X103239980Y-67341608D02*
X104605088Y-65976500D01*
X103239980Y-88374467D02*
X103239980Y-67341608D01*
X104648000Y-89535000D02*
X104400513Y-89535000D01*
X104400513Y-89535000D02*
X103239980Y-88374467D01*
X103689990Y-87878490D02*
X104838500Y-89027000D01*
X103689990Y-77951902D02*
X103689990Y-87878490D01*
X103689992Y-67528006D02*
X104669998Y-66548000D01*
X103689990Y-77951902D02*
X103689992Y-67528006D01*
X104669998Y-66548000D02*
X104838500Y-66548000D01*
X104838500Y-66548000D02*
X104838500Y-66548000D01*
X104838500Y-67119500D02*
X104838500Y-67119500D01*
X104140000Y-67818000D02*
X104838500Y-67119500D01*
X104711500Y-86487000D02*
X104140000Y-85915500D01*
X104140000Y-85915500D02*
X104140000Y-67818000D01*
D22*
X110680500Y-84702487D02*
X110617000Y-84765987D01*
X110680500Y-84455000D02*
X110680500Y-84702487D01*
X110617000Y-84765987D02*
X110617000Y-85280500D01*
X110617000Y-85280500D02*
X110617000Y-85344000D01*
X110617000Y-85344000D02*
X110744000Y-85471000D01*
D21*
X110863001Y-86246999D02*
X110863001Y-87447499D01*
X110744000Y-85471000D02*
X110744000Y-86127998D01*
X110744000Y-86127998D02*
X110863001Y-86246999D01*
X110863001Y-87447499D02*
X110331250Y-87979250D01*
X94905001Y-92356499D02*
X94678500Y-92583000D01*
X94905001Y-79995997D02*
X94905001Y-92356499D01*
X96676997Y-78224001D02*
X94905001Y-79995997D01*
X98417001Y-76919199D02*
X97112199Y-78224001D01*
X97112199Y-78224001D02*
X96676997Y-78224001D01*
X101655501Y-76319001D02*
X100965000Y-75628500D01*
X100965000Y-71818500D02*
X101473000Y-71310500D01*
X100965000Y-75628500D02*
X100965000Y-71818500D01*
X101353999Y-72657999D02*
X101473000Y-72538998D01*
X101353999Y-74725501D02*
X101353999Y-72657999D01*
X101473000Y-72538998D02*
X101473000Y-71310500D01*
X102789970Y-76161472D02*
X101353999Y-74725501D01*
X102232839Y-76718603D02*
X102789970Y-76161472D01*
X102232839Y-77783661D02*
X102232839Y-76718603D01*
X102789970Y-78340792D02*
X102232839Y-77783661D01*
X100774500Y-91164002D02*
X101655501Y-90283001D01*
X100774500Y-93281500D02*
X100774500Y-91164002D01*
X101655501Y-84865997D02*
X102637998Y-83883500D01*
X102789970Y-83709530D02*
X102789970Y-78340792D01*
X102637998Y-83883500D02*
X102637998Y-83861502D01*
X101655501Y-90283001D02*
X101655501Y-84865997D01*
X102637998Y-83861502D02*
X102789970Y-83709530D01*
X111752001Y-83383499D02*
X111752001Y-84335999D01*
X111752001Y-84335999D02*
X111125000Y-84963000D01*
X111831499Y-83304001D02*
X111831499Y-81674999D01*
X111752001Y-83383499D02*
X111831499Y-83304001D01*
X111831499Y-81674999D02*
X112014000Y-81492498D01*
X112014000Y-80391000D02*
X112268000Y-80137000D01*
X112014000Y-81492498D02*
X112014000Y-80391000D01*
X110761401Y-91079699D02*
X110761401Y-91092399D01*
X111111001Y-77350999D02*
X110878999Y-77350999D01*
X111379000Y-77618998D02*
X111111001Y-77350999D01*
X111379000Y-78083002D02*
X111379000Y-77618998D01*
X109579002Y-79883000D02*
X111379000Y-78083002D01*
X110761401Y-91079699D02*
X110761401Y-90323699D01*
X109537500Y-79883000D02*
X109579002Y-79883000D01*
X110761401Y-90323699D02*
X108728529Y-88290827D01*
X108728529Y-88290827D02*
X108728529Y-85249889D01*
X108728529Y-85249889D02*
X108527010Y-85048370D01*
X108527010Y-85048370D02*
X108527010Y-80893490D01*
X110878999Y-77350999D02*
X110871000Y-77343000D01*
X108527010Y-80893490D02*
X109537500Y-79883000D01*
X110363000Y-86487000D02*
X110363000Y-86487000D01*
X110243999Y-86367999D02*
X110363000Y-86487000D01*
X111569500Y-79607002D02*
X111161501Y-80015001D01*
X111569500Y-78930500D02*
X111569500Y-79607002D01*
X111161501Y-80015001D02*
X110681499Y-80015001D01*
X110681499Y-80015001D02*
X110180499Y-80516001D01*
X110180499Y-80516001D02*
X110180499Y-86304499D01*
X110180499Y-86304499D02*
X110243999Y-86367999D01*
X108278519Y-88580819D02*
X110261400Y-90563700D01*
X108278519Y-85436289D02*
X108278519Y-88580819D01*
X108077000Y-85234768D02*
X108278519Y-85436289D01*
X110871000Y-77851000D02*
X108077000Y-80645000D01*
X108077000Y-80645000D02*
X108077000Y-85234768D01*
X107146498Y-79629000D02*
X107886500Y-79629000D01*
X107370501Y-83198999D02*
X106878499Y-82706997D01*
X107370501Y-83849997D02*
X107370501Y-83198999D01*
X106997500Y-84222998D02*
X107370501Y-83849997D01*
X106997500Y-84791678D02*
X106997500Y-84222998D01*
X106878499Y-79896999D02*
X107146498Y-79629000D01*
X105867200Y-91033600D02*
X105965779Y-90935021D01*
X105867200Y-93332300D02*
X105867200Y-91033600D01*
X106878499Y-82706997D02*
X106878499Y-79896999D01*
X107038801Y-90935021D02*
X107828509Y-90145313D01*
X107828509Y-90145313D02*
X107828510Y-85622688D01*
X105965779Y-90935021D02*
X107038801Y-90935021D01*
X107828510Y-85622688D02*
X106997500Y-84791678D01*
X107574510Y-79178990D02*
X107886500Y-78867000D01*
X106960098Y-79178990D02*
X107574510Y-79178990D01*
X106318019Y-79821069D02*
X106960098Y-79178990D01*
X106318019Y-84748607D02*
X106318019Y-79821069D01*
X107378500Y-85809088D02*
X106318019Y-84748607D01*
X106852401Y-90485011D02*
X107378500Y-89958912D01*
X102336600Y-91541600D02*
X102543616Y-91334584D01*
X102336600Y-91592400D02*
X102336600Y-91541600D01*
X107378500Y-89958912D02*
X107378500Y-85809088D01*
X102543616Y-91334584D02*
X102543616Y-91304116D01*
X102543616Y-91304116D02*
X102861532Y-90986200D01*
X102861532Y-90986200D02*
X105217510Y-90986200D01*
X105718699Y-90485011D02*
X106852401Y-90485011D01*
X105217510Y-90986200D02*
X105718699Y-90485011D01*
X101274501Y-91300411D02*
X101274501Y-92677359D01*
X105078501Y-65476499D02*
X106989501Y-67387499D01*
X105417999Y-79785997D02*
X105417999Y-88723499D01*
X103460678Y-66484500D02*
X104468679Y-65476499D01*
X100843103Y-66484500D02*
X103460678Y-66484500D01*
X100779603Y-66548000D02*
X100843103Y-66484500D01*
X104836822Y-90086180D02*
X102488732Y-90086180D01*
X100711000Y-66548000D02*
X100779603Y-66548000D01*
X106989501Y-67387499D02*
X106989501Y-73562997D01*
X106989501Y-73562997D02*
X105171009Y-75381489D01*
X105171009Y-75381489D02*
X105171009Y-79539007D01*
X105417999Y-88723499D02*
X105338501Y-88802997D01*
X105171009Y-79539007D02*
X105417999Y-79785997D01*
X104468679Y-65476499D02*
X105078501Y-65476499D01*
X105338501Y-88802997D02*
X105338501Y-89584501D01*
X105338501Y-89584501D02*
X104836822Y-90086180D01*
X102488732Y-90086180D02*
X101274501Y-91300411D01*
X102328549Y-92324351D02*
X102336600Y-92332402D01*
X100971513Y-66992500D02*
X101219000Y-66992500D01*
X100882613Y-67081400D02*
X100971513Y-66992500D01*
X100607990Y-66014600D02*
X100504398Y-66014600D01*
X100504398Y-67081400D02*
X100882613Y-67081400D01*
X107439511Y-67201099D02*
X105264902Y-65026490D01*
X107439511Y-73215500D02*
X107439511Y-67201099D01*
X107815001Y-74598501D02*
X107815001Y-73590990D01*
X100504398Y-66014600D02*
X100210999Y-66307999D01*
X107039002Y-75374500D02*
X107815001Y-74598501D01*
X106743500Y-75374500D02*
X107039002Y-75374500D01*
X106171011Y-75946989D02*
X106743500Y-75374500D01*
X105023222Y-90536190D02*
X105366552Y-90192860D01*
X101774502Y-91436820D02*
X102675132Y-90536190D01*
X102675132Y-90536190D02*
X105023222Y-90536190D01*
X102328549Y-92324351D02*
X101774502Y-91770304D01*
X101774502Y-91770304D02*
X101774502Y-91436820D01*
X105374440Y-90192860D02*
X105532299Y-90035001D01*
X105671999Y-78626999D02*
X106171011Y-78127987D01*
X105366552Y-90192860D02*
X105374440Y-90192860D01*
X105532299Y-90035001D02*
X106599961Y-90035001D01*
X106599961Y-90035001D02*
X106928490Y-89706472D01*
X100210999Y-66307999D02*
X100210999Y-66788001D01*
X107815001Y-73590990D02*
X107439511Y-73215500D01*
X106171011Y-78127987D02*
X106171011Y-75946989D01*
X100210999Y-66788001D02*
X100504398Y-67081400D01*
X106928490Y-89706472D02*
X106928490Y-85995488D01*
X106928490Y-85995488D02*
X105868009Y-84935007D01*
X105868009Y-79599597D02*
X105671999Y-79403587D01*
X105868009Y-84935007D02*
X105868009Y-79599597D01*
X105671999Y-79403587D02*
X105671999Y-78626999D01*
X100749100Y-66014600D02*
X100768990Y-66034490D01*
X100504398Y-66014600D02*
X100749100Y-66014600D01*
X104282278Y-65026490D02*
X105264902Y-65026490D01*
X103274278Y-66034490D02*
X104282278Y-65026490D01*
X100768990Y-66034490D02*
X103274278Y-66034490D01*
X100774500Y-85661500D02*
X100774500Y-85661500D01*
X99441000Y-69850000D02*
X99441000Y-69278500D01*
X99179001Y-70111999D02*
X99441000Y-69850000D01*
X98946999Y-70111999D02*
X99179001Y-70111999D01*
X98115499Y-71868001D02*
X98115499Y-71387999D01*
X99694621Y-74847479D02*
X99123500Y-74276358D01*
X99863502Y-79502000D02*
X99758500Y-79502000D01*
X100195001Y-79833499D02*
X99863502Y-79502000D01*
X100195001Y-84913499D02*
X100195001Y-79833499D01*
X100774500Y-85661500D02*
X100774500Y-85492998D01*
X99758500Y-79502000D02*
X99581509Y-79325009D01*
X100774500Y-85492998D02*
X100195001Y-84913499D01*
X99581509Y-79325009D02*
X99581509Y-76678597D01*
X98115499Y-71387999D02*
X98375499Y-71127999D01*
X99581509Y-76678597D02*
X99573510Y-76670598D01*
X99573510Y-76670598D02*
X99573510Y-75448592D01*
X98375499Y-71127999D02*
X98375499Y-70683499D01*
X99573510Y-75448592D02*
X99694621Y-75327481D01*
X99123500Y-74276358D02*
X99123500Y-72665998D01*
X99694621Y-75327481D02*
X99694621Y-74847479D01*
X99123500Y-72665998D02*
X98855501Y-72397999D01*
X98375499Y-70683499D02*
X98946999Y-70111999D01*
X98855501Y-72397999D02*
X98645497Y-72397999D01*
X98645497Y-72397999D02*
X98115499Y-71868001D01*
D23*
X106418999Y-103815499D02*
X106418999Y-103815499D01*
D21*
X106418999Y-103004001D02*
X106832210Y-102590790D01*
X106418999Y-103815499D02*
X106418999Y-103004001D01*
X94905001Y-102865912D02*
X94905001Y-96352801D01*
X94767400Y-103251000D02*
X94767400Y-103003513D01*
X94767400Y-103003513D02*
X94905001Y-102865912D01*
X95453200Y-95532802D02*
X95686501Y-95299501D01*
X94905001Y-96352801D02*
X95453200Y-95804602D01*
X95453200Y-95804602D02*
X95453200Y-95532802D01*
X95686501Y-95299501D02*
X95686501Y-91905199D01*
X95686501Y-91905199D02*
X95686501Y-91698701D01*
X95686501Y-91698701D02*
X95686501Y-91698701D01*
X99695000Y-89154000D02*
X99695000Y-89154000D01*
X113030000Y-104140000D02*
X112104999Y-103214999D01*
X112104999Y-103214999D02*
X112104999Y-93000000D01*
X112104999Y-93000000D02*
X112105000Y-93000000D01*
X112331500Y-92583000D02*
X112331500Y-92583000D01*
X112104999Y-92809501D02*
X112331500Y-92583000D01*
X112104999Y-93000000D02*
X112104999Y-92809501D01*
X99123500Y-76856998D02*
X99123500Y-75158600D01*
X99131499Y-80250001D02*
X99131499Y-76864997D01*
X99391499Y-80510001D02*
X99131499Y-80250001D01*
X99123500Y-75158600D02*
X99194620Y-75087480D01*
X99537141Y-80510001D02*
X99391499Y-80510001D01*
X99695000Y-83728998D02*
X99194999Y-83228997D01*
X99695000Y-89154000D02*
X99695000Y-83728998D01*
X99194999Y-83228997D02*
X99194999Y-82690999D01*
X99194999Y-82690999D02*
X99623501Y-82262497D01*
X99623501Y-82262497D02*
X99623501Y-80596361D01*
X99131499Y-76864997D02*
X99123500Y-76856998D01*
X99623501Y-80596361D02*
X99537141Y-80510001D01*
X99568000Y-89281000D02*
X99695000Y-89154000D01*
X99504500Y-89281000D02*
X99568000Y-89281000D01*
M02*
