%FSLAX45Y45*%
G04 Gerber Fmt 4.5, Leading zero omitted, Abs format (unit mm)*
G04 Created by KiCad (PCBNEW (5.1.2)-1) date 2019-12-23 21:45:00*
%MOMM*%
%LPD*%
G04 APERTURE LIST*
%ADD10C,0.050000*%
%ADD11C,0.200000*%
%ADD12C,0.300000*%
G04 APERTURE END LIST*
D10*
X9226550Y-10731500D02*
X9226550Y-4298950D01*
X11474450Y-10731500D02*
X9226550Y-10731500D01*
X11474450Y-4298950D02*
X11474450Y-10731500D01*
X9226550Y-4298950D02*
X11474450Y-4298950D01*
D11*
D12*
X9510478Y-11199714D02*
X9510478Y-10899714D01*
X9581907Y-10899714D01*
X9624764Y-10914000D01*
X9653336Y-10942572D01*
X9667621Y-10971143D01*
X9681907Y-11028286D01*
X9681907Y-11071143D01*
X9667621Y-11128286D01*
X9653336Y-11156857D01*
X9624764Y-11185429D01*
X9581907Y-11199714D01*
X9510478Y-11199714D01*
X9810478Y-11199714D02*
X9810478Y-10999714D01*
X9810478Y-11056857D02*
X9824764Y-11028286D01*
X9839050Y-11014000D01*
X9867621Y-10999714D01*
X9896193Y-10999714D01*
X9996193Y-11199714D02*
X9996193Y-10999714D01*
X9996193Y-10899714D02*
X9981907Y-10914000D01*
X9996193Y-10928286D01*
X10010478Y-10914000D01*
X9996193Y-10899714D01*
X9996193Y-10928286D01*
X10181907Y-11199714D02*
X10153336Y-11185429D01*
X10139050Y-11156857D01*
X10139050Y-10899714D01*
X10339050Y-11199714D02*
X10310478Y-11185429D01*
X10296193Y-11156857D01*
X10296193Y-10899714D01*
X10681907Y-11199714D02*
X10681907Y-10899714D01*
X10781907Y-11114000D01*
X10881907Y-10899714D01*
X10881907Y-11199714D01*
X11153336Y-11199714D02*
X11153336Y-11042572D01*
X11139050Y-11014000D01*
X11110478Y-10999714D01*
X11053336Y-10999714D01*
X11024764Y-11014000D01*
X11153336Y-11185429D02*
X11124764Y-11199714D01*
X11053336Y-11199714D01*
X11024764Y-11185429D01*
X11010478Y-11156857D01*
X11010478Y-11128286D01*
X11024764Y-11099714D01*
X11053336Y-11085429D01*
X11124764Y-11085429D01*
X11153336Y-11071143D01*
X11296193Y-10999714D02*
X11296193Y-11299714D01*
X11296193Y-11014000D02*
X11324764Y-10999714D01*
X11381907Y-10999714D01*
X11410478Y-11014000D01*
X11424764Y-11028286D01*
X11439050Y-11056857D01*
X11439050Y-11142572D01*
X11424764Y-11171143D01*
X11410478Y-11185429D01*
X11381907Y-11199714D01*
X11324764Y-11199714D01*
X11296193Y-11185429D01*
X11567621Y-11171143D02*
X11581907Y-11185429D01*
X11567621Y-11199714D01*
X11553336Y-11185429D01*
X11567621Y-11171143D01*
X11567621Y-11199714D01*
X11567621Y-11014000D02*
X11581907Y-11028286D01*
X11567621Y-11042572D01*
X11553336Y-11028286D01*
X11567621Y-11014000D01*
X11567621Y-11042572D01*
M02*
