G04 #@! TF.GenerationSoftware,KiCad,Pcbnew,(5.1.2)-1*
G04 #@! TF.CreationDate,2019-12-23T21:44:57-05:00*
G04 #@! TF.ProjectId,C64CPLA,43363443-504c-4412-9e6b-696361645f70,rev?*
G04 #@! TF.SameCoordinates,Original*
G04 #@! TF.FileFunction,Copper,L2,Inr*
G04 #@! TF.FilePolarity,Positive*
%FSLAX46Y46*%
G04 Gerber Fmt 4.6, Leading zero omitted, Abs format (unit mm)*
G04 Created by KiCad (PCBNEW (5.1.2)-1) date 2019-12-23 21:44:57*
%MOMM*%
%LPD*%
G04 APERTURE LIST*
%ADD10R,1.700000X1.700000*%
%ADD11O,1.700000X1.700000*%
%ADD12C,1.200000*%
%ADD13C,0.100000*%
%ADD14C,0.350000*%
%ADD15C,0.500000*%
%ADD16C,0.800000*%
%ADD17C,1.000000*%
%ADD18C,0.250000*%
G04 APERTURE END LIST*
D10*
X96583500Y-50673000D03*
D11*
X99123500Y-50673000D03*
X96583500Y-53213000D03*
X99123500Y-53213000D03*
X99123500Y-55753000D03*
X99123500Y-58293000D03*
D12*
X113030000Y-50800000D03*
D13*
G36*
X94309405Y-50201445D02*
G01*
X94338527Y-50205764D01*
X94367085Y-50212918D01*
X94394805Y-50222836D01*
X94421419Y-50235424D01*
X94446671Y-50250559D01*
X94470318Y-50268097D01*
X94492132Y-50287868D01*
X94511903Y-50309682D01*
X94529441Y-50333329D01*
X94544576Y-50358581D01*
X94557164Y-50385195D01*
X94567082Y-50412915D01*
X94574236Y-50441473D01*
X94578555Y-50470595D01*
X94580000Y-50500000D01*
X94580000Y-51100000D01*
X94578555Y-51129405D01*
X94574236Y-51158527D01*
X94567082Y-51187085D01*
X94557164Y-51214805D01*
X94544576Y-51241419D01*
X94529441Y-51266671D01*
X94511903Y-51290318D01*
X94492132Y-51312132D01*
X94470318Y-51331903D01*
X94446671Y-51349441D01*
X94421419Y-51364576D01*
X94394805Y-51377164D01*
X94367085Y-51387082D01*
X94338527Y-51394236D01*
X94309405Y-51398555D01*
X94280000Y-51400000D01*
X93680000Y-51400000D01*
X93650595Y-51398555D01*
X93621473Y-51394236D01*
X93592915Y-51387082D01*
X93565195Y-51377164D01*
X93538581Y-51364576D01*
X93513329Y-51349441D01*
X93489682Y-51331903D01*
X93467868Y-51312132D01*
X93448097Y-51290318D01*
X93430559Y-51266671D01*
X93415424Y-51241419D01*
X93402836Y-51214805D01*
X93392918Y-51187085D01*
X93385764Y-51158527D01*
X93381445Y-51129405D01*
X93380000Y-51100000D01*
X93380000Y-50500000D01*
X93381445Y-50470595D01*
X93385764Y-50441473D01*
X93392918Y-50412915D01*
X93402836Y-50385195D01*
X93415424Y-50358581D01*
X93430559Y-50333329D01*
X93448097Y-50309682D01*
X93467868Y-50287868D01*
X93489682Y-50268097D01*
X93513329Y-50250559D01*
X93538581Y-50235424D01*
X93565195Y-50222836D01*
X93592915Y-50212918D01*
X93621473Y-50205764D01*
X93650595Y-50201445D01*
X93680000Y-50200000D01*
X94280000Y-50200000D01*
X94309405Y-50201445D01*
X94309405Y-50201445D01*
G37*
D12*
X93980000Y-50800000D03*
X113030000Y-52578000D03*
X93980000Y-52578000D03*
X113030000Y-54356000D03*
X93980000Y-54356000D03*
X113030000Y-56134000D03*
X93980000Y-56134000D03*
X113030000Y-57912000D03*
X93980000Y-57912000D03*
X113030000Y-59690000D03*
X93980000Y-59690000D03*
X113030000Y-61468000D03*
X93980000Y-61468000D03*
X113030000Y-63246000D03*
X93980000Y-63246000D03*
X113030000Y-65024000D03*
X93980000Y-65024000D03*
X113030000Y-66802000D03*
X93980000Y-66802000D03*
X113030000Y-68580000D03*
X93980000Y-68580000D03*
X113030000Y-70358000D03*
X93980000Y-70358000D03*
X113030000Y-72136000D03*
X93980000Y-72136000D03*
X113030000Y-73914000D03*
X93980000Y-73914000D03*
X113030000Y-75692000D03*
X93980000Y-75692000D03*
X113030000Y-77470000D03*
X93980000Y-77470000D03*
X113030000Y-79248000D03*
X93980000Y-79248000D03*
X113030000Y-81026000D03*
X93980000Y-81026000D03*
X113030000Y-82804000D03*
X93980000Y-82804000D03*
X113030000Y-84582000D03*
X93980000Y-84582000D03*
X113030000Y-86360000D03*
X93980000Y-86360000D03*
X113030000Y-88138000D03*
X93980000Y-88138000D03*
X113030000Y-89916000D03*
X93980000Y-89916000D03*
X113030000Y-91694000D03*
X93980000Y-91694000D03*
X113030000Y-93472000D03*
X93980000Y-93472000D03*
X113030000Y-95250000D03*
X93980000Y-95250000D03*
X113030000Y-97028000D03*
X93980000Y-97028000D03*
X113030000Y-98806000D03*
X93980000Y-98806000D03*
X113030000Y-100584000D03*
X93980000Y-100584000D03*
X113030000Y-102362000D03*
X93980000Y-102362000D03*
X113030000Y-104140000D03*
X93980000Y-104140000D03*
X113030000Y-105918000D03*
X93980000Y-105918000D03*
D14*
X110299500Y-99441000D03*
X102235000Y-99885500D03*
X111379000Y-76200000D03*
X100330000Y-98298000D03*
X101854000Y-72898000D03*
X103505000Y-59436000D03*
X96266000Y-72834500D03*
X103505000Y-57340500D03*
X102732840Y-77543660D03*
X110553500Y-101092000D03*
X113792000Y-43766500D03*
D15*
X102997000Y-43830000D03*
X102933500Y-62674500D03*
D14*
X105981500Y-56769000D03*
X94899480Y-48008540D03*
X105633520Y-47922180D03*
X110744000Y-69088000D03*
X96329500Y-70675500D03*
X107569000Y-98869500D03*
X100330000Y-99949000D03*
X103759000Y-106426000D03*
X96837500Y-106616500D03*
X104711500Y-92265500D03*
X101663500Y-99314000D03*
X111061500Y-73850500D03*
X100330000Y-90868500D03*
X97282000Y-68453000D03*
X110871000Y-53213000D03*
X108966000Y-52070000D03*
X107823000Y-52197000D03*
X101155500Y-86868000D03*
X98552000Y-81915000D03*
X106490000Y-61721500D03*
X107590000Y-59034000D03*
X107315000Y-74358500D03*
X105671010Y-77843990D03*
X104644190Y-70610730D03*
D16*
X105092500Y-52451000D03*
X101155500Y-52451000D03*
D14*
X111506000Y-80454500D03*
X104711500Y-58356500D03*
X113432040Y-45765000D03*
X102537260Y-45847000D03*
X107442000Y-105092500D03*
D15*
X100882250Y-82188250D03*
X102108000Y-50673000D03*
X102108000Y-53657500D03*
X102108000Y-64833500D03*
X98171000Y-89916000D03*
D14*
X101536500Y-77343000D03*
X98298000Y-88773000D03*
X96202500Y-74739500D03*
X101536500Y-77851000D03*
X96393000Y-55753000D03*
X101663500Y-78359000D03*
X95440500Y-58864500D03*
X104711500Y-64516000D03*
X108045250Y-57562750D03*
X94903500Y-45507700D03*
X107124500Y-45466000D03*
X93054999Y-44604499D03*
X109474000Y-63627000D03*
X98996500Y-64770000D03*
X96266000Y-47180500D03*
X95186500Y-95059500D03*
X95440500Y-85979000D03*
X99441000Y-97282000D03*
X111093250Y-97821750D03*
X111093250Y-102520750D03*
X112395000Y-48577500D03*
X107632500Y-48577500D03*
X102743000Y-46990000D03*
X110236000Y-47752000D03*
X107886500Y-61785500D03*
X109474000Y-46863000D03*
X101409500Y-46489999D03*
X98593000Y-66443500D03*
X100330000Y-49657000D03*
X110236000Y-46863000D03*
X111252000Y-82804000D03*
X104635300Y-97790000D03*
X102755700Y-102514400D03*
X112141000Y-49085500D03*
X108140500Y-49085500D03*
X97625500Y-103949500D03*
X96456500Y-82486500D03*
X98298000Y-49339500D03*
X104330500Y-46101000D03*
X96583500Y-43878500D03*
X104584500Y-45085000D03*
X97453500Y-102171500D03*
X95885000Y-82867500D03*
X104203500Y-44450000D03*
X95405002Y-49177002D03*
X99631500Y-80010000D03*
X104902000Y-85725000D03*
X104902000Y-80010000D03*
X99187000Y-70612000D03*
X92554998Y-43850498D03*
X104612502Y-43850498D03*
X106680000Y-77343000D03*
X105918000Y-85725000D03*
X106680000Y-77843001D03*
X101981000Y-68389500D03*
X104648000Y-77533500D03*
X102362000Y-72136000D03*
X102362000Y-74993500D03*
X94996000Y-77914500D03*
X96964500Y-77533500D03*
X99123500Y-81534000D03*
X96520000Y-95250000D03*
X96520000Y-83947000D03*
X99173000Y-83947000D03*
X101028500Y-83947000D03*
X101028500Y-84963000D03*
X100203000Y-85661500D03*
X98940999Y-103144699D03*
X109643801Y-103144699D03*
X100393500Y-55118000D03*
X102362000Y-89154000D03*
X100774500Y-70294500D03*
X95885000Y-69659500D03*
X95885000Y-64833500D03*
X104648000Y-89535000D03*
X104838500Y-65976500D03*
X105854500Y-104457500D03*
X98044000Y-65341500D03*
X104838500Y-89027000D03*
X104838500Y-66548000D03*
X105346500Y-101155500D03*
X97472500Y-65849500D03*
X104711500Y-86487000D03*
X104838500Y-67119500D03*
X109388000Y-105115000D03*
X109494320Y-96774000D03*
X96901000Y-66548000D03*
X110680500Y-84455000D03*
X95440500Y-59690000D03*
X110331250Y-87979250D03*
X95726250Y-87979250D03*
X107378500Y-80137000D03*
X95440500Y-80200500D03*
X94905001Y-57939499D03*
X110921500Y-79515000D03*
X111594900Y-102362000D03*
X100971350Y-97783650D03*
X95636510Y-101657990D03*
X105219500Y-101854000D03*
X111569500Y-97282000D03*
X105918000Y-68135500D03*
X101473000Y-70421500D03*
X98417001Y-76919199D03*
X94678500Y-92583000D03*
X99192459Y-71178041D03*
X109664500Y-57785000D03*
X108331000Y-58991500D03*
X105029000Y-68643500D03*
X101473000Y-71310500D03*
X100774500Y-93281500D03*
X102298500Y-84963000D03*
X105537000Y-69342000D03*
X102108000Y-69405500D03*
X107505500Y-84455000D03*
X110340000Y-74318000D03*
X109791500Y-74358500D03*
X106870500Y-83439000D03*
X104860090Y-74697590D03*
X112268000Y-76581000D03*
X112268000Y-80137000D03*
X111125000Y-84963000D03*
X109093000Y-105727500D03*
X107505500Y-81026000D03*
X109220000Y-74358500D03*
X105410000Y-74295000D03*
X103255701Y-102611299D03*
X100203000Y-93281500D03*
X110761401Y-91079699D03*
X110871000Y-77343000D03*
X106680000Y-74612500D03*
X103251000Y-104965500D03*
X104648000Y-78549500D03*
X107942500Y-77350500D03*
X111569500Y-78930500D03*
X110363000Y-86487000D03*
X110248700Y-96761300D03*
X107886500Y-96774000D03*
X107632500Y-103822500D03*
X110871000Y-77851000D03*
X99695000Y-92925900D03*
X110261400Y-90563700D03*
X105867200Y-93332300D03*
X107886500Y-79629000D03*
X102336600Y-91592400D03*
X101930200Y-93306900D03*
X107886500Y-78867000D03*
X100711000Y-66548000D03*
X101274501Y-92677359D03*
X100901500Y-55626000D03*
X101219000Y-66992500D03*
X102328549Y-92324351D03*
X101409500Y-56134000D03*
X98615500Y-72898000D03*
X98615500Y-71628000D03*
X102235000Y-78994000D03*
X97917000Y-74358500D03*
X97917000Y-76390500D03*
X97282000Y-74358500D03*
X99695000Y-82931000D03*
X112331500Y-81915000D03*
X99441000Y-69278500D03*
X100774500Y-85661500D03*
X100774500Y-89154000D03*
X109664500Y-106616500D03*
X105854500Y-89027000D03*
X103281990Y-106964990D03*
X106418999Y-103815499D03*
X106359960Y-89535000D03*
X106832210Y-102590790D03*
X94767400Y-103251000D03*
X95686501Y-91698701D03*
X100711000Y-69278500D03*
X106489500Y-67627500D03*
X106934000Y-91630500D03*
X108585000Y-93726000D03*
X110236000Y-94234000D03*
X109220000Y-94742000D03*
X106489500Y-64198500D03*
X108465999Y-49674401D03*
X113955001Y-49620999D03*
X108641000Y-104465000D03*
X108376720Y-95758000D03*
X106172000Y-78867000D03*
X105346500Y-100584000D03*
X97345500Y-92075000D03*
X96012000Y-97028000D03*
X109748699Y-96223199D03*
X105727500Y-105727500D03*
X106326511Y-96771889D03*
X112331500Y-92583000D03*
X99194620Y-75087480D03*
X99504500Y-89281000D03*
D17*
X110760001Y-73442999D02*
X111114501Y-73797499D01*
X107555001Y-74245499D02*
X108357501Y-73442999D01*
X107555001Y-75032501D02*
X107555001Y-74245499D01*
X105671010Y-76916492D02*
X107555001Y-75032501D01*
X105671010Y-77843990D02*
X105671010Y-76916492D01*
X108357501Y-63589001D02*
X106490000Y-61721500D01*
X108357501Y-72617499D02*
X109183001Y-73442999D01*
X108357501Y-72162501D02*
X108357501Y-72617499D01*
X109183001Y-73442999D02*
X110760001Y-73442999D01*
X108357501Y-73442999D02*
X109183001Y-73442999D01*
X108357501Y-72162501D02*
X108357501Y-63589001D01*
X108357501Y-73442999D02*
X108357501Y-72162501D01*
X106490000Y-60135000D02*
X104711500Y-58356500D01*
X106490000Y-61721500D02*
X106490000Y-60135000D01*
D18*
X96393000Y-55753000D02*
X99123500Y-55753000D01*
X98552000Y-58864500D02*
X99123500Y-58293000D01*
X95440500Y-58864500D02*
X98552000Y-58864500D01*
X104711500Y-64516000D02*
X104711500Y-64516000D01*
X95078499Y-45332701D02*
X94903500Y-45507700D01*
X102762963Y-45332701D02*
X95078499Y-45332701D01*
X103015263Y-45585001D02*
X102762963Y-45332701D01*
X104824501Y-45585001D02*
X103015263Y-45585001D01*
X104943502Y-45466000D02*
X104824501Y-45585001D01*
X107124500Y-45466000D02*
X104943502Y-45466000D01*
X101727000Y-65468500D02*
X103759000Y-65468500D01*
X101717411Y-65478089D02*
X101727000Y-65468500D01*
X100501322Y-64262000D02*
X101717411Y-65478089D01*
X100493323Y-64269999D02*
X100501322Y-64262000D01*
X94905001Y-64171001D02*
X94905001Y-64869501D01*
X93980000Y-63246000D02*
X94905001Y-64171001D01*
X103759000Y-65468500D02*
X104711500Y-64516000D01*
X94905001Y-64869501D02*
X95377000Y-65341500D01*
X95377000Y-65341500D02*
X97218500Y-65341500D01*
X97218500Y-65341500D02*
X98290001Y-64269999D01*
X98290001Y-64269999D02*
X100493323Y-64269999D01*
X99441000Y-97282000D02*
X110553500Y-97282000D01*
X110553500Y-97282000D02*
X111093250Y-97821750D01*
X107632500Y-48577500D02*
X112395000Y-48577500D01*
X110061001Y-47577001D02*
X110236000Y-47752000D01*
X109906179Y-47422179D02*
X110061001Y-47577001D01*
X103175179Y-47422179D02*
X109906179Y-47422179D01*
X102743000Y-46990000D02*
X103175179Y-47422179D01*
X109474000Y-46863000D02*
X103632000Y-46863000D01*
X103258999Y-46489999D02*
X101409500Y-46489999D01*
X103632000Y-46863000D02*
X103258999Y-46489999D01*
X101409500Y-46489999D02*
X101409500Y-46489999D01*
X111736249Y-98321751D02*
X110882051Y-98321751D01*
X113030000Y-97028000D02*
X111736249Y-98321751D01*
X110882051Y-98321751D02*
X110426500Y-97866200D01*
X110426500Y-97866200D02*
X110350300Y-97790000D01*
X110350300Y-97790000D02*
X104635300Y-97790000D01*
X108140500Y-49085500D02*
X112141000Y-49085500D01*
X104584500Y-45085000D02*
X104584500Y-45085000D01*
X104534509Y-45134991D02*
X104584500Y-45085000D01*
X103201663Y-45134991D02*
X104534509Y-45134991D01*
X102921683Y-44855011D02*
X103201663Y-45134991D01*
X102534599Y-44855011D02*
X102921683Y-44855011D01*
X96583500Y-43878500D02*
X101558088Y-43878500D01*
X101558088Y-43878500D02*
X102534599Y-44855011D01*
X99631500Y-80010000D02*
X104902000Y-80010000D01*
X99187000Y-70612000D02*
X99187000Y-70612000D01*
X99120960Y-70678040D02*
X99187000Y-70612000D01*
X94905001Y-67727001D02*
X94905001Y-70646591D01*
X93980000Y-66802000D02*
X94905001Y-67727001D01*
X94905001Y-70646591D02*
X95436400Y-71177990D01*
X95436400Y-71177990D02*
X98298000Y-71177990D01*
X98298000Y-71177990D02*
X98797950Y-70678040D01*
X98797950Y-70678040D02*
X99120960Y-70678040D01*
X104612502Y-43850498D02*
X104612502Y-43850498D01*
X103827504Y-43850498D02*
X104612502Y-43850498D01*
X92554998Y-43603011D02*
X92818499Y-43339510D01*
X92554998Y-43850498D02*
X92554998Y-43603011D01*
X92818499Y-43339510D02*
X101655508Y-43339510D01*
X101655508Y-43339510D02*
X102720999Y-44405001D01*
X102720999Y-44405001D02*
X103273001Y-44405001D01*
X103273001Y-44405001D02*
X103827504Y-43850498D01*
X112181472Y-75692000D02*
X113030000Y-75692000D01*
X106680000Y-77343000D02*
X108331000Y-75692000D01*
X108331000Y-75692000D02*
X112181472Y-75692000D01*
X112181472Y-86360000D02*
X111546472Y-85725000D01*
X113030000Y-86360000D02*
X112181472Y-86360000D01*
X111546472Y-85725000D02*
X105918000Y-85725000D01*
X105918000Y-85725000D02*
X105918000Y-85725000D01*
X93980000Y-72136000D02*
X94828528Y-72136000D01*
X94828528Y-72136000D02*
X102362000Y-72136000D01*
X102362000Y-72136000D02*
X102362000Y-72136000D01*
X94996000Y-77914500D02*
X95243487Y-77914500D01*
X95243487Y-77914500D02*
X96583500Y-77914500D01*
X96583500Y-77914500D02*
X96964500Y-77533500D01*
X108245502Y-81026000D02*
X107737502Y-81534000D01*
X113030000Y-81026000D02*
X108245502Y-81026000D01*
X107737502Y-81534000D02*
X99250500Y-81534000D01*
X99314000Y-81534000D02*
X99314000Y-81534000D01*
X99250500Y-81534000D02*
X99123500Y-81534000D01*
X99123500Y-81534000D02*
X99123500Y-81534000D01*
X113030000Y-95250000D02*
X96520000Y-95250000D01*
X96520000Y-95250000D02*
X96520000Y-95250000D01*
X111887000Y-83947000D02*
X113030000Y-82804000D01*
X101028500Y-83947000D02*
X111887000Y-83947000D01*
X113030000Y-52578000D02*
X110490000Y-55118000D01*
X110490000Y-55118000D02*
X100393500Y-55118000D01*
X98940999Y-103144699D02*
X109643801Y-103144699D01*
X99454999Y-69794499D02*
X99405008Y-69844490D01*
X100774500Y-70294500D02*
X100274499Y-69794499D01*
X100274499Y-69794499D02*
X99454999Y-69794499D01*
X99405008Y-69844490D02*
X97658900Y-69844490D01*
X97658900Y-69844490D02*
X96069990Y-69844490D01*
X96069990Y-69844490D02*
X95885000Y-69659500D01*
X95885000Y-69659500D02*
X95885000Y-69659500D01*
X95637513Y-63754000D02*
X95129513Y-63246000D01*
X95129513Y-62617513D02*
X93980000Y-61468000D01*
X95129513Y-63246000D02*
X95129513Y-62617513D01*
X95637513Y-64586013D02*
X95885000Y-64833500D01*
X95637513Y-63754000D02*
X95637513Y-64586013D01*
X104838500Y-65976500D02*
X101600000Y-65976500D01*
X101515912Y-65913000D02*
X100944412Y-65341500D01*
X101600000Y-65976500D02*
X101536500Y-65913000D01*
X101536500Y-65913000D02*
X101515912Y-65913000D01*
X100944412Y-65341500D02*
X98298000Y-65341500D01*
X98298000Y-65341500D02*
X98234500Y-65341500D01*
X98234500Y-65341500D02*
X98044000Y-65341500D01*
X98044000Y-65341500D02*
X98044000Y-65341500D01*
X101514502Y-66548000D02*
X100816002Y-65849500D01*
X104838500Y-66548000D02*
X101514502Y-66548000D01*
X100816002Y-65849500D02*
X97790000Y-65849500D01*
X97790000Y-65849500D02*
X97790000Y-65849500D01*
X97790000Y-65849500D02*
X97472500Y-65849500D01*
X96901000Y-66611500D02*
X96901000Y-66548000D01*
X97853500Y-67564000D02*
X96901000Y-66611500D01*
X102066498Y-67564000D02*
X97853500Y-67564000D01*
X104838500Y-67119500D02*
X102510998Y-67119500D01*
X102510998Y-67119500D02*
X102066498Y-67564000D01*
X93987999Y-59697999D02*
X93980000Y-59690000D01*
X95440500Y-59690000D02*
X93980000Y-59690000D01*
X110331250Y-87979250D02*
X95980250Y-87979250D01*
X95980250Y-87979250D02*
X95726250Y-87979250D01*
X107378500Y-80137000D02*
X106939510Y-80575990D01*
X106939510Y-80575990D02*
X100838000Y-80575990D01*
X100838000Y-80575990D02*
X96075500Y-80575990D01*
X96075500Y-80575990D02*
X95815990Y-80575990D01*
X95815990Y-80575990D02*
X95440500Y-80200500D01*
X95440500Y-80200500D02*
X95440500Y-80200500D01*
X94007499Y-57939499D02*
X93980000Y-57912000D01*
X94905001Y-57939499D02*
X94007499Y-57939499D01*
X100971350Y-97783650D02*
X97275650Y-97783650D01*
X97275650Y-97783650D02*
X96719670Y-97783650D01*
X95959520Y-98543800D02*
X95959519Y-99468303D01*
X96719670Y-97783650D02*
X95959520Y-98543800D01*
X95959519Y-99468303D02*
X95636510Y-99791312D01*
X95636510Y-99791312D02*
X95636510Y-101657990D01*
X111594900Y-102114513D02*
X111334387Y-101854000D01*
X111594900Y-102362000D02*
X111594900Y-102114513D01*
X111334387Y-101854000D02*
X105219500Y-101854000D01*
X105219500Y-101854000D02*
X105219500Y-101854000D01*
X111594900Y-102120700D02*
X111836200Y-102362000D01*
X111594900Y-102114513D02*
X111594900Y-102120700D01*
X111594900Y-102362000D02*
X111836200Y-102362000D01*
X111836200Y-102362000D02*
X113030000Y-102362000D01*
X104195577Y-68199000D02*
X104201086Y-68193491D01*
X104209009Y-68193491D02*
X104267000Y-68135500D01*
X104267000Y-68135500D02*
X105918000Y-68135500D01*
X105918000Y-68135500D02*
X105918000Y-68135500D01*
X104201086Y-68193491D02*
X104209009Y-68193491D01*
X101973077Y-70421500D02*
X104201086Y-68193491D01*
X101473000Y-70421500D02*
X101973077Y-70421500D01*
X101473000Y-70421500D02*
X101099999Y-70794501D01*
X99439946Y-71178041D02*
X99445405Y-71183500D01*
X99192459Y-71178041D02*
X99439946Y-71178041D01*
X100711000Y-71183500D02*
X101099999Y-70794501D01*
X99445405Y-71183500D02*
X100711000Y-71183500D01*
X108458000Y-58991500D02*
X109664500Y-57785000D01*
X108331000Y-58991500D02*
X108458000Y-58991500D01*
X104387487Y-68643500D02*
X105029000Y-68643500D01*
X105029000Y-68643500D02*
X105029000Y-68643500D01*
X101720487Y-71310500D02*
X104387487Y-68643500D01*
X101473000Y-71310500D02*
X101720487Y-71310500D01*
X93980000Y-86360000D02*
X94828528Y-86360000D01*
X94828528Y-86360000D02*
X95463528Y-86995000D01*
X101395501Y-87368001D02*
X102298500Y-86465002D01*
X95463528Y-86995000D02*
X95836529Y-87368001D01*
X95836529Y-87368001D02*
X101395501Y-87368001D01*
X102298500Y-86465002D02*
X102298500Y-84963000D01*
X102298500Y-84963000D02*
X102298500Y-84963000D01*
X93980000Y-84455000D02*
X94828528Y-84455000D01*
X94828528Y-84455000D02*
X107505500Y-84455000D01*
X107505500Y-84455000D02*
X107505500Y-84455000D01*
X106426000Y-83439000D02*
X106870500Y-83439000D01*
X93980000Y-82804000D02*
X94615000Y-83439000D01*
X94615000Y-83439000D02*
X106426000Y-83439000D01*
X93980000Y-81026000D02*
X94828528Y-81026000D01*
X94828528Y-81026000D02*
X107505500Y-81026000D01*
X107505500Y-81026000D02*
X107505500Y-81026000D01*
X100203000Y-93281500D02*
X100203000Y-93034013D01*
X100203000Y-93034013D02*
X101471514Y-91765499D01*
X102096599Y-91092399D02*
X110332899Y-91092399D01*
X101836599Y-91352399D02*
X102096599Y-91092399D01*
X101836599Y-91508201D02*
X101836599Y-91352399D01*
X101471514Y-91765499D02*
X101579301Y-91765499D01*
X101579301Y-91765499D02*
X101836599Y-91508201D01*
X110345599Y-91079699D02*
X110761401Y-91079699D01*
X110332899Y-91092399D02*
X110345599Y-91079699D01*
X99695000Y-92857588D02*
X101988888Y-90563700D01*
X99695000Y-92925900D02*
X99695000Y-92857588D01*
X101988888Y-90563700D02*
X110261400Y-90563700D01*
X112331500Y-55054500D02*
X111760000Y-55626000D01*
X113030000Y-54356000D02*
X112331500Y-55054500D01*
X111760000Y-55626000D02*
X100901500Y-55626000D01*
X113030000Y-56134000D02*
X112181472Y-56134000D01*
X112181472Y-56134000D02*
X101409500Y-56134000D01*
X95250000Y-71628000D02*
X93980000Y-70358000D01*
X98615500Y-71628000D02*
X95250000Y-71628000D01*
X94828528Y-75692000D02*
X93980000Y-75692000D01*
X97958502Y-75692000D02*
X94828528Y-75692000D01*
X102235000Y-78994000D02*
X100077410Y-78994000D01*
X100077410Y-78994000D02*
X98917002Y-77833592D01*
X98917002Y-77833592D02*
X98917002Y-76692002D01*
X98917002Y-76692002D02*
X98417001Y-76192001D01*
X98417001Y-76192001D02*
X98417001Y-76150499D01*
X98417001Y-76150499D02*
X97958502Y-75692000D01*
X97917000Y-76390500D02*
X97917000Y-76390500D01*
X112522000Y-78041500D02*
X113030000Y-77533500D01*
X112204500Y-78359000D02*
X112522000Y-78041500D01*
X107654498Y-78359000D02*
X112204500Y-78359000D01*
X107386499Y-78859001D02*
X107386499Y-78626999D01*
X97917000Y-77470000D02*
X100006990Y-79559990D01*
X97917000Y-76390500D02*
X97917000Y-77470000D01*
X100006990Y-79559990D02*
X104394000Y-79559990D01*
X107386499Y-78626999D02*
X107654498Y-78359000D01*
X104394000Y-79559990D02*
X104443991Y-79509999D01*
X104443991Y-79509999D02*
X106735501Y-79509999D01*
X106735501Y-79509999D02*
X107386499Y-78859001D01*
X112156501Y-82089999D02*
X112331500Y-81915000D01*
X99695000Y-82931000D02*
X107102502Y-82931000D01*
X107102502Y-82931000D02*
X107610502Y-83439000D01*
X107610502Y-83439000D02*
X111696500Y-83439000D01*
X111696500Y-83439000D02*
X112104999Y-83030501D01*
X112104999Y-83030501D02*
X112104999Y-82141501D01*
X112104999Y-82141501D02*
X112156501Y-82089999D01*
X113030000Y-88138000D02*
X112649000Y-88138000D01*
X112649000Y-88138000D02*
X112268000Y-88519000D01*
X112268000Y-88519000D02*
X101536500Y-88519000D01*
X101536500Y-88519000D02*
X101409500Y-88519000D01*
X101409500Y-88519000D02*
X100774500Y-89154000D01*
X100774500Y-89154000D02*
X100774500Y-89154000D01*
X112141000Y-89027000D02*
X113030000Y-89916000D01*
X105854500Y-89027000D02*
X112141000Y-89027000D01*
X109316010Y-106964990D02*
X109664500Y-106616500D01*
X103281990Y-106964990D02*
X109316010Y-106964990D01*
X111887000Y-90551000D02*
X113030000Y-91694000D01*
X111887000Y-89916000D02*
X111887000Y-90551000D01*
X111506000Y-89535000D02*
X111887000Y-89916000D01*
X106359960Y-89535000D02*
X111506000Y-89535000D01*
X95681800Y-91694000D02*
X95686501Y-91698701D01*
X93980000Y-91694000D02*
X95681800Y-91694000D01*
X102868666Y-68889501D02*
X104130667Y-67627500D01*
X101883997Y-68889501D02*
X102868666Y-68889501D01*
X100711000Y-69278500D02*
X101494998Y-69278500D01*
X101494998Y-69278500D02*
X101883997Y-68889501D01*
X104130667Y-67627500D02*
X106489500Y-67627500D01*
X109071002Y-93472000D02*
X108817002Y-93218000D01*
X113030000Y-93472000D02*
X109071002Y-93472000D01*
X108817002Y-93218000D02*
X108775500Y-93218000D01*
X108775500Y-93218000D02*
X107442000Y-91884500D01*
X107442000Y-91884500D02*
X107251500Y-91694000D01*
X107251500Y-91694000D02*
X107188000Y-91630500D01*
X107188000Y-91630500D02*
X106934000Y-91630500D01*
X95198508Y-93841980D02*
X95893200Y-93841980D01*
X93980000Y-93472000D02*
X94828528Y-93472000D01*
X94828528Y-93472000D02*
X95198508Y-93841980D01*
X95893200Y-93841980D02*
X104711500Y-93841980D01*
X104711500Y-93841980D02*
X108469020Y-93841980D01*
X108469020Y-93841980D02*
X108585000Y-93726000D01*
X108585000Y-93726000D02*
X108585000Y-93726000D01*
X94938010Y-94291990D02*
X96079600Y-94291990D01*
X93980000Y-95250000D02*
X94938010Y-94291990D01*
X96079600Y-94291990D02*
X104711500Y-94291990D01*
X108930008Y-94291990D02*
X108987998Y-94234000D01*
X104711500Y-94291990D02*
X108930008Y-94291990D01*
X108987998Y-94234000D02*
X110236000Y-94234000D01*
X93980000Y-97028000D02*
X96266000Y-94742000D01*
X96266000Y-94742000D02*
X104711500Y-94742000D01*
X104711500Y-94742000D02*
X108013500Y-94742000D01*
X108013500Y-94742000D02*
X109220000Y-94742000D01*
X109220000Y-94742000D02*
X109220000Y-94742000D01*
X113955001Y-49620999D02*
X108902500Y-49620999D01*
X108849098Y-49674401D02*
X108465999Y-49674401D01*
X108902500Y-49620999D02*
X108849098Y-49674401D01*
X94579999Y-98206001D02*
X93980000Y-98806000D01*
X94579999Y-97930003D02*
X94579999Y-98206001D01*
X107950000Y-95758000D02*
X95886410Y-95758000D01*
X95886410Y-95758000D02*
X94932500Y-96711910D01*
X94932500Y-96711910D02*
X94932500Y-97218500D01*
X94932500Y-97218500D02*
X94905001Y-97245999D01*
X94905001Y-97245999D02*
X94905001Y-97605001D01*
X94905001Y-97605001D02*
X94579999Y-97930003D01*
X107950000Y-95758000D02*
X108140500Y-95758000D01*
X108140500Y-95758000D02*
X108376720Y-95758000D01*
X105346500Y-100584000D02*
X113030000Y-100584000D01*
X94579999Y-99984001D02*
X93980000Y-100584000D01*
X94579999Y-99575003D02*
X94579999Y-99984001D01*
X108394500Y-96266000D02*
X96774000Y-96266000D01*
X96774000Y-96266000D02*
X96774000Y-96266000D01*
X95355011Y-97684989D02*
X95355011Y-97875489D01*
X95355011Y-97875489D02*
X95059500Y-98171000D01*
X95059500Y-98171000D02*
X95059500Y-99095502D01*
X95059500Y-99095502D02*
X94579999Y-99575003D01*
X96774000Y-96266000D02*
X96012000Y-97028000D01*
X96012000Y-97028000D02*
X95355011Y-97684989D01*
X108903799Y-96223199D02*
X109748699Y-96223199D01*
X108394500Y-96266000D02*
X108860998Y-96266000D01*
X108860998Y-96266000D02*
X108903799Y-96223199D01*
X109748699Y-96223199D02*
X109748699Y-96223199D01*
X93980000Y-102362000D02*
X95186500Y-101155500D01*
X95186500Y-99604912D02*
X95509510Y-99281902D01*
X95186500Y-101155500D02*
X95186500Y-99604912D01*
X95509510Y-99281902D02*
X95509510Y-98357400D01*
X95509510Y-98357400D02*
X97092910Y-96774000D01*
X97092910Y-96774000D02*
X98107500Y-96774000D01*
X98107500Y-96774000D02*
X104711500Y-96774000D01*
X104711500Y-96774000D02*
X104775000Y-96774000D01*
X104713611Y-96771889D02*
X106326511Y-96771889D01*
X104711500Y-96774000D02*
X104713611Y-96771889D01*
X99504500Y-89281000D02*
X99504500Y-89281000D01*
X112104999Y-92356499D02*
X112331500Y-92583000D01*
X112104999Y-91784999D02*
X112104999Y-92356499D01*
X100161498Y-89281000D02*
X100923498Y-90043000D01*
X99504500Y-89281000D02*
X100161498Y-89281000D01*
X100923498Y-90043000D02*
X110617000Y-90043000D01*
X110617000Y-90043000D02*
X112014000Y-91440000D01*
X112014000Y-91440000D02*
X112014000Y-91694000D01*
X112014000Y-91694000D02*
X112104999Y-91784999D01*
M02*
